M48
;Layer_Color=9474304
;FILE_FORMAT=2:5
INCH,LZ
;TYPE=PLATED
T1F00S00C0.02756
T2F00S00C0.03100
T3F00S00C0.03150
T4F00S00C0.03200
T5F00S00C0.03400
T6F00S00C0.03500
T7F00S00C0.03900
T8F00S00C0.03937
T9F00S00C0.04000
T10F00S00C0.04331
T11F00S00C0.04500
T12F00S00C0.04724
T13F00S00C0.04725
T14F00S00C0.07500
T15F00S00C0.07874
%
T01
X0057205Y0031102
X0067205
T02
X0100331Y0096693
Y0106693
X0070331
Y0096693
T03
X0408268Y0025197
X0418268
X0429134Y0047874
Y0057874
X0400551Y0058075
Y0048075
X0480685Y0038783
X0490685
X0500685
X0510685
X0520685
X0530685
X0398268Y0025197
X0372047Y0038661
Y0048661
Y0058661
X010622Y0023622
X009622
X0091417Y0133071
X0061417
X0051181Y0120472
X0041181
X0031181
X0029055Y0095669
X001811Y008059
Y0070591
X0059055Y0095669
X0077165Y0085433
Y0055433
X008748Y004252
X0086221Y0023622
X005748Y004252
X0033071Y0151969
Y0171653
X0031102Y0205118
X0041102
X0021102
X0107087Y0200787
X0137087
X0204724Y0292913
X0244409
X0294567
X0304724
X0344409
X0354724
X0394567
X0445354Y0293307
X0454724Y0292913
X0495669Y0292913
Y0322913
X0454724Y0322913
X0445354Y0323307
X0394567Y0322913
X0354724
X0344409
X0304724
X0294567
X0244409
X0204724
T04
X0088106Y0063965
X0100394Y0064016
Y0084016
X0088106Y0083965
T05
X0036968Y005311
Y006311
Y007311
Y008311
X0066969
Y007311
Y006311
Y005311
T06
X0012992Y0093347
Y0123346
X0056299Y0300433
X0070079
Y0330433
X0056299
T07
X0214567Y0292913
X0224567
X0234567
X0264567
X0274567
X0284567
X0314567
X0324567
X0334567
X0364567
X0374567
X0384567
X0415354Y0293307
X0425354
X0435354
X0464567Y0292913
X0474567
X0484567
X0529921Y0288976
Y0276378
Y0314173
X0570472Y0276378
Y0326772
X0529921
T08
X0271315Y0044295
Y006398
X0291315
X0307063
Y0044295
X0291315Y0044295
X0327063Y0044295
Y006398
X0350787Y006063
Y004063
X0188189Y0033465
X016811
X009126Y012126
X007126
T09
X0085748Y0160472
Y0170472
Y0180472
T10
X0479134Y0096063
X0509055
X0229528Y0085039
X0199606
X0156693
X0126772
X0479134Y0168504
X0509055
T11
X002011Y0233465
X006811
Y0281496
X0044488Y028937
X0020866Y0281496
T12
X0118898Y0156693
X0237008
X0181831Y022026
Y0239945
Y025963
Y0279315
Y0299
X0090945Y0299213
Y0279528
Y0259842
Y0240158
Y0220472
Y0318898
X0181831Y0318685
T13
X0406693Y0087205
X0426378
X0387008
X0367323
X0347638
X0327953
X0308268
X0288583
X0268898
X0297638Y0105315
X0317323
X0337008
X0356693
X0376378
X0396063
Y0174213
X0376378
X0356693
X0337008
X0317323
X0297638
X0288583Y0195473
X0268898
X0308268
X0327953
X0347638
X0367323
X0387008
X0406693
X0426378
T14
X0065748Y0170472
T15
X0451968Y0123622
X0451181Y0144095
X0519685Y0132283
X0216142Y0038583
X0025197Y0183465
X0513779Y0209449
M30
