%FSLAX24Y24*%
%MOIN*%
G70*
G01*
G75*
%ADD10C,0.0472*%
%ADD11C,0.0591*%
%ADD12C,0.0394*%
%ADD13C,0.0709*%
%ADD14C,0.1575*%
%ADD15C,0.0800*%
%ADD16C,0.1000*%
%ADD17R,0.0650X0.1000*%
%ADD18O,0.0650X0.1000*%
%ADD19R,0.0630X0.0630*%
%ADD20C,0.0630*%
%ADD21R,0.0800X0.1000*%
%ADD22O,0.0800X0.1000*%
%ADD23C,0.0984*%
%ADD24R,0.0800X0.0800*%
%ADD25O,0.0630X0.0787*%
%ADD26C,0.1200*%
%ADD27R,0.0630X0.0630*%
%ADD28R,0.1181X0.1181*%
%ADD29C,0.1181*%
%ADD30C,0.0787*%
%ADD31R,0.0900X0.0600*%
%ADD32O,0.0900X0.0600*%
%ADD33O,0.0787X0.0591*%
%ADD34O,0.1000X0.0650*%
%ADD35R,0.1000X0.0650*%
%ADD36C,0.0591*%
%ADD37R,0.0591X0.0512*%
%ADD38O,0.0591X0.0512*%
G04:AMPARAMS|DCode=39|XSize=70mil|YSize=90mil|CornerRadius=0mil|HoleSize=0mil|Usage=FLASHONLY|Rotation=90.000|XOffset=0mil|YOffset=0mil|HoleType=Round|Shape=Octagon|*
%AMOCTAGOND39*
4,1,8,-0.0450,-0.0175,-0.0450,0.0175,-0.0275,0.0350,0.0275,0.0350,0.0450,0.0175,0.0450,-0.0175,0.0275,-0.0350,-0.0275,-0.0350,-0.0450,-0.0175,0.0*
%
%ADD39OCTAGOND39*%

%ADD40C,0.0787*%
%ADD41C,0.1575*%
%ADD42C,0.2362*%
%ADD43C,0.1181*%
D13*
X35472Y29291D02*
D03*
Y32291D02*
D03*
X20472Y29291D02*
D03*
Y32291D02*
D03*
X30472Y29291D02*
D03*
Y32291D02*
D03*
X45472Y29291D02*
D03*
Y32291D02*
D03*
X10709Y20079D02*
D03*
X13709D02*
D03*
X24441Y32291D02*
D03*
Y29291D02*
D03*
X29457Y32291D02*
D03*
Y29291D02*
D03*
X34441Y32291D02*
D03*
Y29291D02*
D03*
X39457Y32291D02*
D03*
Y29291D02*
D03*
X44535Y32331D02*
D03*
Y29331D02*
D03*
X49567Y32291D02*
D03*
Y29291D02*
D03*
X9142Y13307D02*
D03*
X6142D02*
D03*
X7717Y5543D02*
D03*
Y8543D02*
D03*
X2906Y9567D02*
D03*
X5906D02*
D03*
X8748Y4252D02*
D03*
X5748D02*
D03*
D14*
X45118Y14409D02*
D03*
X45197Y12362D02*
D03*
X21614Y3858D02*
D03*
X51968Y13228D02*
D03*
X51378Y20945D02*
D03*
X2520Y18346D02*
D03*
D15*
X57047Y27638D02*
D03*
Y32677D02*
D03*
X52992Y31417D02*
D03*
Y32677D02*
D03*
Y28898D02*
D03*
Y27638D02*
D03*
X7008Y33043D02*
D03*
X5630D02*
D03*
X1299Y12335D02*
D03*
D16*
X37638Y10532D02*
D03*
X39606D02*
D03*
X35669D02*
D03*
X33701D02*
D03*
X31732D02*
D03*
X29764D02*
D03*
Y17421D02*
D03*
X31732D02*
D03*
X33701D02*
D03*
X35669D02*
D03*
X39606D02*
D03*
X37638D02*
D03*
X26890Y19547D02*
D03*
X28858D02*
D03*
X30827D02*
D03*
X32795D02*
D03*
X40669D02*
D03*
X38701D02*
D03*
X36732D02*
D03*
X34764D02*
D03*
X42638D02*
D03*
X34764Y8720D02*
D03*
X36732D02*
D03*
X38701D02*
D03*
X40669D02*
D03*
X32795D02*
D03*
X30827D02*
D03*
X28858D02*
D03*
X26890D02*
D03*
X42638D02*
D03*
X6575Y17047D02*
D03*
D17*
X30706Y4430D02*
D03*
X27132Y4430D02*
D03*
X30706Y6398D02*
D03*
X27132D02*
D03*
D18*
X32706Y4430D02*
D03*
X29132Y4430D02*
D03*
X32706Y6398D02*
D03*
X29132D02*
D03*
D19*
X40055Y5807D02*
D03*
X42913Y5787D02*
D03*
X37205Y5866D02*
D03*
D20*
X40055Y4807D02*
D03*
X42913Y4787D02*
D03*
X37205Y3866D02*
D03*
Y4866D02*
D03*
X51069Y3878D02*
D03*
X52069D02*
D03*
X50068D02*
D03*
X49068D02*
D03*
X48068D02*
D03*
X9622Y2362D02*
D03*
X10622D02*
D03*
X4118Y12047D02*
D03*
X3118D02*
D03*
D21*
X48457Y29291D02*
D03*
X43535Y29331D02*
D03*
X38457Y29291D02*
D03*
X23457D02*
D03*
X28457D02*
D03*
X33457D02*
D03*
D22*
X47457D02*
D03*
X46457D02*
D03*
X42535Y29331D02*
D03*
X41535D02*
D03*
X37457Y29291D02*
D03*
X36457D02*
D03*
X22457D02*
D03*
X21457D02*
D03*
X27457D02*
D03*
X26457D02*
D03*
X32457D02*
D03*
X31457D02*
D03*
D23*
X18183Y22026D02*
D03*
Y23994D02*
D03*
Y27931D02*
D03*
Y25963D02*
D03*
Y29900D02*
D03*
Y31869D02*
D03*
X9094Y31890D02*
D03*
Y29921D02*
D03*
Y25984D02*
D03*
Y27953D02*
D03*
Y24016D02*
D03*
Y22047D02*
D03*
X11890Y15669D02*
D03*
X23701D02*
D03*
D24*
X7008Y30043D02*
D03*
X5630D02*
D03*
X1299Y9335D02*
D03*
D25*
X41827Y2520D02*
D03*
X40827D02*
D03*
X39827D02*
D03*
X4110Y20512D02*
D03*
X3110D02*
D03*
X2110D02*
D03*
D26*
X4449Y28937D02*
D03*
X6811Y23346D02*
D03*
X2011D02*
D03*
X6811Y28150D02*
D03*
X2087D02*
D03*
D27*
X53068Y3878D02*
D03*
X8622Y2362D02*
D03*
X5118Y12047D02*
D03*
D28*
X15669Y8504D02*
D03*
X22953D02*
D03*
X50906Y9606D02*
D03*
Y16850D02*
D03*
D29*
X12677Y8504D02*
D03*
X19961D02*
D03*
X47913Y9606D02*
D03*
Y16850D02*
D03*
D30*
X18819Y3346D02*
D03*
X16811D02*
D03*
X3307Y15197D02*
D03*
Y17165D02*
D03*
X7126Y12126D02*
D03*
X9126D02*
D03*
X35079Y6063D02*
D03*
Y4063D02*
D03*
D31*
X7033Y10669D02*
D03*
D32*
Y9669D02*
D03*
X10033D02*
D03*
Y10669D02*
D03*
D33*
X6697Y8311D02*
D03*
Y7311D02*
D03*
Y6311D02*
D03*
Y5311D02*
D03*
X3697D02*
D03*
Y6311D02*
D03*
Y7311D02*
D03*
Y8311D02*
D03*
D34*
X8811Y6396D02*
D03*
X10039Y8402D02*
D03*
D35*
X8811Y8396D02*
D03*
X10039Y6402D02*
D03*
D36*
X6720Y3110D02*
D03*
X5720D02*
D03*
D37*
X1811Y7059D02*
D03*
D38*
Y8059D02*
D03*
D39*
X8575Y16047D02*
D03*
Y17047D02*
D03*
Y18047D02*
D03*
M02*
