%FSLAX24Y24*%
%MOIN*%
G70*
G01*
G75*
%ADD10C,0.0472*%
%ADD11C,0.0591*%
%ADD12C,0.0394*%
%ADD13C,0.0709*%
%ADD14C,0.1575*%
%ADD15C,0.0800*%
%ADD16C,0.1000*%
%ADD17R,0.0650X0.1000*%
%ADD18O,0.0650X0.1000*%
%ADD19R,0.0630X0.0630*%
%ADD20C,0.0630*%
%ADD21R,0.0800X0.1000*%
%ADD22O,0.0800X0.1000*%
%ADD23C,0.0984*%
%ADD24R,0.0800X0.0800*%
%ADD25O,0.0630X0.0787*%
%ADD26C,0.1200*%
%ADD27R,0.0630X0.0630*%
%ADD28R,0.1181X0.1181*%
%ADD29C,0.1181*%
%ADD30C,0.0787*%
%ADD31R,0.0900X0.0600*%
%ADD32O,0.0900X0.0600*%
%ADD33O,0.0787X0.0591*%
%ADD34O,0.1000X0.0650*%
%ADD35R,0.1000X0.0650*%
%ADD36C,0.0591*%
%ADD37R,0.0591X0.0512*%
%ADD38O,0.0591X0.0512*%
G04:AMPARAMS|DCode=39|XSize=70mil|YSize=90mil|CornerRadius=0mil|HoleSize=0mil|Usage=FLASHONLY|Rotation=90.000|XOffset=0mil|YOffset=0mil|HoleType=Round|Shape=Octagon|*
%AMOCTAGOND39*
4,1,8,-0.0450,-0.0175,-0.0450,0.0175,-0.0275,0.0350,0.0275,0.0350,0.0450,0.0175,0.0450,-0.0175,0.0275,-0.0350,-0.0275,-0.0350,-0.0450,-0.0175,0.0*
%
%ADD39OCTAGOND39*%

%ADD40C,0.0787*%
%ADD41C,0.1575*%
%ADD42C,0.2362*%
%ADD43C,0.1181*%
%ADD44C,0.0100*%
%ADD45C,0.0070*%
%ADD46C,0.0150*%
%ADD47C,0.0120*%
%ADD48C,0.0079*%
%ADD49C,0.0039*%
%ADD50C,0.0250*%
%ADD51C,0.0080*%
%ADD52R,0.0150X0.0550*%
%ADD53R,0.3990X0.0360*%
%ADD54R,0.1260X0.0200*%
%ADD55R,0.0550X0.0150*%
D40*
X-153385Y18483D02*
X-90905D01*
D44*
X54110Y27441D02*
G03*
X54110Y28241I0J400D01*
G01*
D02*
G03*
X54110Y29041I0J400D01*
G01*
X55761Y32556D02*
G03*
X55761Y31756I0J-400D01*
G01*
D02*
G03*
X55761Y30956I0J-400D01*
G01*
D02*
G03*
X55761Y30156I0J-400D01*
G01*
Y28556D02*
G03*
X55761Y27756I0J-400D01*
G01*
Y29356D02*
G03*
X55761Y28556I0J-400D01*
G01*
Y30156D02*
G03*
X55761Y29356I0J-400D01*
G01*
X54110Y31981D02*
G03*
X54110Y32781I0J400D01*
G01*
Y31181D02*
G03*
X54110Y31981I0J400D01*
G01*
X29933Y15478D02*
G03*
X30733Y15478I400J0D01*
G01*
D02*
G03*
X31533Y15478I400J0D01*
G01*
D02*
G03*
X32333Y15478I400J0D01*
G01*
X33933D02*
G03*
X34733Y15478I400J0D01*
G01*
X33133D02*
G03*
X33933Y15478I400J0D01*
G01*
X32333D02*
G03*
X33133Y15478I400J0D01*
G01*
X37133D02*
G03*
X37933Y15478I400J0D01*
G01*
D02*
G03*
X38733Y15478I400J0D01*
G01*
D02*
G03*
X39533Y15478I400J0D01*
G01*
X36333D02*
G03*
X37133Y15478I400J0D01*
G01*
X35533D02*
G03*
X36333Y15478I400J0D01*
G01*
X34733D02*
G03*
X35533Y15478I400J0D01*
G01*
X34633Y12628D02*
G03*
X33833Y12628I-400J0D01*
G01*
D02*
G03*
X33033Y12628I-400J0D01*
G01*
D02*
G03*
X32233Y12628I-400J0D01*
G01*
X30633D02*
G03*
X29833Y12628I-400J0D01*
G01*
X31433D02*
G03*
X30633Y12628I-400J0D01*
G01*
X32233D02*
G03*
X31433Y12628I-400J0D01*
G01*
X37033D02*
G03*
X36233Y12628I-400J0D01*
G01*
D02*
G03*
X35433Y12628I-400J0D01*
G01*
D02*
G03*
X34633Y12628I-400J0D01*
G01*
X37833D02*
G03*
X37033Y12628I-400J0D01*
G01*
X38633D02*
G03*
X37833Y12628I-400J0D01*
G01*
X39433D02*
G03*
X38633Y12628I-400J0D01*
G01*
X49307Y29771D02*
G03*
X49307Y29771I-130J0D01*
G01*
X44385Y29811D02*
G03*
X44385Y29811I-130J0D01*
G01*
X39307Y29771D02*
G03*
X39307Y29771I-130J0D01*
G01*
X24307D02*
G03*
X24307Y29771I-130J0D01*
G01*
X29307D02*
G03*
X29307Y29771I-130J0D01*
G01*
X34307D02*
G03*
X34307Y29771I-130J0D01*
G01*
X15207Y31660D02*
G03*
X15207Y30860I0J-400D01*
G01*
D02*
G03*
X15207Y30060I0J-400D01*
G01*
D02*
G03*
X15207Y29260I0J-400D01*
G01*
Y27660D02*
G03*
X15207Y26860I0J-400D01*
G01*
Y28460D02*
G03*
X15207Y27660I0J-400D01*
G01*
Y29260D02*
G03*
X15207Y28460I0J-400D01*
G01*
Y24460D02*
G03*
X15207Y23660I0J-400D01*
G01*
D02*
G03*
X15207Y22860I0J-400D01*
G01*
D02*
G03*
X15207Y22060I0J-400D01*
G01*
Y25260D02*
G03*
X15207Y24460I0J-400D01*
G01*
Y26060D02*
G03*
X15207Y25260I0J-400D01*
G01*
Y26860D02*
G03*
X15207Y26060I0J-400D01*
G01*
X12357Y26960D02*
G03*
X12357Y27760I0J400D01*
G01*
D02*
G03*
X12357Y28560I0J400D01*
G01*
D02*
G03*
X12357Y29360I0J400D01*
G01*
Y30960D02*
G03*
X12357Y31760I0J400D01*
G01*
Y30160D02*
G03*
X12357Y30960I0J400D01*
G01*
Y29360D02*
G03*
X12357Y30160I0J400D01*
G01*
Y24560D02*
G03*
X12357Y25360I0J400D01*
G01*
D02*
G03*
X12357Y26160I0J400D01*
G01*
D02*
G03*
X12357Y26960I0J400D01*
G01*
Y23760D02*
G03*
X12357Y24560I0J400D01*
G01*
Y22960D02*
G03*
X12357Y23760I0J400D01*
G01*
Y22160D02*
G03*
X12357Y22960I0J400D01*
G01*
X39729Y3070D02*
G03*
X39729Y3070I-212J0D01*
G01*
X17717Y8504D02*
G03*
X17717Y8504I-3543J0D01*
G01*
X25000D02*
G03*
X25000Y8504I-3543J0D01*
G01*
X52953Y9606D02*
G03*
X52953Y9606I-3543J0D01*
G01*
Y16850D02*
G03*
X52953Y16850I-3543J0D01*
G01*
X4632Y19962D02*
G03*
X4632Y19962I-212J0D01*
G01*
X6726Y2734D02*
G03*
X6721Y3486I4J376D01*
G01*
X5725Y3486D02*
G03*
X5730Y2734I-4J-376D01*
G01*
X2801Y7559D02*
G03*
X2801Y7559I-990J0D01*
G01*
X53583Y27441D02*
X54110D01*
X53583Y29052D02*
X54110D01*
X55761Y32556D02*
X56339D01*
X55761Y27756D02*
X56339D01*
X53583Y32792D02*
X54110D01*
X53583Y31181D02*
X54110D01*
X57953Y26575D02*
Y33661D01*
X52047Y26575D02*
X57953D01*
X52047Y33661D02*
X57953D01*
X52047Y26575D02*
Y33661D01*
X29933Y15478D02*
Y16528D01*
X39533Y15478D02*
Y16528D01*
X34733Y15478D02*
Y16528D01*
X36233Y11578D02*
Y12628D01*
X29833Y11578D02*
Y12628D01*
X39433Y11578D02*
Y12628D01*
X44094Y7362D02*
Y20748D01*
X25591D02*
X44094D01*
X25591Y7362D02*
Y20748D01*
Y7362D02*
X44094D01*
X19331Y20630D02*
Y33622D01*
X7913D02*
X19331D01*
X7913Y20630D02*
Y33622D01*
Y20630D02*
X19331D01*
X13504Y22205D02*
Y31535D01*
X14134Y22165D02*
Y31496D01*
X15207Y31660D02*
X16257D01*
X15207Y22060D02*
X16257D01*
X11307Y31760D02*
X12357D01*
X11307Y22160D02*
X12357D01*
X39067Y1520D02*
Y3520D01*
X42637D01*
Y1520D02*
Y3520D01*
X39067Y1520D02*
X42637D01*
X6774Y23401D02*
X6817Y23358D01*
X20110Y27717D02*
X49638D01*
Y21024D02*
Y27717D01*
X20110Y21024D02*
X49638D01*
X20110D02*
Y27717D01*
X14173Y4961D02*
Y12047D01*
Y11004D02*
Y11304D01*
X13523Y11954D02*
X14173Y11304D01*
Y10604D02*
Y10804D01*
X13123Y11854D02*
X14173Y10804D01*
Y10154D02*
Y10304D01*
X12773Y11704D02*
X14173Y10304D01*
Y9454D02*
Y9804D01*
X12423Y11554D02*
X14173Y9804D01*
Y9004D02*
Y9304D01*
X12123Y11354D02*
X14173Y9304D01*
Y8504D02*
Y8754D01*
X11823Y11104D02*
X14173Y8754D01*
Y7904D02*
Y8154D01*
X11523Y10804D02*
X14173Y8154D01*
Y7204D02*
Y7554D01*
X11273Y10454D02*
X14173Y7554D01*
Y6804D02*
Y6954D01*
X11023Y10104D02*
X14173Y6954D01*
Y6204D02*
Y6304D01*
X10823Y9654D02*
X14173Y6304D01*
Y5554D02*
Y5654D01*
X10723Y9104D02*
X14173Y5654D01*
X14123Y5004D02*
Y5054D01*
X10673Y8504D02*
X14123Y5054D01*
X13423D02*
X13473D01*
X10723Y7754D02*
X13423Y5054D01*
X12273Y5504D02*
Y5554D01*
X11173Y6654D02*
X12273Y5554D01*
X21457Y4961D02*
Y12047D01*
Y11004D02*
Y11304D01*
X20807Y11954D02*
X21457Y11304D01*
Y10604D02*
Y10804D01*
X20407Y11854D02*
X21457Y10804D01*
Y10154D02*
Y10304D01*
X20057Y11704D02*
X21457Y10304D01*
Y9454D02*
Y9804D01*
X19707Y11554D02*
X21457Y9804D01*
Y9004D02*
Y9304D01*
X19407Y11354D02*
X21457Y9304D01*
Y8504D02*
Y8754D01*
X19107Y11104D02*
X21457Y8754D01*
Y7904D02*
Y8154D01*
X18807Y10804D02*
X21457Y8154D01*
Y7204D02*
Y7554D01*
X18557Y10454D02*
X21457Y7554D01*
Y6804D02*
Y6954D01*
X18307Y10104D02*
X21457Y6954D01*
Y6204D02*
Y6304D01*
X18107Y9654D02*
X21457Y6304D01*
Y5554D02*
Y5654D01*
X18007Y9104D02*
X21457Y5654D01*
X21407Y5004D02*
Y5054D01*
X17957Y8504D02*
X21407Y5054D01*
X20707D02*
X20757D01*
X18007Y7754D02*
X20707Y5054D01*
X19557Y5504D02*
Y5554D01*
X18457Y6654D02*
X19557Y5554D01*
X49409Y6063D02*
Y13150D01*
Y12106D02*
Y12406D01*
X48759Y13056D02*
X49409Y12406D01*
Y11706D02*
Y11906D01*
X48359Y12956D02*
X49409Y11906D01*
Y11256D02*
Y11406D01*
X48009Y12806D02*
X49409Y11406D01*
Y10556D02*
Y10906D01*
X47659Y12656D02*
X49409Y10906D01*
Y10106D02*
Y10406D01*
X47359Y12456D02*
X49409Y10406D01*
Y9606D02*
Y9856D01*
X47059Y12206D02*
X49409Y9856D01*
Y9006D02*
Y9256D01*
X46759Y11906D02*
X49409Y9256D01*
Y8306D02*
Y8656D01*
X46509Y11556D02*
X49409Y8656D01*
Y7906D02*
Y8056D01*
X46259Y11206D02*
X49409Y8056D01*
Y7306D02*
Y7406D01*
X46059Y10756D02*
X49409Y7406D01*
Y6656D02*
Y6756D01*
X45959Y10206D02*
X49409Y6756D01*
X49359Y6106D02*
Y6156D01*
X45909Y9606D02*
X49359Y6156D01*
X48659D02*
X48709D01*
X45959Y8856D02*
X48659Y6156D01*
X47509Y6606D02*
Y6656D01*
X46409Y7756D02*
X47509Y6656D01*
X49409Y13307D02*
Y20394D01*
Y19350D02*
Y19650D01*
X48759Y20300D02*
X49409Y19650D01*
Y18950D02*
Y19150D01*
X48359Y20200D02*
X49409Y19150D01*
Y18500D02*
Y18650D01*
X48009Y20050D02*
X49409Y18650D01*
Y17800D02*
Y18150D01*
X47659Y19900D02*
X49409Y18150D01*
Y17350D02*
Y17650D01*
X47359Y19700D02*
X49409Y17650D01*
Y16850D02*
Y17100D01*
X47059Y19450D02*
X49409Y17100D01*
Y16250D02*
Y16500D01*
X46759Y19150D02*
X49409Y16500D01*
Y15550D02*
Y15900D01*
X46509Y18800D02*
X49409Y15900D01*
Y15150D02*
Y15300D01*
X46259Y18450D02*
X49409Y15300D01*
Y14550D02*
Y14650D01*
X46059Y18000D02*
X49409Y14650D01*
Y13900D02*
Y14000D01*
X45959Y17450D02*
X49409Y14000D01*
X49359Y13350D02*
Y13400D01*
X45909Y16850D02*
X49359Y13400D01*
X48659D02*
X48709D01*
X45959Y16100D02*
X48659Y13400D01*
X47509Y13850D02*
Y13900D01*
X46409Y15000D02*
X47509Y13900D01*
X1300Y21512D02*
X4870D01*
X1300Y19512D02*
Y21512D01*
Y19512D02*
X4870D01*
Y21512D01*
X2157Y13231D02*
Y19081D01*
X4457D01*
Y13231D02*
Y19081D01*
X2157Y13231D02*
X4457D01*
X5720Y2730D02*
X6720D01*
X5750Y3490D02*
X6710D01*
X821Y7559D02*
X2791D01*
X1131D02*
X1291D01*
X1121D02*
X1291D01*
X881Y7799D02*
X1121Y7559D01*
X1421D02*
X1431D01*
X961Y8019D02*
X1421Y7559D01*
X1081Y8209D02*
X1731Y7559D01*
X2061D02*
X2101D01*
X1271Y8349D02*
X2061Y7559D01*
X2411D02*
X2421D01*
X1481Y8489D02*
X2411Y7559D01*
X1751Y8549D02*
X2741Y7559D01*
X2771Y7739D02*
Y7819D01*
X2091Y8499D02*
X2771Y7819D01*
X6626Y11626D02*
Y12626D01*
Y11626D02*
X9626D01*
Y12626D01*
X6626D02*
X9626D01*
X7676Y12126D02*
X8026D01*
X8076Y11876D02*
Y12376D01*
X8276Y11876D02*
Y12376D01*
Y12126D02*
X8626D01*
X34579Y6563D02*
X35579D01*
X34579Y3563D02*
Y6563D01*
Y3563D02*
X35579D01*
Y6563D01*
X35079Y5163D02*
Y5513D01*
X34829Y5113D02*
X35329D01*
X34829Y4913D02*
X35329D01*
X35079Y4563D02*
Y4913D01*
X10701Y19119D02*
Y19169D01*
X24901D01*
X10701Y12169D02*
Y19119D01*
Y12169D02*
X24901D01*
Y19169D01*
X12651Y15669D02*
X17201D01*
Y14419D02*
Y16669D01*
X18451Y14419D02*
Y16669D01*
Y15669D02*
X23001D01*
X20945Y30679D02*
Y31073D01*
X21142D01*
X21207Y31007D01*
Y30876D01*
X21142Y30810D01*
X20945D01*
X21076D02*
X21207Y30679D01*
X21338D02*
X21470D01*
X21404D01*
Y31073D01*
X21338Y31007D01*
X21666D02*
X21732Y31073D01*
X21863D01*
X21929Y31007D01*
Y30942D01*
X21863Y30876D01*
X21929Y30810D01*
Y30745D01*
X21863Y30679D01*
X21732D01*
X21666Y30745D01*
Y30810D01*
X21732Y30876D01*
X21666Y30942D01*
Y31007D01*
X21732Y30876D02*
X21863D01*
X35935Y30512D02*
Y30905D01*
X36132D01*
X36197Y30840D01*
Y30709D01*
X36132Y30643D01*
X35935D01*
X36066D02*
X36197Y30512D01*
X36329D02*
X36460D01*
X36394D01*
Y30905D01*
X36329Y30840D01*
X36657Y30905D02*
X36919D01*
Y30840D01*
X36657Y30577D01*
Y30512D01*
X54695Y33297D02*
X54957D01*
Y33232D01*
X54695Y32969D01*
Y32904D01*
X48593Y30472D02*
Y30866D01*
X48789D01*
X48855Y30800D01*
Y30669D01*
X48789Y30604D01*
X48593D01*
X48724D02*
X48855Y30472D01*
X48986D02*
X49117D01*
X49052D01*
Y30866D01*
X48986Y30800D01*
X43268Y30463D02*
Y30856D01*
X43464D01*
X43530Y30791D01*
Y30659D01*
X43464Y30594D01*
X43268D01*
X43399D02*
X43530Y30463D01*
X43924D02*
X43661D01*
X43924Y30725D01*
Y30791D01*
X43858Y30856D01*
X43727D01*
X43661Y30791D01*
X38317Y30472D02*
Y30866D01*
X38514D01*
X38579Y30800D01*
Y30669D01*
X38514Y30604D01*
X38317D01*
X38448D02*
X38579Y30472D01*
X38710Y30800D02*
X38776Y30866D01*
X38907D01*
X38973Y30800D01*
Y30735D01*
X38907Y30669D01*
X38842D01*
X38907D01*
X38973Y30604D01*
Y30538D01*
X38907Y30472D01*
X38776D01*
X38710Y30538D01*
X33327Y30354D02*
Y30748D01*
X33524D01*
X33589Y30682D01*
Y30551D01*
X33524Y30486D01*
X33327D01*
X33458D02*
X33589Y30354D01*
X33917D02*
Y30748D01*
X33720Y30551D01*
X33983D01*
X28287Y30344D02*
Y30738D01*
X28484D01*
X28550Y30672D01*
Y30541D01*
X28484Y30476D01*
X28287D01*
X28419D02*
X28550Y30344D01*
X28943Y30738D02*
X28681D01*
Y30541D01*
X28812Y30607D01*
X28878D01*
X28943Y30541D01*
Y30410D01*
X28878Y30344D01*
X28747D01*
X28681Y30410D01*
X24955Y30674D02*
Y31068D01*
X25152D01*
X25218Y31002D01*
Y30871D01*
X25152Y30805D01*
X24955D01*
X25086D02*
X25218Y30674D01*
X25611Y31068D02*
X25480Y31002D01*
X25349Y30871D01*
Y30740D01*
X25414Y30674D01*
X25546D01*
X25611Y30740D01*
Y30805D01*
X25546Y30871D01*
X25349D01*
X14331Y20344D02*
X14724D01*
Y20148D01*
X14659Y20082D01*
X14527D01*
X14462Y20148D01*
Y20344D01*
Y20213D02*
X14331Y20082D01*
X14659Y19951D02*
X14724Y19885D01*
Y19754D01*
X14659Y19689D01*
X14593D01*
X14527Y19754D01*
X14462Y19689D01*
X14396D01*
X14331Y19754D01*
Y19885D01*
X14396Y19951D01*
X14462D01*
X14527Y19885D01*
X14593Y19951D01*
X14659D01*
X14527Y19885D02*
Y19754D01*
X45925Y30719D02*
Y31112D01*
X46122D01*
X46188Y31046D01*
Y30915D01*
X46122Y30850D01*
X45925D01*
X46056D02*
X46188Y30719D01*
X46319D02*
X46450D01*
X46384D01*
Y31112D01*
X46319Y31046D01*
X46647Y30719D02*
X46778D01*
X46712D01*
Y31112D01*
X46647Y31046D01*
X30945Y30463D02*
Y30856D01*
X31142D01*
X31207Y30791D01*
Y30659D01*
X31142Y30594D01*
X30945D01*
X31076D02*
X31207Y30463D01*
X31338D02*
X31470D01*
X31404D01*
Y30856D01*
X31338Y30791D01*
X31863Y30463D02*
Y30856D01*
X31666Y30659D01*
X31929D01*
X45079Y4911D02*
X44685D01*
X44882D01*
Y4649D01*
X45079D01*
X44685D01*
Y4255D02*
Y4518D01*
X44947Y4255D01*
X45013D01*
X45079Y4321D01*
Y4452D01*
X45013Y4518D01*
X45049Y5984D02*
X44656D01*
X44852D01*
Y5722D01*
X45049D01*
X44656D01*
Y5591D02*
Y5459D01*
Y5525D01*
X45049D01*
X44983Y5591D01*
X43385Y3475D02*
Y3212D01*
Y3343D01*
X42992D01*
Y3081D02*
Y2950D01*
Y3016D01*
X43385D01*
X43320Y3081D01*
X6644Y21447D02*
Y21053D01*
X6447D01*
X6381Y21119D01*
Y21250D01*
X6447Y21316D01*
X6644D01*
X6513D02*
X6381Y21447D01*
X6250Y21053D02*
Y21447D01*
X5988D01*
X5857D02*
X5725D01*
X5791D01*
Y21053D01*
X5857Y21119D01*
X17156Y2116D02*
Y2510D01*
X17352D01*
X17418Y2444D01*
Y2313D01*
X17352Y2247D01*
X17156D01*
X17287D02*
X17418Y2116D01*
X17549D02*
X17680D01*
X17615D01*
Y2510D01*
X17549Y2444D01*
X17877D02*
X17943Y2510D01*
X18074D01*
X18139Y2444D01*
Y2182D01*
X18074Y2116D01*
X17943D01*
X17877Y2182D01*
Y2444D01*
X22339Y30292D02*
Y30554D01*
X22274Y30620D01*
X22142D01*
X22077Y30554D01*
Y30292D01*
X22142Y30226D01*
X22274D01*
X22208Y30358D02*
X22339Y30226D01*
X22274D02*
X22339Y30292D01*
X22733Y30620D02*
X22602Y30554D01*
X22470Y30423D01*
Y30292D01*
X22536Y30226D01*
X22667D01*
X22733Y30292D01*
Y30358D01*
X22667Y30423D01*
X22470D01*
X27438Y30400D02*
Y30663D01*
X27372Y30728D01*
X27241D01*
X27175Y30663D01*
Y30400D01*
X27241Y30335D01*
X27372D01*
X27306Y30466D02*
X27438Y30335D01*
X27372D02*
X27438Y30400D01*
X27831Y30728D02*
X27569D01*
Y30531D01*
X27700Y30597D01*
X27766D01*
X27831Y30531D01*
Y30400D01*
X27766Y30335D01*
X27634D01*
X27569Y30400D01*
X32487Y30322D02*
Y30584D01*
X32421Y30649D01*
X32290D01*
X32224Y30584D01*
Y30322D01*
X32290Y30256D01*
X32421D01*
X32356Y30387D02*
X32487Y30256D01*
X32421D02*
X32487Y30322D01*
X32815Y30256D02*
Y30649D01*
X32618Y30453D01*
X32880D01*
X37566Y30341D02*
Y30604D01*
X37500Y30669D01*
X37369D01*
X37303Y30604D01*
Y30341D01*
X37369Y30276D01*
X37500D01*
X37434Y30407D02*
X37566Y30276D01*
X37500D02*
X37566Y30341D01*
X37697Y30604D02*
X37762Y30669D01*
X37894D01*
X37959Y30604D01*
Y30538D01*
X37894Y30472D01*
X37828D01*
X37894D01*
X37959Y30407D01*
Y30341D01*
X37894Y30276D01*
X37762D01*
X37697Y30341D01*
X42625Y30410D02*
Y30672D01*
X42559Y30738D01*
X42428D01*
X42362Y30672D01*
Y30410D01*
X42428Y30344D01*
X42559D01*
X42493Y30476D02*
X42625Y30344D01*
X42559D02*
X42625Y30410D01*
X43018Y30344D02*
X42756D01*
X43018Y30607D01*
Y30672D01*
X42953Y30738D01*
X42821D01*
X42756Y30672D01*
X47457Y30302D02*
Y30564D01*
X47392Y30630D01*
X47260D01*
X47195Y30564D01*
Y30302D01*
X47260Y30236D01*
X47392D01*
X47326Y30367D02*
X47457Y30236D01*
X47392D02*
X47457Y30302D01*
X47588Y30236D02*
X47720D01*
X47654D01*
Y30630D01*
X47588Y30564D01*
X46270Y2493D02*
X46663D01*
X46467D01*
Y2756D01*
X46270D01*
X46663D01*
X46336Y2887D02*
X46270Y2953D01*
Y3084D01*
X46336Y3149D01*
X46401D01*
X46467Y3084D01*
X46532Y3149D01*
X46598D01*
X46663Y3084D01*
Y2953D01*
X46598Y2887D01*
X46532D01*
X46467Y2953D01*
X46401Y2887D01*
X46336D01*
X46467Y2953D02*
Y3084D01*
X38590Y2068D02*
Y2461D01*
Y2264D01*
X38327D01*
Y2068D01*
Y2461D01*
X37934Y2068D02*
X38196D01*
Y2264D01*
X38065Y2199D01*
X37999D01*
X37934Y2264D01*
Y2396D01*
X37999Y2461D01*
X38131D01*
X38196Y2396D01*
X33659Y6910D02*
X33265D01*
Y6713D01*
X33331Y6647D01*
X33593D01*
X33659Y6713D01*
Y6910D01*
Y6254D02*
Y6516D01*
X33462D01*
X33528Y6385D01*
Y6319D01*
X33462Y6254D01*
X33331D01*
X33265Y6319D01*
Y6451D01*
X33331Y6516D01*
X33659Y4902D02*
X33265D01*
Y4705D01*
X33331Y4640D01*
X33593D01*
X33659Y4705D01*
Y4902D01*
X33265Y4312D02*
X33659D01*
X33462Y4508D01*
Y4246D01*
X6624Y31988D02*
Y31594D01*
X6821D01*
X6886Y31660D01*
Y31922D01*
X6821Y31988D01*
X6624D01*
X7018Y31922D02*
X7083Y31988D01*
X7214D01*
X7280Y31922D01*
Y31857D01*
X7214Y31791D01*
X7149D01*
X7214D01*
X7280Y31726D01*
Y31660D01*
X7214Y31594D01*
X7083D01*
X7018Y31660D01*
X30163Y4863D02*
X29769D01*
Y4666D01*
X29835Y4600D01*
X30097D01*
X30163Y4666D01*
Y4863D01*
X29769Y4207D02*
Y4469D01*
X30032Y4207D01*
X30097D01*
X30163Y4272D01*
Y4403D01*
X30097Y4469D01*
X30124Y6831D02*
X29730D01*
Y6634D01*
X29796Y6569D01*
X30058D01*
X30124Y6634D01*
Y6831D01*
X29730Y6438D02*
Y6306D01*
Y6372D01*
X30124D01*
X30058Y6438D01*
X29269Y8405D02*
X29335Y8339D01*
Y8208D01*
X29269Y8142D01*
X29204D01*
X29138Y8208D01*
Y8274D01*
Y8208D01*
X29072Y8142D01*
X29007D01*
X28941Y8208D01*
Y8339D01*
X29007Y8405D01*
X7422Y32972D02*
X7159D01*
X7422Y33235D01*
Y33300D01*
X7356Y33366D01*
X7225D01*
X7159Y33300D01*
X53442Y19393D02*
X53376Y19459D01*
X53245D01*
X53179Y19393D01*
Y19131D01*
X53245Y19065D01*
X53376D01*
X53442Y19131D01*
X53573Y19065D02*
X53704D01*
X53638D01*
Y19459D01*
X53573Y19393D01*
X53569Y12306D02*
X53504Y12372D01*
X53373D01*
X53307Y12306D01*
Y12044D01*
X53373Y11978D01*
X53504D01*
X53569Y12044D01*
X53963Y11978D02*
X53701D01*
X53963Y12241D01*
Y12306D01*
X53897Y12372D01*
X53766D01*
X53701Y12306D01*
X24190Y11824D02*
X24124Y11890D01*
X23993D01*
X23927Y11824D01*
Y11562D01*
X23993Y11496D01*
X24124D01*
X24190Y11562D01*
X24321Y11824D02*
X24386Y11890D01*
X24518D01*
X24583Y11824D01*
Y11758D01*
X24518Y11693D01*
X24452D01*
X24518D01*
X24583Y11627D01*
Y11562D01*
X24518Y11496D01*
X24386D01*
X24321Y11562D01*
X16995Y11755D02*
X16929Y11821D01*
X16798D01*
X16732Y11755D01*
Y11493D01*
X16798Y11427D01*
X16929D01*
X16995Y11493D01*
X17323Y11427D02*
Y11821D01*
X17126Y11624D01*
X17388D01*
X5344Y31890D02*
Y31496D01*
X5541D01*
X5607Y31562D01*
Y31824D01*
X5541Y31890D01*
X5344D01*
X5738Y31562D02*
X5804Y31496D01*
X5935D01*
X6000Y31562D01*
Y31824D01*
X5935Y31890D01*
X5804D01*
X5738Y31824D01*
Y31758D01*
X5804Y31693D01*
X6000D01*
X9837Y13602D02*
X10230D01*
Y13405D01*
X10165Y13340D01*
X10034D01*
X9968Y13405D01*
Y13602D01*
Y13471D02*
X9837Y13340D01*
Y13209D02*
Y13077D01*
Y13143D01*
X10230D01*
X10165Y13209D01*
X9837Y12618D02*
Y12881D01*
X10099Y12618D01*
X10165D01*
X10230Y12684D01*
Y12815D01*
X10165Y12881D01*
X8524Y5089D02*
Y4695D01*
X8327D01*
X8261Y4761D01*
Y4892D01*
X8327Y4957D01*
X8524D01*
X8392D02*
X8261Y5089D01*
X8130D02*
X7999D01*
X8064D01*
Y4695D01*
X8130Y4761D01*
X7802D02*
X7736Y4695D01*
X7605D01*
X7540Y4761D01*
Y4826D01*
X7605Y4892D01*
X7671D01*
X7605D01*
X7540Y4957D01*
Y5023D01*
X7605Y5089D01*
X7736D01*
X7802Y5023D01*
X2362Y8986D02*
X1969D01*
Y9183D01*
X2034Y9249D01*
X2165D01*
X2231Y9183D01*
Y8986D01*
Y9117D02*
X2362Y9249D01*
Y9380D02*
Y9511D01*
Y9445D01*
X1969D01*
X2034Y9380D01*
X1969Y9970D02*
Y9708D01*
X2165D01*
X2100Y9839D01*
Y9905D01*
X2165Y9970D01*
X2297D01*
X2362Y9905D01*
Y9773D01*
X2297Y9708D01*
X9488Y5000D02*
X9882D01*
Y4803D01*
X9816Y4738D01*
X9685D01*
X9619Y4803D01*
Y5000D01*
Y4869D02*
X9488Y4738D01*
Y4606D02*
Y4475D01*
Y4541D01*
X9882D01*
X9816Y4606D01*
X9882Y4016D02*
X9816Y4147D01*
X9685Y4278D01*
X9554D01*
X9488Y4213D01*
Y4082D01*
X9554Y4016D01*
X9619D01*
X9685Y4082D01*
Y4278D01*
X10384Y11870D02*
X10056D01*
X9990Y11804D01*
Y11673D01*
X10056Y11608D01*
X10384D01*
X9990Y11477D02*
Y11345D01*
Y11411D01*
X10384D01*
X10318Y11477D01*
X482Y19646D02*
Y19908D01*
Y19777D01*
X876D01*
Y20302D02*
Y20039D01*
X614Y20302D01*
X548D01*
X482Y20236D01*
Y20105D01*
X548Y20039D01*
X984Y16900D02*
Y17293D01*
X1181D01*
X1247Y17228D01*
Y17096D01*
X1181Y17031D01*
X984D01*
X1115D02*
X1247Y16900D01*
X1378Y17293D02*
X1640D01*
Y17228D01*
X1378Y16965D01*
Y16900D01*
X2815Y5935D02*
Y5804D01*
Y5869D01*
X2421D01*
Y5935D01*
Y5804D01*
X2749Y5345D02*
X2815Y5410D01*
Y5541D01*
X2749Y5607D01*
X2487D01*
X2421Y5541D01*
Y5410D01*
X2487Y5345D01*
X2421Y5213D02*
Y5082D01*
Y5148D01*
X2815D01*
X2749Y5213D01*
X12323Y2894D02*
X11929D01*
X12126D01*
Y2631D01*
X12323D01*
X11929D01*
X12323Y2500D02*
Y2238D01*
X12257D01*
X11995Y2500D01*
X11929D01*
X4882Y13396D02*
X5276D01*
X5079D01*
Y13658D01*
X4882D01*
X5276D01*
X4882Y14052D02*
X4948Y13920D01*
X5079Y13789D01*
X5210D01*
X5276Y13855D01*
Y13986D01*
X5210Y14052D01*
X5144D01*
X5079Y13986D01*
Y13789D01*
X8661Y5836D02*
Y5443D01*
X8858D01*
X8924Y5509D01*
Y5771D01*
X8858Y5836D01*
X8661D01*
X9055Y5771D02*
X9121Y5836D01*
X9252D01*
X9317Y5771D01*
Y5705D01*
X9252Y5640D01*
X9317Y5574D01*
Y5509D01*
X9252Y5443D01*
X9121D01*
X9055Y5509D01*
Y5574D01*
X9121Y5640D01*
X9055Y5705D01*
Y5771D01*
X9121Y5640D02*
X9252D01*
X9803Y5649D02*
Y5256D01*
X10000D01*
X10066Y5321D01*
Y5584D01*
X10000Y5649D01*
X9803D01*
X10197D02*
X10459D01*
Y5584D01*
X10197Y5321D01*
Y5256D01*
X714Y13473D02*
Y13080D01*
X911D01*
X977Y13145D01*
Y13408D01*
X911Y13473D01*
X714D01*
X1370D02*
X1239Y13408D01*
X1108Y13276D01*
Y13145D01*
X1173Y13080D01*
X1305D01*
X1370Y13145D01*
Y13211D01*
X1305Y13276D01*
X1108D01*
X4447Y3038D02*
X4382Y2972D01*
Y2841D01*
X4447Y2775D01*
X4710D01*
X4775Y2841D01*
Y2972D01*
X4710Y3038D01*
X4382Y3431D02*
X4447Y3300D01*
X4579Y3169D01*
X4710D01*
X4775Y3234D01*
Y3366D01*
X4710Y3431D01*
X4644D01*
X4579Y3366D01*
Y3169D01*
X656Y6296D02*
X591Y6230D01*
Y6099D01*
X656Y6033D01*
X919D01*
X984Y6099D01*
Y6230D01*
X919Y6296D01*
X591Y6689D02*
Y6427D01*
X787D01*
X722Y6558D01*
Y6624D01*
X787Y6689D01*
X919D01*
X984Y6624D01*
Y6493D01*
X919Y6427D01*
X24256Y19714D02*
Y19514D01*
Y19614D01*
X24856D01*
X24756Y19714D01*
X4950Y19412D02*
Y20012D01*
X4650Y19712D01*
X5050D01*
X35924Y3608D02*
X36324D01*
Y3908D01*
X36124Y3808D01*
X36024D01*
X35924Y3908D01*
Y4108D01*
X36024Y4208D01*
X36224D01*
X36324Y4108D01*
X9581Y12971D02*
X9481Y13171D01*
X9281Y13371D01*
X9081D01*
X8981Y13271D01*
Y13071D01*
X9081Y12971D01*
X9181D01*
X9281Y13071D01*
Y13371D01*
X51417Y29396D02*
Y29134D01*
X51811D01*
Y29396D01*
X51614Y29134D02*
Y29265D01*
X51417Y29790D02*
Y29527D01*
X51811D01*
Y29790D01*
X51614Y29527D02*
Y29659D01*
X51811Y29921D02*
Y30052D01*
Y29987D01*
X51417D01*
X51483Y29921D01*
X51417Y30511D02*
X51483Y30380D01*
X51614Y30249D01*
X51745D01*
X51811Y30315D01*
Y30446D01*
X51745Y30511D01*
X51680D01*
X51614Y30446D01*
Y30249D01*
D45*
X3870Y28295D02*
G03*
X5030Y28285I585J575D01*
G01*
X4638Y26343D02*
G03*
X4638Y26343I-178J0D01*
G01*
X3745Y24029D02*
G03*
X3745Y24029I-178J0D01*
G01*
X5255Y24019D02*
G03*
X5255Y24019I-178J0D01*
G01*
X8034Y11173D02*
G03*
X9033Y11169I500J-17D01*
G01*
X31406Y4140D02*
Y4710D01*
X31176Y4140D02*
X32246D01*
Y4710D01*
X31176D02*
X32246D01*
X30906Y4430D02*
X31176D01*
X32246D02*
X32506D01*
X31176Y4140D02*
Y4710D01*
X27831Y4140D02*
Y4710D01*
X27601Y4140D02*
X28672D01*
Y4710D01*
X27601D02*
X28672D01*
X27332Y4430D02*
X27601D01*
X28672D02*
X28932D01*
X27601Y4140D02*
Y4710D01*
X31406Y6108D02*
Y6678D01*
X31176Y6108D02*
X32246D01*
Y6678D01*
X31176D02*
X32246D01*
X30906Y6398D02*
X31176D01*
X32246D02*
X32506D01*
X31176Y6108D02*
Y6678D01*
X27831Y6108D02*
Y6678D01*
X27601Y6108D02*
X28672D01*
Y6678D01*
X27601D02*
X28672D01*
X27332Y6398D02*
X27601D01*
X28672D02*
X28932D01*
X27601Y6108D02*
Y6678D01*
X45457Y30051D02*
X49217D01*
X45457D02*
X45467Y30041D01*
Y27991D02*
Y30041D01*
Y27991D02*
X49457D01*
Y30041D01*
X49447Y30051D02*
X49457Y30041D01*
X49217Y30051D02*
X49447D01*
X45467Y28361D02*
X45477Y28221D01*
X40535Y30091D02*
X44295D01*
X40535D02*
X40545Y30081D01*
Y28031D02*
Y30081D01*
Y28031D02*
X44535D01*
Y30081D01*
X44525Y30091D02*
X44535Y30081D01*
X44295Y30091D02*
X44525D01*
X40545Y28401D02*
X40555Y28261D01*
X35457Y30051D02*
X39217D01*
X35457D02*
X35467Y30041D01*
Y27991D02*
Y30041D01*
Y27991D02*
X39457D01*
Y30041D01*
X39447Y30051D02*
X39457Y30041D01*
X39217Y30051D02*
X39447D01*
X35467Y28361D02*
X35477Y28221D01*
X20457Y30051D02*
X24217D01*
X20457D02*
X20467Y30041D01*
Y27991D02*
Y30041D01*
Y27991D02*
X24457D01*
Y30041D01*
X24447Y30051D02*
X24457Y30041D01*
X24217Y30051D02*
X24447D01*
X20467Y28361D02*
X20477Y28221D01*
X25457Y30051D02*
X29217D01*
X25457D02*
X25467Y30041D01*
Y27991D02*
Y30041D01*
Y27991D02*
X29457D01*
Y30041D01*
X29447Y30051D02*
X29457Y30041D01*
X29217Y30051D02*
X29447D01*
X25467Y28361D02*
X25477Y28221D01*
X30457Y30051D02*
X34217D01*
X30457D02*
X30467Y30041D01*
Y27991D02*
Y30041D01*
Y27991D02*
X34457D01*
Y30041D01*
X34447Y30051D02*
X34457Y30041D01*
X34217Y30051D02*
X34447D01*
X30467Y28361D02*
X30477Y28221D01*
X7008Y30793D02*
X7168D01*
X6798D02*
X7008D01*
X6538Y31203D02*
X7508D01*
X7008Y30493D02*
Y30793D01*
Y32293D02*
Y32593D01*
Y30793D02*
X7618D01*
Y32293D01*
X6358D02*
X7618D01*
X6358Y30793D02*
Y32293D01*
Y30793D02*
X7008D01*
X1343Y21937D02*
X7549D01*
X1343Y29571D02*
X7549D01*
X1343Y21937D02*
Y29571D01*
X7549Y21937D02*
Y29571D01*
X5040Y28295D02*
X6180D01*
X2730Y28305D02*
X3860D01*
X4460Y24501D02*
Y26145D01*
X4450Y26545D02*
Y28587D01*
X5397Y23581D02*
X6157D01*
X5137Y23841D02*
X5397Y23581D01*
X2637D02*
X3297D01*
X3567Y23851D01*
X4459Y24501D02*
X4849Y24111D01*
X4980Y30793D02*
X5630D01*
X4980D02*
Y32293D01*
X6240D01*
Y30793D02*
Y32293D01*
X5630Y30793D02*
X6240D01*
X5630Y32293D02*
Y32593D01*
Y30493D02*
Y30793D01*
X5160Y31203D02*
X6130D01*
X5420Y30793D02*
X5630D01*
X5790D01*
X10533Y9169D02*
Y11169D01*
X6533Y9169D02*
X10533D01*
X6533D02*
Y11169D01*
X9043D02*
X10533D01*
X6533D02*
X8033D01*
X8521Y7926D02*
X9091D01*
X8811Y6596D02*
Y6856D01*
Y7926D02*
Y8196D01*
X9091Y6856D02*
Y7926D01*
X8521Y6856D02*
X9091D01*
X8521D02*
Y7926D01*
Y7696D02*
X9091D01*
X9759Y6872D02*
X10329D01*
X10039Y7942D02*
Y8202D01*
Y6602D02*
Y6872D01*
X9759D02*
Y7942D01*
X10329D01*
Y6872D02*
Y7942D01*
X9759Y7102D02*
X10329D01*
X649Y10085D02*
X1299D01*
X649D02*
Y11585D01*
X1909D01*
Y10085D02*
Y11585D01*
X1299Y10085D02*
X1909D01*
X1299Y11585D02*
Y11885D01*
Y9785D02*
Y10085D01*
X829Y10495D02*
X1799D01*
X1089Y10085D02*
X1299D01*
X1459D01*
D46*
X7883Y10659D02*
G03*
X7883Y10659I-80J0D01*
G01*
D47*
X6140Y16711D02*
G03*
X6141Y17385I435J336D01*
G01*
X5975Y17547D02*
X6139Y17383D01*
X5575Y17547D02*
X5975D01*
X5575Y16547D02*
X5975D01*
X6135Y16707D01*
X5575Y17547D02*
Y18347D01*
X6575D01*
X5575Y15747D02*
Y16547D01*
Y15747D02*
X6575D01*
X7625Y15097D02*
Y18997D01*
X9275D01*
Y15097D02*
Y18997D01*
X7625Y15097D02*
X9275D01*
X7475Y19797D02*
X9825D01*
X7475Y14297D02*
Y19797D01*
Y14297D02*
X9825D01*
Y14047D02*
Y14297D01*
X5575Y14047D02*
X9825D01*
X5575D02*
Y14297D01*
X6575D01*
Y14747D01*
X5575D02*
X6575D01*
X5575D02*
Y15347D01*
X6575D01*
Y15747D01*
X9825Y19797D02*
Y20047D01*
X5575D02*
X9825D01*
X5575Y19797D02*
Y20047D01*
Y19797D02*
X6575D01*
Y19347D02*
Y19797D01*
X5575Y19347D02*
X6575D01*
X5575Y18747D02*
Y19347D01*
Y18747D02*
X6575D01*
Y18347D02*
Y18747D01*
D48*
X35222Y30191D02*
X35722D01*
Y31441D01*
X35222D02*
X35722D01*
X35222Y30191D02*
Y31441D01*
X35472Y29741D02*
Y30191D01*
Y31441D02*
Y31841D01*
X20222Y30191D02*
X20722D01*
Y31441D01*
X20222D02*
X20722D01*
X20222Y30191D02*
Y31441D01*
X20472Y29741D02*
Y30191D01*
Y31441D02*
Y31841D01*
X30222Y30191D02*
X30722D01*
Y31441D01*
X30222D02*
X30722D01*
X30222Y30191D02*
Y31441D01*
X30472Y29741D02*
Y30191D01*
Y31441D02*
Y31841D01*
X45222Y30191D02*
X45722D01*
Y31441D01*
X45222D02*
X45722D01*
X45222Y30191D02*
Y31441D01*
X45472Y29741D02*
Y30191D01*
Y31441D02*
Y31841D01*
X11609Y19829D02*
Y20329D01*
Y19829D02*
X12859D01*
Y20329D01*
X11609D02*
X12859D01*
X11159Y20079D02*
X11609D01*
X12859D02*
X13259D01*
X24191Y31391D02*
X24691D01*
X24191Y30141D02*
Y31391D01*
Y30141D02*
X24691D01*
Y31391D01*
X24441D02*
Y31841D01*
Y29741D02*
Y30141D01*
X29207Y31391D02*
X29707D01*
X29207Y30141D02*
Y31391D01*
Y30141D02*
X29707D01*
Y31391D01*
X29457D02*
Y31841D01*
Y29741D02*
Y30141D01*
X34191Y31391D02*
X34691D01*
X34191Y30141D02*
Y31391D01*
Y30141D02*
X34691D01*
Y31391D01*
X34441D02*
Y31841D01*
Y29741D02*
Y30141D01*
X39207Y31391D02*
X39707D01*
X39207Y30141D02*
Y31391D01*
Y30141D02*
X39707D01*
Y31391D01*
X39457D02*
Y31841D01*
Y29741D02*
Y30141D01*
X44285Y31431D02*
X44785D01*
X44285Y30181D02*
Y31431D01*
Y30181D02*
X44785D01*
Y31431D01*
X44535D02*
Y31881D01*
Y29781D02*
Y30181D01*
X49317Y31391D02*
X49817D01*
X49317Y30141D02*
Y31391D01*
Y30141D02*
X49817D01*
Y31391D01*
X49567D02*
Y31841D01*
Y29741D02*
Y30141D01*
X58150Y30305D02*
Y33858D01*
X57864Y-10D02*
Y3533D01*
X61407D01*
X3533Y30305D02*
Y33848D01*
X-10Y30305D02*
X3533D01*
X61388D02*
X61407Y30285D01*
X58150Y30305D02*
X61388D01*
X61407Y3533D02*
Y30285D01*
X3553Y-10D02*
X57864D01*
X-10Y3386D02*
Y30305D01*
X3543Y33858D02*
X58150D01*
X8292Y13307D02*
X8692D01*
X6592D02*
X7042D01*
Y13557D02*
X8292D01*
Y13057D02*
Y13557D01*
X7042Y13057D02*
X8292D01*
X7042D02*
Y13557D01*
X7717Y5993D02*
Y6393D01*
Y7643D02*
Y8093D01*
X7967Y6393D02*
Y7643D01*
X7467Y6393D02*
X7967D01*
X7467D02*
Y7643D01*
X7967D01*
X3356Y9567D02*
X3756D01*
X5006D02*
X5456D01*
X3756Y9317D02*
X5006D01*
X3756D02*
Y9817D01*
X5006D01*
Y9317D02*
Y9817D01*
X7898Y4252D02*
X8298D01*
X6198D02*
X6648D01*
Y4502D02*
X7898D01*
Y4002D02*
Y4502D01*
X6648Y4002D02*
X7898D01*
X6648D02*
Y4502D01*
X3533Y-10D02*
Y3356D01*
X-10D02*
X3533D01*
D49*
X52835Y24724D02*
X61299D01*
Y8976D02*
Y24724D01*
X52835Y8976D02*
X61299D01*
X52835D02*
Y24724D01*
X25785Y3642D02*
Y7185D01*
X34053D01*
Y3642D02*
Y7185D01*
X25785Y3642D02*
X34053D01*
X20315Y1575D02*
Y5118D01*
X15354Y1575D02*
X20315D01*
X15354D02*
Y5118D01*
X20315D01*
D50*
X39165Y6784D02*
X41417D01*
Y3831D02*
Y6784D01*
X39165Y3831D02*
X41417D01*
X39165D02*
Y6784D01*
X42024Y6764D02*
X44276D01*
Y3811D02*
Y6764D01*
X42024Y3811D02*
X44276D01*
X42024D02*
Y6764D01*
X36315Y6843D02*
X38567D01*
Y2890D02*
Y6843D01*
X36315Y2890D02*
X38567D01*
X36315D02*
Y6843D01*
X54045Y2516D02*
Y4768D01*
X47092Y2516D02*
X54045D01*
X47092D02*
Y4768D01*
X54045D01*
X7646Y1472D02*
X11598D01*
Y3724D01*
X7646D02*
X11598D01*
X7646Y1472D02*
Y3724D01*
X2142Y12937D02*
X6094D01*
X2142Y10685D02*
Y12937D01*
Y10685D02*
X6094D01*
Y12937D01*
D51*
X5697Y8561D02*
Y8811D01*
X4697Y8561D02*
X5697D01*
X4697D02*
Y8811D01*
X6197Y4811D02*
Y8811D01*
X4197Y4811D02*
X6197D01*
X4197D02*
Y8811D01*
X6197D01*
X5697Y8561D02*
Y8811D01*
X4697Y8561D02*
X5697D01*
X4697D02*
Y8811D01*
X6197Y4811D02*
Y8811D01*
X4197Y4811D02*
X6197D01*
X4197D02*
Y8811D01*
X6197D01*
Y4811D02*
X7197D01*
X3197D02*
X6197D01*
X3197D02*
Y8811D01*
X4197D01*
X4697D01*
X5697D01*
X7197D01*
Y4811D02*
Y8811D01*
D52*
X31231Y4405D02*
D03*
X27657Y4405D02*
D03*
X31231Y6373D02*
D03*
X27657Y6373D02*
D03*
D53*
X47452Y28171D02*
D03*
X42530Y28211D02*
D03*
X37452Y28171D02*
D03*
X22449D02*
D03*
X27452Y28171D02*
D03*
X32448Y28171D02*
D03*
D54*
X6987Y30892D02*
D03*
X5610Y30893D02*
D03*
X1279Y10185D02*
D03*
D55*
X8786Y7871D02*
D03*
X10064Y6926D02*
D03*
M02*
