%FSLAX24Y24*%
%MOIN*%
G70*
G01*
G75*
G04 Layer_Physical_Order=1*
G04 Layer_Color=255*
%ADD10C,0.0472*%
%ADD11C,0.0591*%
%ADD12C,0.0394*%
%ADD13C,0.0709*%
%ADD14C,0.1575*%
%ADD15C,0.0800*%
%ADD16C,0.1000*%
%ADD17R,0.0650X0.1000*%
%ADD18O,0.0650X0.1000*%
%ADD19R,0.0630X0.0630*%
%ADD20C,0.0630*%
%ADD21R,0.0800X0.1000*%
%ADD22O,0.0800X0.1000*%
%ADD23C,0.0984*%
%ADD24R,0.0800X0.0800*%
%ADD25O,0.0630X0.0787*%
%ADD26C,0.1200*%
%ADD27R,0.0630X0.0630*%
%ADD28R,0.1181X0.1181*%
%ADD29C,0.1181*%
%ADD30C,0.0787*%
%ADD31R,0.0900X0.0600*%
%ADD32O,0.0900X0.0600*%
%ADD33O,0.0787X0.0591*%
%ADD34O,0.1000X0.0650*%
%ADD35R,0.1000X0.0650*%
%ADD36C,0.0591*%
%ADD37R,0.0591X0.0512*%
%ADD38O,0.0591X0.0512*%
G04:AMPARAMS|DCode=39|XSize=70mil|YSize=90mil|CornerRadius=0mil|HoleSize=0mil|Usage=FLASHONLY|Rotation=90.000|XOffset=0mil|YOffset=0mil|HoleType=Round|Shape=Octagon|*
%AMOCTAGOND39*
4,1,8,-0.0450,-0.0175,-0.0450,0.0175,-0.0275,0.0350,0.0275,0.0350,0.0450,0.0175,0.0450,-0.0175,0.0275,-0.0350,-0.0275,-0.0350,-0.0450,-0.0175,0.0*
%
%ADD39OCTAGOND39*%

D10*
X39457Y32291D02*
X45472D01*
X51016D01*
X53819Y29488D01*
X52992Y27638D02*
X53110D01*
X53819Y28346D01*
Y29488D01*
D11*
X3819Y15039D02*
X11535D01*
X3819D02*
X11496D01*
X11260Y22047D02*
X12087Y21220D01*
X9094Y22047D02*
X11260D01*
X12087Y19764D02*
Y21220D01*
X19252Y3386D02*
X20984D01*
X18543Y21693D02*
X23740Y16496D01*
X31623Y3346D02*
X32706Y4430D01*
X26024Y3346D02*
X31623D01*
X23898Y5472D02*
X26024Y3346D01*
X16811Y5472D02*
X23898D01*
X14520D02*
X16811D01*
Y3346D02*
Y5472D01*
X12677Y7315D02*
X14520Y5472D01*
X12677Y7315D02*
Y8504D01*
X15669D02*
X19961D01*
X8583Y17063D02*
X14743D01*
X25452Y6398D02*
X27132D01*
X12087Y19764D02*
X25452Y6398D01*
X3858Y15039D02*
X11535D01*
X11260Y22047D02*
X12087Y21220D01*
Y19764D02*
Y21220D01*
X9094Y22047D02*
X11260D01*
X19252Y3386D02*
X20984D01*
X18543Y21693D02*
X23740Y16496D01*
X31623Y3346D02*
X32706Y4430D01*
X26024Y3346D02*
X31623D01*
X23898Y5472D02*
X26024Y3346D01*
X14520Y5472D02*
X16811D01*
X23898D01*
X16811Y3346D02*
Y5472D01*
X12677Y7315D02*
X14520Y5472D01*
X12677Y7315D02*
Y8504D01*
X15669D02*
X19961D01*
X25452Y6398D02*
X27132D01*
X12087Y19764D02*
X25452Y6398D01*
X8583Y17063D02*
X14743D01*
X57047Y11772D02*
Y27638D01*
X53068Y7793D02*
X57047Y11772D01*
X53068Y3878D02*
Y7793D01*
X55000Y30630D02*
X57047Y32677D01*
X55000Y11181D02*
Y30630D01*
X52069Y8250D02*
X55000Y11181D01*
X52069Y3878D02*
Y8250D01*
X49961Y5276D02*
X50068Y5168D01*
Y5226D01*
Y3878D02*
Y5168D01*
X50019Y5276D02*
X50068Y5226D01*
X45079Y5276D02*
X49961D01*
X43819Y4016D02*
X45079Y5276D01*
X42402Y4016D02*
X43819D01*
X41610Y4807D02*
X42402Y4016D01*
X40055Y4807D02*
X41610D01*
X51069Y3878D02*
Y6018D01*
X44488Y6024D02*
X51063D01*
X43252Y4787D02*
X44488Y6024D01*
X42913Y4787D02*
X43252D01*
X43909Y6862D02*
X47174D01*
X50255Y9942D01*
X40055Y5807D02*
X42913D01*
Y5866D01*
Y5787D02*
Y5807D01*
Y5866D02*
X43909Y6862D01*
X40039Y7638D02*
X44958D01*
X39134Y6732D02*
X40039Y7638D01*
X39134Y5197D02*
Y6732D01*
X44958Y7638D02*
X47262Y9942D01*
X39134Y5197D02*
X39523Y4807D01*
X40055D01*
X23457Y29291D02*
X24441D01*
X28457D02*
X29457D01*
X33457D02*
X34441D01*
X38457D02*
X39457D01*
X43535Y29331D02*
X44535D01*
X48457Y29291D02*
X49441D01*
X45472D02*
X46457D01*
X49441Y32291D02*
X49449Y32283D01*
X46457Y27835D02*
Y29291D01*
X41535Y28110D02*
Y29331D01*
D12*
X984Y7520D02*
X1524Y8059D01*
X984Y5787D02*
Y7520D01*
Y5787D02*
X2579Y4193D01*
X1524Y8059D02*
X2008D01*
X2110Y20512D02*
X3110D01*
X5720Y3110D02*
X7640Y1191D01*
X3949Y3711D02*
X7059Y600D01*
X2116Y3711D02*
X3949D01*
X433Y5394D02*
X2116Y3711D01*
X4638Y4193D02*
X5720Y3110D01*
X2579Y4193D02*
X4638D01*
X9622Y2362D02*
Y3378D01*
X8748Y4252D02*
X9622Y3378D01*
X6697Y5287D02*
Y5311D01*
X6720Y3110D02*
Y5287D01*
X4393Y4669D02*
X5331D01*
X3087D02*
X4393D01*
X6035Y6311D01*
X2598Y5157D02*
X3087Y4669D01*
X5331D02*
X5748Y4252D01*
X8661Y5305D02*
Y6247D01*
X7913Y4557D02*
X8661Y5305D01*
X7913Y3071D02*
Y4557D01*
Y3071D02*
X8622Y2362D01*
X445Y12335D02*
X1299D01*
X3937Y16063D02*
X4606Y16732D01*
X2835Y16063D02*
X3937D01*
X2244Y15472D02*
X2835Y16063D01*
X2598Y7087D02*
X3472D01*
X2598Y7059D02*
X2807D01*
X2008D02*
X2598D01*
Y7087D01*
Y5157D02*
Y7059D01*
X5118Y6299D02*
Y7283D01*
X4130Y5311D02*
X5118Y6299D01*
X3697Y5311D02*
X4130D01*
X3976Y9567D02*
X4567Y8976D01*
Y6811D02*
Y8976D01*
X4067Y6311D02*
X4567Y6811D01*
X8425Y11693D02*
X9449Y10669D01*
X7795Y11299D02*
X8386Y10709D01*
Y9213D02*
Y10709D01*
X7717Y8543D02*
X8386Y9213D01*
X7484Y8311D02*
X7717Y8543D01*
X6614Y11299D02*
X7795D01*
X8031Y12087D02*
X8425Y11693D01*
X7165Y12087D02*
X8031D01*
X2480Y10315D02*
X4134D01*
X2126Y9961D02*
X2480Y10315D01*
X2126Y8177D02*
Y9961D01*
X4134Y10315D02*
X5630Y8819D01*
X6183D01*
X6142Y10827D02*
X6614Y11299D01*
X1299Y10827D02*
X6142D01*
X1299Y9335D02*
Y10827D01*
X2520Y11378D02*
X5669D01*
X4118Y11402D02*
Y12047D01*
X5669Y11378D02*
X6378Y12087D01*
X2283Y11614D02*
X2520Y11378D01*
X3118Y12047D02*
Y13890D01*
X5118Y12047D02*
Y12835D01*
X6378Y12087D02*
X7165D01*
X1339Y13937D02*
X2283Y12992D01*
X3110Y20000D02*
Y20512D01*
X4606Y16732D02*
Y18504D01*
X3110Y20000D02*
X4606Y18504D01*
X2244Y14764D02*
Y15472D01*
X7283Y17612D02*
Y18819D01*
X5591Y20512D02*
X7283Y18819D01*
X4110Y20512D02*
X5591D01*
X2283Y11614D02*
Y12992D01*
X1339Y13937D02*
Y21457D01*
X2244Y14764D02*
X3118Y13890D01*
X1339Y21457D02*
X2011Y22129D01*
X5118Y12835D02*
X5591Y13307D01*
X6142D01*
X6890Y10669D02*
X7033D01*
X5906Y9685D02*
X6890Y10669D01*
X5906Y9567D02*
Y9685D01*
X9449Y10669D02*
X10033D01*
X7126Y12126D02*
X7165Y12087D01*
X8583Y18063D02*
X10598Y20079D01*
X9165Y12087D02*
X10551D01*
X11339Y11299D01*
Y10354D02*
Y11299D01*
X10654Y9669D02*
X11339Y10354D01*
X10033Y9669D02*
X10654D01*
X9142Y13307D02*
Y14496D01*
Y12110D02*
Y13307D01*
Y12110D02*
X9165Y12087D01*
X10039Y6402D02*
X10661Y5780D01*
Y2402D02*
Y5780D01*
X8811Y8396D02*
X8816Y8402D01*
X7725Y7311D02*
X8811Y8396D01*
X8816Y8402D02*
X10039D01*
X6697Y7311D02*
X7725D01*
X7717Y5543D02*
Y6291D01*
X6697Y7311D02*
X7717Y6291D01*
X6697Y8311D02*
X7484D01*
X6183Y8819D02*
X7033Y9669D01*
X6146Y8311D02*
X6697D01*
X5118Y7283D02*
X6146Y8311D01*
X2126Y8177D02*
X2260Y8311D01*
X2008Y8059D02*
X2126Y8177D01*
X2906Y9567D02*
X3976D01*
X3697Y6311D02*
X4067D01*
X2260Y8311D02*
X3697D01*
X6035Y6311D02*
X6697D01*
X7640Y1191D02*
X47697D01*
X50068Y3563D01*
Y3878D01*
X47923Y600D02*
X51069Y3746D01*
X7059Y600D02*
X47923D01*
X24441Y32291D02*
X29457D01*
X51069Y3746D02*
Y3878D01*
X433Y5394D02*
Y23661D01*
X21614Y3858D02*
X23701Y1772D01*
X43504D01*
X45611Y3878D01*
X48068D01*
X27195Y15561D02*
X35561D01*
X8421Y32835D02*
X11063D01*
X25433Y17323D02*
X27195Y15561D01*
X25433Y17323D02*
Y20394D01*
X18937Y26890D02*
X25433Y20394D01*
X17008Y26890D02*
X18937D01*
X11063Y32835D02*
X17008Y26890D01*
X5630Y30043D02*
X8421Y32835D01*
X433Y23661D02*
X2087Y25315D01*
Y28150D01*
X6768Y32713D02*
X7008D01*
X4803Y30748D02*
X6768Y32713D01*
X4803Y29291D02*
Y30748D01*
X4449Y28937D02*
X4803Y29291D01*
X4173Y31587D02*
X5630Y33043D01*
X4173Y30236D02*
Y31587D01*
X2087Y28150D02*
X4173Y30236D01*
X5630Y29331D02*
X6811Y28150D01*
X5630Y29331D02*
Y30043D01*
X10157Y28858D02*
Y30512D01*
X9724Y30945D02*
X10157Y30512D01*
X8110Y30945D02*
X9724D01*
X7209Y30043D02*
X8110Y30945D01*
X2011Y22129D02*
Y23346D01*
X49068Y3878D02*
Y4593D01*
X49016Y4646D02*
X49068Y4593D01*
X45512Y4646D02*
X49016D01*
X43386Y2520D02*
X45512Y4646D01*
X41827Y2520D02*
X43386D01*
X40827D02*
X41827D01*
X32052Y3657D02*
X33189Y2520D01*
X39827D01*
X13709Y20079D02*
Y25307D01*
X10157Y28858D02*
X13709Y25307D01*
X35472Y32291D02*
X38299D01*
X39016Y31575D01*
X20472Y32291D02*
X22882D01*
X52795Y32677D02*
X52992D01*
X39016Y31575D02*
X50984D01*
X52795Y29764D01*
Y28976D02*
Y29764D01*
X22882Y32291D02*
X23583Y32992D01*
X32953D01*
X30472Y32291D02*
X34441D01*
X29457D02*
X30472D01*
X34441D02*
Y32551D01*
X34843Y32953D01*
X51457D01*
X52992Y31417D01*
X32953Y32992D02*
X33425Y33465D01*
X52008D01*
X52795Y32677D01*
D13*
X35472Y29291D02*
D03*
Y32291D02*
D03*
X20472Y29291D02*
D03*
Y32291D02*
D03*
X30472Y29291D02*
D03*
Y32291D02*
D03*
X45472Y29291D02*
D03*
Y32291D02*
D03*
X10709Y20079D02*
D03*
X13709D02*
D03*
X24441Y32291D02*
D03*
Y29291D02*
D03*
X29457Y32291D02*
D03*
Y29291D02*
D03*
X34441Y32291D02*
D03*
Y29291D02*
D03*
X39457Y32291D02*
D03*
Y29291D02*
D03*
X44535Y32331D02*
D03*
Y29331D02*
D03*
X49567Y32291D02*
D03*
Y29291D02*
D03*
X9142Y13307D02*
D03*
X6142D02*
D03*
X7717Y5543D02*
D03*
Y8543D02*
D03*
X2906Y9567D02*
D03*
X5906D02*
D03*
X8748Y4252D02*
D03*
X5748D02*
D03*
D14*
X45118Y14409D02*
D03*
X45197Y12362D02*
D03*
X21614Y3858D02*
D03*
X51968Y13228D02*
D03*
X51378Y20945D02*
D03*
X2520Y18346D02*
D03*
D15*
X57047Y27638D02*
D03*
Y32677D02*
D03*
X52992Y31417D02*
D03*
Y32677D02*
D03*
Y28898D02*
D03*
Y27638D02*
D03*
X7008Y33043D02*
D03*
X5630D02*
D03*
X1299Y12335D02*
D03*
D16*
X37638Y10532D02*
D03*
X39606D02*
D03*
X35669D02*
D03*
X33701D02*
D03*
X31732D02*
D03*
X29764D02*
D03*
Y17421D02*
D03*
X31732D02*
D03*
X33701D02*
D03*
X35669D02*
D03*
X39606D02*
D03*
X37638D02*
D03*
X26890Y19547D02*
D03*
X28858D02*
D03*
X30827D02*
D03*
X32795D02*
D03*
X40669D02*
D03*
X38701D02*
D03*
X36732D02*
D03*
X34764D02*
D03*
X42638D02*
D03*
X34764Y8720D02*
D03*
X36732D02*
D03*
X38701D02*
D03*
X40669D02*
D03*
X32795D02*
D03*
X30827D02*
D03*
X28858D02*
D03*
X26890D02*
D03*
X42638D02*
D03*
X6575Y17047D02*
D03*
D17*
X30706Y4430D02*
D03*
X27132Y4430D02*
D03*
X30706Y6398D02*
D03*
X27132D02*
D03*
D18*
X32706Y4430D02*
D03*
X29132Y4430D02*
D03*
X32706Y6398D02*
D03*
X29132D02*
D03*
D19*
X40055Y5807D02*
D03*
X42913Y5787D02*
D03*
X37205Y5866D02*
D03*
D20*
X40055Y4807D02*
D03*
X42913Y4787D02*
D03*
X37205Y3866D02*
D03*
Y4866D02*
D03*
X51069Y3878D02*
D03*
X52069D02*
D03*
X50068D02*
D03*
X49068D02*
D03*
X48068D02*
D03*
X9622Y2362D02*
D03*
X10622D02*
D03*
X4118Y12047D02*
D03*
X3118D02*
D03*
D21*
X48457Y29291D02*
D03*
X43535Y29331D02*
D03*
X38457Y29291D02*
D03*
X23457D02*
D03*
X28457D02*
D03*
X33457D02*
D03*
D22*
X47457D02*
D03*
X46457D02*
D03*
X42535Y29331D02*
D03*
X41535D02*
D03*
X37457Y29291D02*
D03*
X36457D02*
D03*
X22457D02*
D03*
X21457D02*
D03*
X27457D02*
D03*
X26457D02*
D03*
X32457D02*
D03*
X31457D02*
D03*
D23*
X18183Y22026D02*
D03*
Y23994D02*
D03*
Y27931D02*
D03*
Y25963D02*
D03*
Y29900D02*
D03*
Y31869D02*
D03*
X9094Y31890D02*
D03*
Y29921D02*
D03*
Y25984D02*
D03*
Y27953D02*
D03*
Y24016D02*
D03*
Y22047D02*
D03*
X11890Y15669D02*
D03*
X23701D02*
D03*
D24*
X7008Y30043D02*
D03*
X5630D02*
D03*
X1299Y9335D02*
D03*
D25*
X41827Y2520D02*
D03*
X40827D02*
D03*
X39827D02*
D03*
X4110Y20512D02*
D03*
X3110D02*
D03*
X2110D02*
D03*
D26*
X4449Y28937D02*
D03*
X6811Y23346D02*
D03*
X2011D02*
D03*
X6811Y28150D02*
D03*
X2087D02*
D03*
D27*
X53068Y3878D02*
D03*
X8622Y2362D02*
D03*
X5118Y12047D02*
D03*
D28*
X15669Y8504D02*
D03*
X22953D02*
D03*
X50906Y9606D02*
D03*
Y16850D02*
D03*
D29*
X12677Y8504D02*
D03*
X19961D02*
D03*
X47913Y9606D02*
D03*
Y16850D02*
D03*
D30*
X18819Y3346D02*
D03*
X16811D02*
D03*
X3307Y15197D02*
D03*
Y17165D02*
D03*
X7126Y12126D02*
D03*
X9126D02*
D03*
X35079Y6063D02*
D03*
Y4063D02*
D03*
D31*
X7033Y10669D02*
D03*
D32*
Y9669D02*
D03*
X10033D02*
D03*
Y10669D02*
D03*
D33*
X6697Y8311D02*
D03*
Y7311D02*
D03*
Y6311D02*
D03*
Y5311D02*
D03*
X3697D02*
D03*
Y6311D02*
D03*
Y7311D02*
D03*
Y8311D02*
D03*
D34*
X8811Y6396D02*
D03*
X10039Y8402D02*
D03*
D35*
X8811Y8396D02*
D03*
X10039Y6402D02*
D03*
D36*
X6720Y3110D02*
D03*
X5720D02*
D03*
D37*
X1811Y7059D02*
D03*
D38*
Y8059D02*
D03*
D39*
X8575Y16047D02*
D03*
Y17047D02*
D03*
Y18047D02*
D03*
M02*
