%FSLAX24Y24*%
%MOIN*%
G70*
G01*
G75*
G04 Layer_Physical_Order=2*
G04 Layer_Color=16711680*
%ADD10C,0.0472*%
%ADD11C,0.0591*%
%ADD12C,0.0394*%
%ADD13C,0.0709*%
%ADD14C,0.1575*%
%ADD15C,0.0800*%
%ADD16C,0.1000*%
%ADD17R,0.0650X0.1000*%
%ADD18O,0.0650X0.1000*%
%ADD19R,0.0630X0.0630*%
%ADD20C,0.0630*%
%ADD21R,0.0800X0.1000*%
%ADD22O,0.0800X0.1000*%
%ADD23C,0.0984*%
%ADD24R,0.0800X0.0800*%
%ADD25O,0.0630X0.0787*%
%ADD26C,0.1200*%
%ADD27R,0.0630X0.0630*%
%ADD28R,0.1181X0.1181*%
%ADD29C,0.1181*%
%ADD30C,0.0787*%
%ADD31R,0.0900X0.0600*%
%ADD32O,0.0900X0.0600*%
%ADD33O,0.0787X0.0591*%
%ADD34O,0.1000X0.0650*%
%ADD35R,0.1000X0.0650*%
%ADD36C,0.0591*%
%ADD37R,0.0591X0.0512*%
%ADD38O,0.0591X0.0512*%
G04:AMPARAMS|DCode=39|XSize=70mil|YSize=90mil|CornerRadius=0mil|HoleSize=0mil|Usage=FLASHONLY|Rotation=90.000|XOffset=0mil|YOffset=0mil|HoleType=Round|Shape=Octagon|*
%AMOCTAGOND39*
4,1,8,-0.0450,-0.0175,-0.0450,0.0175,-0.0275,0.0350,0.0275,0.0350,0.0450,0.0175,0.0450,-0.0175,0.0275,-0.0350,-0.0275,-0.0350,-0.0450,-0.0175,0.0*
%
%ADD39OCTAGOND39*%

%ADD40C,0.0787*%
%ADD41C,0.1575*%
%ADD42C,0.2362*%
%ADD43C,0.1181*%
G36*
X36457Y16811D02*
Y16732D01*
X37047Y16142D01*
X46142D01*
X46473Y12561D01*
X39291Y12598D01*
X36427Y15561D01*
X36339Y15472D01*
X35000Y16811D01*
X34449D01*
Y18425D01*
X33937Y18937D01*
X36457D01*
Y16811D01*
D02*
G37*
G36*
X31417Y20079D02*
Y18898D01*
X26299D01*
Y20118D01*
X31417Y20079D01*
D02*
G37*
G36*
X51102Y30827D02*
X51614Y30433D01*
X51811Y30118D01*
Y9094D01*
X51772Y9055D01*
X49055D01*
Y27795D01*
X50197Y28937D01*
X50157Y31181D01*
X50591D01*
X51102Y30827D01*
D02*
G37*
G36*
X46890Y12559D02*
X46535Y11890D01*
X46473Y12561D01*
X46890Y12559D01*
D02*
G37*
G36*
X27895Y26199D02*
X26735Y27557D01*
X29215D01*
X27895Y26199D01*
D02*
G37*
G36*
X42283Y27756D02*
X42244D01*
X42244Y27756D01*
X42283Y27756D01*
D02*
G37*
G36*
X43228Y20039D02*
Y18898D01*
X38031D01*
Y20079D01*
X43268D01*
X43228Y20039D01*
D02*
G37*
G36*
X40669Y26181D02*
X39213Y27756D01*
X42244D01*
X40669Y26181D01*
D02*
G37*
D13*
X35472Y29291D02*
D03*
Y32291D02*
D03*
X20472Y29291D02*
D03*
Y32291D02*
D03*
X30472Y29291D02*
D03*
Y32291D02*
D03*
X45472Y29291D02*
D03*
Y32291D02*
D03*
X10709Y20079D02*
D03*
X13709D02*
D03*
X24441Y32291D02*
D03*
Y29291D02*
D03*
X29457Y32291D02*
D03*
Y29291D02*
D03*
X34441Y32291D02*
D03*
Y29291D02*
D03*
X39457Y32291D02*
D03*
Y29291D02*
D03*
X44535Y32331D02*
D03*
Y29331D02*
D03*
X49567Y32291D02*
D03*
Y29291D02*
D03*
X9142Y13307D02*
D03*
X6142D02*
D03*
X7717Y5543D02*
D03*
Y8543D02*
D03*
X2906Y9567D02*
D03*
X5906D02*
D03*
X8748Y4252D02*
D03*
X5748D02*
D03*
D14*
X45118Y14409D02*
D03*
X45197Y12362D02*
D03*
X21614Y3858D02*
D03*
X51968Y13228D02*
D03*
X51378Y20945D02*
D03*
X2520Y18346D02*
D03*
D15*
X57047Y27638D02*
D03*
Y32677D02*
D03*
X52992Y31417D02*
D03*
Y32677D02*
D03*
Y28898D02*
D03*
Y27638D02*
D03*
X7008Y33043D02*
D03*
X5630D02*
D03*
X1299Y12335D02*
D03*
D16*
X37638Y10532D02*
D03*
X39606D02*
D03*
X35669D02*
D03*
X33701D02*
D03*
X31732D02*
D03*
X29764D02*
D03*
Y17421D02*
D03*
X31732D02*
D03*
X33701D02*
D03*
X35669D02*
D03*
X39606D02*
D03*
X37638D02*
D03*
X26890Y19547D02*
D03*
X28858D02*
D03*
X30827D02*
D03*
X32795D02*
D03*
X40669D02*
D03*
X38701D02*
D03*
X36732D02*
D03*
X34764D02*
D03*
X42638D02*
D03*
X34764Y8720D02*
D03*
X36732D02*
D03*
X38701D02*
D03*
X40669D02*
D03*
X32795D02*
D03*
X30827D02*
D03*
X28858D02*
D03*
X26890D02*
D03*
X42638D02*
D03*
X6575Y17047D02*
D03*
D17*
X30706Y4430D02*
D03*
X27132Y4430D02*
D03*
X30706Y6398D02*
D03*
X27132D02*
D03*
D18*
X32706Y4430D02*
D03*
X29132Y4430D02*
D03*
X32706Y6398D02*
D03*
X29132D02*
D03*
D19*
X40055Y5807D02*
D03*
X42913Y5787D02*
D03*
X37205Y5866D02*
D03*
D20*
X40055Y4807D02*
D03*
X42913Y4787D02*
D03*
X37205Y3866D02*
D03*
Y4866D02*
D03*
X51069Y3878D02*
D03*
X52069D02*
D03*
X50068D02*
D03*
X49068D02*
D03*
X48068D02*
D03*
X9622Y2362D02*
D03*
X10622D02*
D03*
X4118Y12047D02*
D03*
X3118D02*
D03*
D21*
X48457Y29291D02*
D03*
X43535Y29331D02*
D03*
X38457Y29291D02*
D03*
X23457D02*
D03*
X28457D02*
D03*
X33457D02*
D03*
D22*
X47457D02*
D03*
X46457D02*
D03*
X42535Y29331D02*
D03*
X41535D02*
D03*
X37457Y29291D02*
D03*
X36457D02*
D03*
X22457D02*
D03*
X21457D02*
D03*
X27457D02*
D03*
X26457D02*
D03*
X32457D02*
D03*
X31457D02*
D03*
D23*
X18183Y22026D02*
D03*
Y23994D02*
D03*
Y27931D02*
D03*
Y25963D02*
D03*
Y29900D02*
D03*
Y31869D02*
D03*
X9094Y31890D02*
D03*
Y29921D02*
D03*
Y25984D02*
D03*
Y27953D02*
D03*
Y24016D02*
D03*
Y22047D02*
D03*
X11890Y15669D02*
D03*
X23701D02*
D03*
D24*
X7008Y30043D02*
D03*
X5630D02*
D03*
X1299Y9335D02*
D03*
D25*
X41827Y2520D02*
D03*
X40827D02*
D03*
X39827D02*
D03*
X4110Y20512D02*
D03*
X3110D02*
D03*
X2110D02*
D03*
D26*
X4449Y28937D02*
D03*
X6811Y23346D02*
D03*
X2011D02*
D03*
X6811Y28150D02*
D03*
X2087D02*
D03*
D27*
X53068Y3878D02*
D03*
X8622Y2362D02*
D03*
X5118Y12047D02*
D03*
D28*
X15669Y8504D02*
D03*
X22953D02*
D03*
X50906Y9606D02*
D03*
Y16850D02*
D03*
D29*
X12677Y8504D02*
D03*
X19961D02*
D03*
X47913Y9606D02*
D03*
Y16850D02*
D03*
D30*
X18819Y3346D02*
D03*
X16811D02*
D03*
X3307Y15197D02*
D03*
Y17165D02*
D03*
X7126Y12126D02*
D03*
X9126D02*
D03*
X35079Y6063D02*
D03*
Y4063D02*
D03*
D31*
X7033Y10669D02*
D03*
D32*
Y9669D02*
D03*
X10033D02*
D03*
Y10669D02*
D03*
D33*
X6697Y8311D02*
D03*
Y7311D02*
D03*
Y6311D02*
D03*
Y5311D02*
D03*
X3697D02*
D03*
Y6311D02*
D03*
Y7311D02*
D03*
Y8311D02*
D03*
D34*
X8811Y6396D02*
D03*
X10039Y8402D02*
D03*
D35*
X8811Y8396D02*
D03*
X10039Y6402D02*
D03*
D36*
X6720Y3110D02*
D03*
X5720D02*
D03*
D37*
X1811Y7059D02*
D03*
D38*
Y8059D02*
D03*
D39*
X8575Y16047D02*
D03*
Y17047D02*
D03*
Y18047D02*
D03*
D40*
X29132Y6398D02*
X30706D01*
X28110Y5451D02*
X29132Y4430D01*
X28110Y5451D02*
Y8720D01*
X28858D01*
X26890D02*
X28110D01*
X26024Y3346D02*
X31623D01*
X29132Y4430D02*
X30706D01*
X32706D02*
Y6398D01*
X35079Y6063D02*
Y6575D01*
X28858Y8720D02*
Y9626D01*
X29764Y10532D01*
X31457Y27756D02*
Y29291D01*
X26457Y27638D02*
Y29291D01*
X30472D02*
X31457D01*
X47457D02*
Y30604D01*
X37457Y29291D02*
Y30604D01*
X27457Y29291D02*
Y30604D01*
X22457Y29291D02*
Y30604D01*
X35472Y29291D02*
X36457D01*
X20472D02*
X21457D01*
X33701Y10532D02*
X33733D01*
X34764Y8720D02*
X36732D01*
X30393Y6712D02*
X31240Y7559D01*
X34094D02*
X35079Y6575D01*
X31240Y7559D02*
X34094D01*
X35079Y4063D02*
X35855Y4839D01*
X35882Y4866D02*
X37205D01*
X36732Y6339D02*
X37205Y5866D01*
X36732Y6339D02*
Y8720D01*
X37205Y3866D02*
X37843D01*
X38701Y8720D02*
X39508D01*
X31732Y9783D02*
Y10532D01*
Y9783D02*
X32795Y8720D01*
X34764D01*
X39606Y8819D02*
Y10532D01*
Y10709D01*
X39508Y8720D02*
X39606D01*
X40669D01*
X33701Y10532D02*
X34862Y11693D01*
X38622D01*
X39606Y10709D01*
X37843Y3866D02*
X38189Y4213D01*
Y7402D01*
X39508Y8720D01*
X42535Y29331D02*
Y30624D01*
X26811Y6398D02*
X27132D01*
Y4430D02*
Y6398D01*
X31623Y3346D02*
X32706Y4430D01*
X12677Y7315D02*
X14520Y5472D01*
X23898D02*
X26024Y3346D01*
X21457Y27953D02*
Y29291D01*
X32457D02*
Y30604D01*
X36457Y27874D02*
Y29291D01*
X16811Y5472D02*
X23898D01*
X14520D02*
X16811D01*
Y3346D02*
Y5472D01*
X12677Y7315D02*
Y8504D01*
X8583Y17063D02*
X9567D01*
X8583Y16063D02*
X8622D01*
X8583D02*
X8937Y15709D01*
X11561Y15341D02*
X11929Y15709D01*
X3307Y15197D02*
X3504Y15000D01*
X7833Y17063D02*
X8583D01*
D41*
X34764Y19547D02*
X36732D01*
X32795D02*
X34764D01*
X33701Y17421D02*
Y19449D01*
Y17421D02*
X35669D01*
X37736Y13386D02*
X44055D01*
X35561Y15561D02*
X37736Y13386D01*
X33701Y17421D02*
X35561Y15561D01*
X44055Y13386D02*
X45197Y12244D01*
X47262D01*
X50906Y16850D02*
Y17900D01*
X50984D02*
Y17979D01*
X50906Y17900D02*
X50984Y17979D01*
D42*
X47262Y9942D02*
Y12244D01*
X47239Y17225D02*
X47262Y17202D01*
Y12244D02*
Y17202D01*
D43*
X25374Y6398D02*
X26811D01*
X15669Y8504D02*
X19961D01*
X18183Y22026D02*
Y23994D01*
X9567Y17063D02*
X14709D01*
X18183Y22026D02*
X23740Y16469D01*
Y15709D02*
Y16469D01*
X12126Y19646D02*
X14709Y17063D01*
X12126Y19646D02*
Y21378D01*
X18819Y3346D02*
X21102D01*
X21614Y3858D01*
X11457Y22047D02*
X12126Y21378D01*
X9094Y22047D02*
X11457D01*
X9094D02*
Y24016D01*
X14709Y17063D02*
X25374Y6398D01*
X22534Y30681D02*
X32457Y30653D01*
X42535Y30624D01*
X50140Y30602D01*
X37638Y17421D02*
X39606D01*
X29764D02*
X31732D01*
X42638Y24016D02*
X46457Y27835D01*
X42638Y19547D02*
Y24016D01*
X36559Y27835D02*
X46457D01*
X30827Y19547D02*
Y27087D01*
X36559Y27835D02*
X38661Y25732D01*
X28858Y19547D02*
Y25236D01*
X26535Y27559D02*
X31299D01*
X26535D02*
X28858Y25236D01*
X26457Y27638D02*
X26535Y27559D01*
X26890Y19547D02*
Y22087D01*
X21457Y27520D02*
X26890Y22087D01*
X21417Y27559D02*
X26535D01*
X38661Y19547D02*
Y25732D01*
X40669Y19547D02*
Y27756D01*
X39606Y17421D02*
X40669Y19547D01*
X28819Y19528D02*
X29724Y17402D01*
X40669Y19508D02*
Y27717D01*
X8937Y15709D02*
X9646Y15000D01*
X11220D01*
X11561Y15341D01*
X6583Y17063D02*
X7833D01*
X3780Y15000D02*
X9646D01*
X2520Y17953D02*
Y18346D01*
Y17953D02*
X3307Y17165D01*
M02*
