M48
;Layer_Color=9474304
;FILE_FORMAT=4:4
METRIC,LZ
;TYPE=PLATED
T1F00S00C0.7874
T2F00S00C0.8128
T3F00S00C1.0032
T4F00S00C1.1000
;TYPE=NON_PLATED
T5F00S00C1.0032
%
T01
X0031066Y001394
Y002283
X0029288Y0026132
X0025732
X0015826Y0013178
Y0004288
X0025732Y0035022
X0029288
T02
X0004142Y0017496
Y0020036
Y0022576
T03
X0001986Y0008348
X0004526
T04
X0010492Y000124
X0013032
X0015572
X0018112
X0020652
X0023192
T05
X0028526Y0002256
X0031066
X00314475Y0008352
X00279475
X0028272Y0015632
X0025732
Y0023252
X0028272
X0023192
X0020652
X0018112
X0015572
X0013032
X0010492
X0007444Y0025136
X0006174Y003172
X0003634
X0011812Y0030568
X001793Y002686
X002047
X0022012Y0030568
X0023192Y0015632
X0020652
X0018112
X0015572
X0013032
X0010492
X0007444Y0014936
X00088441Y00114601
X00113841
Y00038401
X00088441
X0020652Y000505
Y001267
X0024208Y0012416
Y0009876
X0022012Y0034124
X0011812
M30
