%FSLAX24Y24*%
%MOIN*%
G70*
G01*
G75*
G04 Layer_Color=16711935*
%ADD10C,0.0394*%
%ADD11C,0.0700*%
%ADD12C,0.0630*%
%ADD13R,0.0630X0.0630*%
%ADD14R,0.0691X0.0694*%
%ADD15O,0.0691X0.0694*%
%ADD16R,0.0694X0.0691*%
%ADD17O,0.0694X0.0691*%
%ADD18O,0.1000X0.0660*%
%ADD19C,0.0079*%
%ADD20C,0.0100*%
%ADD21C,0.0150*%
%ADD22C,0.0070*%
%ADD23C,0.0050*%
%ADD24R,0.1260X0.0200*%
%ADD25C,0.0780*%
%ADD26C,0.0710*%
%ADD27R,0.0710X0.0710*%
%ADD28R,0.0771X0.0774*%
%ADD29O,0.0771X0.0774*%
%ADD30R,0.0774X0.0771*%
%ADD31O,0.0774X0.0771*%
%ADD32O,0.1080X0.0740*%
D25*
X12231Y5488D02*
D03*
Y8988D02*
D03*
X6231Y1688D02*
D03*
Y5188D02*
D03*
X10131Y10288D02*
D03*
Y13788D02*
D03*
X11531Y10288D02*
D03*
Y13788D02*
D03*
D26*
X9131Y488D02*
D03*
X8131D02*
D03*
X7131D02*
D03*
X6131D02*
D03*
X5131D02*
D03*
D27*
X4131D02*
D03*
D28*
X11131Y9154D02*
D03*
X3482Y1512D02*
D03*
X8131Y4988D02*
D03*
D29*
X10131Y9154D02*
D03*
X9131D02*
D03*
X8131D02*
D03*
X7131D02*
D03*
X6131D02*
D03*
X5131D02*
D03*
X4131D02*
D03*
X11131Y6154D02*
D03*
X10131D02*
D03*
X9131D02*
D03*
X8131D02*
D03*
X7131D02*
D03*
X6131D02*
D03*
X5131D02*
D03*
X4131D02*
D03*
X4482Y1512D02*
D03*
Y4512D02*
D03*
X3482D02*
D03*
X2931Y9896D02*
D03*
Y5880D02*
D03*
X9531Y3888D02*
D03*
Y4888D02*
D03*
X8131Y1988D02*
D03*
D30*
X782Y3287D02*
D03*
X2431Y12488D02*
D03*
X11003Y3288D02*
D03*
D31*
X1782Y3287D02*
D03*
X1431Y12488D02*
D03*
X8666Y13435D02*
D03*
X4650D02*
D03*
Y12035D02*
D03*
X8666D02*
D03*
X7059Y10575D02*
D03*
X8059D02*
D03*
X12381Y3288D02*
D03*
X12231Y888D02*
D03*
X11231D02*
D03*
D32*
X1631Y6888D02*
D03*
Y7888D02*
D03*
Y8888D02*
D03*
M02*
