%FSLAX44Y44*%
%MOMM*%
G71*
G01*
G75*
%ADD10C,1.7780*%
%ADD11C,1.6000*%
%ADD12R,1.6000X1.6000*%
%ADD13R,1.7556X1.7634*%
%ADD14O,1.7556X1.7634*%
%ADD15R,1.7634X1.7556*%
%ADD16O,1.7634X1.7556*%
%ADD17O,2.5400X1.6764*%
%ADD18C,1.4986*%
%ADD19C,0.2000*%
%ADD20C,0.2540*%
%ADD21C,0.3810*%
%ADD22C,0.1778*%
%ADD23C,0.1270*%
%ADD24R,3.2000X0.5080*%
D19*
X312420Y213770D02*
X309990Y213287D01*
X307930Y211910D01*
X306553Y209850D01*
X306070Y207420D01*
X306553Y204990D01*
X307930Y202930D01*
X309990Y201553D01*
X312420Y201070D01*
X121920Y-83580D02*
X126153Y-79347D01*
X143087Y-79347D02*
X147320Y-83580D01*
X151553Y-79347D01*
X117687D02*
X121920Y-83580D01*
X109643Y-4417D02*
X113877Y-183D01*
X109220Y240D02*
X261620D01*
X109220Y-25160D02*
Y240D01*
X261620Y-25160D02*
Y240D01*
X109220Y-25160D02*
X261620D01*
X117687Y-79347D02*
Y-25414D01*
X126153Y-79347D02*
Y-25160D01*
X143087Y-79347D02*
Y-25414D01*
X151553Y-79347D02*
Y-25414D01*
X172720Y-83580D02*
X176953Y-79347D01*
X193887Y-79347D02*
X198120Y-83580D01*
X202353Y-79347D01*
X168487D02*
X172720Y-83580D01*
X168487Y-79347D02*
Y-25414D01*
X176953Y-79347D02*
Y-25160D01*
X193887Y-79347D02*
Y-25414D01*
X202353Y-79347D02*
Y-25414D01*
X223520Y-83580D02*
X227753Y-79347D01*
X244687Y-79347D02*
X248920Y-83580D01*
X253153Y-79347D01*
X219287D02*
X223520Y-83580D01*
X219287Y-79347D02*
Y-25414D01*
X227753Y-79347D02*
Y-25160D01*
X244687Y-79347D02*
Y-25414D01*
X253153Y-79347D02*
Y-25414D01*
X312420Y213770D02*
Y224670D01*
Y190170D02*
Y201070D01*
X109220Y190170D02*
X312420D01*
X109220D02*
Y224670D01*
X312420D01*
D20*
X74706Y96480D02*
X74577Y99024D01*
X74191Y101542D01*
X73553Y104008D01*
X72668Y106397D01*
X71546Y108683D01*
X70199Y110845D01*
X68640Y112859D01*
X66885Y114706D01*
X64952Y116365D01*
X62861Y117820D01*
X60634Y119056D01*
X58293Y120061D01*
X55863Y120823D01*
X53368Y121336D01*
X50834Y121594D01*
X48286D01*
X45752Y121336D01*
X43257Y120823D01*
X40827Y120061D01*
X38486Y119056D01*
X36259Y117820D01*
X34168Y116365D01*
X32235Y114706D01*
X30480Y112859D01*
X28921Y110845D01*
X27574Y108683D01*
X26452Y106397D01*
X25567Y104008D01*
X24929Y101542D01*
X24543Y99024D01*
X24414Y96480D01*
X24543Y93936D01*
X24929Y91418D01*
X25567Y88952D01*
X26452Y86564D01*
X27574Y84277D01*
X28921Y82115D01*
X30480Y80101D01*
X32235Y78254D01*
X34168Y76595D01*
X36259Y75140D01*
X38486Y73904D01*
X40827Y72899D01*
X43257Y72137D01*
X45752Y71624D01*
X48286Y71366D01*
X50834D01*
X53368Y71624D01*
X55863Y72137D01*
X58293Y72899D01*
X60634Y73904D01*
X62861Y75140D01*
X64952Y76595D01*
X66885Y78254D01*
X68640Y80101D01*
X70199Y82115D01*
X71546Y84277D01*
X72668Y86564D01*
X73553Y88952D01*
X74191Y91418D01*
X74577Y93936D01*
X74706Y96480D01*
X91186Y330200D02*
X91057Y332744D01*
X90671Y335262D01*
X90033Y337728D01*
X89148Y340117D01*
X88026Y342403D01*
X86679Y344565D01*
X85120Y346579D01*
X83365Y348426D01*
X81432Y350085D01*
X79341Y351540D01*
X77114Y352776D01*
X74773Y353781D01*
X72343Y354543D01*
X69848Y355056D01*
X67314Y355314D01*
X64766D01*
X62232Y355056D01*
X59737Y354543D01*
X57307Y353781D01*
X54966Y352776D01*
X52739Y351540D01*
X50648Y350085D01*
X48715Y348426D01*
X46960Y346579D01*
X45401Y344565D01*
X44054Y342403D01*
X42932Y340117D01*
X42047Y337728D01*
X41409Y335262D01*
X41023Y332744D01*
X40894Y330200D01*
X41023Y327656D01*
X41409Y325138D01*
X42047Y322672D01*
X42932Y320284D01*
X44054Y317997D01*
X45401Y315835D01*
X46960Y313821D01*
X48715Y311974D01*
X50648Y310315D01*
X52739Y308860D01*
X54966Y307624D01*
X57307Y306619D01*
X59737Y305857D01*
X62232Y305344D01*
X64766Y305086D01*
X67314D01*
X69848Y305344D01*
X72343Y305857D01*
X74773Y306619D01*
X77114Y307624D01*
X79341Y308860D01*
X81432Y310315D01*
X83365Y311974D01*
X85120Y313821D01*
X86679Y315835D01*
X88026Y317997D01*
X89148Y320284D01*
X90033Y322672D01*
X90671Y325138D01*
X91057Y327656D01*
X91186Y330200D01*
X196152Y291147D02*
X193648Y290841D01*
X191312Y289891D01*
X189307Y288362D01*
X187771Y286362D01*
X186813Y284029D01*
X186499Y281527D01*
X186851Y279030D01*
X187845Y276712D01*
X189411Y274736D01*
X191439Y273238D01*
X193790Y272323D01*
X196297Y272056D01*
X221595Y272054D02*
X224098Y272359D01*
X226434Y273309D01*
X228439Y274838D01*
X229975Y276838D01*
X230933Y279171D01*
X231247Y281673D01*
X230895Y284170D01*
X229901Y286488D01*
X228335Y288464D01*
X226306Y289962D01*
X223956Y290877D01*
X221449Y291144D01*
X249534Y111611D02*
X249839Y109108D01*
X250789Y106772D01*
X252318Y104767D01*
X254318Y103231D01*
X256651Y102273D01*
X259153Y101959D01*
X261650Y102311D01*
X263968Y103305D01*
X265944Y104871D01*
X267442Y106899D01*
X268357Y109250D01*
X268624Y111757D01*
X268626Y137055D02*
X268321Y139558D01*
X267371Y141894D01*
X265842Y143899D01*
X263842Y145435D01*
X261509Y146393D01*
X259007Y146707D01*
X256510Y146355D01*
X254192Y145361D01*
X252216Y143795D01*
X250718Y141767D01*
X249803Y139416D01*
X249536Y136909D01*
X353975Y96520D02*
X353894Y99057D01*
X353653Y101584D01*
X353252Y104090D01*
X352693Y106566D01*
X351978Y109001D01*
X351109Y111386D01*
X350092Y113712D01*
X348929Y115968D01*
X347625Y118146D01*
X346185Y120236D01*
X344616Y122232D01*
X342924Y124123D01*
X341115Y125904D01*
X339197Y127566D01*
X337177Y129103D01*
X335064Y130509D01*
X332865Y131778D01*
X330591Y132905D01*
X328250Y133886D01*
X325851Y134716D01*
X323405Y135393D01*
X320921Y135912D01*
X318408Y136273D01*
X315878Y136475D01*
X313340Y136515D01*
X310805Y136394D01*
X308282Y136113D01*
X305782Y135672D01*
X303316Y135074D01*
X300892Y134320D01*
X298521Y133414D01*
X296212Y132360D01*
X293975Y131161D01*
X291818Y129823D01*
X289750Y128350D01*
X287780Y126750D01*
X285916Y125028D01*
X284164Y123191D01*
X282533Y121246D01*
X281028Y119202D01*
X279655Y117067D01*
X278421Y114849D01*
X277330Y112557D01*
X276387Y110201D01*
X275595Y107789D01*
X274957Y105332D01*
X274477Y102840D01*
X274156Y100322D01*
X273995Y97789D01*
Y95251D01*
X274156Y92718D01*
X274477Y90200D01*
X274957Y87708D01*
X275595Y85251D01*
X276387Y82839D01*
X277330Y80483D01*
X278421Y78191D01*
X279655Y75973D01*
X281028Y73838D01*
X282533Y71794D01*
X284164Y69849D01*
X285916Y68012D01*
X287780Y66290D01*
X289750Y64689D01*
X291818Y63217D01*
X293975Y61879D01*
X296212Y60680D01*
X298521Y59626D01*
X300892Y58720D01*
X303316Y57966D01*
X305782Y57368D01*
X308282Y56927D01*
X310805Y56646D01*
X313340Y56525D01*
X315878Y56565D01*
X318408Y56767D01*
X320921Y57128D01*
X323405Y57648D01*
X325851Y58324D01*
X328250Y59154D01*
X330591Y60135D01*
X332865Y61262D01*
X335064Y62531D01*
X337177Y63937D01*
X339197Y65474D01*
X341115Y67136D01*
X342924Y68917D01*
X344616Y70808D01*
X346185Y72804D01*
X347625Y74894D01*
X348929Y77072D01*
X350092Y79328D01*
X351109Y81653D01*
X351977Y84038D01*
X352692Y86474D01*
X353252Y88950D01*
X353653Y91456D01*
X353894Y93983D01*
X353975Y96520D01*
X327808Y26014D02*
X330312Y26319D01*
X332648Y27269D01*
X334653Y28798D01*
X336189Y30798D01*
X337147Y33131D01*
X337461Y35633D01*
X337109Y38130D01*
X336115Y40448D01*
X334549Y42424D01*
X332520Y43922D01*
X330170Y44837D01*
X327663Y45104D01*
X302365Y45107D02*
X299862Y44801D01*
X297526Y43851D01*
X295521Y42322D01*
X293985Y40322D01*
X293027Y37989D01*
X292713Y35487D01*
X293065Y32990D01*
X294059Y30672D01*
X295625Y28696D01*
X297654Y27198D01*
X300004Y26283D01*
X302511Y26016D01*
X49560Y71588D02*
Y121626D01*
Y109688D02*
Y113752D01*
Y109688D02*
Y114006D01*
X55656Y120102D01*
X49560Y106132D02*
Y106386D01*
X61244Y118070D01*
X49560Y98512D02*
X66070Y115022D01*
X49560Y89114D02*
Y90130D01*
X69626Y110196D01*
X49560Y80986D02*
Y81240D01*
X73182Y104862D01*
X49560Y72858D02*
X74706Y98004D01*
X54132Y72096D02*
X56164D01*
X73436Y89368D01*
X78940Y243840D02*
X103940D01*
Y182880D02*
Y243840D01*
X78940Y182880D02*
X103940D01*
X78940D02*
Y243840D01*
X91440Y169418D02*
Y182626D01*
Y244348D02*
Y257556D01*
X66040Y305054D02*
Y355092D01*
Y312928D02*
Y316992D01*
Y312674D02*
Y316992D01*
X59944Y306578D02*
X66040Y312674D01*
Y320294D02*
Y320548D01*
X54356Y308610D02*
X66040Y320294D01*
X49530Y311658D02*
X66040Y328168D01*
Y336550D02*
Y337566D01*
X45974Y316484D02*
X66040Y336550D01*
Y345440D02*
Y345694D01*
X42418Y321818D02*
X66040Y345440D01*
X40894Y328676D02*
X66040Y353822D01*
X59436Y354584D02*
X61468D01*
X42164Y337312D02*
X59436Y354584D01*
X216600Y341740D02*
Y366740D01*
X155640Y341740D02*
X216600D01*
X155640D02*
Y366740D01*
X216600D01*
X142178Y354240D02*
X155386D01*
X217108D02*
X230316D01*
X155640Y306180D02*
Y331180D01*
X216600D01*
Y306180D02*
Y331180D01*
X155640Y306180D02*
X216600D01*
X216854Y318680D02*
X230062D01*
X141924D02*
X155132D01*
X196300Y291252D02*
X221700D01*
X196554Y271948D02*
X220938D01*
X249428Y111760D02*
Y137160D01*
X268732Y112014D02*
Y136398D01*
X313975Y56520D02*
Y136520D01*
Y122936D02*
Y124968D01*
X323627Y134620D01*
X313975Y109474D02*
Y115316D01*
X330739Y132080D01*
X313975Y102108D02*
Y105156D01*
X337089Y128270D01*
X313975Y90678D02*
Y95250D01*
X342677Y123952D01*
X313975Y82804D02*
Y84836D01*
X347249Y118110D01*
X313975Y74676D02*
X350805Y111506D01*
X313975Y64516D02*
X352837Y103378D01*
X314483Y56642D02*
X317785D01*
X353853Y92710D01*
X331247Y60960D02*
X331755D01*
X349789Y78994D01*
X302260Y25908D02*
X327660D01*
X303022Y45212D02*
X327406D01*
D21*
X107727Y70959D02*
X106323Y72891D01*
X104051Y72153D01*
Y69764D01*
X106323Y69026D01*
X107727Y70959D01*
D22*
X92645Y76813D02*
X95176Y76980D01*
X97624Y77648D01*
X99890Y78789D01*
X101884Y80358D01*
X103527Y82291D01*
X104752Y84513D01*
X105512Y86934D01*
X105775Y89457D01*
X105531Y91983D01*
X104790Y94409D01*
X103581Y96640D01*
X101953Y98586D01*
X99971Y100170D01*
X97714Y101328D01*
X95271Y102014D01*
X92741Y102201D01*
X48267Y243825D02*
X46006Y242725D01*
X43836Y241456D01*
X41769Y240026D01*
X39816Y238442D01*
X37990Y236715D01*
X36300Y234854D01*
X34757Y232869D01*
X33370Y230773D01*
X32145Y228578D01*
X31092Y226295D01*
X30215Y223940D01*
X29519Y221524D01*
X29010Y219062D01*
X28689Y216569D01*
X28559Y214058D01*
X28620Y211545D01*
X28873Y209044D01*
X29314Y206569D01*
X29943Y204136D01*
X30755Y201757D01*
X31746Y199446D01*
X32910Y197218D01*
X34240Y195085D01*
X35728Y193059D01*
X37366Y191152D01*
X39144Y189375D01*
X41053Y187739D01*
X43080Y186253D01*
X45214Y184925D01*
X47444Y183763D01*
X327660Y164592D02*
Y173482D01*
X318008D02*
Y220472D01*
X327660D02*
Y229108D01*
X337312Y173482D02*
Y220472D01*
X318008D02*
X337312D01*
X318008Y173482D02*
X337312D01*
X175260Y68072D02*
Y76962D01*
X165608D02*
Y123952D01*
X175260D02*
Y132588D01*
X184912Y76962D02*
Y123952D01*
X165608D02*
X184912D01*
X165608Y76962D02*
X184912D01*
X274320Y286512D02*
Y295402D01*
X264668D02*
Y342392D01*
X274320D02*
Y351028D01*
X283972Y295402D02*
Y342392D01*
X264668D02*
X283972D01*
X264668Y295402D02*
X283972D01*
X309880Y286512D02*
Y295402D01*
X300228D02*
Y342392D01*
X309880D02*
Y351028D01*
X319532Y295402D02*
Y342392D01*
X300228D02*
X319532D01*
X300228Y295402D02*
X319532D01*
X92741Y140301D02*
X143541D01*
Y38701D02*
Y140301D01*
X92741Y38701D02*
X143541D01*
X92741Y102455D02*
Y140301D01*
Y38701D02*
Y76801D01*
X223520Y120650D02*
X240030D01*
Y82550D02*
Y120650D01*
X208030Y82550D02*
X240030D01*
X208030D02*
Y120650D01*
X223520D01*
Y74930D02*
Y82550D01*
Y120650D02*
Y128270D01*
X210820Y110236D02*
X235458D01*
X223520Y120650D02*
X228854D01*
X219456D02*
X223520D01*
X68640Y184064D02*
X74930Y188468D01*
X68326Y243332D02*
X74930Y240030D01*
Y188468D02*
Y240030D01*
D23*
X199138Y-11502D02*
X196599D01*
X197869D01*
Y-17850D01*
X196599Y-19120D01*
X195330D01*
X194060Y-17850D01*
X201677Y-19120D02*
Y-11502D01*
X205486D01*
X206756Y-12772D01*
Y-15311D01*
X205486Y-16581D01*
X201677D01*
X209295Y-19120D02*
X211834D01*
X210565D01*
Y-11502D01*
X209295Y-12772D01*
X252000Y205618D02*
Y198000D01*
Y200539D01*
X257078Y205618D01*
X253270Y201809D01*
X257078Y198000D01*
X259618D02*
Y203078D01*
X262157Y205618D01*
X264696Y203078D01*
Y198000D01*
Y201809D01*
X259618D01*
X267235Y198000D02*
X269774D01*
X268505D01*
Y205618D01*
X267235Y204348D01*
X271909Y32129D02*
X270639Y30860D01*
Y28321D01*
X271909Y27051D01*
X276987D01*
X278257Y28321D01*
Y30860D01*
X276987Y32129D01*
X278257Y34669D02*
Y37208D01*
Y35938D01*
X270639D01*
X271909Y34669D01*
X289578Y77909D02*
X288309Y79178D01*
X285770D01*
X284500Y77909D01*
Y72831D01*
X285770Y71561D01*
X288309D01*
X289578Y72831D01*
X297196Y71561D02*
X292117D01*
X297196Y76639D01*
Y77909D01*
X295926Y79178D01*
X293387D01*
X292117Y77909D01*
X255649Y167511D02*
X254380Y168780D01*
X251841D01*
X250571Y167511D01*
Y162433D01*
X251841Y161163D01*
X254380D01*
X255649Y162433D01*
X258188Y167511D02*
X259458Y168780D01*
X261997D01*
X263267Y167511D01*
Y166241D01*
X261997Y164972D01*
X260728D01*
X261997D01*
X263267Y163702D01*
Y162433D01*
X261997Y161163D01*
X259458D01*
X258188Y162433D01*
X235078Y264348D02*
X233809Y265618D01*
X231270D01*
X230000Y264348D01*
Y259270D01*
X231270Y258000D01*
X233809D01*
X235078Y259270D01*
X241426Y258000D02*
Y265618D01*
X237617Y261809D01*
X242696D01*
X85838Y361148D02*
X84569Y362418D01*
X82030D01*
X80760Y361148D01*
Y356070D01*
X82030Y354800D01*
X84569D01*
X85838Y356070D01*
X93456Y362418D02*
X88378D01*
Y358609D01*
X90917Y359878D01*
X92186D01*
X93456Y358609D01*
Y356070D01*
X92186Y354800D01*
X89647D01*
X88378Y356070D01*
X15078Y124348D02*
X13809Y125618D01*
X11270D01*
X10000Y124348D01*
Y119270D01*
X11270Y118000D01*
X13809D01*
X15078Y119270D01*
X22696Y125618D02*
X20157Y124348D01*
X17617Y121809D01*
Y119270D01*
X18887Y118000D01*
X21426D01*
X22696Y119270D01*
Y120539D01*
X21426Y121809D01*
X17617D01*
X49178Y249310D02*
Y254388D01*
X47909Y255658D01*
X45370D01*
X44100Y254388D01*
Y249310D01*
X45370Y248040D01*
X47909D01*
X46639Y250579D02*
X49178Y248040D01*
X47909D02*
X49178Y249310D01*
X51718Y248040D02*
X54257D01*
X52987D01*
Y255658D01*
X51718Y254388D01*
X310300Y183240D02*
Y175623D01*
X306491D01*
X305222Y176892D01*
Y179431D01*
X306491Y180701D01*
X310300D01*
X307761D02*
X305222Y183240D01*
X302682D02*
X300143D01*
X301413D01*
Y175623D01*
X302682Y176892D01*
X292960Y287000D02*
Y279382D01*
X289151D01*
X287882Y280652D01*
Y283191D01*
X289151Y284461D01*
X292960D01*
X290421D02*
X287882Y287000D01*
X280264D02*
X285343D01*
X280264Y281922D01*
Y280652D01*
X281534Y279382D01*
X284073D01*
X285343Y280652D01*
X314920Y236000D02*
Y228382D01*
X311111D01*
X309842Y229652D01*
Y232191D01*
X311111Y233461D01*
X314920D01*
X312381D02*
X309842Y236000D01*
X307303Y229652D02*
X306033Y228382D01*
X303494D01*
X302224Y229652D01*
Y230922D01*
X303494Y232191D01*
X304763D01*
X303494D01*
X302224Y233461D01*
Y234730D01*
X303494Y236000D01*
X306033D01*
X307303Y234730D01*
X135000Y289000D02*
Y296618D01*
X138809D01*
X140078Y295348D01*
Y292809D01*
X138809Y291539D01*
X135000D01*
X137539D02*
X140078Y289000D01*
X146426D02*
Y296618D01*
X142618Y292809D01*
X147696D01*
X186740Y61280D02*
Y53663D01*
X182931D01*
X181662Y54932D01*
Y57471D01*
X182931Y58741D01*
X186740D01*
X184201D02*
X181662Y61280D01*
X174044Y53663D02*
X179123D01*
Y57471D01*
X176583Y56202D01*
X175314D01*
X174044Y57471D01*
Y60010D01*
X175314Y61280D01*
X177853D01*
X179123Y60010D01*
X173000Y377000D02*
Y384618D01*
X176809D01*
X178078Y383348D01*
Y380809D01*
X176809Y379539D01*
X173000D01*
X175539D02*
X178078Y377000D01*
X185696Y384618D02*
X183157Y383348D01*
X180618Y380809D01*
Y378270D01*
X181887Y377000D01*
X184426D01*
X185696Y378270D01*
Y379539D01*
X184426Y380809D01*
X180618D01*
X82080Y278000D02*
Y285618D01*
X85889D01*
X87158Y284348D01*
Y281809D01*
X85889Y280539D01*
X82080D01*
X84619D02*
X87158Y278000D01*
X89698Y285618D02*
X94776D01*
Y284348D01*
X89698Y279270D01*
Y278000D01*
X108000Y105618D02*
Y99270D01*
X109270Y98000D01*
X111809D01*
X113078Y99270D01*
Y105618D01*
X115618Y98000D02*
X118157D01*
X116887D01*
Y105618D01*
X115618Y104348D01*
X214440Y97498D02*
Y89880D01*
X218249D01*
X219518Y91150D01*
Y96228D01*
X218249Y97498D01*
X214440D01*
X222057Y89880D02*
X224597D01*
X223327D01*
Y97498D01*
X222057Y96228D01*
D24*
X224030Y118110D02*
D03*
M02*
