M48
;Layer_Color=9474304
;FILE_FORMAT=4:4
METRIC,LZ
;TYPE=PLATED
T1F00S00C0.8128
T2F00S00C1.0032
T3F00S00C1.1000
;TYPE=NON_PLATED
T4F00S00C1.0032
%
T01
X000508Y0018796
Y0021336
Y0023876
T02
X0003686Y0009648
X0006226
T03
X0010486Y0001236
X0013026
X0015566
X0018106
X0020646
X0023186
T04
X0032134Y0004568
X0034674
X00348975Y00107959
X00313975
X0029972Y0016932
X0027432
X0034464Y0016884
Y0027084
X0030908Y0028568
X002786
X0027432Y0024552
X0029972
X0024892
X0022352
X0019812
X0017272
X0014732
X0012192
X0008636Y0026436
X0007874Y003302
X0005334
X0013512Y0031868
X001963Y002816
X002217
X0023712Y0031868
X0024892Y0016932
X0022352
X0019812
X0017272
X0014732
X0012192
X0008636Y0016236
X00105441Y00127601
X00130841
X0017148Y001424
X0021408Y0013682
X0025276Y0012442
Y0009902
X0021408Y0006062
X0017148Y000404
X00130841Y00051401
X00105441
X0013512Y0035424
X0023712
X002786Y0038768
X0030908
M30
