%FSLAX44Y44*%
%MOMM*%
G71*
G01*
G75*
G04 Layer_Color=8388736*
%ADD10C,1.7780*%
%ADD11C,1.6000*%
%ADD12R,1.6000X1.6000*%
%ADD13R,1.7556X1.7634*%
%ADD14O,1.7556X1.7634*%
%ADD15R,1.7634X1.7556*%
%ADD16O,1.7634X1.7556*%
%ADD17O,2.5400X1.6764*%
%ADD18C,1.4986*%
%ADD19C,0.2000*%
%ADD20C,0.2540*%
%ADD21C,0.3810*%
%ADD22C,0.1778*%
%ADD23C,0.1270*%
%ADD24R,3.2000X0.5080*%
%ADD25C,1.9812*%
%ADD26C,1.8032*%
%ADD27R,1.8032X1.8032*%
%ADD28R,1.9588X1.9666*%
%ADD29O,1.9588X1.9666*%
%ADD30R,1.9666X1.9588*%
%ADD31O,1.9666X1.9588*%
%ADD32O,2.7432X1.8796*%
D25*
X327660Y152400D02*
D03*
Y241300D02*
D03*
X175260Y55880D02*
D03*
Y144780D02*
D03*
X274320Y274320D02*
D03*
Y363220D02*
D03*
X309880Y274320D02*
D03*
Y363220D02*
D03*
D26*
X248920Y15240D02*
D03*
X223520D02*
D03*
X198120D02*
D03*
X172720D02*
D03*
X147320D02*
D03*
D27*
X121920D02*
D03*
D28*
X299720Y245520D02*
D03*
X105441Y51401D02*
D03*
X223520Y139700D02*
D03*
D29*
X274320Y245520D02*
D03*
X248920D02*
D03*
X223520D02*
D03*
X198120D02*
D03*
X172720D02*
D03*
X147320D02*
D03*
X121920D02*
D03*
X299720Y169320D02*
D03*
X274320D02*
D03*
X248920D02*
D03*
X223520D02*
D03*
X198120D02*
D03*
X172720D02*
D03*
X147320D02*
D03*
X121920D02*
D03*
X130841Y51401D02*
D03*
Y127601D02*
D03*
X105441D02*
D03*
X91440Y264360D02*
D03*
Y162360D02*
D03*
X259080Y111760D02*
D03*
Y137160D02*
D03*
X223520Y63500D02*
D03*
D30*
X36860Y96480D02*
D03*
X78740Y330200D02*
D03*
X296474Y96520D02*
D03*
D31*
X62260Y96480D02*
D03*
X53340Y330200D02*
D03*
X237120Y354240D02*
D03*
X135120D02*
D03*
Y318680D02*
D03*
X237120D02*
D03*
X196300Y281600D02*
D03*
X221700D02*
D03*
X331475Y96520D02*
D03*
X327660Y35560D02*
D03*
X302260D02*
D03*
D32*
X58420Y187960D02*
D03*
Y213360D02*
D03*
Y238760D02*
D03*
M02*
