%FSLAX24Y24*%
%MOIN*%
G70*
G01*
G75*
G04 Layer_Color=128*
%ADD10C,0.0394*%
%ADD11C,0.0591*%
%ADD12C,0.0787*%
%ADD13C,0.1969*%
%ADD14C,0.1575*%
%ADD15C,0.1181*%
%ADD16C,0.0984*%
%ADD17C,0.0984*%
%ADD18C,0.1000*%
%ADD19C,0.0591*%
%ADD20C,0.0787*%
%ADD21C,0.1969*%
%ADD22C,0.0800*%
%ADD23C,0.0709*%
%ADD24C,0.0630*%
%ADD25R,0.0630X0.0630*%
%ADD26O,0.0630X0.0787*%
%ADD27C,0.1200*%
%ADD28O,0.0800X0.1000*%
%ADD29R,0.0800X0.1000*%
%ADD30R,0.0787X0.0787*%
%ADD31O,0.0650X0.1000*%
%ADD32R,0.0650X0.1000*%
%ADD33R,0.0800X0.0800*%
%ADD34C,0.1181*%
%ADD35R,0.1181X0.1181*%
%ADD36O,0.0900X0.0600*%
%ADD37R,0.0900X0.0600*%
%ADD38O,0.0787X0.0591*%
%ADD39R,0.0630X0.0630*%
%ADD40R,0.1000X0.0650*%
%ADD41O,0.1000X0.0650*%
%ADD42R,0.0800X0.0800*%
%ADD43O,0.0591X0.0512*%
%ADD44R,0.0591X0.0512*%
G04:AMPARAMS|DCode=45|XSize=70mil|YSize=90mil|CornerRadius=0mil|HoleSize=0mil|Usage=FLASHONLY|Rotation=90.000|XOffset=0mil|YOffset=0mil|HoleType=Round|Shape=Octagon|*
%AMOCTAGOND45*
4,1,8,-0.0450,-0.0175,-0.0450,0.0175,-0.0275,0.0350,0.0275,0.0350,0.0450,0.0175,0.0450,-0.0175,0.0275,-0.0350,-0.0275,-0.0350,-0.0450,-0.0175,0.0*
%
%ADD45OCTAGOND45*%

%ADD46C,0.0394*%
%ADD47C,0.0100*%
%ADD48C,0.0070*%
%ADD49C,0.0150*%
%ADD50C,0.0120*%
%ADD51C,0.0039*%
%ADD52C,0.0079*%
%ADD53C,0.0250*%
%ADD54C,0.0080*%
%ADD55R,0.3990X0.0360*%
%ADD56R,0.0150X0.0550*%
%ADD57R,0.1260X0.0200*%
%ADD58R,0.0550X0.0150*%
%ADD59R,0.0200X0.1260*%
%ADD60C,0.1064*%
%ADD61C,0.1080*%
%ADD62C,0.0671*%
%ADD63C,0.0867*%
%ADD64C,0.2049*%
%ADD65C,0.0880*%
%ADD66C,0.0789*%
%ADD67C,0.0710*%
%ADD68R,0.0710X0.0710*%
%ADD69O,0.0710X0.0867*%
%ADD70C,0.1280*%
%ADD71O,0.0880X0.1080*%
%ADD72R,0.0880X0.1080*%
%ADD73R,0.0867X0.0867*%
%ADD74O,0.0730X0.1080*%
%ADD75R,0.0730X0.1080*%
%ADD76R,0.0880X0.0880*%
%ADD77C,0.1261*%
%ADD78R,0.1261X0.1261*%
%ADD79O,0.0980X0.0680*%
%ADD80R,0.0980X0.0680*%
%ADD81O,0.0867X0.0671*%
%ADD82R,0.0710X0.0710*%
%ADD83R,0.1080X0.0730*%
%ADD84O,0.1080X0.0730*%
%ADD85R,0.0880X0.0880*%
%ADD86O,0.0671X0.0592*%
%ADD87R,0.0671X0.0592*%
G04:AMPARAMS|DCode=88|XSize=78mil|YSize=98mil|CornerRadius=0mil|HoleSize=0mil|Usage=FLASHONLY|Rotation=90.000|XOffset=0mil|YOffset=0mil|HoleType=Round|Shape=Octagon|*
%AMOCTAGOND88*
4,1,8,-0.0490,-0.0195,-0.0490,0.0195,-0.0295,0.0390,0.0295,0.0390,0.0490,0.0195,0.0490,-0.0195,0.0295,-0.0390,-0.0295,-0.0390,-0.0490,-0.0195,0.0*
%
%ADD88OCTAGOND88*%

%ADD89C,0.0474*%
D11*
X325933Y25980D02*
X330760D01*
X325461Y31280D02*
X330760Y25980D01*
X325461Y31280D02*
Y32933D01*
X341425Y15315D02*
X343081D01*
X339319Y17421D02*
X341425Y15315D01*
X330878Y25980D02*
X339319Y17539D01*
Y17421D02*
Y17539D01*
X343238Y13344D02*
Y15312D01*
X324380Y25980D02*
X325933D01*
X323055Y25965D02*
X324941D01*
X325461Y31280D02*
Y32933D01*
X341425Y15315D02*
X343081D01*
X339319Y17421D02*
X341425Y15315D01*
X330878Y25980D02*
X339319Y17539D01*
Y17421D02*
Y17539D01*
X343238Y13344D02*
Y15312D01*
X340067Y24587D02*
Y25426D01*
X334550Y30943D02*
X340067Y25426D01*
X334550Y30943D02*
Y32912D01*
X324941Y24114D02*
X327784D01*
X319674D02*
X324931D01*
X332036Y17421D02*
X336327D01*
X330243Y15033D02*
X333081D01*
X333178Y14390D02*
Y14936D01*
Y12264D02*
Y14390D01*
X333081Y15033D02*
X338438D01*
X333081D02*
X333178Y14936D01*
X329044Y16232D02*
Y17421D01*
Y16232D02*
X330243Y15033D01*
X338438D02*
X341939Y11533D01*
X347845D01*
X349073Y12761D01*
X335185Y12264D02*
X337469D01*
D12*
X367638Y18307D02*
Y38425D01*
X338823Y39803D02*
X366260D01*
X367638Y38425D01*
X357087Y28425D02*
Y36850D01*
X352323D02*
X363701D01*
X355866D02*
X357047Y35669D01*
X357165Y35709D02*
X358228Y36772D01*
X342047Y36850D02*
X343307Y35591D01*
Y35591D02*
X344567Y36850D01*
X343307Y28425D02*
Y36850D01*
X337402Y36850D02*
X348307D01*
X351181Y25433D02*
Y28425D01*
Y25433D02*
X353307Y23307D01*
X364173D01*
X364280Y18524D02*
Y25768D01*
M02*
