%FSLAX24Y24*%
%MOIN*%
G70*
G01*
G75*
G04 Layer_Physical_Order=2*
G04 Layer_Color=16711680*
%ADD10C,0.0394*%
%ADD11C,0.0591*%
%ADD12C,0.0787*%
%ADD13C,0.1969*%
%ADD14C,0.1575*%
%ADD15C,0.1181*%
%ADD16C,0.0984*%
%ADD17C,0.0984*%
%ADD18C,0.1000*%
%ADD19C,0.0591*%
%ADD20C,0.0787*%
%ADD21C,0.1969*%
%ADD22C,0.0800*%
%ADD23C,0.0709*%
%ADD24C,0.0630*%
%ADD25R,0.0630X0.0630*%
%ADD26O,0.0630X0.0787*%
%ADD27C,0.1200*%
%ADD28O,0.0800X0.1000*%
%ADD29R,0.0800X0.1000*%
%ADD30R,0.0787X0.0787*%
%ADD31O,0.0650X0.1000*%
%ADD32R,0.0650X0.1000*%
%ADD33R,0.0800X0.0800*%
%ADD34C,0.1181*%
%ADD35R,0.1181X0.1181*%
%ADD36O,0.0900X0.0600*%
%ADD37R,0.0900X0.0600*%
%ADD38O,0.0787X0.0591*%
%ADD39R,0.0630X0.0630*%
%ADD40R,0.1000X0.0650*%
%ADD41O,0.1000X0.0650*%
%ADD42R,0.0800X0.0800*%
%ADD43O,0.0591X0.0512*%
%ADD44R,0.0591X0.0512*%
G04:AMPARAMS|DCode=45|XSize=70mil|YSize=90mil|CornerRadius=0mil|HoleSize=0mil|Usage=FLASHONLY|Rotation=90.000|XOffset=0mil|YOffset=0mil|HoleType=Round|Shape=Octagon|*
%AMOCTAGOND45*
4,1,8,-0.0450,-0.0175,-0.0450,0.0175,-0.0275,0.0350,0.0275,0.0350,0.0450,0.0175,0.0450,-0.0175,0.0275,-0.0350,-0.0275,-0.0350,-0.0450,-0.0175,0.0*
%
%ADD45OCTAGOND45*%

%ADD46C,0.0394*%
G36*
X358120Y38698D02*
X358199Y38619D01*
X358278Y37871D01*
X358768Y37438D01*
X362083D01*
X362451Y37832D01*
Y38462D01*
X362490Y38541D01*
X362608Y38659D01*
X362726Y38698D01*
X362923D01*
X363041Y38659D01*
X363120Y38580D01*
X363199Y37832D01*
X363645Y37438D01*
X364262D01*
Y32478D01*
X359577Y27793D01*
Y27793D01*
X357411Y25627D01*
X353474D01*
Y26808D01*
X354459Y27793D01*
X354498Y29997D01*
X351663Y31848D01*
Y37438D01*
X352083D01*
X352451Y37832D01*
Y38462D01*
X352490Y38541D01*
X352608Y38659D01*
X352726Y38698D01*
X352923D01*
X353041Y38659D01*
X353120Y38580D01*
X353199Y37832D01*
X353645Y37438D01*
X357125D01*
X357530Y37871D01*
Y38501D01*
X357569Y38580D01*
X357687Y38698D01*
X357805Y38737D01*
X358002D01*
X358120Y38698D01*
D02*
G37*
G36*
X339747Y39176D02*
X339183Y38737D01*
X339196Y37956D01*
X339156Y37877D01*
X339038Y37759D01*
X338920Y37719D01*
X338723D01*
X338605Y37759D01*
X338526Y37837D01*
X338435Y38029D01*
Y39407D01*
X339747Y39176D01*
D02*
G37*
G36*
X348041Y38659D02*
X348120Y38580D01*
X348199Y37832D01*
X348645Y37438D01*
X348907D01*
Y30785D01*
X347845Y29722D01*
Y27871D01*
X348789Y26926D01*
Y25627D01*
X344852D01*
X336900Y33501D01*
Y37438D01*
X337083D01*
X337451Y37832D01*
Y38462D01*
X337490Y38541D01*
X337608Y38659D01*
X337726Y38698D01*
X337923D01*
X338041Y38659D01*
X338120Y38580D01*
X338199Y37832D01*
X338645Y37438D01*
X342083D01*
X342451Y37832D01*
Y38462D01*
X342490Y38541D01*
X342608Y38659D01*
X342726Y38698D01*
X342923D01*
X343041Y38659D01*
X343120Y38580D01*
X343199Y37832D01*
X343645Y37438D01*
X347083D01*
X347451Y37832D01*
Y38462D01*
X347490Y38541D01*
X347608Y38659D01*
X347726Y38698D01*
X347923D01*
X348041Y38659D01*
D02*
G37*
G36*
X349144Y29564D02*
X353868D01*
Y27832D01*
X353041Y27202D01*
Y25627D01*
X353632Y25076D01*
X358317D01*
X360679Y27399D01*
X365285D01*
X365325Y20824D01*
Y17478D01*
X363356D01*
X355325Y21848D01*
X349144D01*
Y27202D01*
X348553Y27793D01*
Y29604D01*
X349144Y29564D01*
D02*
G37*
G36*
X368632Y39092D02*
Y35863D01*
X369419Y35076D01*
Y22281D01*
X369459Y22241D01*
X369419Y22202D01*
Y17556D01*
X366073D01*
Y27674D01*
X365207Y28383D01*
Y36336D01*
X366663Y38029D01*
Y38422D01*
X365955Y39131D01*
Y40588D01*
X367175D01*
X368632Y39092D01*
D02*
G37*
G36*
X364183Y38737D02*
X364196Y37956D01*
X364156Y37877D01*
X364038Y37759D01*
X363920Y37719D01*
X363723D01*
X363605Y37759D01*
X363526Y37837D01*
X363435Y38029D01*
Y38737D01*
X362778Y39176D01*
X364747D01*
X364183Y38737D01*
D02*
G37*
G36*
X359262Y38777D02*
X359274Y37995D01*
X359235Y37916D01*
X359117Y37798D01*
X358999Y37759D01*
X358802D01*
X358684Y37798D01*
X358605Y37877D01*
X358514Y38068D01*
Y38777D01*
X357857Y39215D01*
X359826D01*
X359262Y38777D01*
D02*
G37*
G36*
X354183Y38737D02*
X354196Y37956D01*
X354156Y37877D01*
X354038Y37759D01*
X353920Y37719D01*
X353723D01*
X353605Y37759D01*
X353526Y37837D01*
X353435Y38029D01*
Y38737D01*
X352778Y39176D01*
X354747D01*
X354183Y38737D01*
D02*
G37*
G36*
X344183D02*
X344196Y37956D01*
X344156Y37877D01*
X344038Y37759D01*
X343920Y37719D01*
X343723D01*
X343605Y37759D01*
X343526Y37837D01*
X343435Y38029D01*
Y38737D01*
X342778Y39176D01*
X344747D01*
X344183Y38737D01*
D02*
G37*
G36*
X349183D02*
X349196Y37956D01*
X349156Y37877D01*
X349038Y37759D01*
X348920Y37719D01*
X348723D01*
X348605Y37759D01*
X348526Y37837D01*
X348435Y38029D01*
Y38737D01*
X347778Y39176D01*
X349747D01*
X349183Y38737D01*
D02*
G37*
D10*
X325989Y11280D02*
Y12917D01*
X325835Y13071D02*
X325989Y12917D01*
X322115Y13791D02*
Y15207D01*
Y13791D02*
X322835Y13071D01*
X323063Y14023D02*
X323622Y13465D01*
X323087Y12028D02*
X323622Y12563D01*
Y13465D01*
X323063Y14023D02*
Y14228D01*
X349556Y11437D02*
X356193D01*
X349007Y11986D02*
X349556Y11437D01*
X365435Y12087D02*
Y13563D01*
X361878D02*
X365435D01*
X359752Y11437D02*
X361878Y13563D01*
X357193Y11437D02*
X358193D01*
X359752D01*
X324941Y24124D02*
Y24965D01*
X325508Y21028D02*
X325532Y21004D01*
X325508Y21028D02*
Y22224D01*
Y23413D01*
X327028Y11319D02*
Y14697D01*
X326406Y15319D02*
X327028Y14697D01*
X324280Y11988D02*
X324989Y11280D01*
X324280Y11988D02*
Y13474D01*
X325028Y14222D01*
Y15165D01*
X324083Y16220D02*
X325177Y17314D01*
X324074Y16228D02*
X324083Y16220D01*
Y14461D02*
Y16220D01*
X323063Y16228D02*
X324074D01*
X325182Y17319D02*
X326406D01*
X325177Y17314D02*
X325182Y17319D01*
X323343Y19643D02*
X323400Y19587D01*
X322096Y19643D02*
X323343D01*
X321717Y19263D02*
X322096Y19643D01*
X321717Y18903D02*
Y19263D01*
X323256Y19587D02*
X323400D01*
X321957Y22224D02*
X322508D01*
X321485Y21752D02*
X321957Y22224D01*
X321485Y20965D02*
Y21752D01*
X317917Y29503D02*
X318917D01*
X320815Y37854D02*
X321170Y38209D01*
Y39665D01*
X323134Y41630D01*
X323374D01*
X324941Y26965D02*
Y28878D01*
X324117Y29703D02*
X324941Y28878D01*
X325359Y27382D02*
X326248D01*
X324941Y26965D02*
X325359Y27382D01*
X369162Y41594D02*
X369359D01*
X336860Y38974D02*
Y40411D01*
X337625Y38209D02*
X337823D01*
X336860Y38974D02*
X337625Y38209D01*
X320063Y16228D02*
X321063Y15228D01*
X322136D01*
X323063D01*
X322115Y15207D02*
X322136Y15228D01*
X325672Y18587D02*
X326400D01*
X325325Y18934D02*
X325672Y18587D01*
X325325Y18934D02*
Y20876D01*
X325493Y21043D01*
X316821Y30707D02*
X318378Y32264D01*
X316821Y22320D02*
Y30707D01*
Y22320D02*
X318822Y20319D01*
X370185Y37264D02*
Y38184D01*
X369477Y36555D02*
X370185Y37264D01*
X369359Y36555D02*
X369477D01*
X361839Y41209D02*
X367161D01*
X370185Y38184D01*
X355823Y41209D02*
X361839D01*
X336860Y40411D02*
X339085Y42635D01*
X368318D01*
X369359Y41594D01*
X351305Y41966D02*
X367728D01*
X350807Y41469D02*
X351305Y41966D01*
X367728D02*
X369359Y40335D01*
X350807Y41209D02*
Y41469D01*
X345823Y41209D02*
X346839D01*
X350807D01*
X340807D02*
X345823D01*
X361977Y12796D02*
X364435D01*
X359477Y10295D02*
X361977Y12796D01*
X337874Y12087D02*
X340461Y10295D01*
X359477D01*
X322402Y15228D02*
X323063D01*
X324941Y24124D02*
Y24965D01*
X319917Y29103D02*
X323055Y25965D01*
X324941D01*
X319917Y29103D02*
Y29503D01*
X318822Y20319D02*
X320485D01*
X317402Y23048D02*
X319485Y20965D01*
X317402Y23048D02*
Y28987D01*
X317917Y29503D01*
X364435Y11811D02*
Y12796D01*
X365297Y11949D02*
X365435Y12087D01*
D11*
X322008Y10878D02*
X323150D01*
X320739D02*
X322008D01*
X320673Y10945D02*
X320739Y10878D01*
X320673Y10945D02*
Y12248D01*
Y10390D02*
Y10945D01*
X321555Y9508D02*
X363694D01*
X320673Y10390D02*
X321555Y9508D01*
X317411Y15509D02*
X320673Y12248D01*
X354823Y38209D02*
X355823D01*
X349823D02*
X350807D01*
X344823D02*
X345823D01*
X339823D02*
X340807D01*
X367435Y11811D02*
Y14935D01*
X359280Y13705D02*
X359618D01*
X360855Y14941D01*
X367430D01*
X367293Y17556D02*
Y18502D01*
X367272Y18524D02*
X367293Y18502D01*
X365516Y15779D02*
X367293Y17556D01*
X360275Y15779D02*
X365516D01*
X359280Y14783D02*
X360275Y15779D01*
X359280Y14705D02*
Y14725D01*
Y14783D01*
X356422Y14725D02*
X359280D01*
X357902Y37028D02*
Y38248D01*
X320011Y17281D02*
X320063Y17228D01*
X317411Y15509D02*
Y16887D01*
X317445Y16920D01*
X318317Y17125D02*
Y17203D01*
X322975Y18587D02*
X323400D01*
X321309Y16920D02*
X322975Y18587D01*
X321996Y38248D02*
X323178Y37067D01*
X321996Y38248D02*
Y38961D01*
X323178Y36357D02*
Y37067D01*
X361445Y14193D02*
X366327D01*
X366435Y14085D01*
X356422Y13725D02*
X357976D01*
X358768Y12933D01*
X360185D01*
X361445Y14193D01*
X371367Y39547D02*
X373414Y41594D01*
X369435Y15175D02*
X373414Y19154D01*
Y36555D01*
X368435Y11811D02*
Y15435D01*
X371367Y18366D01*
Y39547D01*
X363694Y9508D02*
X364809Y10624D01*
X317445Y16920D02*
X321309D01*
X366435Y11811D02*
Y14085D01*
X369435Y11811D02*
Y15175D01*
X340347Y22209D02*
X350489D01*
X323178Y36357D02*
X323629Y35906D01*
X326650D01*
X340347Y22209D01*
X364809Y10624D02*
X365820D01*
X366435Y11238D01*
Y11811D01*
D12*
X350118Y19469D02*
X350150D01*
X359902Y38248D02*
X360902D01*
X364823Y38209D02*
X365933D01*
X351820Y38209D02*
X352823D01*
X352248Y13783D02*
X353571D01*
X351445Y12980D02*
X352221Y13756D01*
X344516Y14368D02*
X345498Y13347D01*
X327784Y24114D02*
X328256Y24587D01*
X364823Y38209D02*
X364823Y38209D01*
X333081Y14390D02*
X333178D01*
X361839Y38209D02*
X362823D01*
X346839D02*
X347823D01*
X347606Y16476D02*
X350461D01*
X351445Y15492D01*
X346759Y15629D02*
X347606Y16476D01*
X351445Y14980D02*
Y15492D01*
X345498Y15315D02*
X347073D01*
X345498Y13347D02*
X347073D01*
X344477Y14368D02*
Y17598D01*
X324380Y25980D02*
X325933D01*
D13*
X332036Y17421D02*
X336327D01*
D14*
X338823Y39803D02*
X358778D01*
X366367D02*
X367417Y38753D01*
X358778Y39803D02*
X366367D01*
X339319Y17421D02*
Y17539D01*
X330878Y25980D02*
X339319Y17539D01*
Y17421D02*
X341425Y15315D01*
X343081D01*
X325461Y31280D02*
Y32933D01*
Y31280D02*
X330760Y25980D01*
X340067Y24587D02*
Y25426D01*
X334550Y30943D02*
X340067Y25426D01*
X334550Y30943D02*
Y32912D01*
X324941Y24114D02*
X327784D01*
X319674D02*
X324931D01*
X330243Y15033D02*
X333081D01*
X333178Y14390D02*
Y14936D01*
Y12264D02*
Y14390D01*
X333081Y15033D02*
X338438D01*
X333081D02*
X333178Y14936D01*
X329044Y16232D02*
Y17421D01*
Y16232D02*
X330243Y15033D01*
X338438D02*
X341939Y11533D01*
X347845D01*
X349073Y12761D01*
D15*
X318886Y26870D02*
X318976Y27283D01*
X318886Y26870D02*
X319674Y26083D01*
X349073Y12761D02*
Y15315D01*
X337469Y12264D02*
X337874Y12087D01*
X343238Y13344D02*
Y15312D01*
X325933Y25980D02*
X330760D01*
X322949D02*
X324199D01*
X335185Y12264D02*
X337469D01*
D16*
X351600Y20982D02*
X354440D01*
X350118Y19500D02*
X351600Y20982D01*
X350118Y19409D02*
Y19500D01*
X348099Y18701D02*
Y19449D01*
X353571Y12783D02*
X354209D01*
X349162Y17638D02*
X353099D01*
X348099Y18701D02*
X349162Y17638D01*
X353099Y15256D02*
X353390Y14965D01*
X357036Y17638D02*
X359004D01*
X354440Y20982D02*
X357036Y18386D01*
Y17638D02*
Y18386D01*
X354209Y12783D02*
X354843Y13417D01*
Y15000D01*
X357036Y17193D01*
Y17638D01*
X353099Y15256D02*
Y17677D01*
X355039D01*
X355118Y17598D01*
X343307D02*
X344477D01*
X345276D01*
X347244D01*
X346181Y18504D02*
Y19409D01*
X345276Y17598D02*
X346181Y18504D01*
D17*
X325461Y31102D02*
D03*
Y33071D02*
D03*
Y37008D02*
D03*
Y35039D02*
D03*
Y38976D02*
D03*
Y40945D02*
D03*
X334550Y40924D02*
D03*
Y38955D02*
D03*
Y35018D02*
D03*
Y36987D02*
D03*
Y33050D02*
D03*
Y31081D02*
D03*
X340067Y24587D02*
D03*
X328256D02*
D03*
D18*
X359055Y17657D02*
D03*
X343307D02*
D03*
X345276D02*
D03*
X347244D02*
D03*
X349213D02*
D03*
X357087D02*
D03*
X355118D02*
D03*
X353150D02*
D03*
X351181D02*
D03*
X359055Y28484D02*
D03*
X351181D02*
D03*
X353150D02*
D03*
X355118D02*
D03*
X357087D02*
D03*
X349213D02*
D03*
X347244D02*
D03*
X345276D02*
D03*
X343307D02*
D03*
X354055Y26358D02*
D03*
X356024D02*
D03*
X352087D02*
D03*
X350118D02*
D03*
X348150D02*
D03*
X346181D02*
D03*
Y19469D02*
D03*
X348150D02*
D03*
X350118D02*
D03*
X352087D02*
D03*
X356024D02*
D03*
X354055D02*
D03*
X322941Y25965D02*
D03*
D19*
X322008Y10878D02*
D03*
Y11878D02*
D03*
X323150Y10878D02*
D03*
Y11878D02*
D03*
D20*
X326248Y24665D02*
D03*
Y27382D02*
D03*
X333188Y12120D02*
D03*
X335196D02*
D03*
X364435Y11811D02*
D03*
X365435D02*
D03*
X366435D02*
D03*
X368435D02*
D03*
X367435D02*
D03*
X319674Y26083D02*
D03*
Y24114D02*
D03*
X351445Y12980D02*
D03*
Y14980D02*
D03*
X325493Y21043D02*
D03*
X323493D02*
D03*
D21*
X361485Y23327D02*
D03*
X337874Y12087D02*
D03*
X368335Y22146D02*
D03*
X367744Y29862D02*
D03*
X318976Y27283D02*
D03*
X361563Y21280D02*
D03*
D22*
X369359Y36555D02*
D03*
Y37815D02*
D03*
Y41594D02*
D03*
Y40335D02*
D03*
X373414Y41594D02*
D03*
Y36555D02*
D03*
X323374Y41961D02*
D03*
X321996Y38965D02*
D03*
X318531Y13071D02*
D03*
D23*
X365933Y38209D02*
D03*
Y41209D02*
D03*
X360902Y38248D02*
D03*
Y41248D02*
D03*
X355823Y38209D02*
D03*
Y41209D02*
D03*
X350807Y38209D02*
D03*
Y41209D02*
D03*
X345823Y38209D02*
D03*
Y41209D02*
D03*
X340807Y38209D02*
D03*
Y41209D02*
D03*
X321117Y29703D02*
D03*
X324117D02*
D03*
X361839Y41209D02*
D03*
Y38209D02*
D03*
X346839Y41209D02*
D03*
Y38209D02*
D03*
X322508Y22224D02*
D03*
X325508D02*
D03*
X324083Y17461D02*
D03*
Y14461D02*
D03*
X321717Y18903D02*
D03*
X318717D02*
D03*
X322835Y13071D02*
D03*
X325835D02*
D03*
X351820Y41209D02*
D03*
Y38209D02*
D03*
D24*
X359280Y13705D02*
D03*
X356422Y13725D02*
D03*
X353571Y13783D02*
D03*
Y12783D02*
D03*
X326989Y11280D02*
D03*
X325989D02*
D03*
X319485Y20965D02*
D03*
X320485D02*
D03*
D25*
X359280Y14705D02*
D03*
X356422Y14725D02*
D03*
X353571Y14783D02*
D03*
D26*
X356193Y11437D02*
D03*
X357193D02*
D03*
X358193D02*
D03*
X317917Y29503D02*
D03*
X318917D02*
D03*
X319917D02*
D03*
D27*
X318453Y37067D02*
D03*
X323178D02*
D03*
X318378Y32264D02*
D03*
X323178D02*
D03*
X320815Y37854D02*
D03*
D28*
X337823Y38209D02*
D03*
X338823D02*
D03*
X342823D02*
D03*
X343823D02*
D03*
X347823D02*
D03*
X348823D02*
D03*
X352823D02*
D03*
X353823D02*
D03*
X357902Y38248D02*
D03*
X358902D02*
D03*
X362823Y38209D02*
D03*
X363823D02*
D03*
D29*
X339823D02*
D03*
X344823D02*
D03*
X349823D02*
D03*
X354823D02*
D03*
X359902Y38248D02*
D03*
X364823Y38209D02*
D03*
D30*
X369435Y11811D02*
D03*
D31*
X349073Y15315D02*
D03*
Y13347D02*
D03*
X345498Y13347D02*
D03*
Y15315D02*
D03*
D32*
X347073D02*
D03*
Y13347D02*
D03*
X343498Y13347D02*
D03*
Y15315D02*
D03*
D33*
X323374Y38961D02*
D03*
X321996Y41965D02*
D03*
D34*
X364280Y25768D02*
D03*
Y18524D02*
D03*
X336327Y17421D02*
D03*
X329044D02*
D03*
D35*
X367272Y25768D02*
D03*
Y18524D02*
D03*
X339319Y17421D02*
D03*
X332036D02*
D03*
D36*
X326400Y19587D02*
D03*
Y18587D02*
D03*
X323400D02*
D03*
D37*
Y19587D02*
D03*
D38*
X320063Y17228D02*
D03*
Y16228D02*
D03*
Y15228D02*
D03*
Y14228D02*
D03*
X323063D02*
D03*
Y15228D02*
D03*
Y16228D02*
D03*
Y17228D02*
D03*
D39*
X324989Y11280D02*
D03*
X321485Y20965D02*
D03*
D40*
X325177Y17314D02*
D03*
X326406Y15319D02*
D03*
D41*
X325177Y15314D02*
D03*
X326406Y17319D02*
D03*
D42*
X321531Y13071D02*
D03*
D43*
X318317Y17203D02*
D03*
D44*
Y16203D02*
D03*
D45*
X324941Y26965D02*
D03*
Y25965D02*
D03*
Y24965D02*
D03*
D46*
X320485Y20319D02*
D03*
M02*
