M48
;Layer_Color=9474304
;FILE_FORMAT=2:4
INCH,LZ
;TYPE=PLATED
T1F00S00C0.0197
T2F00S00C0.0276
T3F00S00C0.0310
T4F00S00C0.0315
T5F00S00C0.0320
T6F00S00C0.0340
T7F00S00C0.0350
T8F00S00C0.0390
T9F00S00C0.0394
T10F00S00C0.0400
T11F00S00C0.0433
T12F00S00C0.0450
T13F00S00C0.0472
T14F00S00C0.0750
T15F00S00C0.1181
%
T01
X320485Y020319
T02
X32315Y010878
Y011878
X322008
Y010878
T03
X3264Y018587
Y019587
X3234
Y018587
T04
X326989Y01128
X325989
X324989
X325835Y013071
X322835
X353571Y012783
Y013783
X356422Y013725
X356193Y011437
X357193
X358193
X35928Y013705
Y014705
X356422Y014725
X353571Y014783
X324083Y014461
Y017461
X321717Y018903
X321485Y020965
X320485
X319485
X318717Y018903
X318317Y017203
Y016203
X319674Y024114
Y026083
X319917Y029503
X318917
X317917
X322508Y022224
X325508
X324117Y029703
X321117
X340807Y038209
Y041209
X345823
X346839
Y038209
X345823
X350807
X35182
Y041209
X350807
X355823
Y038209
X360902Y038248
X361839Y038209
Y041209
X360902Y041248
X365933Y041209
Y038209
T05
X326406Y015319
X325177Y015314
Y017314
X326406Y017319
T06
X323063Y014228
Y015228
Y016228
Y017228
X320063
Y016228
Y015228
Y014228
T07
X321531Y013071
X318531
X321996Y038965
X323374Y038961
Y041961
X321996Y041965
T08
X342823Y038209
X339823
X338823
X337823
X343823
X344823
X347823
X348823
X349823
X352823
X353823
X354823
X357902Y038248
X358902
X359902
X362823Y038209
X363823
X364823
X369359Y037815
Y036555
Y040335
Y041594
X373414
Y036555
T09
X335196Y01212
X333188
X351445Y01298
X364435Y011811
X365435
X366435
X367435
X368435
X369435
X351445Y01498
X325493Y021043
X323493
X326248Y024665
Y027382
T10
X324941Y024965
Y025965
Y026965
T11
X367272Y018524
X36428
Y025768
X367272
X339319Y017421
X336327
X332036
X329044
T12
X323178Y032264
X318378
X318453Y037067
X320815Y037854
X323178Y037067
T13
X343498Y013347
X345498
X347073Y013347
X349073
Y015315
X347073
X345498
X345276Y017657
X347244
X349213
X351181
X35315
X355118
X357087
X359055
X356024Y019469
X354055
X352087
X350118
X34815
X346181
Y026358
X34815
X350118
X352087
X354055
X356024
X355118Y028484
X35315
X351181
X349213
X347244
X345276
X357087
X359055
X343307
X340067Y024587
X343307Y017657
X343498Y015315
X328256Y024587
X325461Y031102
Y033071
Y035039
Y037008
Y038976
Y040945
X33455Y040924
Y038955
Y036987
Y035018
Y03305
Y031081
T14
X322941Y025965
T15
X337874Y012087
X361563Y02128
X361485Y023327
X368335Y022146
X318976Y027283
X367744Y029862
M30
