%FSLAX24Y24*%
%MOIN*%
G70*
G01*
G75*
%ADD10C,0.0394*%
%ADD11C,0.0591*%
%ADD12C,0.0787*%
%ADD13C,0.1969*%
%ADD14C,0.1575*%
%ADD15C,0.1181*%
%ADD16C,0.0984*%
%ADD17C,0.0984*%
%ADD18C,0.1000*%
%ADD19C,0.0591*%
%ADD20C,0.0787*%
%ADD21C,0.1969*%
%ADD22C,0.0800*%
%ADD23C,0.0709*%
%ADD24C,0.0630*%
%ADD25R,0.0630X0.0630*%
%ADD26O,0.0630X0.0787*%
%ADD27C,0.1200*%
%ADD28O,0.0800X0.1000*%
%ADD29R,0.0800X0.1000*%
%ADD30R,0.0787X0.0787*%
%ADD31O,0.0650X0.1000*%
%ADD32R,0.0650X0.1000*%
%ADD33R,0.0800X0.0800*%
%ADD34C,0.1181*%
%ADD35R,0.1181X0.1181*%
%ADD36O,0.0900X0.0600*%
%ADD37R,0.0900X0.0600*%
%ADD38O,0.0787X0.0591*%
%ADD39R,0.0630X0.0630*%
%ADD40R,0.1000X0.0650*%
%ADD41O,0.1000X0.0650*%
%ADD42R,0.0800X0.0800*%
%ADD43O,0.0591X0.0512*%
%ADD44R,0.0591X0.0512*%
G04:AMPARAMS|DCode=45|XSize=70mil|YSize=90mil|CornerRadius=0mil|HoleSize=0mil|Usage=FLASHONLY|Rotation=90.000|XOffset=0mil|YOffset=0mil|HoleType=Round|Shape=Octagon|*
%AMOCTAGOND45*
4,1,8,-0.0450,-0.0175,-0.0450,0.0175,-0.0275,0.0350,0.0275,0.0350,0.0450,0.0175,0.0450,-0.0175,0.0275,-0.0350,-0.0275,-0.0350,-0.0450,-0.0175,0.0*
%
%ADD45OCTAGOND45*%

%ADD46C,0.0394*%
%ADD47C,0.0100*%
%ADD48C,0.0070*%
%ADD49C,0.0150*%
%ADD50C,0.0120*%
%ADD51C,0.0039*%
%ADD52C,0.0079*%
%ADD53C,0.0250*%
%ADD54C,0.0080*%
%ADD55R,0.3990X0.0360*%
%ADD56R,0.0150X0.0550*%
%ADD57R,0.1260X0.0200*%
%ADD58R,0.0550X0.0150*%
%ADD59R,0.0200X0.1260*%
D47*
X328724Y31215D02*
X328820Y31227D01*
X328910Y31261D01*
X328989Y31316D01*
X329053Y31388D01*
X329098Y31473D01*
X329121Y31567D01*
Y31663D01*
X329098Y31757D01*
X329053Y31842D01*
X328989Y31914D01*
X328910Y31969D01*
X328820Y32003D01*
X328724Y32015D01*
X328820Y32027D01*
X328910Y32061D01*
X328989Y32116D01*
X329053Y32188D01*
X329098Y32273D01*
X329121Y32367D01*
Y32463D01*
X329098Y32557D01*
X329053Y32642D01*
X328989Y32714D01*
X328910Y32769D01*
X328820Y32803D01*
X328724Y32815D01*
X328820Y32827D01*
X328910Y32861D01*
X328989Y32916D01*
X329053Y32988D01*
X329098Y33073D01*
X329121Y33167D01*
Y33263D01*
X329098Y33357D01*
X329053Y33442D01*
X328989Y33514D01*
X328910Y33569D01*
X328820Y33603D01*
X328724Y33615D01*
Y35215D02*
X328820Y35227D01*
X328910Y35261D01*
X328989Y35316D01*
X329053Y35388D01*
X329098Y35473D01*
X329121Y35567D01*
Y35663D01*
X329098Y35757D01*
X329053Y35842D01*
X328989Y35914D01*
X328910Y35969D01*
X328820Y36003D01*
X328724Y36015D01*
Y34415D02*
X328820Y34427D01*
X328910Y34461D01*
X328989Y34516D01*
X329053Y34588D01*
X329098Y34673D01*
X329121Y34767D01*
Y34863D01*
X329098Y34957D01*
X329053Y35042D01*
X328989Y35114D01*
X328910Y35169D01*
X328820Y35203D01*
X328724Y35215D01*
Y33615D02*
X328820Y33627D01*
X328910Y33661D01*
X328989Y33716D01*
X329053Y33788D01*
X329098Y33873D01*
X329121Y33967D01*
Y34063D01*
X329098Y34157D01*
X329053Y34242D01*
X328989Y34314D01*
X328910Y34369D01*
X328820Y34403D01*
X328724Y34415D01*
Y38415D02*
X328820Y38427D01*
X328910Y38461D01*
X328989Y38516D01*
X329053Y38588D01*
X329098Y38673D01*
X329121Y38767D01*
Y38863D01*
X329098Y38957D01*
X329053Y39042D01*
X328989Y39114D01*
X328910Y39169D01*
X328820Y39203D01*
X328724Y39215D01*
X328820Y39227D01*
X328910Y39261D01*
X328989Y39316D01*
X329053Y39388D01*
X329098Y39473D01*
X329121Y39567D01*
Y39663D01*
X329098Y39757D01*
X329053Y39842D01*
X328989Y39914D01*
X328910Y39969D01*
X328820Y40003D01*
X328724Y40015D01*
X328820Y40027D01*
X328910Y40061D01*
X328989Y40116D01*
X329053Y40188D01*
X329098Y40273D01*
X329121Y40367D01*
Y40463D01*
X329098Y40557D01*
X329053Y40642D01*
X328989Y40714D01*
X328910Y40769D01*
X328820Y40803D01*
X328724Y40815D01*
Y37615D02*
X328820Y37627D01*
X328910Y37661D01*
X328989Y37716D01*
X329053Y37788D01*
X329098Y37873D01*
X329121Y37967D01*
Y38063D01*
X329098Y38157D01*
X329053Y38242D01*
X328989Y38314D01*
X328910Y38369D01*
X328820Y38403D01*
X328724Y38415D01*
Y36815D02*
X328820Y36827D01*
X328910Y36861D01*
X328989Y36916D01*
X329053Y36988D01*
X329098Y37073D01*
X329121Y37167D01*
Y37263D01*
X329098Y37357D01*
X329053Y37442D01*
X328989Y37514D01*
X328910Y37569D01*
X328820Y37603D01*
X328724Y37615D01*
Y36015D02*
X328820Y36027D01*
X328910Y36061D01*
X328989Y36116D01*
X329053Y36188D01*
X329098Y36273D01*
X329121Y36367D01*
Y36463D01*
X329098Y36557D01*
X329053Y36642D01*
X328989Y36714D01*
X328910Y36769D01*
X328820Y36803D01*
X328724Y36815D01*
X331574Y35915D02*
X331478Y35903D01*
X331388Y35869D01*
X331309Y35814D01*
X331245Y35742D01*
X331200Y35657D01*
X331177Y35563D01*
Y35467D01*
X331200Y35373D01*
X331245Y35288D01*
X331309Y35216D01*
X331388Y35161D01*
X331478Y35127D01*
X331574Y35115D01*
X331478Y35103D01*
X331388Y35069D01*
X331309Y35014D01*
X331245Y34942D01*
X331200Y34857D01*
X331177Y34763D01*
Y34667D01*
X331200Y34573D01*
X331245Y34488D01*
X331309Y34416D01*
X331388Y34361D01*
X331478Y34327D01*
X331574Y34315D01*
X331478Y34303D01*
X331388Y34269D01*
X331309Y34214D01*
X331245Y34142D01*
X331200Y34057D01*
X331177Y33963D01*
Y33867D01*
X331200Y33773D01*
X331245Y33688D01*
X331309Y33616D01*
X331388Y33561D01*
X331478Y33527D01*
X331574Y33515D01*
Y31915D02*
X331478Y31903D01*
X331388Y31869D01*
X331309Y31814D01*
X331245Y31742D01*
X331200Y31657D01*
X331177Y31563D01*
Y31467D01*
X331200Y31373D01*
X331245Y31288D01*
X331309Y31216D01*
X331388Y31161D01*
X331478Y31127D01*
X331574Y31115D01*
Y32715D02*
X331478Y32703D01*
X331388Y32669D01*
X331309Y32614D01*
X331245Y32542D01*
X331200Y32457D01*
X331177Y32363D01*
Y32267D01*
X331200Y32173D01*
X331245Y32088D01*
X331309Y32016D01*
X331388Y31961D01*
X331478Y31927D01*
X331574Y31915D01*
Y33515D02*
X331478Y33503D01*
X331388Y33469D01*
X331309Y33414D01*
X331245Y33342D01*
X331200Y33257D01*
X331177Y33163D01*
Y33067D01*
X331200Y32973D01*
X331245Y32888D01*
X331309Y32816D01*
X331388Y32761D01*
X331478Y32727D01*
X331574Y32715D01*
Y38315D02*
X331478Y38303D01*
X331388Y38269D01*
X331309Y38214D01*
X331245Y38142D01*
X331200Y38057D01*
X331177Y37963D01*
Y37867D01*
X331200Y37773D01*
X331245Y37688D01*
X331309Y37616D01*
X331388Y37561D01*
X331478Y37527D01*
X331574Y37515D01*
X331478Y37503D01*
X331388Y37469D01*
X331309Y37414D01*
X331245Y37342D01*
X331200Y37257D01*
X331177Y37163D01*
Y37067D01*
X331200Y36973D01*
X331245Y36888D01*
X331309Y36816D01*
X331388Y36761D01*
X331478Y36727D01*
X331574Y36715D01*
X331478Y36703D01*
X331388Y36669D01*
X331309Y36614D01*
X331245Y36542D01*
X331200Y36457D01*
X331177Y36363D01*
Y36267D01*
X331200Y36173D01*
X331245Y36088D01*
X331309Y36016D01*
X331388Y35961D01*
X331478Y35927D01*
X331574Y35915D01*
Y39115D02*
X331478Y39103D01*
X331388Y39069D01*
X331309Y39014D01*
X331245Y38942D01*
X331200Y38857D01*
X331177Y38763D01*
Y38667D01*
X331200Y38573D01*
X331245Y38488D01*
X331309Y38416D01*
X331388Y38361D01*
X331478Y38327D01*
X331574Y38315D01*
Y39915D02*
X331478Y39903D01*
X331388Y39869D01*
X331309Y39814D01*
X331245Y39742D01*
X331200Y39657D01*
X331177Y39563D01*
Y39467D01*
X331200Y39373D01*
X331245Y39288D01*
X331309Y39216D01*
X331388Y39161D01*
X331478Y39127D01*
X331574Y39115D01*
Y40715D02*
X331478Y40703D01*
X331388Y40669D01*
X331309Y40614D01*
X331245Y40542D01*
X331200Y40457D01*
X331177Y40363D01*
Y40267D01*
X331200Y40173D01*
X331245Y40088D01*
X331309Y40016D01*
X331388Y39961D01*
X331478Y39927D01*
X331574Y39915D01*
X355850Y21565D02*
X355839Y21660D01*
X355805Y21750D01*
X355750Y21830D01*
X355678Y21894D01*
X355592Y21939D01*
X355499Y21962D01*
X355402D01*
X355309Y21939D01*
X355223Y21894D01*
X355151Y21830D01*
X355096Y21750D01*
X355062Y21660D01*
X355050Y21565D01*
X355039Y21660D01*
X355005Y21750D01*
X354950Y21830D01*
X354878Y21894D01*
X354792Y21939D01*
X354699Y21962D01*
X354602D01*
X354509Y21939D01*
X354423Y21894D01*
X354351Y21830D01*
X354296Y21750D01*
X354262Y21660D01*
X354250Y21565D01*
X354239Y21660D01*
X354205Y21750D01*
X354150Y21830D01*
X354078Y21894D01*
X353992Y21939D01*
X353899Y21962D01*
X353802D01*
X353709Y21939D01*
X353623Y21894D01*
X353551Y21830D01*
X353496Y21750D01*
X353462Y21660D01*
X353450Y21565D01*
X351850D02*
X351839Y21660D01*
X351805Y21750D01*
X351750Y21830D01*
X351678Y21894D01*
X351592Y21939D01*
X351499Y21962D01*
X351402D01*
X351309Y21939D01*
X351223Y21894D01*
X351151Y21830D01*
X351096Y21750D01*
X351062Y21660D01*
X351050Y21565D01*
X352650D02*
X352639Y21660D01*
X352605Y21750D01*
X352550Y21830D01*
X352478Y21894D01*
X352392Y21939D01*
X352299Y21962D01*
X352202D01*
X352109Y21939D01*
X352023Y21894D01*
X351951Y21830D01*
X351896Y21750D01*
X351862Y21660D01*
X351850Y21565D01*
X353450D02*
X353439Y21660D01*
X353405Y21750D01*
X353350Y21830D01*
X353278Y21894D01*
X353192Y21939D01*
X353099Y21962D01*
X353002D01*
X352909Y21939D01*
X352823Y21894D01*
X352751Y21830D01*
X352696Y21750D01*
X352662Y21660D01*
X352650Y21565D01*
X348650D02*
X348639Y21660D01*
X348605Y21750D01*
X348550Y21830D01*
X348478Y21894D01*
X348392Y21939D01*
X348299Y21962D01*
X348202D01*
X348109Y21939D01*
X348023Y21894D01*
X347951Y21830D01*
X347896Y21750D01*
X347862Y21660D01*
X347850Y21565D01*
X347839Y21660D01*
X347805Y21750D01*
X347750Y21830D01*
X347678Y21894D01*
X347592Y21939D01*
X347499Y21962D01*
X347402D01*
X347309Y21939D01*
X347223Y21894D01*
X347151Y21830D01*
X347096Y21750D01*
X347062Y21660D01*
X347050Y21565D01*
X347039Y21660D01*
X347005Y21750D01*
X346950Y21830D01*
X346878Y21894D01*
X346792Y21939D01*
X346699Y21962D01*
X346602D01*
X346509Y21939D01*
X346423Y21894D01*
X346351Y21830D01*
X346296Y21750D01*
X346262Y21660D01*
X346250Y21565D01*
X349450D02*
X349439Y21660D01*
X349405Y21750D01*
X349350Y21830D01*
X349278Y21894D01*
X349192Y21939D01*
X349099Y21962D01*
X349002D01*
X348909Y21939D01*
X348823Y21894D01*
X348751Y21830D01*
X348696Y21750D01*
X348662Y21660D01*
X348650Y21565D01*
X350250D02*
X350239Y21660D01*
X350205Y21750D01*
X350150Y21830D01*
X350078Y21894D01*
X349992Y21939D01*
X349899Y21962D01*
X349802D01*
X349709Y21939D01*
X349623Y21894D01*
X349551Y21830D01*
X349496Y21750D01*
X349462Y21660D01*
X349450Y21565D01*
X351050D02*
X351039Y21660D01*
X351005Y21750D01*
X350950Y21830D01*
X350878Y21894D01*
X350792Y21939D01*
X350699Y21962D01*
X350602D01*
X350509Y21939D01*
X350423Y21894D01*
X350351Y21830D01*
X350296Y21750D01*
X350262Y21660D01*
X350250Y21565D01*
X351150Y24415D02*
X351162Y24319D01*
X351196Y24229D01*
X351251Y24149D01*
X351323Y24085D01*
X351409Y24041D01*
X351502Y24017D01*
X351599D01*
X351692Y24041D01*
X351778Y24085D01*
X351850Y24149D01*
X351905Y24229D01*
X351939Y24319D01*
X351950Y24415D01*
X351962Y24319D01*
X351996Y24229D01*
X352051Y24149D01*
X352123Y24085D01*
X352209Y24041D01*
X352302Y24017D01*
X352399D01*
X352492Y24041D01*
X352578Y24085D01*
X352650Y24149D01*
X352705Y24229D01*
X352739Y24319D01*
X352750Y24415D01*
X352762Y24319D01*
X352796Y24229D01*
X352851Y24149D01*
X352923Y24085D01*
X353009Y24041D01*
X353102Y24017D01*
X353199D01*
X353292Y24041D01*
X353378Y24085D01*
X353450Y24149D01*
X353505Y24229D01*
X353539Y24319D01*
X353550Y24415D01*
X355150D02*
X355162Y24319D01*
X355196Y24229D01*
X355251Y24149D01*
X355323Y24085D01*
X355409Y24041D01*
X355502Y24017D01*
X355599D01*
X355692Y24041D01*
X355778Y24085D01*
X355850Y24149D01*
X355905Y24229D01*
X355939Y24319D01*
X355950Y24415D01*
X354350D02*
X354362Y24319D01*
X354396Y24229D01*
X354451Y24149D01*
X354523Y24085D01*
X354609Y24041D01*
X354702Y24017D01*
X354799D01*
X354892Y24041D01*
X354978Y24085D01*
X355050Y24149D01*
X355105Y24229D01*
X355139Y24319D01*
X355150Y24415D01*
X353550D02*
X353562Y24319D01*
X353596Y24229D01*
X353651Y24149D01*
X353723Y24085D01*
X353809Y24041D01*
X353902Y24017D01*
X353999D01*
X354092Y24041D01*
X354178Y24085D01*
X354250Y24149D01*
X354305Y24229D01*
X354339Y24319D01*
X354350Y24415D01*
X348750D02*
X348762Y24319D01*
X348796Y24229D01*
X348851Y24149D01*
X348923Y24085D01*
X349009Y24041D01*
X349102Y24017D01*
X349199D01*
X349292Y24041D01*
X349378Y24085D01*
X349450Y24149D01*
X349505Y24229D01*
X349539Y24319D01*
X349550Y24415D01*
X349562Y24319D01*
X349596Y24229D01*
X349651Y24149D01*
X349723Y24085D01*
X349809Y24041D01*
X349902Y24017D01*
X349999D01*
X350092Y24041D01*
X350178Y24085D01*
X350250Y24149D01*
X350305Y24229D01*
X350339Y24319D01*
X350350Y24415D01*
X350362Y24319D01*
X350396Y24229D01*
X350451Y24149D01*
X350523Y24085D01*
X350609Y24041D01*
X350702Y24017D01*
X350799D01*
X350892Y24041D01*
X350978Y24085D01*
X351050Y24149D01*
X351105Y24229D01*
X351139Y24319D01*
X351150Y24415D01*
X347950D02*
X347962Y24319D01*
X347996Y24229D01*
X348051Y24149D01*
X348123Y24085D01*
X348209Y24041D01*
X348302Y24017D01*
X348399D01*
X348492Y24041D01*
X348578Y24085D01*
X348650Y24149D01*
X348705Y24229D01*
X348739Y24319D01*
X348750Y24415D01*
X347150D02*
X347162Y24319D01*
X347196Y24229D01*
X347251Y24149D01*
X347323Y24085D01*
X347409Y24041D01*
X347502Y24017D01*
X347599D01*
X347692Y24041D01*
X347778Y24085D01*
X347850Y24149D01*
X347905Y24229D01*
X347939Y24319D01*
X347950Y24415D01*
X346350D02*
X346362Y24319D01*
X346396Y24229D01*
X346451Y24149D01*
X346523Y24085D01*
X346609Y24041D01*
X346702Y24017D01*
X346799D01*
X346892Y24041D01*
X346978Y24085D01*
X347050Y24149D01*
X347105Y24229D01*
X347139Y24319D01*
X347150Y24415D01*
X321632Y10882D02*
X321644Y10784D01*
X321681Y10692D01*
X321742Y10613D01*
X321820Y10552D01*
X321912Y10514D01*
X322011Y10502D01*
X322109Y10516D01*
X322200Y10555D01*
X322278Y10617D01*
X322337Y10697D01*
X322373Y10789D01*
X322384Y10888D01*
X322384Y11884D02*
X322372Y11982D01*
X322334Y12074D01*
X322274Y12153D01*
X322195Y12214D01*
X322104Y12251D01*
X322005Y12264D01*
X321907Y12250D01*
X321815Y12211D01*
X321738Y12149D01*
X321679Y12069D01*
X321643Y11977D01*
X321632Y11878D01*
X370477Y40098D02*
X370573Y40110D01*
X370663Y40144D01*
X370742Y40199D01*
X370806Y40271D01*
X370851Y40357D01*
X370874Y40450D01*
Y40547D01*
X370851Y40640D01*
X370806Y40726D01*
X370742Y40798D01*
X370663Y40853D01*
X370573Y40887D01*
X370477Y40898D01*
X370573Y40910D01*
X370663Y40944D01*
X370742Y40999D01*
X370806Y41071D01*
X370851Y41157D01*
X370874Y41250D01*
Y41347D01*
X370851Y41440D01*
X370806Y41526D01*
X370742Y41598D01*
X370663Y41653D01*
X370573Y41687D01*
X370477Y41698D01*
X372128Y39073D02*
X372032Y39062D01*
X371942Y39027D01*
X371862Y38973D01*
X371798Y38900D01*
X371754Y38815D01*
X371730Y38721D01*
Y38625D01*
X371754Y38531D01*
X371798Y38446D01*
X371862Y38374D01*
X371942Y38319D01*
X372032Y38285D01*
X372128Y38273D01*
X372032Y38262D01*
X371942Y38227D01*
X371862Y38173D01*
X371798Y38100D01*
X371754Y38015D01*
X371730Y37921D01*
Y37825D01*
X371754Y37731D01*
X371798Y37646D01*
X371862Y37574D01*
X371942Y37519D01*
X372032Y37485D01*
X372128Y37473D01*
X372032Y37462D01*
X371942Y37427D01*
X371862Y37373D01*
X371798Y37300D01*
X371754Y37215D01*
X371730Y37121D01*
Y37025D01*
X371754Y36931D01*
X371798Y36846D01*
X371862Y36774D01*
X371942Y36719D01*
X372032Y36685D01*
X372128Y36673D01*
Y39873D02*
X372032Y39862D01*
X371942Y39827D01*
X371862Y39773D01*
X371798Y39700D01*
X371754Y39615D01*
X371730Y39521D01*
Y39425D01*
X371754Y39331D01*
X371798Y39246D01*
X371862Y39174D01*
X371942Y39119D01*
X372032Y39085D01*
X372128Y39073D01*
Y40673D02*
X372032Y40662D01*
X371942Y40627D01*
X371862Y40573D01*
X371798Y40500D01*
X371754Y40415D01*
X371730Y40321D01*
Y40225D01*
X371754Y40131D01*
X371798Y40046D01*
X371862Y39974D01*
X371942Y39919D01*
X372032Y39885D01*
X372128Y39873D01*
Y41473D02*
X372032Y41462D01*
X371942Y41427D01*
X371862Y41373D01*
X371798Y41300D01*
X371754Y41215D01*
X371730Y41121D01*
Y41025D01*
X371754Y40931D01*
X371798Y40846D01*
X371862Y40774D01*
X371942Y40719D01*
X372032Y40685D01*
X372128Y40673D01*
X370477Y37158D02*
X370573Y37170D01*
X370663Y37204D01*
X370742Y37259D01*
X370806Y37331D01*
X370851Y37416D01*
X370874Y37510D01*
Y37606D01*
X370851Y37700D01*
X370806Y37785D01*
X370742Y37858D01*
X370663Y37912D01*
X370573Y37947D01*
X370477Y37958D01*
Y36358D02*
X370573Y36370D01*
X370663Y36404D01*
X370742Y36459D01*
X370806Y36531D01*
X370851Y36616D01*
X370874Y36710D01*
Y36806D01*
X370851Y36900D01*
X370806Y36985D01*
X370742Y37058D01*
X370663Y37112D01*
X370573Y37147D01*
X370477Y37158D01*
X356095Y11987D02*
X356071Y12086D01*
X356004Y12162D01*
X355909Y12198D01*
X355808Y12185D01*
X355725Y12128D01*
X355677Y12038D01*
Y11936D01*
X355725Y11846D01*
X355808Y11789D01*
X355909Y11776D01*
X356004Y11812D01*
X356071Y11888D01*
X356095Y11987D01*
X340673Y38689D02*
X340635Y38780D01*
X340544Y38818D01*
X340452Y38780D01*
X340414Y38689D01*
X340452Y38597D01*
X340544Y38559D01*
X340635Y38597D01*
X340673Y38689D01*
X345673D02*
X345635Y38780D01*
X345544Y38818D01*
X345452Y38780D01*
X345414Y38689D01*
X345452Y38597D01*
X345544Y38559D01*
X345635Y38597D01*
X345673Y38689D01*
X350673D02*
X350635Y38780D01*
X350544Y38818D01*
X350452Y38780D01*
X350414Y38689D01*
X350452Y38597D01*
X350544Y38559D01*
X350635Y38597D01*
X350673Y38689D01*
X355673D02*
X355635Y38780D01*
X355544Y38818D01*
X355452Y38780D01*
X355414Y38689D01*
X355452Y38597D01*
X355544Y38559D01*
X355635Y38597D01*
X355673Y38689D01*
X360752Y38728D02*
X360714Y38820D01*
X360622Y38858D01*
X360531Y38820D01*
X360493Y38728D01*
X360531Y38636D01*
X360622Y38598D01*
X360714Y38636D01*
X360752Y38728D01*
X365673Y38689D02*
X365635Y38780D01*
X365544Y38818D01*
X365452Y38780D01*
X365414Y38689D01*
X365452Y38597D01*
X365544Y38559D01*
X365635Y38597D01*
X365673Y38689D01*
X369319Y25768D02*
X369318Y25868D01*
X369314Y25967D01*
X369307Y26067D01*
X369297Y26166D01*
X369284Y26265D01*
X369269Y26364D01*
X369251Y26462D01*
X369230Y26560D01*
X369206Y26657D01*
X369180Y26753D01*
X369150Y26848D01*
X369119Y26943D01*
X369084Y27037D01*
X369047Y27129D01*
X369008Y27221D01*
X368965Y27312D01*
X368921Y27401D01*
X368873Y27489D01*
X368824Y27575D01*
X368771Y27660D01*
X368717Y27744D01*
X368660Y27826D01*
X368601Y27907D01*
X368540Y27985D01*
X368476Y28062D01*
X368410Y28137D01*
X368342Y28211D01*
X368273Y28282D01*
X368201Y28351D01*
X368127Y28419D01*
X368051Y28484D01*
X367974Y28547D01*
X367895Y28608D01*
X367814Y28666D01*
X367732Y28723D01*
X367648Y28776D01*
X367562Y28828D01*
X367475Y28877D01*
X367387Y28924D01*
X367297Y28968D01*
X367207Y29009D01*
X367115Y29048D01*
X367022Y29085D01*
X366928Y29119D01*
X366833Y29150D01*
X366737Y29178D01*
X366641Y29204D01*
X366544Y29227D01*
X366446Y29247D01*
X366348Y29265D01*
X366249Y29279D01*
X366150Y29291D01*
X366050Y29300D01*
X365951Y29307D01*
X365851Y29310D01*
X365751Y29311D01*
X365651Y29309D01*
X365552Y29304D01*
X365452Y29296D01*
X365353Y29286D01*
X365254Y29272D01*
X365155Y29256D01*
X365057Y29237D01*
X364960Y29216D01*
X364863Y29191D01*
X364767Y29164D01*
X364672Y29135D01*
X364577Y29102D01*
X364484Y29067D01*
X364391Y29029D01*
X364300Y28989D01*
X364210Y28946D01*
X364121Y28901D01*
X364033Y28853D01*
X363947Y28802D01*
X363862Y28750D01*
X363779Y28695D01*
X363697Y28637D01*
X363617Y28578D01*
X363539Y28516D01*
X363462Y28452D01*
X363388Y28385D01*
X363315Y28317D01*
X363244Y28247D01*
X363175Y28174D01*
X363109Y28100D01*
X363044Y28024D01*
X362981Y27946D01*
X362921Y27867D01*
X362863Y27785D01*
X362808Y27702D01*
X362754Y27618D01*
X362703Y27532D01*
X362655Y27445D01*
X362609Y27356D01*
X362565Y27266D01*
X362524Y27175D01*
X362486Y27083D01*
X362450Y26990D01*
X362417Y26896D01*
X362387Y26801D01*
X362359Y26705D01*
X362334Y26608D01*
X362312Y26511D01*
X362292Y26413D01*
X362275Y26315D01*
X362261Y26216D01*
X362250Y26117D01*
X362241Y26017D01*
X362236Y25917D01*
X362233Y25818D01*
Y25718D01*
X362236Y25618D01*
X362241Y25518D01*
X362250Y25419D01*
X362261Y25320D01*
X362275Y25221D01*
X362292Y25122D01*
X362312Y25025D01*
X362334Y24927D01*
X362359Y24831D01*
X362387Y24735D01*
X362417Y24640D01*
X362450Y24545D01*
X362486Y24452D01*
X362524Y24360D01*
X362565Y24269D01*
X362609Y24179D01*
X362655Y24091D01*
X362703Y24003D01*
X362754Y23917D01*
X362808Y23833D01*
X362863Y23750D01*
X362921Y23669D01*
X362981Y23589D01*
X363044Y23511D01*
X363109Y23435D01*
X363175Y23361D01*
X363244Y23289D01*
X363315Y23218D01*
X363388Y23150D01*
X363462Y23084D01*
X363539Y23020D01*
X363617Y22958D01*
X363697Y22898D01*
X363779Y22841D01*
X363862Y22786D01*
X363947Y22733D01*
X364033Y22683D01*
X364121Y22635D01*
X364210Y22589D01*
X364300Y22547D01*
X364391Y22506D01*
X364484Y22468D01*
X364577Y22433D01*
X364672Y22401D01*
X364767Y22371D01*
X364863Y22344D01*
X364960Y22320D01*
X365057Y22298D01*
X365155Y22279D01*
X365254Y22263D01*
X365353Y22250D01*
X365452Y22239D01*
X365551Y22232D01*
X365651Y22227D01*
X365751Y22225D01*
X365851Y22225D01*
X365951Y22229D01*
X366050Y22235D01*
X366150Y22244D01*
X366249Y22256D01*
X366348Y22271D01*
X366446Y22288D01*
X366544Y22309D01*
X366641Y22332D01*
X366737Y22357D01*
X366833Y22386D01*
X366928Y22417D01*
X367022Y22451D01*
X367115Y22487D01*
X367207Y22526D01*
X367297Y22568D01*
X367387Y22612D01*
X367475Y22658D01*
X367562Y22707D01*
X367648Y22759D01*
X367732Y22813D01*
X367814Y22869D01*
X367895Y22928D01*
X367974Y22989D01*
X368051Y23052D01*
X368127Y23117D01*
X368201Y23184D01*
X368273Y23253D01*
X368342Y23325D01*
X368410Y23398D01*
X368476Y23473D01*
X368540Y23550D01*
X368601Y23629D01*
X368660Y23709D01*
X368717Y23791D01*
X368771Y23875D01*
X368824Y23960D01*
X368873Y24047D01*
X368921Y24135D01*
X368965Y24224D01*
X369008Y24314D01*
X369047Y24406D01*
X369084Y24499D01*
X369119Y24592D01*
X369150Y24687D01*
X369180Y24783D01*
X369206Y24879D01*
X369230Y24976D01*
X369251Y25073D01*
X369269Y25172D01*
X369284Y25270D01*
X369297Y25369D01*
X369307Y25469D01*
X369314Y25568D01*
X369318Y25668D01*
X369319Y25768D01*
Y18524D02*
X369318Y18623D01*
X369314Y18723D01*
X369307Y18823D01*
X369297Y18922D01*
X369284Y19021D01*
X369269Y19120D01*
X369251Y19218D01*
X369230Y19316D01*
X369206Y19413D01*
X369180Y19509D01*
X369150Y19604D01*
X369119Y19699D01*
X369084Y19793D01*
X369047Y19885D01*
X369008Y19977D01*
X368965Y20067D01*
X368921Y20157D01*
X368873Y20245D01*
X368824Y20331D01*
X368771Y20416D01*
X368717Y20500D01*
X368660Y20582D01*
X368601Y20662D01*
X368540Y20741D01*
X368476Y20818D01*
X368410Y20893D01*
X368342Y20967D01*
X368273Y21038D01*
X368201Y21107D01*
X368127Y21175D01*
X368051Y21240D01*
X367974Y21303D01*
X367895Y21364D01*
X367814Y21422D01*
X367732Y21478D01*
X367648Y21532D01*
X367562Y21584D01*
X367475Y21633D01*
X367387Y21680D01*
X367297Y21724D01*
X367207Y21765D01*
X367115Y21804D01*
X367022Y21841D01*
X366928Y21875D01*
X366833Y21906D01*
X366737Y21934D01*
X366641Y21960D01*
X366544Y21983D01*
X366446Y22003D01*
X366348Y22021D01*
X366249Y22035D01*
X366150Y22047D01*
X366050Y22056D01*
X365951Y22063D01*
X365851Y22066D01*
X365751Y22067D01*
X365651Y22065D01*
X365552Y22060D01*
X365452Y22052D01*
X365353Y22042D01*
X365254Y22028D01*
X365155Y22012D01*
X365057Y21993D01*
X364960Y21972D01*
X364863Y21947D01*
X364767Y21920D01*
X364672Y21890D01*
X364577Y21858D01*
X364484Y21823D01*
X364391Y21785D01*
X364300Y21745D01*
X364210Y21702D01*
X364121Y21657D01*
X364033Y21609D01*
X363947Y21558D01*
X363862Y21506D01*
X363779Y21451D01*
X363697Y21393D01*
X363617Y21333D01*
X363539Y21272D01*
X363462Y21207D01*
X363388Y21141D01*
X363315Y21073D01*
X363244Y21003D01*
X363175Y20930D01*
X363109Y20856D01*
X363044Y20780D01*
X362981Y20702D01*
X362921Y20622D01*
X362863Y20541D01*
X362808Y20458D01*
X362754Y20374D01*
X362703Y20288D01*
X362655Y20201D01*
X362609Y20112D01*
X362565Y20022D01*
X362524Y19931D01*
X362486Y19839D01*
X362450Y19746D01*
X362417Y19652D01*
X362387Y19557D01*
X362359Y19461D01*
X362334Y19364D01*
X362312Y19267D01*
X362292Y19169D01*
X362275Y19071D01*
X362261Y18972D01*
X362250Y18872D01*
X362241Y18773D01*
X362236Y18673D01*
X362233Y18574D01*
Y18474D01*
X362236Y18374D01*
X362241Y18274D01*
X362250Y18175D01*
X362261Y18076D01*
X362275Y17977D01*
X362292Y17878D01*
X362312Y17780D01*
X362334Y17683D01*
X362359Y17586D01*
X362387Y17491D01*
X362417Y17396D01*
X362450Y17301D01*
X362486Y17208D01*
X362524Y17116D01*
X362565Y17025D01*
X362609Y16935D01*
X362655Y16846D01*
X362703Y16759D01*
X362754Y16673D01*
X362808Y16589D01*
X362863Y16506D01*
X362921Y16425D01*
X362981Y16345D01*
X363044Y16267D01*
X363109Y16191D01*
X363175Y16117D01*
X363244Y16045D01*
X363315Y15974D01*
X363388Y15906D01*
X363462Y15840D01*
X363539Y15776D01*
X363617Y15714D01*
X363697Y15654D01*
X363779Y15597D01*
X363862Y15542D01*
X363947Y15489D01*
X364033Y15439D01*
X364121Y15391D01*
X364210Y15345D01*
X364300Y15302D01*
X364391Y15262D01*
X364484Y15224D01*
X364577Y15189D01*
X364672Y15157D01*
X364767Y15127D01*
X364863Y15100D01*
X364960Y15076D01*
X365057Y15054D01*
X365155Y15035D01*
X365254Y15019D01*
X365353Y15006D01*
X365452Y14995D01*
X365551Y14987D01*
X365651Y14983D01*
X365751Y14980D01*
X365851Y14981D01*
X365951Y14985D01*
X366050Y14991D01*
X366150Y15000D01*
X366249Y15012D01*
X366348Y15027D01*
X366446Y15044D01*
X366544Y15064D01*
X366641Y15087D01*
X366737Y15113D01*
X366833Y15142D01*
X366928Y15173D01*
X367022Y15207D01*
X367115Y15243D01*
X367207Y15282D01*
X367297Y15324D01*
X367387Y15368D01*
X367475Y15414D01*
X367562Y15463D01*
X367648Y15515D01*
X367732Y15569D01*
X367814Y15625D01*
X367895Y15684D01*
X367974Y15744D01*
X368051Y15808D01*
X368127Y15873D01*
X368201Y15940D01*
X368273Y16009D01*
X368342Y16081D01*
X368410Y16154D01*
X368476Y16229D01*
X368540Y16306D01*
X368601Y16385D01*
X368660Y16465D01*
X368717Y16547D01*
X368771Y16631D01*
X368824Y16716D01*
X368873Y16803D01*
X368921Y16891D01*
X368965Y16980D01*
X369008Y17070D01*
X369047Y17162D01*
X369084Y17255D01*
X369119Y17348D01*
X369150Y17443D01*
X369180Y17538D01*
X369206Y17635D01*
X369230Y17732D01*
X369251Y17829D01*
X369269Y17927D01*
X369284Y18026D01*
X369297Y18125D01*
X369307Y18224D01*
X369314Y18324D01*
X369318Y18424D01*
X369319Y18524D01*
X341367Y17421D02*
X341365Y17521D01*
X341361Y17621D01*
X341354Y17720D01*
X341344Y17820D01*
X341331Y17919D01*
X341316Y18017D01*
X341298Y18116D01*
X341277Y18213D01*
X341253Y18310D01*
X341227Y18406D01*
X341198Y18502D01*
X341166Y18597D01*
X341131Y18690D01*
X341094Y18783D01*
X341055Y18875D01*
X341013Y18965D01*
X340968Y19054D01*
X340921Y19142D01*
X340871Y19229D01*
X340819Y19314D01*
X340764Y19398D01*
X340707Y19480D01*
X340648Y19560D01*
X340587Y19639D01*
X340523Y19716D01*
X340458Y19791D01*
X340390Y19864D01*
X340320Y19936D01*
X340248Y20005D01*
X340174Y20072D01*
X340099Y20137D01*
X340021Y20200D01*
X339942Y20261D01*
X339861Y20320D01*
X339779Y20376D01*
X339695Y20430D01*
X339609Y20482D01*
X339522Y20531D01*
X339434Y20577D01*
X339345Y20621D01*
X339254Y20663D01*
X339162Y20702D01*
X339069Y20738D01*
X338975Y20772D01*
X338880Y20803D01*
X338784Y20832D01*
X338688Y20857D01*
X338591Y20880D01*
X338493Y20901D01*
X338395Y20918D01*
X338296Y20933D01*
X338197Y20945D01*
X338097Y20954D01*
X337998Y20960D01*
X337898Y20964D01*
X337798Y20964D01*
X337698Y20962D01*
X337599Y20957D01*
X337499Y20950D01*
X337400Y20939D01*
X337301Y20926D01*
X337202Y20910D01*
X337104Y20891D01*
X337007Y20869D01*
X336910Y20845D01*
X336814Y20818D01*
X336719Y20788D01*
X336624Y20756D01*
X336531Y20721D01*
X336438Y20683D01*
X336347Y20642D01*
X336257Y20600D01*
X336168Y20554D01*
X336080Y20506D01*
X335994Y20456D01*
X335909Y20403D01*
X335826Y20348D01*
X335745Y20291D01*
X335665Y20231D01*
X335586Y20169D01*
X335510Y20105D01*
X335435Y20039D01*
X335362Y19970D01*
X335291Y19900D01*
X335223Y19828D01*
X335156Y19754D01*
X335091Y19678D01*
X335029Y19600D01*
X334968Y19520D01*
X334910Y19439D01*
X334855Y19356D01*
X334801Y19272D01*
X334750Y19186D01*
X334702Y19098D01*
X334656Y19010D01*
X334613Y18920D01*
X334572Y18829D01*
X334533Y18737D01*
X334497Y18644D01*
X334464Y18549D01*
X334434Y18454D01*
X334406Y18358D01*
X334381Y18262D01*
X334359Y18164D01*
X334339Y18067D01*
X334322Y17968D01*
X334308Y17869D01*
X334297Y17770D01*
X334289Y17671D01*
X334283Y17571D01*
X334280Y17471D01*
Y17371D01*
X334283Y17272D01*
X334289Y17172D01*
X334297Y17072D01*
X334308Y16973D01*
X334322Y16874D01*
X334339Y16776D01*
X334359Y16678D01*
X334381Y16581D01*
X334406Y16484D01*
X334434Y16388D01*
X334464Y16293D01*
X334497Y16199D01*
X334533Y16106D01*
X334572Y16014D01*
X334613Y15923D01*
X334656Y15833D01*
X334702Y15744D01*
X334750Y15657D01*
X334801Y15571D01*
X334855Y15487D01*
X334910Y15404D01*
X334968Y15322D01*
X335029Y15243D01*
X335091Y15165D01*
X335156Y15089D01*
X335223Y15015D01*
X335291Y14942D01*
X335362Y14872D01*
X335435Y14804D01*
X335510Y14737D01*
X335586Y14673D01*
X335665Y14611D01*
X335745Y14552D01*
X335826Y14494D01*
X335909Y14439D01*
X335994Y14386D01*
X336080Y14336D01*
X336168Y14288D01*
X336257Y14243D01*
X336347Y14200D01*
X336438Y14160D01*
X336531Y14122D01*
X336624Y14087D01*
X336719Y14054D01*
X336814Y14025D01*
X336910Y13998D01*
X337007Y13973D01*
X337104Y13952D01*
X337202Y13933D01*
X337301Y13917D01*
X337400Y13903D01*
X337499Y13893D01*
X337599Y13885D01*
X337698Y13880D01*
X337798Y13878D01*
X337898Y13879D01*
X337998Y13882D01*
X338097Y13889D01*
X338197Y13898D01*
X338296Y13910D01*
X338395Y13924D01*
X338493Y13942D01*
X338591Y13962D01*
X338688Y13985D01*
X338784Y14011D01*
X338880Y14039D01*
X338975Y14070D01*
X339069Y14104D01*
X339162Y14141D01*
X339254Y14180D01*
X339345Y14221D01*
X339434Y14265D01*
X339522Y14312D01*
X339609Y14361D01*
X339695Y14413D01*
X339779Y14466D01*
X339861Y14523D01*
X339942Y14581D01*
X340021Y14642D01*
X340099Y14705D01*
X340174Y14770D01*
X340248Y14838D01*
X340320Y14907D01*
X340390Y14978D01*
X340458Y15052D01*
X340523Y15127D01*
X340587Y15204D01*
X340648Y15282D01*
X340707Y15363D01*
X340764Y15445D01*
X340819Y15529D01*
X340871Y15614D01*
X340921Y15700D01*
X340968Y15788D01*
X341013Y15877D01*
X341055Y15968D01*
X341094Y16060D01*
X341131Y16152D01*
X341166Y16246D01*
X341198Y16341D01*
X341227Y16436D01*
X341253Y16532D01*
X341277Y16629D01*
X341298Y16727D01*
X341316Y16825D01*
X341331Y16924D01*
X341344Y17023D01*
X341354Y17122D01*
X341361Y17222D01*
X341365Y17321D01*
X341367Y17421D01*
X334083Y17421D02*
X334082Y17521D01*
X334077Y17621D01*
X334070Y17720D01*
X334061Y17820D01*
X334048Y17919D01*
X334033Y18017D01*
X334014Y18116D01*
X333993Y18213D01*
X333970Y18310D01*
X333943Y18406D01*
X333914Y18502D01*
X333882Y18597D01*
X333848Y18690D01*
X333811Y18783D01*
X333771Y18875D01*
X333729Y18965D01*
X333684Y19054D01*
X333637Y19142D01*
X333587Y19229D01*
X333535Y19314D01*
X333481Y19398D01*
X333424Y19480D01*
X333365Y19560D01*
X333303Y19639D01*
X333240Y19716D01*
X333174Y19791D01*
X333106Y19864D01*
X333036Y19936D01*
X332965Y20005D01*
X332891Y20072D01*
X332815Y20137D01*
X332738Y20200D01*
X332659Y20261D01*
X332578Y20320D01*
X332495Y20376D01*
X332411Y20430D01*
X332326Y20482D01*
X332239Y20531D01*
X332151Y20577D01*
X332061Y20621D01*
X331970Y20663D01*
X331878Y20702D01*
X331785Y20738D01*
X331692Y20772D01*
X331597Y20803D01*
X331501Y20832D01*
X331404Y20857D01*
X331307Y20880D01*
X331210Y20901D01*
X331111Y20918D01*
X331013Y20933D01*
X330913Y20945D01*
X330814Y20954D01*
X330714Y20960D01*
X330615Y20964D01*
X330515Y20964D01*
X330415Y20962D01*
X330315Y20957D01*
X330216Y20950D01*
X330116Y20939D01*
X330018Y20926D01*
X329919Y20910D01*
X329821Y20891D01*
X329724Y20869D01*
X329627Y20845D01*
X329531Y20818D01*
X329435Y20788D01*
X329341Y20756D01*
X329247Y20721D01*
X329155Y20683D01*
X329064Y20642D01*
X328974Y20600D01*
X328885Y20554D01*
X328797Y20506D01*
X328711Y20456D01*
X328626Y20403D01*
X328543Y20348D01*
X328461Y20291D01*
X328381Y20231D01*
X328303Y20169D01*
X328226Y20105D01*
X328152Y20039D01*
X328079Y19970D01*
X328008Y19900D01*
X327939Y19828D01*
X327872Y19754D01*
X327808Y19678D01*
X327745Y19600D01*
X327685Y19520D01*
X327627Y19439D01*
X327571Y19356D01*
X327518Y19272D01*
X327467Y19186D01*
X327419Y19098D01*
X327373Y19010D01*
X327329Y18920D01*
X327288Y18829D01*
X327250Y18737D01*
X327214Y18644D01*
X327181Y18549D01*
X327150Y18454D01*
X327123Y18358D01*
X327098Y18262D01*
X327075Y18164D01*
X327056Y18067D01*
X327039Y17968D01*
X327025Y17869D01*
X327014Y17770D01*
X327005Y17671D01*
X327000Y17571D01*
X326997Y17471D01*
Y17371D01*
X327000Y17272D01*
X327005Y17172D01*
X327014Y17072D01*
X327025Y16973D01*
X327039Y16874D01*
X327056Y16776D01*
X327075Y16678D01*
X327098Y16581D01*
X327123Y16484D01*
X327150Y16388D01*
X327181Y16293D01*
X327214Y16199D01*
X327250Y16106D01*
X327288Y16014D01*
X327329Y15923D01*
X327373Y15833D01*
X327419Y15744D01*
X327467Y15657D01*
X327518Y15571D01*
X327571Y15487D01*
X327627Y15404D01*
X327685Y15322D01*
X327745Y15243D01*
X327808Y15165D01*
X327872Y15089D01*
X327939Y15015D01*
X328008Y14942D01*
X328079Y14872D01*
X328152Y14804D01*
X328226Y14737D01*
X328303Y14673D01*
X328381Y14611D01*
X328461Y14552D01*
X328543Y14494D01*
X328626Y14439D01*
X328711Y14386D01*
X328797Y14336D01*
X328885Y14288D01*
X328974Y14243D01*
X329064Y14200D01*
X329155Y14160D01*
X329247Y14122D01*
X329341Y14087D01*
X329435Y14054D01*
X329531Y14025D01*
X329627Y13998D01*
X329724Y13973D01*
X329821Y13952D01*
X329919Y13933D01*
X330018Y13917D01*
X330116Y13903D01*
X330216Y13893D01*
X330315Y13885D01*
X330415Y13880D01*
X330515Y13878D01*
X330615Y13879D01*
X330714Y13882D01*
X330814Y13889D01*
X330913Y13898D01*
X331013Y13910D01*
X331111Y13924D01*
X331210Y13942D01*
X331307Y13962D01*
X331404Y13985D01*
X331501Y14011D01*
X331597Y14039D01*
X331692Y14070D01*
X331785Y14104D01*
X331878Y14141D01*
X331970Y14180D01*
X332061Y14221D01*
X332151Y14265D01*
X332239Y14312D01*
X332326Y14361D01*
X332411Y14413D01*
X332495Y14466D01*
X332578Y14523D01*
X332659Y14581D01*
X332738Y14642D01*
X332815Y14705D01*
X332891Y14770D01*
X332965Y14838D01*
X333036Y14907D01*
X333106Y14978D01*
X333174Y15052D01*
X333240Y15127D01*
X333303Y15204D01*
X333365Y15282D01*
X333424Y15363D01*
X333481Y15445D01*
X333535Y15529D01*
X333587Y15614D01*
X333637Y15700D01*
X333684Y15788D01*
X333729Y15877D01*
X333771Y15968D01*
X333811Y16060D01*
X333848Y16152D01*
X333882Y16246D01*
X333914Y16341D01*
X333943Y16436D01*
X333970Y16532D01*
X333993Y16629D01*
X334014Y16727D01*
X334033Y16825D01*
X334048Y16924D01*
X334061Y17023D01*
X334070Y17122D01*
X334077Y17222D01*
X334082Y17321D01*
X334083Y17421D01*
X320439Y28953D02*
X320415Y29051D01*
X320347Y29127D01*
X320252Y29163D01*
X320152Y29151D01*
X320068Y29093D01*
X320021Y29004D01*
Y28902D01*
X320068Y28812D01*
X320152Y28754D01*
X320252Y28742D01*
X320347Y28778D01*
X320415Y28854D01*
X320439Y28953D01*
X322774Y10882D02*
X322786Y10784D01*
X322823Y10692D01*
X322883Y10613D01*
X322962Y10552D01*
X323054Y10514D01*
X323152Y10502D01*
X323251Y10516D01*
X323342Y10555D01*
X323420Y10617D01*
X323479Y10697D01*
X323515Y10789D01*
X323525Y10888D01*
X323525Y11884D02*
X323513Y11982D01*
X323476Y12074D01*
X323416Y12153D01*
X323337Y12214D01*
X323245Y12251D01*
X323147Y12264D01*
X323048Y12250D01*
X322957Y12211D01*
X322879Y12149D01*
X322820Y12069D01*
X322784Y11977D01*
X322774Y11878D01*
X319307Y16703D02*
X319302Y16803D01*
X319287Y16902D01*
X319262Y16999D01*
X319227Y17093D01*
X319183Y17183D01*
X319129Y17268D01*
X319068Y17348D01*
X318999Y17420D01*
X318923Y17486D01*
X318841Y17543D01*
X318753Y17592D01*
X318661Y17631D01*
X318565Y17661D01*
X318467Y17681D01*
X318367Y17691D01*
X318267D01*
X318167Y17681D01*
X318069Y17661D01*
X317973Y17631D01*
X317881Y17592D01*
X317793Y17543D01*
X317711Y17486D01*
X317635Y17420D01*
X317566Y17348D01*
X317504Y17268D01*
X317451Y17183D01*
X317407Y17093D01*
X317372Y16999D01*
X317347Y16902D01*
X317332Y16803D01*
X317327Y16703D01*
X317332Y16603D01*
X317347Y16503D01*
X317372Y16406D01*
X317407Y16312D01*
X317451Y16222D01*
X317504Y16137D01*
X317566Y16058D01*
X317635Y15985D01*
X317711Y15920D01*
X317793Y15863D01*
X317881Y15814D01*
X317973Y15774D01*
X318069Y15744D01*
X318167Y15724D01*
X318267Y15714D01*
X318367D01*
X318467Y15724D01*
X318565Y15744D01*
X318661Y15774D01*
X318753Y15814D01*
X318841Y15863D01*
X318923Y15920D01*
X318999Y15985D01*
X319068Y16058D01*
X319129Y16137D01*
X319183Y16222D01*
X319227Y16312D01*
X319262Y16406D01*
X319287Y16503D01*
X319302Y16603D01*
X319307Y16703D01*
X327674Y31215D02*
X328724D01*
X327674Y40815D02*
X328724D01*
X331574Y31115D02*
X332624D01*
X331574Y40715D02*
X332624D01*
X330500Y31220D02*
Y40551D01*
X329870Y31260D02*
Y40591D01*
X324280Y29685D02*
X335697D01*
X324280D02*
Y42677D01*
X335697D01*
Y29685D02*
Y42677D01*
X342008Y16299D02*
X360512D01*
X342008D02*
Y29685D01*
X360512D01*
Y16299D02*
Y29685D01*
X355850Y20515D02*
Y21565D01*
X346250Y20515D02*
Y21565D01*
X352650Y20515D02*
Y21565D01*
X351150Y24415D02*
Y25465D01*
X355950Y24415D02*
Y25465D01*
X346350Y24415D02*
Y25465D01*
X321628Y10908D02*
Y11868D01*
X322388Y10878D02*
Y11878D01*
X336477Y36634D02*
X366004D01*
Y29941D02*
Y36634D01*
X336477Y29941D02*
X366004D01*
X336477D02*
Y36634D01*
X368414Y35492D02*
Y42579D01*
X374319D01*
X368414Y35492D02*
X374319D01*
Y42579D01*
X369949Y40098D02*
X370477D01*
X369949Y41709D02*
X370477D01*
X372128Y36673D02*
X372705D01*
X372128Y41473D02*
X372705D01*
X369949Y37969D02*
X370477D01*
X369949Y36358D02*
X370477D01*
X355433Y10437D02*
X359003D01*
Y12437D01*
X355433D02*
X359003D01*
X355433Y10437D02*
Y12437D01*
X323140Y32318D02*
X323183Y32275D01*
X362776Y23918D02*
X363876Y22818D01*
Y22768D02*
Y22818D01*
X362326Y25018D02*
X365026Y22318D01*
X365076D01*
X362276Y25768D02*
X365726Y22318D01*
Y22268D02*
Y22318D01*
X362326Y26368D02*
X365776Y22918D01*
Y22818D02*
Y22918D01*
X362426Y26918D02*
X365776Y23568D01*
Y23468D02*
Y23568D01*
X362626Y27368D02*
X365776Y24218D01*
Y24068D02*
Y24218D01*
X362876Y27718D02*
X365776Y24818D01*
Y24468D02*
Y24818D01*
X363126Y28068D02*
X365776Y25418D01*
Y25168D02*
Y25418D01*
X363426Y28368D02*
X365776Y26018D01*
Y25768D02*
Y26018D01*
X363726Y28618D02*
X365776Y26568D01*
Y26268D02*
Y26568D01*
X364026Y28818D02*
X365776Y27068D01*
Y26718D02*
Y27068D01*
X364376Y28968D02*
X365776Y27568D01*
Y27418D02*
Y27568D01*
X364726Y29118D02*
X365776Y28068D01*
Y27868D02*
Y28068D01*
X365126Y29218D02*
X365776Y28568D01*
Y28268D02*
Y28568D01*
Y22224D02*
Y29311D01*
X362776Y16674D02*
X363876Y15574D01*
Y15524D02*
Y15574D01*
X362326Y17774D02*
X365026Y15074D01*
X365076D01*
X362276Y18524D02*
X365726Y15074D01*
Y15024D02*
Y15074D01*
X362326Y19124D02*
X365776Y15674D01*
Y15574D02*
Y15674D01*
X362426Y19674D02*
X365776Y16324D01*
Y16224D02*
Y16324D01*
X362626Y20124D02*
X365776Y16974D01*
Y16824D02*
Y16974D01*
X362876Y20474D02*
X365776Y17574D01*
Y17224D02*
Y17574D01*
X363126Y20824D02*
X365776Y18174D01*
Y17924D02*
Y18174D01*
X363426Y21124D02*
X365776Y18774D01*
Y18524D02*
Y18774D01*
X363726Y21374D02*
X365776Y19324D01*
Y19024D02*
Y19324D01*
X364026Y21574D02*
X365776Y19824D01*
Y19474D02*
Y19824D01*
X364376Y21724D02*
X365776Y20324D01*
Y20174D02*
Y20324D01*
X364726Y21874D02*
X365776Y20824D01*
Y20624D02*
Y20824D01*
X365126Y21974D02*
X365776Y21324D01*
Y21024D02*
Y21324D01*
Y14980D02*
Y22067D01*
X334823Y15571D02*
X335923Y14471D01*
Y14421D02*
Y14471D01*
X334373Y16671D02*
X337073Y13971D01*
X337123D01*
X334323Y17421D02*
X337773Y13971D01*
Y13921D02*
Y13971D01*
X334373Y18021D02*
X337823Y14571D01*
Y14471D02*
Y14571D01*
X334473Y18571D02*
X337823Y15221D01*
Y15121D02*
Y15221D01*
X334673Y19021D02*
X337823Y15871D01*
Y15721D02*
Y15871D01*
X334923Y19371D02*
X337823Y16471D01*
Y16121D02*
Y16471D01*
X335173Y19721D02*
X337823Y17071D01*
Y16821D02*
Y17071D01*
X335473Y20021D02*
X337823Y17671D01*
Y17421D02*
Y17671D01*
X335773Y20271D02*
X337823Y18221D01*
Y17921D02*
Y18221D01*
X336073Y20471D02*
X337823Y18721D01*
Y18371D02*
Y18721D01*
X336423Y20621D02*
X337823Y19221D01*
Y19071D02*
Y19221D01*
X336773Y20771D02*
X337823Y19721D01*
Y19521D02*
Y19721D01*
X337173Y20871D02*
X337823Y20221D01*
Y19921D02*
Y20221D01*
Y13878D02*
Y20965D01*
X327540Y15571D02*
X328640Y14471D01*
Y14421D02*
Y14471D01*
X327090Y16671D02*
X329790Y13971D01*
X329840D01*
X327040Y17421D02*
X330490Y13971D01*
Y13921D02*
Y13971D01*
X327090Y18021D02*
X330540Y14571D01*
Y14471D02*
Y14571D01*
X327190Y18571D02*
X330540Y15221D01*
Y15121D02*
Y15221D01*
X327390Y19021D02*
X330540Y15871D01*
Y15721D02*
Y15871D01*
X327640Y19371D02*
X330540Y16471D01*
Y16121D02*
Y16471D01*
X327890Y19721D02*
X330540Y17071D01*
Y16821D02*
Y17071D01*
X328190Y20021D02*
X330540Y17671D01*
Y17421D02*
Y17671D01*
X328490Y20271D02*
X330540Y18221D01*
Y17921D02*
Y18221D01*
X328790Y20471D02*
X330540Y18721D01*
Y18371D02*
Y18721D01*
X329140Y20621D02*
X330540Y19221D01*
Y19071D02*
Y19221D01*
X329490Y20771D02*
X330540Y19721D01*
Y19521D02*
Y19721D01*
X329890Y20871D02*
X330540Y20221D01*
Y19921D02*
Y20221D01*
Y13878D02*
Y20965D01*
X320677Y28503D02*
Y30503D01*
X317107Y28503D02*
X320677D01*
X317107D02*
Y30503D01*
X320677D01*
X318524Y22148D02*
X320824D01*
Y27998D01*
X318524D02*
X320824D01*
X318524Y22148D02*
Y27998D01*
X322770Y10908D02*
Y11868D01*
X323530Y10878D02*
Y11878D01*
X318597Y17643D02*
X319277Y16963D01*
Y16883D02*
Y16963D01*
X318257Y17693D02*
X319247Y16703D01*
X317987Y17633D02*
X318917Y16703D01*
X318927D01*
X317777Y17493D02*
X318567Y16703D01*
X318607D01*
X317587Y17353D02*
X318237Y16703D01*
X317467Y17163D02*
X317927Y16703D01*
X317937D01*
X317387Y16943D02*
X317627Y16703D01*
X317797D01*
X317637D02*
X317797D01*
X317327D02*
X319297D01*
X334817Y24587D02*
X339367D01*
X334817Y23337D02*
Y25587D01*
X333567Y23337D02*
Y25587D01*
X329017Y24587D02*
X333567D01*
X341267Y21087D02*
Y28087D01*
X327067Y21087D02*
X341267D01*
X327067D02*
Y28037D01*
Y28087D02*
X341267D01*
X327067Y28037D02*
Y28087D01*
X351445Y13480D02*
Y13830D01*
X351195D02*
X351695D01*
X351195Y14030D02*
X351695D01*
X351445Y14080D02*
Y14430D01*
X351945Y12480D02*
Y15480D01*
X350945Y12480D02*
X351945D01*
X350945D02*
Y15480D01*
X351945D01*
X324643Y21043D02*
X324993D01*
X324643Y20793D02*
Y21293D01*
X324443Y20793D02*
Y21293D01*
X324043Y21043D02*
X324393D01*
X322993Y21543D02*
X325993D01*
Y20543D02*
Y21543D01*
X322993Y20543D02*
X325993D01*
X322993D02*
Y21543D01*
X374833Y25203D02*
Y24803D01*
X375133D01*
Y25003D01*
Y24803D01*
X375433D01*
X375033Y25503D02*
Y25703D01*
X375133Y25803D01*
X375433D01*
Y25503D01*
X375333Y25403D01*
X375233Y25503D01*
Y25803D01*
X375433Y26003D02*
X375033D01*
Y26303D01*
X375133Y26403D01*
X375433D01*
Y27502D02*
X374833D01*
X375133Y27202D01*
Y27602D01*
X375033Y27802D02*
X375433Y28202D01*
X375233Y28002D01*
X375033Y28202D01*
X375433Y27802D01*
Y28702D02*
X374833D01*
X375133Y28402D01*
Y28802D01*
X323926Y42027D02*
X323526D01*
X323926Y42427D01*
Y42527D01*
X323826Y42627D01*
X323626D01*
X323526Y42527D01*
D48*
X321622Y32936D02*
X321593Y33033D01*
X321518Y33098D01*
X321418Y33113D01*
X321327Y33071D01*
X321273Y32987D01*
Y32886D01*
X321327Y32802D01*
X321418Y32760D01*
X321518Y32774D01*
X321593Y32840D01*
X321622Y32936D01*
X320112Y32946D02*
X320083Y33043D01*
X320008Y33108D01*
X319908Y33123D01*
X319817Y33081D01*
X319763Y32997D01*
Y32896D01*
X319817Y32812D01*
X319908Y32770D01*
X320008Y32784D01*
X320083Y32850D01*
X320112Y32946D01*
X321005Y35260D02*
X320976Y35356D01*
X320901Y35422D01*
X320801Y35436D01*
X320710Y35395D01*
X320656Y35310D01*
Y35210D01*
X320710Y35126D01*
X320801Y35084D01*
X320901Y35098D01*
X320976Y35164D01*
X321005Y35260D01*
X320237Y37212D02*
X320310Y37146D01*
X320391Y37089D01*
X320478Y37042D01*
X320571Y37006D01*
X320667Y36982D01*
X320765Y36969D01*
X320864Y36968D01*
X320962Y36979D01*
X321059Y37002D01*
X321152Y37036D01*
X321240Y37082D01*
X321322Y37137D01*
X321397Y37202D01*
X324400Y20090D02*
X324407Y19991D01*
X324433Y19894D01*
X324478Y19805D01*
X324540Y19727D01*
X324616Y19662D01*
X324703Y19614D01*
X324799Y19584D01*
X324898Y19573D01*
X324997Y19583D01*
X325093Y19612D01*
X325181Y19660D01*
X325257Y19724D01*
X325320Y19802D01*
X325365Y19891D01*
X325392Y19987D01*
X325400Y20087D01*
X320826Y33418D02*
X321216Y33028D01*
X319664Y32498D02*
X319934Y32768D01*
X319004Y32498D02*
X319664D01*
X321504Y32758D02*
X321764Y32498D01*
X322524D01*
X320817Y35462D02*
Y37505D01*
X320827Y33418D02*
Y35062D01*
X319097Y37222D02*
X320227D01*
X321407Y37212D02*
X322547D01*
X323915Y30854D02*
Y38488D01*
X317709Y30854D02*
Y38488D01*
X323915D01*
X317709Y30854D02*
X323915D01*
X336833Y37279D02*
X336843Y37139D01*
X340583Y38969D02*
X340813D01*
X340823Y38959D01*
Y36909D02*
Y38959D01*
X336833Y36909D02*
X340823D01*
X336833D02*
Y38959D01*
X336823Y38969D02*
X336833Y38959D01*
X336823Y38969D02*
X340583D01*
X341833Y37279D02*
X341843Y37139D01*
X345583Y38969D02*
X345813D01*
X345823Y38959D01*
Y36909D02*
Y38959D01*
X341833Y36909D02*
X345823D01*
X341833D02*
Y38959D01*
X341823Y38969D02*
X341833Y38959D01*
X341823Y38969D02*
X345583D01*
X346833Y37279D02*
X346843Y37139D01*
X350583Y38969D02*
X350813D01*
X350823Y38959D01*
Y36909D02*
Y38959D01*
X346833Y36909D02*
X350823D01*
X346833D02*
Y38959D01*
X346823Y38969D02*
X346833Y38959D01*
X346823Y38969D02*
X350583D01*
X351833Y37279D02*
X351843Y37139D01*
X355583Y38969D02*
X355813D01*
X355823Y38959D01*
Y36909D02*
Y38959D01*
X351833Y36909D02*
X355823D01*
X351833D02*
Y38959D01*
X351823Y38969D02*
X351833Y38959D01*
X351823Y38969D02*
X355583D01*
X356912Y37318D02*
X356922Y37178D01*
X360662Y39008D02*
X360892D01*
X360902Y38998D01*
Y36948D02*
Y38998D01*
X356912Y36948D02*
X360902D01*
X356912D02*
Y38998D01*
X356902Y39008D02*
X356912Y38998D01*
X356902Y39008D02*
X360662D01*
X361833Y37279D02*
X361843Y37139D01*
X365583Y38969D02*
X365813D01*
X365823Y38959D01*
Y36909D02*
Y38959D01*
X361833Y36909D02*
X365823D01*
X361833D02*
Y38959D01*
X361823Y38969D02*
X361833Y38959D01*
X361823Y38969D02*
X365583D01*
X347543Y15025D02*
Y15595D01*
X348613Y15315D02*
X348873D01*
X347273D02*
X347543D01*
Y15595D02*
X348613D01*
Y15025D02*
Y15595D01*
X347543Y15025D02*
X348613D01*
X347773D02*
Y15595D01*
X347543Y13057D02*
Y13627D01*
X348613Y13347D02*
X348873D01*
X347273D02*
X347543D01*
Y13627D02*
X348613D01*
Y13057D02*
Y13627D01*
X347543Y13057D02*
X348613D01*
X347773D02*
Y13627D01*
X322724Y39711D02*
X323374D01*
X322724D02*
Y41211D01*
X323984D01*
Y39711D02*
Y41211D01*
X323374Y39711D02*
X323984D01*
X323374Y41211D02*
Y41511D01*
Y39411D02*
Y39711D01*
X322904Y40121D02*
X323874D01*
X323164Y39711D02*
X323374D01*
X323534D01*
X343968Y13057D02*
Y13627D01*
X345038Y13347D02*
X345298D01*
X343698D02*
X343968D01*
Y13627D02*
X345038D01*
Y13057D02*
Y13627D01*
X343968Y13057D02*
X345038D01*
X344198D02*
Y13627D01*
X343968Y15025D02*
Y15595D01*
X345038Y15315D02*
X345298D01*
X343698D02*
X343968D01*
Y15595D02*
X345038D01*
Y15025D02*
Y15595D01*
X343968Y15025D02*
X345038D01*
X344198D02*
Y15595D01*
X321836Y41215D02*
X321996D01*
X322206D01*
X321496Y40805D02*
X322466D01*
X321996Y41215D02*
Y41515D01*
Y39415D02*
Y39715D01*
X321387Y41215D02*
X321996D01*
X321387Y39715D02*
Y41215D01*
Y39715D02*
X322646D01*
Y41215D01*
X321996D02*
X322646D01*
X322900Y20087D02*
X324400D01*
X325410D02*
X326900D01*
X322900Y18087D02*
Y20087D01*
Y18087D02*
X326900D01*
Y20087D01*
X324887Y16614D02*
X325457D01*
X324887Y15774D02*
Y16844D01*
Y15774D02*
X325457D01*
Y16844D01*
X325177D02*
Y17114D01*
Y15514D02*
Y15774D01*
X324887Y16844D02*
X325457D01*
X326126Y16019D02*
X326696D01*
Y15789D02*
Y16859D01*
X326126D02*
X326696D01*
X326126Y15789D02*
Y16859D01*
X326406Y15519D02*
Y15789D01*
Y16859D02*
Y17119D01*
X326126Y15789D02*
X326696D01*
X320782Y13071D02*
Y13231D01*
Y12861D02*
Y13071D01*
X320372Y12601D02*
Y13571D01*
X320782Y13071D02*
X321082D01*
X318981D02*
X319282D01*
X320782D02*
Y13681D01*
X319282D02*
X320782D01*
X319282Y12421D02*
Y13681D01*
Y12421D02*
X320782D01*
Y13071D01*
D49*
X324250Y19577D02*
X324194Y19653D01*
X324105Y19624D01*
Y19530D01*
X324194Y19500D01*
X324250Y19577D01*
D50*
X322506Y25628D02*
X322575Y25554D01*
X322656Y25494D01*
X322747Y25450D01*
X322844Y25423D01*
X322945Y25415D01*
X323045Y25424D01*
X323142Y25453D01*
X323233Y25498D01*
X323313Y25559D01*
X323381Y25634D01*
X323434Y25720D01*
X323470Y25814D01*
X323489Y25913D01*
X323489Y26014D01*
X323471Y26114D01*
X323435Y26208D01*
X323382Y26294D01*
X323314Y26369D01*
X323234Y26430D01*
X323144Y26476D01*
X323047Y26504D01*
X322947Y26515D01*
X322846Y26506D01*
X322749Y26480D01*
X322658Y26436D01*
X322576Y26376D01*
X322507Y26302D01*
X322941Y27265D02*
Y27665D01*
X321941D02*
X322941D01*
X321941D02*
Y28265D01*
X322941D01*
Y28715D01*
X321941D02*
X322941D01*
X321941D02*
Y28965D01*
X326191D01*
Y28715D02*
Y28965D01*
X322941Y24265D02*
Y24665D01*
X321941Y24265D02*
X322941D01*
X321941Y23665D02*
Y24265D01*
Y23665D02*
X322941D01*
Y23215D02*
Y23665D01*
X321941Y23215D02*
X322941D01*
X321941Y22965D02*
Y23215D01*
Y22965D02*
X326191D01*
Y23215D01*
X323841D02*
X326191D01*
X323841D02*
Y28715D01*
X326191D01*
X323991Y24015D02*
X325641D01*
Y27915D01*
X323991D02*
X325641D01*
X323991Y24015D02*
Y27915D01*
X321941Y24665D02*
X322941D01*
X321941D02*
Y25465D01*
Y27265D02*
X322941D01*
X321941Y26465D02*
Y27265D01*
X322341Y25465D02*
X322501Y25625D01*
X321941Y25465D02*
X322341D01*
X321941Y26465D02*
X322341D01*
X322505Y26300D01*
D51*
X369201Y33642D02*
X377666D01*
Y17894D02*
Y33642D01*
X369201Y17894D02*
X377666D01*
X369201D02*
Y33642D01*
X342152Y12559D02*
Y16103D01*
X350419D01*
Y12559D02*
Y16103D01*
X342152Y12559D02*
X350419D01*
X331731Y13892D02*
X336692D01*
X331731Y10348D02*
Y13892D01*
Y10348D02*
X336692D01*
Y13892D01*
X367902Y38235D02*
Y38051D01*
X368178D01*
Y38235D01*
X368040Y38051D02*
Y38143D01*
X367902Y38510D02*
Y38327D01*
X368178D01*
Y38510D01*
X368040Y38327D02*
Y38419D01*
X368178Y38602D02*
Y38694D01*
Y38648D01*
X367902D01*
X367948Y38602D01*
X367902Y39015D02*
X367948Y38924D01*
X368040Y38832D01*
X368132D01*
X368178Y38878D01*
Y38970D01*
X368132Y39015D01*
X368086D01*
X368040Y38970D01*
Y38832D01*
D52*
X374231Y9065D02*
Y12608D01*
X377774D01*
X319900Y39380D02*
Y42923D01*
X316357Y39380D02*
X319900D01*
X377754Y39222D02*
X377774Y39203D01*
X374516Y39380D02*
X377754D01*
X377774Y12608D02*
Y39360D01*
X319920Y9065D02*
X374231D01*
X316357Y12461D02*
Y39380D01*
X319910Y42933D02*
X374516D01*
X319900Y9065D02*
Y12431D01*
X316357D02*
X319900D01*
X365933Y38659D02*
Y39059D01*
Y40309D02*
Y40759D01*
X366183Y39059D02*
Y40309D01*
X365683Y39059D02*
X366183D01*
X365683D02*
Y40309D01*
X366183D01*
X360902Y38698D02*
Y39098D01*
Y40348D02*
Y40798D01*
X361152Y39098D02*
Y40348D01*
X360652Y39098D02*
X361152D01*
X360652D02*
Y40348D01*
X361152D01*
X355823Y38659D02*
Y39059D01*
Y40309D02*
Y40759D01*
X356073Y39059D02*
Y40309D01*
X355573Y39059D02*
X356073D01*
X355573D02*
Y40309D01*
X356073D01*
X350807Y38659D02*
Y39059D01*
Y40309D02*
Y40759D01*
X351057Y39059D02*
Y40309D01*
X350557Y39059D02*
X351057D01*
X350557D02*
Y40309D01*
X351057D01*
X345823Y38659D02*
Y39059D01*
Y40309D02*
Y40759D01*
X346073Y39059D02*
Y40309D01*
X345573Y39059D02*
X346073D01*
X345573D02*
Y40309D01*
X346073D01*
X340807Y38659D02*
Y39059D01*
Y40309D02*
Y40759D01*
X341057Y39059D02*
Y40309D01*
X340557Y39059D02*
X341057D01*
X340557D02*
Y40309D01*
X341057D01*
X321567Y29703D02*
X321967D01*
X323217D02*
X323667D01*
X321967Y29453D02*
X323217D01*
X321967D02*
Y29953D01*
X323217D01*
Y29453D02*
Y29953D01*
X361839Y40359D02*
Y40759D01*
Y38659D02*
Y39109D01*
X361589D02*
Y40359D01*
X362089D01*
Y39109D02*
Y40359D01*
X361589Y39109D02*
X362089D01*
X346839Y40359D02*
Y40759D01*
Y38659D02*
Y39109D01*
X346589D02*
Y40359D01*
X347089D01*
Y39109D02*
Y40359D01*
X346589Y39109D02*
X347089D01*
X323408Y21974D02*
Y22474D01*
Y21974D02*
X324658D01*
Y22474D01*
X323408D02*
X324658D01*
X322958Y22224D02*
X323408D01*
X324658D02*
X325058D01*
X323833Y16561D02*
X324333D01*
X323833Y15311D02*
Y16561D01*
Y15311D02*
X324333D01*
Y16561D01*
X324083D02*
Y17011D01*
Y14911D02*
Y15311D01*
X320817Y18653D02*
Y19153D01*
X319567D02*
X320817D01*
X319567Y18653D02*
Y19153D01*
Y18653D02*
X320817D01*
Y18903D02*
X321267D01*
X319167D02*
X319567D01*
X323735Y12821D02*
Y13321D01*
Y12821D02*
X324985D01*
Y13321D01*
X323735D02*
X324985D01*
X323285Y13071D02*
X323735D01*
X324985D02*
X325385D01*
X374516Y39380D02*
Y42933D01*
X351820Y40359D02*
Y40759D01*
Y38659D02*
Y39109D01*
X351570D02*
Y40359D01*
X352070D01*
Y39109D02*
Y40359D01*
X351570Y39109D02*
X352070D01*
X322080Y9605D02*
X322146Y9539D01*
X322277D01*
X322343Y9605D01*
Y9867D01*
X322277Y9933D01*
X322146D01*
X322080Y9867D01*
X321949Y9539D02*
X321687D01*
Y9605D01*
X321949Y9867D01*
Y9933D01*
X371061Y42293D02*
X371376D01*
Y42214D01*
X371061Y41900D01*
Y41821D01*
X364685Y39409D02*
Y39882D01*
X364921D01*
X365000Y39803D01*
Y39646D01*
X364921Y39567D01*
X364685D01*
X364842D02*
X365000Y39409D01*
X365157D02*
X365315D01*
X365236D01*
Y39882D01*
X365157Y39803D01*
X359634Y39380D02*
Y39852D01*
X359870D01*
X359949Y39773D01*
Y39616D01*
X359870Y39537D01*
X359634D01*
X359792D02*
X359949Y39380D01*
X360421D02*
X360107D01*
X360421Y39695D01*
Y39773D01*
X360343Y39852D01*
X360185D01*
X360107Y39773D01*
X354370Y40157D02*
Y40630D01*
X354606D01*
X354685Y40551D01*
Y40394D01*
X354606Y40315D01*
X354370D01*
X354528D02*
X354685Y40157D01*
X354842Y40551D02*
X354921Y40630D01*
X355079D01*
X355157Y40551D01*
Y40472D01*
X355079Y40394D01*
X355000D01*
X355079D01*
X355157Y40315D01*
Y40236D01*
X355079Y40157D01*
X354921D01*
X354842Y40236D01*
X349449Y39921D02*
Y40394D01*
X349685D01*
X349764Y40315D01*
Y40157D01*
X349685Y40079D01*
X349449D01*
X349606D02*
X349764Y39921D01*
X350157D02*
Y40394D01*
X349921Y40157D01*
X350236D01*
X344409Y39921D02*
Y40394D01*
X344646D01*
X344724Y40315D01*
Y40157D01*
X344646Y40079D01*
X344409D01*
X344567D02*
X344724Y39921D01*
X345197Y40394D02*
X344882D01*
Y40157D01*
X345039Y40236D01*
X345118D01*
X345197Y40157D01*
Y40000D01*
X345118Y39921D01*
X344960D01*
X344882Y40000D01*
X341322Y39592D02*
Y40064D01*
X341558D01*
X341637Y39985D01*
Y39828D01*
X341558Y39749D01*
X341322D01*
X341479D02*
X341637Y39592D01*
X342109Y40064D02*
X341952Y39985D01*
X341794Y39828D01*
Y39670D01*
X341873Y39592D01*
X342030D01*
X342109Y39670D01*
Y39749D01*
X342030Y39828D01*
X341794D01*
X321339Y30197D02*
Y30669D01*
X321575D01*
X321653Y30590D01*
Y30433D01*
X321575Y30354D01*
X321339D01*
X321496D02*
X321653Y30197D01*
X321811Y30590D02*
X321890Y30669D01*
X322047D01*
X322126Y30590D01*
Y30512D01*
X322047Y30433D01*
X322126Y30354D01*
Y30276D01*
X322047Y30197D01*
X321890D01*
X321811Y30276D01*
Y30354D01*
X321890Y30433D01*
X321811Y30512D01*
Y30590D01*
X321890Y30433D02*
X322047D01*
X362292Y39636D02*
Y40108D01*
X362528D01*
X362607Y40029D01*
Y39872D01*
X362528Y39793D01*
X362292D01*
X362449D02*
X362607Y39636D01*
X362764D02*
X362921D01*
X362843D01*
Y40108D01*
X362764Y40029D01*
X363158Y39636D02*
X363315D01*
X363236D01*
Y40108D01*
X363158Y40029D01*
X347311Y39380D02*
Y39852D01*
X347548D01*
X347626Y39773D01*
Y39616D01*
X347548Y39537D01*
X347311D01*
X347469D02*
X347626Y39380D01*
X347784D02*
X347941D01*
X347862D01*
Y39852D01*
X347784Y39773D01*
X348413Y39380D02*
Y39852D01*
X348177Y39616D01*
X348492D01*
X361524Y13829D02*
X361052D01*
X361288D01*
Y13514D01*
X361524D01*
X361052D01*
Y13042D02*
Y13356D01*
X361366Y13042D01*
X361445D01*
X361524Y13120D01*
Y13278D01*
X361445Y13356D01*
X361494Y14902D02*
X361022D01*
X361258D01*
Y14587D01*
X361494D01*
X361022D01*
Y14429D02*
Y14272D01*
Y14351D01*
X361494D01*
X361416Y14429D01*
X359831Y12392D02*
Y12077D01*
Y12235D01*
X359358D01*
Y11920D02*
Y11762D01*
Y11841D01*
X359831D01*
X359752Y11920D01*
X323543Y30669D02*
Y30197D01*
X323307D01*
X323228Y30276D01*
Y30433D01*
X323307Y30512D01*
X323543D01*
X323386D02*
X323228Y30669D01*
X323071Y30197D02*
Y30669D01*
X322756D01*
X322599D02*
X322441D01*
X322520D01*
Y30197D01*
X322599Y30276D01*
X333532Y10890D02*
Y11362D01*
X333768D01*
X333847Y11283D01*
Y11126D01*
X333768Y11047D01*
X333532D01*
X333690D02*
X333847Y10890D01*
X334005D02*
X334162D01*
X334083D01*
Y11362D01*
X334005Y11283D01*
X334398D02*
X334477Y11362D01*
X334634D01*
X334713Y11283D01*
Y10968D01*
X334634Y10890D01*
X334477D01*
X334398Y10968D01*
Y11283D01*
X338779Y39409D02*
Y39724D01*
X338701Y39803D01*
X338543D01*
X338465Y39724D01*
Y39409D01*
X338543Y39331D01*
X338701D01*
X338622Y39488D02*
X338779Y39331D01*
X338701D02*
X338779Y39409D01*
X339252Y39803D02*
X339094Y39724D01*
X338937Y39567D01*
Y39409D01*
X339016Y39331D01*
X339173D01*
X339252Y39409D01*
Y39488D01*
X339173Y39567D01*
X338937D01*
X343857Y39331D02*
Y39646D01*
X343778Y39724D01*
X343620D01*
X343542Y39646D01*
Y39331D01*
X343620Y39252D01*
X343778D01*
X343699Y39409D02*
X343857Y39252D01*
X343778D02*
X343857Y39331D01*
X344329Y39724D02*
X344014D01*
Y39488D01*
X344171Y39567D01*
X344250D01*
X344329Y39488D01*
Y39331D01*
X344250Y39252D01*
X344093D01*
X344014Y39331D01*
X349212Y39252D02*
Y39567D01*
X349134Y39646D01*
X348976D01*
X348898Y39567D01*
Y39252D01*
X348976Y39173D01*
X349134D01*
X349055Y39331D02*
X349212Y39173D01*
X349134D02*
X349212Y39252D01*
X349606Y39173D02*
Y39646D01*
X349370Y39409D01*
X349685D01*
X353985Y39272D02*
Y39586D01*
X353906Y39665D01*
X353748D01*
X353670Y39586D01*
Y39272D01*
X353748Y39193D01*
X353906D01*
X353827Y39350D02*
X353985Y39193D01*
X353906D02*
X353985Y39272D01*
X354142Y39586D02*
X354221Y39665D01*
X354378D01*
X354457Y39586D01*
Y39508D01*
X354378Y39429D01*
X354299D01*
X354378D01*
X354457Y39350D01*
Y39272D01*
X354378Y39193D01*
X354221D01*
X354142Y39272D01*
X358779Y39331D02*
Y39646D01*
X358701Y39724D01*
X358543D01*
X358465Y39646D01*
Y39331D01*
X358543Y39252D01*
X358701D01*
X358622Y39409D02*
X358779Y39252D01*
X358701D02*
X358779Y39331D01*
X359252Y39252D02*
X358937D01*
X359252Y39567D01*
Y39646D01*
X359173Y39724D01*
X359016D01*
X358937Y39646D01*
X363876Y39232D02*
Y39547D01*
X363798Y39626D01*
X363640D01*
X363561Y39547D01*
Y39232D01*
X363640Y39154D01*
X363798D01*
X363719Y39311D02*
X363876Y39154D01*
X363798D02*
X363876Y39232D01*
X364034Y39154D02*
X364191D01*
X364112D01*
Y39626D01*
X364034Y39547D01*
X362558Y10426D02*
X363030D01*
X362794D01*
Y10741D01*
X362558D01*
X363030D01*
X362636Y10899D02*
X362558Y10977D01*
Y11135D01*
X362636Y11214D01*
X362715D01*
X362794Y11135D01*
X362873Y11214D01*
X362951D01*
X363030Y11135D01*
Y10977D01*
X362951Y10899D01*
X362873D01*
X362794Y10977D01*
X362715Y10899D01*
X362636D01*
X362794Y10977D02*
Y11135D01*
X354956Y10906D02*
Y11378D01*
Y11142D01*
X354641D01*
Y10906D01*
Y11378D01*
X354169Y10906D02*
X354484D01*
Y11142D01*
X354327Y11064D01*
X354248D01*
X354169Y11142D01*
Y11300D01*
X354248Y11378D01*
X354405D01*
X354484Y11300D01*
X350104Y15827D02*
X349632D01*
Y15591D01*
X349711Y15512D01*
X350025D01*
X350104Y15591D01*
Y15827D01*
Y15040D02*
Y15355D01*
X349868D01*
X349947Y15197D01*
Y15119D01*
X349868Y15040D01*
X349711D01*
X349632Y15119D01*
Y15276D01*
X349711Y15355D01*
X350104Y13819D02*
X349632D01*
Y13583D01*
X349711Y13504D01*
X350025D01*
X350104Y13583D01*
Y13819D01*
X349632Y13111D02*
X350104D01*
X349868Y13347D01*
Y13032D01*
X322991Y40984D02*
Y40512D01*
X323227D01*
X323305Y40591D01*
Y40905D01*
X323227Y40984D01*
X322991D01*
X323463Y40905D02*
X323542Y40984D01*
X323699D01*
X323778Y40905D01*
Y40827D01*
X323699Y40748D01*
X323620D01*
X323699D01*
X323778Y40669D01*
Y40591D01*
X323699Y40512D01*
X323542D01*
X323463Y40591D01*
X346608Y13780D02*
X346136D01*
Y13544D01*
X346215Y13465D01*
X346529D01*
X346608Y13544D01*
Y13780D01*
X346136Y12993D02*
Y13308D01*
X346451Y12993D01*
X346529D01*
X346608Y13071D01*
Y13229D01*
X346529Y13308D01*
X346569Y15748D02*
X346096D01*
Y15512D01*
X346175Y15434D01*
X346490D01*
X346569Y15512D01*
Y15748D01*
X346096Y15276D02*
Y15119D01*
Y15197D01*
X346569D01*
X346490Y15276D01*
X369861Y28376D02*
X369782Y28455D01*
X369624D01*
X369546Y28376D01*
Y28061D01*
X369624Y27982D01*
X369782D01*
X369861Y28061D01*
X370018Y27982D02*
X370175D01*
X370097D01*
Y28455D01*
X370018Y28376D01*
X369988Y21289D02*
X369910Y21368D01*
X369752D01*
X369674Y21289D01*
Y20974D01*
X369752Y20896D01*
X369910D01*
X369988Y20974D01*
X370461Y20896D02*
X370146D01*
X370461Y21211D01*
Y21289D01*
X370382Y21368D01*
X370225D01*
X370146Y21289D01*
X340609Y20807D02*
X340530Y20886D01*
X340372D01*
X340294Y20807D01*
Y20492D01*
X340372Y20413D01*
X340530D01*
X340609Y20492D01*
X340766Y20807D02*
X340845Y20886D01*
X341002D01*
X341081Y20807D01*
Y20728D01*
X341002Y20650D01*
X340923D01*
X341002D01*
X341081Y20571D01*
Y20492D01*
X341002Y20413D01*
X340845D01*
X340766Y20492D01*
X333414Y20738D02*
X333335Y20817D01*
X333178D01*
X333099Y20738D01*
Y20423D01*
X333178Y20344D01*
X333335D01*
X333414Y20423D01*
X333807Y20344D02*
Y20817D01*
X333571Y20581D01*
X333886D01*
X320984Y41732D02*
Y42205D01*
X320748D01*
X320669Y42126D01*
Y41811D01*
X320748Y41732D01*
X320984D01*
X320512Y42126D02*
X320433Y42205D01*
X320276D01*
X320197Y42126D01*
Y41811D01*
X320276Y41732D01*
X320433D01*
X320512Y41811D01*
Y41890D01*
X320433Y41969D01*
X320197D01*
X326203Y22519D02*
X326676D01*
Y22283D01*
X326597Y22205D01*
X326439D01*
X326361Y22283D01*
Y22519D01*
Y22362D02*
X326203Y22205D01*
Y22047D02*
Y21890D01*
Y21968D01*
X326676D01*
X326597Y22047D01*
X326203Y21339D02*
Y21654D01*
X326518Y21339D01*
X326597D01*
X326676Y21417D01*
Y21575D01*
X326597Y21654D01*
X325827Y14134D02*
Y13662D01*
X325591D01*
X325512Y13740D01*
Y13898D01*
X325591Y13976D01*
X325827D01*
X325669D02*
X325512Y14134D01*
X325354D02*
X325197D01*
X325276D01*
Y13662D01*
X325354Y13740D01*
X324961D02*
X324882Y13662D01*
X324725D01*
X324646Y13740D01*
Y13819D01*
X324725Y13898D01*
X324803D01*
X324725D01*
X324646Y13976D01*
Y14055D01*
X324725Y14134D01*
X324882D01*
X324961Y14055D01*
X318174Y18322D02*
X317701D01*
Y18558D01*
X317780Y18637D01*
X317937D01*
X318016Y18558D01*
Y18322D01*
Y18479D02*
X318174Y18637D01*
Y18794D02*
Y18952D01*
Y18873D01*
X317701D01*
X317780Y18794D01*
X317701Y19503D02*
Y19188D01*
X317937D01*
X317859Y19345D01*
Y19424D01*
X317937Y19503D01*
X318095D01*
X318174Y19424D01*
Y19267D01*
X318095Y19188D01*
X328386Y13268D02*
X328858D01*
Y13032D01*
X328779Y12953D01*
X328622D01*
X328543Y13032D01*
Y13268D01*
Y13110D02*
X328386Y12953D01*
Y12795D02*
Y12638D01*
Y12717D01*
X328858D01*
X328779Y12795D01*
X328858Y12087D02*
X328779Y12244D01*
X328622Y12402D01*
X328465D01*
X328386Y12323D01*
Y12166D01*
X328465Y12087D01*
X328543D01*
X328622Y12166D01*
Y12402D01*
X326772Y21063D02*
X326378D01*
X326299Y20984D01*
Y20827D01*
X326378Y20748D01*
X326772D01*
X326299Y20591D02*
Y20433D01*
Y20512D01*
X326772D01*
X326693Y20591D01*
X317066Y27215D02*
Y27529D01*
Y27372D01*
X317538D01*
Y28002D02*
Y27687D01*
X317223Y28002D01*
X317144D01*
X317066Y27923D01*
Y27766D01*
X317144Y27687D01*
X317351Y25817D02*
Y26289D01*
X317587D01*
X317666Y26210D01*
Y26053D01*
X317587Y25974D01*
X317351D01*
X317508D02*
X317666Y25817D01*
X317823Y26289D02*
X318138D01*
Y26210D01*
X317823Y25896D01*
Y25817D01*
X319260Y14852D02*
Y14695D01*
Y14774D01*
X318788D01*
Y14852D01*
Y14695D01*
X319181Y14144D02*
X319260Y14223D01*
Y14380D01*
X319181Y14459D01*
X318867D01*
X318788Y14380D01*
Y14223D01*
X318867Y14144D01*
X318788Y13987D02*
Y13829D01*
Y13908D01*
X319260D01*
X319181Y13987D01*
X328768Y11811D02*
X328296D01*
X328532D01*
Y11496D01*
X328768D01*
X328296D01*
X328768Y11339D02*
Y11024D01*
X328689D01*
X328374Y11339D01*
X328296D01*
X321170Y22313D02*
X321642D01*
X321406D01*
Y22628D01*
X321170D01*
X321642D01*
X321170Y23100D02*
X321249Y22943D01*
X321406Y22785D01*
X321563D01*
X321642Y22864D01*
Y23021D01*
X321563Y23100D01*
X321485D01*
X321406Y23021D01*
Y22785D01*
X325028Y14833D02*
Y14360D01*
X325264D01*
X325343Y14439D01*
Y14754D01*
X325264Y14833D01*
X325028D01*
X325500Y14754D02*
X325579Y14833D01*
X325736D01*
X325815Y14754D01*
Y14675D01*
X325736Y14596D01*
X325815Y14518D01*
Y14439D01*
X325736Y14360D01*
X325579D01*
X325500Y14439D01*
Y14518D01*
X325579Y14596D01*
X325500Y14675D01*
Y14754D01*
X325579Y14596D02*
X325736D01*
X326170Y14646D02*
Y14173D01*
X326406D01*
X326485Y14252D01*
Y14567D01*
X326406Y14646D01*
X326170D01*
X326642D02*
X326957D01*
Y14567D01*
X326642Y14252D01*
Y14173D01*
X317459Y12763D02*
X317931D01*
Y13000D01*
X317852Y13078D01*
X317538D01*
X317459Y13000D01*
Y12763D01*
Y13551D02*
X317538Y13393D01*
X317695Y13236D01*
X317852D01*
X317931Y13314D01*
Y13472D01*
X317852Y13551D01*
X317774D01*
X317695Y13472D01*
Y13236D01*
X323170Y9539D02*
X323248Y9461D01*
X323406D01*
X323485Y9539D01*
Y9854D01*
X323406Y9933D01*
X323248D01*
X323170Y9854D01*
X322697Y9461D02*
X322855Y9539D01*
X323012Y9697D01*
Y9854D01*
X322934Y9933D01*
X322776D01*
X322697Y9854D01*
Y9776D01*
X322776Y9697D01*
X323012D01*
X317244Y14803D02*
X317166Y14724D01*
Y14567D01*
X317244Y14488D01*
X317559D01*
X317638Y14567D01*
Y14724D01*
X317559Y14803D01*
X317166Y15275D02*
Y14960D01*
X317402D01*
X317323Y15118D01*
Y15197D01*
X317402Y15275D01*
X317559D01*
X317638Y15197D01*
Y15039D01*
X317559Y14960D01*
X340622Y28632D02*
Y28474D01*
Y28553D01*
X341095D01*
X341016Y28632D01*
X321252Y28330D02*
Y28802D01*
X321016Y28566D01*
X321331D01*
X325820Y21973D02*
X325741Y22131D01*
X325584Y22288D01*
X325426D01*
X325348Y22210D01*
Y22052D01*
X325426Y21973D01*
X325505D01*
X325584Y22052D01*
Y22288D01*
X351525Y41904D02*
Y42376D01*
X351761D01*
X351840Y42297D01*
Y42140D01*
X351761Y42061D01*
X351525D01*
X351683D02*
X351840Y41904D01*
X351997D02*
X352155D01*
X352076D01*
Y42376D01*
X351997Y42297D01*
X352391Y42376D02*
X352706D01*
Y42297D01*
X352391Y41982D01*
Y41904D01*
D53*
X358390Y12728D02*
Y15681D01*
Y12728D02*
X360642D01*
Y15681D01*
X358390D02*
X360642D01*
X355532Y12748D02*
Y15701D01*
Y12748D02*
X357784D01*
Y15701D01*
X355532D02*
X357784D01*
X363459Y12701D02*
X370411D01*
X363459Y10449D02*
Y12701D01*
Y10449D02*
X370411D01*
Y12701D01*
X352682Y11807D02*
Y15760D01*
Y11807D02*
X354933D01*
Y15760D01*
X352682D02*
X354933D01*
X324012Y10390D02*
Y12642D01*
X327965D01*
Y10390D02*
Y12642D01*
X324012Y10390D02*
X327965D01*
X322461Y19602D02*
Y21854D01*
X318508Y19602D02*
X322461D01*
X318508D02*
Y21854D01*
X322461D01*
D54*
X323563Y13728D02*
Y17728D01*
X322063D02*
X323563D01*
X321063D02*
X322063D01*
X320563D02*
X321063D01*
X319563D02*
X320563D01*
X319563Y13728D02*
Y17728D01*
Y13728D02*
X322563D01*
X323563D01*
X320563Y17728D02*
X322563D01*
X320563Y13728D02*
Y17728D01*
Y13728D02*
X322563D01*
Y17728D01*
X321063Y17478D02*
Y17728D01*
Y17478D02*
X322063D01*
Y17728D01*
X320563D02*
X322563D01*
X320563Y13728D02*
Y17728D01*
Y13728D02*
X322563D01*
Y17728D01*
X321063Y17478D02*
Y17728D01*
Y17478D02*
X322063D01*
Y17728D01*
D55*
X338816Y37089D02*
D03*
X343818Y37089D02*
D03*
X348815Y37089D02*
D03*
X353818D02*
D03*
X358897Y37128D02*
D03*
X363818Y37089D02*
D03*
D56*
X347598Y15290D02*
D03*
Y13322D02*
D03*
X344023Y13322D02*
D03*
X344023Y15290D02*
D03*
D57*
X323354Y39809D02*
D03*
X322017Y41115D02*
D03*
D58*
X325152Y16789D02*
D03*
X326431Y15844D02*
D03*
D59*
X320681Y13051D02*
D03*
M02*
