  0
SECTION
  2
HEADER
  9
$ACADVER
  1
AC1009
  9
$INSUNITS
 70
     1
  0
ENDSEC
  0
SECTION
  2
TABLES
  0
TABLE
  2
LAYER
 70
     8
  0
LAYER
  2
0
 62
     7
 70
0
  6
CONTINUOUS
  0
LAYER
  2
1
 62
     1
 70
0
  6
CONTINUOUS
  0
LAYER
  2
2
 62
     2
 70
0
  6
CONTINUOUS
  0
LAYER
  2
3
 62
     3
 70
0
  6
CONTINUOUS
  0
LAYER
  2
4
 62
     4
 70
0
  6
CONTINUOUS
  0
LAYER
  2
5
 62
     5
 70
0
  6
CONTINUOUS
  0
LAYER
  2
6
 62
     6
 70
0
  6
CONTINUOUS
  0
LAYER
  2
7
 62
     7
 70
0
  6
CONTINUOUS
  0
ENDTAB
  0
TABLE
  2
STYLE
 70
     1
  0
STYLE
 70
     0
  2
STANDARD
  3
TXT
 40
0.00
 41
1.00
 42
1.00
 50
0.00
 71
     0
  0
ENDTAB
  0
ENDSEC
  0
SECTION
  2
BLOCKS
  0
BLOCK
  8
0
  2
EPAD
 70
0
 10
0.0
 20
0.0
  0
POLYLINE
  8
0
 66
1
 70
1
 40
0.5
 41
0.5
  0
VERTEX
  8
0
 10
-0.25
 20
0.0
 42
1.0
  0
VERTEX
  8
0
 10
0.25
 20
0.0
 42
1.0
  0
SEQEND
  8
0
  0
ENDBLK
  8
0
  0
BLOCK
  8
0
  2
RPAD
 70
0
 10
0.0
 20
0.0
  0
TRACE
  8
0
 10
-0.5
 20
-0.5
 11
-0.5
 21
0.5
 12
0.5
 22
-0.5
 13
0.5
 23
0.5
  0
ENDBLK
  8
0
  0
ENDSEC
0
SECTION
2
ENTITIES
0
POLYLINE
8
0
66
1
40
0.020000
41
0.020000
0
VERTEX
8
0
10
-7.500000
20
-5.000000
0
VERTEX
8
0
10
7.500000
20
-5.000000
0
VERTEX
8
0
10
7.500000
20
5.000000
0
VERTEX
8
0
10
-7.500000
20
5.000000
0
VERTEX
8
0
10
-7.500000
20
-5.000000
0
SEQEND
8
0
0
POLYLINE
8
0
66
1
40
0.020000
41
0.020000
0
VERTEX
8
0
10
-7.300000
20
-4.800000
0
VERTEX
8
0
10
7.300000
20
-4.800000
0
VERTEX
8
0
10
7.300000
20
4.800000
0
VERTEX
8
0
10
-7.300000
20
4.800000
0
VERTEX
8
0
10
-7.300000
20
-4.800000
0
SEQEND
8
0
0
POLYLINE
8
0
66
1
40
0.018000
41
0.018000
0
VERTEX
8
0
10
-5.840000
20
4.800000
0
VERTEX
8
0
10
-5.840000
20
5.000000
0
SEQEND
8
0
0
POLYLINE
8
0
66
1
40
0.018000
41
0.018000
0
VERTEX
8
0
10
-7.300000
20
4.800000
0
VERTEX
8
0
10
-7.300000
20
5.000000
0
SEQEND
8
0
0
POLYLINE
8
0
66
1
40
0.018000
41
0.018000
0
VERTEX
8
0
10
-4.380000
20
4.800000
0
VERTEX
8
0
10
-4.380000
20
5.000000
0
SEQEND
8
0
0
POLYLINE
8
0
66
1
40
0.018000
41
0.018000
0
VERTEX
8
0
10
-5.840000
20
4.800000
0
VERTEX
8
0
10
-5.840000
20
5.000000
0
SEQEND
8
0
0
POLYLINE
8
0
66
1
40
0.018000
41
0.018000
0
VERTEX
8
0
10
-2.920000
20
4.800000
0
VERTEX
8
0
10
-2.920000
20
5.000000
0
SEQEND
8
0
0
POLYLINE
8
0
66
1
40
0.018000
41
0.018000
0
VERTEX
8
0
10
-4.380000
20
4.800000
0
VERTEX
8
0
10
-4.380000
20
5.000000
0
SEQEND
8
0
0
POLYLINE
8
0
66
1
40
0.018000
41
0.018000
0
VERTEX
8
0
10
-1.460000
20
4.800000
0
VERTEX
8
0
10
-1.460000
20
5.000000
0
SEQEND
8
0
0
POLYLINE
8
0
66
1
40
0.018000
41
0.018000
0
VERTEX
8
0
10
-2.920000
20
4.800000
0
VERTEX
8
0
10
-2.920000
20
5.000000
0
SEQEND
8
0
0
POLYLINE
8
0
66
1
40
0.018000
41
0.018000
0
VERTEX
8
0
10
0.000000
20
4.800000
0
VERTEX
8
0
10
0.000000
20
5.000000
0
SEQEND
8
0
0
POLYLINE
8
0
66
1
40
0.018000
41
0.018000
0
VERTEX
8
0
10
-1.460000
20
4.800000
0
VERTEX
8
0
10
-1.460000
20
5.000000
0
SEQEND
8
0
0
POLYLINE
8
0
66
1
40
0.018000
41
0.018000
0
VERTEX
8
0
10
1.460000
20
4.800000
0
VERTEX
8
0
10
1.460000
20
5.000000
0
SEQEND
8
0
0
POLYLINE
8
0
66
1
40
0.018000
41
0.018000
0
VERTEX
8
0
10
0.000000
20
4.800000
0
VERTEX
8
0
10
0.000000
20
5.000000
0
SEQEND
8
0
0
POLYLINE
8
0
66
1
40
0.018000
41
0.018000
0
VERTEX
8
0
10
2.920000
20
4.800000
0
VERTEX
8
0
10
2.920000
20
5.000000
0
SEQEND
8
0
0
POLYLINE
8
0
66
1
40
0.018000
41
0.018000
0
VERTEX
8
0
10
1.460000
20
4.800000
0
VERTEX
8
0
10
1.460000
20
5.000000
0
SEQEND
8
0
0
POLYLINE
8
0
66
1
40
0.018000
41
0.018000
0
VERTEX
8
0
10
4.380000
20
4.800000
0
VERTEX
8
0
10
4.380000
20
5.000000
0
SEQEND
8
0
0
POLYLINE
8
0
66
1
40
0.018000
41
0.018000
0
VERTEX
8
0
10
2.920000
20
4.800000
0
VERTEX
8
0
10
2.920000
20
5.000000
0
SEQEND
8
0
0
POLYLINE
8
0
66
1
40
0.018000
41
0.018000
0
VERTEX
8
0
10
5.840000
20
4.800000
0
VERTEX
8
0
10
5.840000
20
5.000000
0
SEQEND
8
0
0
POLYLINE
8
0
66
1
40
0.018000
41
0.018000
0
VERTEX
8
0
10
4.380000
20
4.800000
0
VERTEX
8
0
10
4.380000
20
5.000000
0
SEQEND
8
0
0
POLYLINE
8
0
66
1
40
0.018000
41
0.018000
0
VERTEX
8
0
10
7.300000
20
4.800000
0
VERTEX
8
0
10
7.300000
20
5.000000
0
SEQEND
8
0
0
POLYLINE
8
0
66
1
40
0.018000
41
0.018000
0
VERTEX
8
0
10
5.840000
20
4.800000
0
VERTEX
8
0
10
5.840000
20
5.000000
0
SEQEND
8
0
0
POLYLINE
8
0
66
1
40
0.018000
41
0.018000
0
VERTEX
8
0
10
-5.840000
20
-5.000000
0
VERTEX
8
0
10
-5.840000
20
-4.800000
0
SEQEND
8
0
0
POLYLINE
8
0
66
1
40
0.018000
41
0.018000
0
VERTEX
8
0
10
-4.380000
20
-5.000000
0
VERTEX
8
0
10
-4.380000
20
-4.800000
0
SEQEND
8
0
0
POLYLINE
8
0
66
1
40
0.018000
41
0.018000
0
VERTEX
8
0
10
-5.840000
20
-5.000000
0
VERTEX
8
0
10
-5.840000
20
-4.800000
0
SEQEND
8
0
0
POLYLINE
8
0
66
1
40
0.018000
41
0.018000
0
VERTEX
8
0
10
-2.920000
20
-5.000000
0
VERTEX
8
0
10
-2.920000
20
-4.800000
0
SEQEND
8
0
0
POLYLINE
8
0
66
1
40
0.018000
41
0.018000
0
VERTEX
8
0
10
-4.380000
20
-5.000000
0
VERTEX
8
0
10
-4.380000
20
-4.800000
0
SEQEND
8
0
0
POLYLINE
8
0
66
1
40
0.018000
41
0.018000
0
VERTEX
8
0
10
-1.460000
20
-5.000000
0
VERTEX
8
0
10
-1.460000
20
-4.800000
0
SEQEND
8
0
0
POLYLINE
8
0
66
1
40
0.018000
41
0.018000
0
VERTEX
8
0
10
-2.920000
20
-5.000000
0
VERTEX
8
0
10
-2.920000
20
-4.800000
0
SEQEND
8
0
0
POLYLINE
8
0
66
1
40
0.018000
41
0.018000
0
VERTEX
8
0
10
0.000000
20
-5.000000
0
VERTEX
8
0
10
0.000000
20
-4.800000
0
SEQEND
8
0
0
POLYLINE
8
0
66
1
40
0.018000
41
0.018000
0
VERTEX
8
0
10
-1.460000
20
-5.000000
0
VERTEX
8
0
10
-1.460000
20
-4.800000
0
SEQEND
8
0
0
POLYLINE
8
0
66
1
40
0.018000
41
0.018000
0
VERTEX
8
0
10
1.460000
20
-5.000000
0
VERTEX
8
0
10
1.460000
20
-4.800000
0
SEQEND
8
0
0
POLYLINE
8
0
66
1
40
0.018000
41
0.018000
0
VERTEX
8
0
10
0.000000
20
-5.000000
0
VERTEX
8
0
10
0.000000
20
-4.800000
0
SEQEND
8
0
0
POLYLINE
8
0
66
1
40
0.018000
41
0.018000
0
VERTEX
8
0
10
2.920000
20
-5.000000
0
VERTEX
8
0
10
2.920000
20
-4.800000
0
SEQEND
8
0
0
POLYLINE
8
0
66
1
40
0.018000
41
0.018000
0
VERTEX
8
0
10
1.460000
20
-5.000000
0
VERTEX
8
0
10
1.460000
20
-4.800000
0
SEQEND
8
0
0
POLYLINE
8
0
66
1
40
0.018000
41
0.018000
0
VERTEX
8
0
10
4.380000
20
-5.000000
0
VERTEX
8
0
10
4.380000
20
-4.800000
0
SEQEND
8
0
0
POLYLINE
8
0
66
1
40
0.018000
41
0.018000
0
VERTEX
8
0
10
2.920000
20
-5.000000
0
VERTEX
8
0
10
2.920000
20
-4.800000
0
SEQEND
8
0
0
POLYLINE
8
0
66
1
40
0.018000
41
0.018000
0
VERTEX
8
0
10
5.840000
20
-5.000000
0
VERTEX
8
0
10
5.840000
20
-4.800000
0
SEQEND
8
0
0
POLYLINE
8
0
66
1
40
0.018000
41
0.018000
0
VERTEX
8
0
10
4.380000
20
-5.000000
0
VERTEX
8
0
10
4.380000
20
-4.800000
0
SEQEND
8
0
0
POLYLINE
8
0
66
1
40
0.018000
41
0.018000
0
VERTEX
8
0
10
7.300000
20
-5.000000
0
VERTEX
8
0
10
7.300000
20
-4.800000
0
SEQEND
8
0
0
POLYLINE
8
0
66
1
40
0.018000
41
0.018000
0
VERTEX
8
0
10
5.840000
20
-5.000000
0
VERTEX
8
0
10
5.840000
20
-4.800000
0
SEQEND
8
0
0
POLYLINE
8
0
66
1
40
0.018000
41
0.018000
0
VERTEX
8
0
10
-7.300000
20
4.800000
0
VERTEX
8
0
10
-7.500000
20
4.800000
0
SEQEND
8
0
0
POLYLINE
8
0
66
1
40
0.018000
41
0.018000
0
VERTEX
8
0
10
-7.300000
20
3.840000
0
VERTEX
8
0
10
-7.500000
20
3.840000
0
SEQEND
8
0
0
POLYLINE
8
0
66
1
40
0.018000
41
0.018000
0
VERTEX
8
0
10
-7.300000
20
3.840000
0
VERTEX
8
0
10
-7.500000
20
3.840000
0
SEQEND
8
0
0
POLYLINE
8
0
66
1
40
0.018000
41
0.018000
0
VERTEX
8
0
10
-7.300000
20
2.880000
0
VERTEX
8
0
10
-7.500000
20
2.880000
0
SEQEND
8
0
0
POLYLINE
8
0
66
1
40
0.018000
41
0.018000
0
VERTEX
8
0
10
-7.300000
20
2.880000
0
VERTEX
8
0
10
-7.500000
20
2.880000
0
SEQEND
8
0
0
POLYLINE
8
0
66
1
40
0.018000
41
0.018000
0
VERTEX
8
0
10
-7.300000
20
1.920000
0
VERTEX
8
0
10
-7.500000
20
1.920000
0
SEQEND
8
0
0
POLYLINE
8
0
66
1
40
0.018000
41
0.018000
0
VERTEX
8
0
10
-7.300000
20
1.920000
0
VERTEX
8
0
10
-7.500000
20
1.920000
0
SEQEND
8
0
0
POLYLINE
8
0
66
1
40
0.018000
41
0.018000
0
VERTEX
8
0
10
-7.300000
20
0.960000
0
VERTEX
8
0
10
-7.500000
20
0.960000
0
SEQEND
8
0
0
POLYLINE
8
0
66
1
40
0.018000
41
0.018000
0
VERTEX
8
0
10
-7.300000
20
0.960000
0
VERTEX
8
0
10
-7.500000
20
0.960000
0
SEQEND
8
0
0
POLYLINE
8
0
66
1
40
0.018000
41
0.018000
0
VERTEX
8
0
10
-7.300000
20
0.000000
0
VERTEX
8
0
10
-7.500000
20
0.000000
0
SEQEND
8
0
0
POLYLINE
8
0
66
1
40
0.018000
41
0.018000
0
VERTEX
8
0
10
-7.300000
20
0.000000
0
VERTEX
8
0
10
-7.500000
20
0.000000
0
SEQEND
8
0
0
POLYLINE
8
0
66
1
40
0.018000
41
0.018000
0
VERTEX
8
0
10
-7.300000
20
-0.960000
0
VERTEX
8
0
10
-7.500000
20
-0.960000
0
SEQEND
8
0
0
POLYLINE
8
0
66
1
40
0.018000
41
0.018000
0
VERTEX
8
0
10
-7.300000
20
-0.960000
0
VERTEX
8
0
10
-7.500000
20
-0.960000
0
SEQEND
8
0
0
POLYLINE
8
0
66
1
40
0.018000
41
0.018000
0
VERTEX
8
0
10
-7.300000
20
-1.920000
0
VERTEX
8
0
10
-7.500000
20
-1.920000
0
SEQEND
8
0
0
POLYLINE
8
0
66
1
40
0.018000
41
0.018000
0
VERTEX
8
0
10
-7.300000
20
-1.920000
0
VERTEX
8
0
10
-7.500000
20
-1.920000
0
SEQEND
8
0
0
POLYLINE
8
0
66
1
40
0.018000
41
0.018000
0
VERTEX
8
0
10
-7.300000
20
-2.880000
0
VERTEX
8
0
10
-7.500000
20
-2.880000
0
SEQEND
8
0
0
POLYLINE
8
0
66
1
40
0.018000
41
0.018000
0
VERTEX
8
0
10
-7.300000
20
-2.880000
0
VERTEX
8
0
10
-7.500000
20
-2.880000
0
SEQEND
8
0
0
POLYLINE
8
0
66
1
40
0.018000
41
0.018000
0
VERTEX
8
0
10
-7.300000
20
-3.840000
0
VERTEX
8
0
10
-7.500000
20
-3.840000
0
SEQEND
8
0
0
POLYLINE
8
0
66
1
40
0.018000
41
0.018000
0
VERTEX
8
0
10
-7.300000
20
-3.840000
0
VERTEX
8
0
10
-7.500000
20
-3.840000
0
SEQEND
8
0
0
POLYLINE
8
0
66
1
40
0.018000
41
0.018000
0
VERTEX
8
0
10
-7.300000
20
-4.800000
0
VERTEX
8
0
10
-7.500000
20
-4.800000
0
SEQEND
8
0
0
POLYLINE
8
0
66
1
40
0.018000
41
0.018000
0
VERTEX
8
0
10
7.500000
20
4.800000
0
VERTEX
8
0
10
7.300000
20
4.800000
0
SEQEND
8
0
0
POLYLINE
8
0
66
1
40
0.018000
41
0.018000
0
VERTEX
8
0
10
7.500000
20
3.840000
0
VERTEX
8
0
10
7.300000
20
3.840000
0
SEQEND
8
0
0
POLYLINE
8
0
66
1
40
0.018000
41
0.018000
0
VERTEX
8
0
10
7.500000
20
3.840000
0
VERTEX
8
0
10
7.300000
20
3.840000
0
SEQEND
8
0
0
POLYLINE
8
0
66
1
40
0.018000
41
0.018000
0
VERTEX
8
0
10
7.500000
20
2.880000
0
VERTEX
8
0
10
7.300000
20
2.880000
0
SEQEND
8
0
0
POLYLINE
8
0
66
1
40
0.018000
41
0.018000
0
VERTEX
8
0
10
7.500000
20
2.880000
0
VERTEX
8
0
10
7.300000
20
2.880000
0
SEQEND
8
0
0
POLYLINE
8
0
66
1
40
0.018000
41
0.018000
0
VERTEX
8
0
10
7.500000
20
1.920000
0
VERTEX
8
0
10
7.300000
20
1.920000
0
SEQEND
8
0
0
POLYLINE
8
0
66
1
40
0.018000
41
0.018000
0
VERTEX
8
0
10
7.500000
20
1.920000
0
VERTEX
8
0
10
7.300000
20
1.920000
0
SEQEND
8
0
0
POLYLINE
8
0
66
1
40
0.018000
41
0.018000
0
VERTEX
8
0
10
7.500000
20
0.960000
0
VERTEX
8
0
10
7.300000
20
0.960000
0
SEQEND
8
0
0
POLYLINE
8
0
66
1
40
0.018000
41
0.018000
0
VERTEX
8
0
10
7.500000
20
0.960000
0
VERTEX
8
0
10
7.300000
20
0.960000
0
SEQEND
8
0
0
POLYLINE
8
0
66
1
40
0.018000
41
0.018000
0
VERTEX
8
0
10
7.500000
20
0.000000
0
VERTEX
8
0
10
7.300000
20
0.000000
0
SEQEND
8
0
0
POLYLINE
8
0
66
1
40
0.018000
41
0.018000
0
VERTEX
8
0
10
7.500000
20
0.000000
0
VERTEX
8
0
10
7.300000
20
0.000000
0
SEQEND
8
0
0
POLYLINE
8
0
66
1
40
0.018000
41
0.018000
0
VERTEX
8
0
10
7.500000
20
-0.960000
0
VERTEX
8
0
10
7.300000
20
-0.960000
0
SEQEND
8
0
0
POLYLINE
8
0
66
1
40
0.018000
41
0.018000
0
VERTEX
8
0
10
7.500000
20
-0.960000
0
VERTEX
8
0
10
7.300000
20
-0.960000
0
SEQEND
8
0
0
POLYLINE
8
0
66
1
40
0.018000
41
0.018000
0
VERTEX
8
0
10
7.500000
20
-1.920000
0
VERTEX
8
0
10
7.300000
20
-1.920000
0
SEQEND
8
0
0
POLYLINE
8
0
66
1
40
0.018000
41
0.018000
0
VERTEX
8
0
10
7.500000
20
-1.920000
0
VERTEX
8
0
10
7.300000
20
-1.920000
0
SEQEND
8
0
0
POLYLINE
8
0
66
1
40
0.018000
41
0.018000
0
VERTEX
8
0
10
7.500000
20
-2.880000
0
VERTEX
8
0
10
7.300000
20
-2.880000
0
SEQEND
8
0
0
POLYLINE
8
0
66
1
40
0.018000
41
0.018000
0
VERTEX
8
0
10
7.500000
20
-2.880000
0
VERTEX
8
0
10
7.300000
20
-2.880000
0
SEQEND
8
0
0
POLYLINE
8
0
66
1
40
0.018000
41
0.018000
0
VERTEX
8
0
10
7.500000
20
-3.840000
0
VERTEX
8
0
10
7.300000
20
-3.840000
0
SEQEND
8
0
0
POLYLINE
8
0
66
1
40
0.018000
41
0.018000
0
VERTEX
8
0
10
7.500000
20
-3.840000
0
VERTEX
8
0
10
7.300000
20
-3.840000
0
SEQEND
8
0
0
POLYLINE
8
0
66
1
40
0.018000
41
0.018000
0
VERTEX
8
0
10
7.500000
20
-4.800000
0
VERTEX
8
0
10
7.300000
20
-4.800000
0
SEQEND
8
0
0
POLYLINE
8
0
66
1
40
0.018000
41
0.018000
0
VERTEX
8
0
10
-7.300000
20
-4.800000
0
VERTEX
8
0
10
-7.300000
20
-5.000000
0
SEQEND
8
0
0
TEXT
8
0
10
-6.610000
20
4.862000
40
0.096000
41
0.833333
1
A
0
TEXT
8
0
10
-5.150000
20
4.862000
40
0.096000
41
0.833333
1
B
0
TEXT
8
0
10
-3.690000
20
4.862000
40
0.096000
41
0.833333
1
C
0
TEXT
8
0
10
-2.230000
20
4.862000
40
0.096000
41
0.833333
1
D
0
TEXT
8
0
10
-0.770000
20
4.862000
40
0.096000
41
0.833333
1
E
0
TEXT
8
0
10
0.690000
20
4.862000
40
0.096000
41
0.833333
1
F
0
TEXT
8
0
10
2.150000
20
4.862000
40
0.096000
41
0.833333
1
G
0
TEXT
8
0
10
3.610000
20
4.862000
40
0.096000
41
0.833333
1
H
0
TEXT
8
0
10
5.070000
20
4.862000
40
0.096000
41
0.833333
1
I
0
TEXT
8
0
10
6.530000
20
4.862000
40
0.096000
41
0.833333
1
J
0
TEXT
8
0
10
-5.160000
20
-4.948000
40
0.096000
41
0.833333
1
B
0
TEXT
8
0
10
-3.700000
20
-4.948000
40
0.096000
41
0.833333
1
C
0
TEXT
8
0
10
-2.240000
20
-4.948000
40
0.096000
41
0.833333
1
D
0
TEXT
8
0
10
-0.780000
20
-4.948000
40
0.096000
41
0.833333
1
E
0
TEXT
8
0
10
0.680000
20
-4.948000
40
0.096000
41
0.833333
1
F
0
TEXT
8
0
10
2.140000
20
-4.948000
40
0.096000
41
0.833333
1
G
0
TEXT
8
0
10
3.600000
20
-4.948000
40
0.096000
41
0.833333
1
H
0
TEXT
8
0
10
5.060000
20
-4.948000
40
0.096000
41
0.833333
1
I
0
TEXT
8
0
10
6.520000
20
-4.948000
40
0.096000
41
0.833333
1
J
0
TEXT
8
0
10
-6.620000
20
-4.948000
40
0.096000
41
0.833333
1
A
0
TEXT
8
0
10
-7.440000
20
4.272000
40
0.096000
41
0.833333
1
0
0
TEXT
8
0
10
-7.440000
20
3.312000
40
0.096000
41
0.833333
1
1
0
TEXT
8
0
10
-7.440000
20
2.352000
40
0.096000
41
0.833333
1
2
0
TEXT
8
0
10
-7.440000
20
0.432000
40
0.096000
41
0.833333
1
4
0
TEXT
8
0
10
-7.440000
20
-0.528000
40
0.096000
41
0.833333
1
5
0
TEXT
8
0
10
-7.440000
20
-1.488000
40
0.096000
41
0.833333
1
6
0
TEXT
8
0
10
-7.440000
20
-2.448000
40
0.096000
41
0.833333
1
7
0
TEXT
8
0
10
-7.440000
20
-3.408000
40
0.096000
41
0.833333
1
8
0
TEXT
8
0
10
-7.440000
20
-4.368000
40
0.096000
41
0.833333
1
9
0
TEXT
8
0
10
7.360000
20
4.272000
40
0.096000
41
0.833333
1
0
0
TEXT
8
0
10
7.360000
20
3.312000
40
0.096000
41
0.833333
1
1
0
TEXT
8
0
10
7.360000
20
2.342000
40
0.096000
41
0.833333
1
2
0
TEXT
8
0
10
7.360000
20
1.392000
40
0.096000
41
0.833333
1
3
0
TEXT
8
0
10
7.360000
20
0.432000
40
0.096000
41
0.833333
1
4
0
TEXT
8
0
10
7.360000
20
-0.528000
40
0.096000
41
0.833333
1
5
0
TEXT
8
0
10
7.360000
20
-1.488000
40
0.096000
41
0.833333
1
6
0
TEXT
8
0
10
7.360000
20
-2.448000
40
0.096000
41
0.833333
1
7
0
TEXT
8
0
10
7.360000
20
-3.408000
40
0.096000
41
0.833333
1
8
0
TEXT
8
0
10
-7.440000
20
1.392000
40
0.096000
41
0.833333
1
3
0
TEXT
8
0
10
7.360000
20
-4.368000
40
0.096000
41
0.833333
1
9
0
POLYLINE
8
0
66
1
40
0.000000
41
0.000000
0
VERTEX
8
0
10
-7.300000
20
4.900000
0
VERTEX
8
0
10
-7.300000
20
4.810000
0
SEQEND
8
0
0
POLYLINE
8
0
66
1
40
0.000000
41
0.000000
0
VERTEX
8
0
10
-5.840000
20
4.900000
0
VERTEX
8
0
10
-5.840000
20
4.810000
0
SEQEND
8
0
0
POLYLINE
8
0
66
1
40
0.000000
41
0.000000
0
VERTEX
8
0
10
-4.380000
20
4.900000
0
VERTEX
8
0
10
-4.380000
20
4.810000
0
SEQEND
8
0
0
POLYLINE
8
0
66
1
40
0.000000
41
0.000000
0
VERTEX
8
0
10
-2.920000
20
4.900000
0
VERTEX
8
0
10
-2.920000
20
4.810000
0
SEQEND
8
0
0
POLYLINE
8
0
66
1
40
0.000000
41
0.000000
0
VERTEX
8
0
10
-1.460000
20
4.900000
0
VERTEX
8
0
10
-1.460000
20
4.810000
0
SEQEND
8
0
0
POLYLINE
8
0
66
1
40
0.000000
41
0.000000
0
VERTEX
8
0
10
0.000000
20
4.900000
0
VERTEX
8
0
10
0.000000
20
4.810000
0
SEQEND
8
0
0
POLYLINE
8
0
66
1
40
0.000000
41
0.000000
0
VERTEX
8
0
10
1.460000
20
4.900000
0
VERTEX
8
0
10
1.460000
20
4.810000
0
SEQEND
8
0
0
POLYLINE
8
0
66
1
40
0.000000
41
0.000000
0
VERTEX
8
0
10
2.920000
20
4.900000
0
VERTEX
8
0
10
2.920000
20
4.810000
0
SEQEND
8
0
0
POLYLINE
8
0
66
1
40
0.000000
41
0.000000
0
VERTEX
8
0
10
4.380000
20
4.900000
0
VERTEX
8
0
10
4.380000
20
4.810000
0
SEQEND
8
0
0
POLYLINE
8
0
66
1
40
0.000000
41
0.000000
0
VERTEX
8
0
10
5.840000
20
4.900000
0
VERTEX
8
0
10
5.840000
20
4.810000
0
SEQEND
8
0
0
POLYLINE
8
0
66
1
40
0.000000
41
0.000000
0
VERTEX
8
0
10
7.300000
20
4.900000
0
VERTEX
8
0
10
7.300000
20
4.810000
0
SEQEND
8
0
0
POLYLINE
8
0
66
1
40
0.000000
41
0.000000
0
VERTEX
8
0
10
-7.400000
20
3.840000
0
VERTEX
8
0
10
-7.310000
20
3.840000
0
SEQEND
8
0
0
POLYLINE
8
0
66
1
40
0.000000
41
0.000000
0
VERTEX
8
0
10
-7.400000
20
2.880000
0
VERTEX
8
0
10
-7.310000
20
2.880000
0
SEQEND
8
0
0
POLYLINE
8
0
66
1
40
0.000000
41
0.000000
0
VERTEX
8
0
10
-7.400000
20
1.920000
0
VERTEX
8
0
10
-7.310000
20
1.920000
0
SEQEND
8
0
0
POLYLINE
8
0
66
1
40
0.000000
41
0.000000
0
VERTEX
8
0
10
-7.400000
20
0.960000
0
VERTEX
8
0
10
-7.310000
20
0.960000
0
SEQEND
8
0
0
POLYLINE
8
0
66
1
40
0.000000
41
0.000000
0
VERTEX
8
0
10
-7.400000
20
0.000000
0
VERTEX
8
0
10
-7.310000
20
0.000000
0
SEQEND
8
0
0
POLYLINE
8
0
66
1
40
0.000000
41
0.000000
0
VERTEX
8
0
10
-7.400000
20
-0.960000
0
VERTEX
8
0
10
-7.310000
20
-0.960000
0
SEQEND
8
0
0
POLYLINE
8
0
66
1
40
0.000000
41
0.000000
0
VERTEX
8
0
10
-7.400000
20
-1.920000
0
VERTEX
8
0
10
-7.310000
20
-1.920000
0
SEQEND
8
0
0
POLYLINE
8
0
66
1
40
0.000000
41
0.000000
0
VERTEX
8
0
10
-7.400000
20
-2.880000
0
VERTEX
8
0
10
-7.310000
20
-2.880000
0
SEQEND
8
0
0
POLYLINE
8
0
66
1
40
0.000000
41
0.000000
0
VERTEX
8
0
10
-7.400000
20
-3.840000
0
VERTEX
8
0
10
-7.310000
20
-3.840000
0
SEQEND
8
0
0
POLYLINE
8
0
66
1
40
0.000000
41
0.000000
0
VERTEX
8
0
10
-7.400000
20
-4.800000
0
VERTEX
8
0
10
-7.310000
20
-4.800000
0
SEQEND
8
0
0
POLYLINE
8
0
66
1
40
0.000000
41
0.000000
0
VERTEX
8
0
10
-7.400000
20
4.800000
0
VERTEX
8
0
10
-7.310000
20
4.800000
0
SEQEND
8
0
0
POLYLINE
8
0
66
1
40
0.018000
41
0.018000
0
VERTEX
8
0
10
3.800000
20
-4.805000
0
VERTEX
8
0
10
7.300000
20
-4.805000
0
VERTEX
8
0
10
7.300000
20
-3.975000
0
VERTEX
8
0
10
3.800000
20
-3.975000
0
VERTEX
8
0
10
3.800000
20
-4.805000
0
SEQEND
8
0
0
TEXT
8
0
10
3.850000
20
-4.115000
40
0.080000
41
1.000000
1
FILE NAME:
0
TEXT
8
0
10
3.850000
20
-4.735000
40
0.080000
41
1.000000
1
BY:
0
TEXT
8
0
10
6.380000
20
-4.095000
40
0.080000
41
1.000000
1
DATE:
0
TEXT
8
0
10
6.390000
20
-4.465000
40
0.080000
41
1.000000
1
PAGE:
0
TEXT
8
0
10
4.470000
20
-4.128000
40
0.136000
41
0.588235
1
Mach amply D718 B688.pdsprj
0
TEXT
8
0
10
6.380000
20
-4.288000
40
0.136000
41
0.588235
1
3/17/2022
0
TEXT
8
0
10
4.070000
20
-4.735000
40
0.080000
41
1.000000
1
@AUTHOR
0
POLYLINE
8
0
66
1
40
0.018000
41
0.018000
0
VERTEX
8
0
10
6.320000
20
-3.975000
0
VERTEX
8
0
10
6.320000
20
-4.805000
0
SEQEND
8
0
0
TEXT
8
0
10
4.150000
20
-4.553000
40
0.096000
41
0.833333
1
D:\Mon thay Hoa\THUC HANH VE MACH\Mach amply D718 B688\Mach amply D718 B688.pdsprj
0
TEXT
8
0
10
3.770000
20
-4.545000
40
0.080000
41
1.000000
1
PATH:
0
TEXT
8
0
10
6.360000
20
-4.593000
40
0.096000
41
0.833333
1
1
0
TEXT
8
0
10
6.520000
20
-4.593000
40
0.096000
41
0.833333
1
of
0
TEXT
8
0
10
6.760000
20
-4.593000
40
0.096000
41
0.833333
1
1
0
TEXT
8
0
10
5.590000
20
-4.745000
40
0.080000
41
1.000000
1
REV:
0
TEXT
8
0
10
5.840000
20
-4.753000
40
0.096000
41
0.833333
1
@REV
0
TEXT
8
0
10
6.300000
20
-4.745000
40
0.080000
41
1.000000
1
TIME:
0
TEXT
8
0
10
6.460000
20
-4.745000
40
0.080000
41
1.000000
1
12:01:52 AM
0
TEXT
8
0
10
3.620000
20
-4.335000
40
0.080000
41
1.000000
1
DESIGN TITLE:
0
TEXT
8
0
10
4.470000
20
-4.363000
40
0.136000
41
0.588235
1
Mach amply D718 B688.pdsprj
0
POLYLINE
8
0
66
1
40
0.016000
41
0.016000
0
VERTEX
8
0
10
-6.500000
20
1.600000
0
VERTEX
8
0
10
-6.300000
20
1.600000
0
SEQEND
8
0
0
POLYLINE
8
0
66
1
40
0.016000
41
0.016000
0
VERTEX
8
0
10
-5.400000
20
1.900000
0
VERTEX
8
0
10
-5.200000
20
1.900000
0
SEQEND
8
0
0
POLYLINE
8
0
66
1
40
0.016000
41
0.016000
0
VERTEX
8
0
10
-5.000000
20
1.900000
0
VERTEX
8
0
10
-5.200000
20
1.900000
0
SEQEND
8
0
0
POLYLINE
8
0
66
1
40
0.016000
41
0.016000
0
VERTEX
8
0
10
-5.200000
20
2.100000
0
VERTEX
8
0
10
-5.200000
20
1.900000
0
SEQEND
8
0
0
POLYLINE
8
0
66
1
40
0.016000
41
0.016000
0
VERTEX
8
0
10
-5.700000
20
2.600000
0
VERTEX
8
0
10
-5.200000
20
2.600000
0
VERTEX
8
0
10
-5.200000
20
2.600000
0
SEQEND
8
0
0
POLYLINE
8
0
66
1
40
0.016000
41
0.016000
0
VERTEX
8
0
10
-4.700000
20
2.600000
0
VERTEX
8
0
10
-5.200000
20
2.600000
0
VERTEX
8
0
10
-5.200000
20
2.700000
0
SEQEND
8
0
0
POLYLINE
8
0
66
1
40
0.016000
41
0.016000
0
VERTEX
8
0
10
-5.700000
20
2.200000
0
VERTEX
8
0
10
-5.700000
20
2.100000
0
SEQEND
8
0
0
POLYLINE
8
0
66
1
40
0.016000
41
0.016000
0
VERTEX
8
0
10
-4.700000
20
2.300000
0
VERTEX
8
0
10
-4.700000
20
2.200000
0
SEQEND
8
0
0
POLYLINE
8
0
66
1
40
0.016000
41
0.016000
0
VERTEX
8
0
10
-6.500000
20
1.500000
0
VERTEX
8
0
10
-6.500000
20
1.300000
0
SEQEND
8
0
0
POLYLINE
8
0
66
1
40
0.016000
41
0.016000
0
VERTEX
8
0
10
-5.800000
20
1.000000
0
VERTEX
8
0
10
-5.800000
20
0.900000
0
SEQEND
8
0
0
POLYLINE
8
0
66
1
40
0.016000
41
0.016000
0
VERTEX
8
0
10
-5.900000
20
1.600000
0
VERTEX
8
0
10
-5.800000
20
1.600000
0
VERTEX
8
0
10
-5.800000
20
1.600000
0
SEQEND
8
0
0
POLYLINE
8
0
66
1
40
0.016000
41
0.016000
0
VERTEX
8
0
10
-5.800000
20
1.500000
0
VERTEX
8
0
10
-5.800000
20
1.600000
0
SEQEND
8
0
0
POLYLINE
8
0
66
1
40
0.016000
41
0.016000
0
VERTEX
8
0
10
-4.000000
20
1.600000
0
VERTEX
8
0
10
-4.300000
20
1.600000
0
SEQEND
8
0
0
POLYLINE
8
0
66
1
40
0.016000
41
0.016000
0
VERTEX
8
0
10
-4.600000
20
1.600000
0
VERTEX
8
0
10
-4.300000
20
1.600000
0
SEQEND
8
0
0
POLYLINE
8
0
66
1
40
0.016000
41
0.016000
0
VERTEX
8
0
10
-4.300000
20
1.400000
0
VERTEX
8
0
10
-4.300000
20
1.600000
0
SEQEND
8
0
0
POLYLINE
8
0
66
1
40
0.016000
41
0.016000
0
VERTEX
8
0
10
-4.300000
20
1.000000
0
VERTEX
8
0
10
-4.300000
20
0.900000
0
SEQEND
8
0
0
POLYLINE
8
0
66
1
40
0.016000
41
0.016000
0
VERTEX
8
0
10
-2.600000
20
2.300000
0
VERTEX
8
0
10
-2.600000
20
2.200000
0
SEQEND
8
0
0
POLYLINE
8
0
66
1
40
0.016000
41
0.016000
0
VERTEX
8
0
10
-2.600000
20
3.200000
0
VERTEX
8
0
10
-2.600000
20
3.200000
0
VERTEX
8
0
10
-2.600000
20
3.200000
0
SEQEND
8
0
0
POLYLINE
8
0
66
1
40
0.016000
41
0.016000
0
VERTEX
8
0
10
-3.200000
20
3.000000
0
VERTEX
8
0
10
-3.200000
20
3.200000
0
VERTEX
8
0
10
-2.600000
20
3.200000
0
SEQEND
8
0
0
POLYLINE
8
0
66
1
40
0.016000
41
0.016000
0
VERTEX
8
0
10
-1.900000
20
1.900000
0
VERTEX
8
0
10
-1.900000
20
1.800000
0
SEQEND
8
0
0
POLYLINE
8
0
66
1
40
0.016000
41
0.016000
0
VERTEX
8
0
10
-1.700000
20
2.200000
0
VERTEX
8
0
10
-1.700000
20
1.800000
0
VERTEX
8
0
10
-1.900000
20
1.800000
0
SEQEND
8
0
0
POLYLINE
8
0
66
1
40
0.016000
41
0.016000
0
VERTEX
8
0
10
-2.600000
20
2.600000
0
VERTEX
8
0
10
-2.600000
20
2.700000
0
VERTEX
8
0
10
-2.600000
20
2.700000
0
SEQEND
8
0
0
POLYLINE
8
0
66
1
40
0.016000
41
0.016000
0
VERTEX
8
0
10
-1.900000
20
1.800000
0
VERTEX
8
0
10
-2.600000
20
1.800000
0
SEQEND
8
0
0
POLYLINE
8
0
66
1
40
0.016000
41
0.016000
0
VERTEX
8
0
10
-2.600000
20
1.900000
0
VERTEX
8
0
10
-2.600000
20
1.800000
0
SEQEND
8
0
0
POLYLINE
8
0
66
1
40
0.016000
41
0.016000
0
VERTEX
8
0
10
-2.600000
20
1.500000
0
VERTEX
8
0
10
-2.600000
20
1.800000
0
SEQEND
8
0
0
POLYLINE
8
0
66
1
40
0.016000
41
0.016000
0
VERTEX
8
0
10
-2.600000
20
1.200000
0
VERTEX
8
0
10
-2.600000
20
1.100000
0
SEQEND
8
0
0
POLYLINE
8
0
66
1
40
0.016000
41
0.016000
0
VERTEX
8
0
10
-5.000000
20
1.300000
0
VERTEX
8
0
10
-5.000000
20
-0.400000
0
SEQEND
8
0
0
POLYLINE
8
0
66
1
40
0.016000
41
0.016000
0
VERTEX
8
0
10
-5.400000
20
-0.400000
0
VERTEX
8
0
10
-5.000000
20
-0.400000
0
SEQEND
8
0
0
POLYLINE
8
0
66
1
40
0.016000
41
0.016000
0
VERTEX
8
0
10
-5.400000
20
0.100000
0
VERTEX
8
0
10
-5.400000
20
0.300000
0
SEQEND
8
0
0
POLYLINE
8
0
66
1
40
0.016000
41
0.016000
0
VERTEX
8
0
10
-5.400000
20
1.300000
0
VERTEX
8
0
10
-5.400000
20
0.300000
0
SEQEND
8
0
0
POLYLINE
8
0
66
1
40
0.016000
41
0.016000
0
VERTEX
8
0
10
-2.600000
20
0.600000
0
VERTEX
8
0
10
-2.600000
20
0.700000
0
SEQEND
8
0
0
POLYLINE
8
0
66
1
40
0.016000
41
0.016000
0
VERTEX
8
0
10
-2.600000
20
0.800000
0
VERTEX
8
0
10
-2.600000
20
0.700000
0
SEQEND
8
0
0
POLYLINE
8
0
66
1
40
0.016000
41
0.016000
0
VERTEX
8
0
10
-3.100000
20
0.700000
0
VERTEX
8
0
10
-2.600000
20
0.700000
0
SEQEND
8
0
0
POLYLINE
8
0
66
1
40
0.016000
41
0.016000
0
VERTEX
8
0
10
-2.900000
20
0.300000
0
VERTEX
8
0
10
-3.500000
20
0.300000
0
SEQEND
8
0
0
POLYLINE
8
0
66
1
40
0.016000
41
0.016000
0
VERTEX
8
0
10
-5.400000
20
0.300000
0
VERTEX
8
0
10
-3.500000
20
0.300000
0
SEQEND
8
0
0
POLYLINE
8
0
66
1
40
0.016000
41
0.016000
0
VERTEX
8
0
10
-3.500000
20
0.700000
0
VERTEX
8
0
10
-3.500000
20
0.300000
0
SEQEND
8
0
0
POLYLINE
8
0
66
1
40
0.016000
41
0.016000
0
VERTEX
8
0
10
-1.900000
20
2.500000
0
VERTEX
8
0
10
-1.900000
20
2.700000
0
SEQEND
8
0
0
POLYLINE
8
0
66
1
40
0.016000
41
0.016000
0
VERTEX
8
0
10
-2.600000
20
2.700000
0
VERTEX
8
0
10
-1.900000
20
2.700000
0
SEQEND
8
0
0
POLYLINE
8
0
66
1
40
0.016000
41
0.016000
0
VERTEX
8
0
10
-1.200000
20
2.700000
0
VERTEX
8
0
10
-1.900000
20
2.700000
0
SEQEND
8
0
0
POLYLINE
8
0
66
1
40
0.016000
41
0.016000
0
VERTEX
8
0
10
-5.200000
20
3.200000
0
VERTEX
8
0
10
-5.200000
20
3.700000
0
VERTEX
8
0
10
-2.600000
20
3.700000
0
VERTEX
8
0
10
-2.600000
20
3.700000
0
SEQEND
8
0
0
POLYLINE
8
0
66
1
40
0.016000
41
0.016000
0
VERTEX
8
0
10
-3.200000
20
2.600000
0
VERTEX
8
0
10
-3.200000
20
1.600000
0
SEQEND
8
0
0
POLYLINE
8
0
66
1
40
0.016000
41
0.016000
0
VERTEX
8
0
10
-3.500000
20
1.600000
0
VERTEX
8
0
10
-3.200000
20
1.600000
0
SEQEND
8
0
0
POLYLINE
8
0
66
1
40
0.016000
41
0.016000
0
VERTEX
8
0
10
-2.600000
20
0.700000
0
VERTEX
8
0
10
-1.300000
20
0.700000
0
VERTEX
8
0
10
-1.300000
20
0.300000
0
SEQEND
8
0
0
POLYLINE
8
0
66
1
40
0.016000
41
0.016000
0
VERTEX
8
0
10
-3.200000
20
1.600000
0
VERTEX
8
0
10
-0.900000
20
1.600000
0
SEQEND
8
0
0
POLYLINE
8
0
66
1
40
0.016000
41
0.016000
0
VERTEX
8
0
10
-0.900000
20
1.800000
0
VERTEX
8
0
10
-0.900000
20
1.600000
0
SEQEND
8
0
0
POLYLINE
8
0
66
1
40
0.016000
41
0.016000
0
VERTEX
8
0
10
-0.900000
20
1.500000
0
VERTEX
8
0
10
-0.900000
20
1.600000
0
SEQEND
8
0
0
POLYLINE
8
0
66
1
40
0.016000
41
0.016000
0
VERTEX
8
0
10
-5.000000
20
-0.400000
0
VERTEX
8
0
10
-2.600000
20
-0.400000
0
SEQEND
8
0
0
POLYLINE
8
0
66
1
40
0.016000
41
0.016000
0
VERTEX
8
0
10
-2.600000
20
0.000000
0
VERTEX
8
0
10
-2.600000
20
-0.400000
0
SEQEND
8
0
0
POLYLINE
8
0
66
1
40
0.016000
41
0.016000
0
VERTEX
8
0
10
-0.900000
20
2.300000
0
VERTEX
8
0
10
-0.900000
20
2.400000
0
VERTEX
8
0
10
-0.900000
20
2.400000
0
SEQEND
8
0
0
POLYLINE
8
0
66
1
40
0.016000
41
0.016000
0
VERTEX
8
0
10
0.000000
20
2.700000
0
VERTEX
8
0
10
0.000000
20
2.400000
0
VERTEX
8
0
10
-0.900000
20
2.400000
0
SEQEND
8
0
0
POLYLINE
8
0
66
1
40
0.016000
41
0.016000
0
VERTEX
8
0
10
-0.900000
20
3.000000
0
VERTEX
8
0
10
-0.900000
20
3.700000
0
SEQEND
8
0
0
POLYLINE
8
0
66
1
40
0.016000
41
0.016000
0
VERTEX
8
0
10
-2.600000
20
3.700000
0
VERTEX
8
0
10
-0.900000
20
3.700000
0
SEQEND
8
0
0
POLYLINE
8
0
66
1
40
0.016000
41
0.016000
0
VERTEX
8
0
10
0.300000
20
2.400000
0
VERTEX
8
0
10
0.300000
20
2.300000
0
SEQEND
8
0
0
POLYLINE
8
0
66
1
40
0.016000
41
0.016000
0
VERTEX
8
0
10
0.300000
20
1.800000
0
VERTEX
8
0
10
0.300000
20
1.600000
0
SEQEND
8
0
0
POLYLINE
8
0
66
1
40
0.016000
41
0.016000
0
VERTEX
8
0
10
-0.900000
20
1.600000
0
VERTEX
8
0
10
0.300000
20
1.600000
0
SEQEND
8
0
0
POLYLINE
8
0
66
1
40
0.016000
41
0.016000
0
VERTEX
8
0
10
0.300000
20
1.500000
0
VERTEX
8
0
10
0.300000
20
1.600000
0
SEQEND
8
0
0
POLYLINE
8
0
66
1
40
0.016000
41
0.016000
0
VERTEX
8
0
10
0.300000
20
1.000000
0
VERTEX
8
0
10
0.300000
20
0.800000
0
SEQEND
8
0
0
POLYLINE
8
0
66
1
40
0.016000
41
0.016000
0
VERTEX
8
0
10
-0.900000
20
0.000000
0
VERTEX
8
0
10
-0.900000
20
-0.400000
0
SEQEND
8
0
0
POLYLINE
8
0
66
1
40
0.016000
41
0.016000
0
VERTEX
8
0
10
-2.600000
20
-0.400000
0
VERTEX
8
0
10
-0.900000
20
-0.400000
0
SEQEND
8
0
0
POLYLINE
8
0
66
1
40
0.016000
41
0.016000
0
VERTEX
8
0
10
-0.900000
20
0.600000
0
VERTEX
8
0
10
-0.900000
20
0.800000
0
SEQEND
8
0
0
POLYLINE
8
0
66
1
40
0.016000
41
0.016000
0
VERTEX
8
0
10
-0.900000
20
1.000000
0
VERTEX
8
0
10
-0.900000
20
0.800000
0
SEQEND
8
0
0
POLYLINE
8
0
66
1
40
0.016000
41
0.016000
0
VERTEX
8
0
10
-0.100000
20
0.500000
0
VERTEX
8
0
10
-0.100000
20
0.800000
0
VERTEX
8
0
10
-0.900000
20
0.800000
0
SEQEND
8
0
0
POLYLINE
8
0
66
1
40
0.016000
41
0.016000
0
VERTEX
8
0
10
1.000000
20
1.100000
0
VERTEX
8
0
10
1.000000
20
0.900000
0
SEQEND
8
0
0
POLYLINE
8
0
66
1
40
0.016000
41
0.016000
0
VERTEX
8
0
10
1.000000
20
1.500000
0
VERTEX
8
0
10
1.000000
20
1.600000
0
SEQEND
8
0
0
POLYLINE
8
0
66
1
40
0.016000
41
0.016000
0
VERTEX
8
0
10
0.300000
20
1.600000
0
VERTEX
8
0
10
1.000000
20
1.600000
0
SEQEND
8
0
0
POLYLINE
8
0
66
1
40
0.016000
41
0.016000
0
VERTEX
8
0
10
1.700000
20
1.900000
0
VERTEX
8
0
10
1.000000
20
1.900000
0
VERTEX
8
0
10
1.000000
20
1.600000
0
VERTEX
8
0
10
1.400000
20
1.600000
0
VERTEX
8
0
10
1.400000
20
1.300000
0
VERTEX
8
0
10
1.700000
20
1.300000
0
SEQEND
8
0
0
POLYLINE
8
0
66
1
40
0.016000
41
0.016000
0
VERTEX
8
0
10
2.200000
20
1.300000
0
VERTEX
8
0
10
2.300000
20
1.300000
0
VERTEX
8
0
10
2.300000
20
1.700000
0
SEQEND
8
0
0
POLYLINE
8
0
66
1
40
0.016000
41
0.016000
0
VERTEX
8
0
10
2.300000
20
1.900000
0
VERTEX
8
0
10
2.300000
20
1.700000
0
SEQEND
8
0
0
POLYLINE
8
0
66
1
40
0.016000
41
0.016000
0
VERTEX
8
0
10
2.900000
20
1.700000
0
VERTEX
8
0
10
2.300000
20
1.700000
0
SEQEND
8
0
0
POLYLINE
8
0
66
1
40
0.016000
41
0.016000
0
VERTEX
8
0
10
1.000000
20
0.400000
0
VERTEX
8
0
10
1.900000
20
0.400000
0
SEQEND
8
0
0
POLYLINE
8
0
66
1
40
0.016000
41
0.016000
0
VERTEX
8
0
10
2.900000
20
1.500000
0
VERTEX
8
0
10
2.900000
20
0.400000
0
VERTEX
8
0
10
1.900000
20
0.400000
0
SEQEND
8
0
0
POLYLINE
8
0
66
1
40
0.016000
41
0.016000
0
VERTEX
8
0
10
1.900000
20
0.300000
0
VERTEX
8
0
10
1.900000
20
0.400000
0
SEQEND
8
0
0
POLYLINE
8
0
66
1
40
0.016000
41
0.016000
0
VERTEX
8
0
10
0.300000
20
3.000000
0
VERTEX
8
0
10
0.300000
20
3.700000
0
SEQEND
8
0
0
POLYLINE
8
0
66
1
40
0.016000
41
0.016000
0
VERTEX
8
0
10
-0.900000
20
3.700000
0
VERTEX
8
0
10
0.300000
20
3.700000
0
SEQEND
8
0
0
POLYLINE
8
0
66
1
40
0.016000
41
0.016000
0
VERTEX
8
0
10
0.500000
20
3.900000
0
VERTEX
8
0
10
0.500000
20
3.700000
0
VERTEX
8
0
10
0.300000
20
3.700000
0
SEQEND
8
0
0
POLYLINE
8
0
66
1
40
0.016000
41
0.016000
0
VERTEX
8
0
10
0.300000
20
0.200000
0
VERTEX
8
0
10
0.300000
20
-0.400000
0
SEQEND
8
0
0
POLYLINE
8
0
66
1
40
0.016000
41
0.016000
0
VERTEX
8
0
10
-0.900000
20
-0.400000
0
VERTEX
8
0
10
0.300000
20
-0.400000
0
SEQEND
8
0
0
POLYLINE
8
0
66
1
40
0.016000
41
0.016000
0
VERTEX
8
0
10
0.600000
20
-0.400000
0
VERTEX
8
0
10
0.300000
20
-0.400000
0
SEQEND
8
0
0
POLYLINE
8
0
66
1
40
0.016000
41
0.016000
0
VERTEX
8
0
10
2.200000
20
3.600000
0
VERTEX
8
0
10
2.000000
20
3.600000
0
VERTEX
8
0
10
2.000000
20
3.800000
0
SEQEND
8
0
0
POLYLINE
8
0
66
1
40
0.016000
41
0.016000
0
VERTEX
8
0
10
2.200000
20
3.400000
0
VERTEX
8
0
10
2.000000
20
3.400000
0
VERTEX
8
0
10
2.000000
20
3.300000
0
SEQEND
8
0
0
POLYLINE
8
0
66
1
40
0.016000
41
0.016000
0
VERTEX
8
0
10
2.200000
20
3.500000
0
VERTEX
8
0
10
1.800000
20
3.500000
0
SEQEND
8
0
0
POLYLINE
8
0
66
1
40
0.016000
41
0.016000
0
VERTEX
8
0
10
-4.300000
20
0.400000
0
VERTEX
8
0
10
-4.300000
20
0.200000
0
SEQEND
8
0
0
POLYLINE
8
0
66
1
40
0.016000
41
0.016000
0
VERTEX
8
0
10
-6.900000
20
1.400000
0
VERTEX
8
0
10
-6.700000
20
1.400000
0
VERTEX
8
0
10
-6.700000
20
1.700000
0
VERTEX
8
0
10
-6.900000
20
1.700000
0
VERTEX
8
0
10
-6.900000
20
1.400000
0
SEQEND
8
0
0
POLYLINE
8
0
66
1
40
0.016000
41
0.016000
0
VERTEX
8
0
10
-6.770000
20
1.600000
0
VERTEX
8
0
10
-6.700000
20
1.600000
0
SEQEND
8
0
0
CIRCLE
8
0
10
-6.800000
20
1.600000
40
0.030000
0
POLYLINE
8
0
66
1
40
0.016000
41
0.016000
0
VERTEX
8
0
10
-6.770000
20
1.500000
0
VERTEX
8
0
10
-6.700000
20
1.500000
0
SEQEND
8
0
0
CIRCLE
8
0
10
-6.800000
20
1.500000
40
0.030000
0
POLYLINE
8
0
66
1
40
0.016000
41
0.016000
0
VERTEX
8
0
10
-6.500000
20
1.600000
0
VERTEX
8
0
10
-6.700000
20
1.600000
0
SEQEND
8
0
0
TEXT
8
0
10
-6.600000
20
1.610000
40
0.080000
41
1.000000
1
1
0
POLYLINE
8
0
66
1
40
0.016000
41
0.016000
0
VERTEX
8
0
10
-6.500000
20
1.500000
0
VERTEX
8
0
10
-6.700000
20
1.500000
0
SEQEND
8
0
0
TEXT
8
0
10
-6.600000
20
1.510000
40
0.080000
41
1.000000
1
2
0
TEXT
8
0
10
-6.908000
20
1.723000
40
0.120000
41
0.666667
1
J1
0
TEXT
8
0
10
-6.908000
20
1.302000
40
0.080000
41
1.000000
1
CONN-SIL2
0
POLYLINE
8
0
66
1
40
0.016000
41
0.016000
0
VERTEX
8
0
10
-6.180000
20
1.500000
0
VERTEX
8
0
10
-6.130000
20
1.500000
0
VERTEX
8
0
10
-6.130000
20
1.700000
0
VERTEX
8
0
10
-6.180000
20
1.700000
0
VERTEX
8
0
10
-6.180000
20
1.500000
0
SEQEND
8
0
0
POLYLINE
8
0
66
1
40
0.016000
41
0.016000
0
VERTEX
8
0
10
-6.070000
20
1.500000
0
VERTEX
8
0
10
-6.020000
20
1.500000
0
VERTEX
8
0
10
-6.020000
20
1.700000
0
VERTEX
8
0
10
-6.070000
20
1.700000
0
VERTEX
8
0
10
-6.070000
20
1.500000
0
SEQEND
8
0
0
POLYLINE
8
0
66
1
40
0.016000
41
0.016000
0
VERTEX
8
0
10
-6.020000
20
1.600000
0
VERTEX
8
0
10
-6.000000
20
1.600000
0
SEQEND
8
0
0
POLYLINE
8
0
66
1
40
0.016000
41
0.016000
0
VERTEX
8
0
10
-6.180000
20
1.600000
0
VERTEX
8
0
10
-6.200000
20
1.600000
0
SEQEND
8
0
0
POLYLINE
8
0
66
1
40
0.016000
41
0.016000
0
VERTEX
8
0
10
-6.070000
20
1.650000
0
VERTEX
8
0
10
-6.020000
20
1.700000
0
SEQEND
8
0
0
POLYLINE
8
0
66
1
40
0.016000
41
0.016000
0
VERTEX
8
0
10
-6.070000
20
1.600000
0
VERTEX
8
0
10
-6.020000
20
1.650000
0
SEQEND
8
0
0
POLYLINE
8
0
66
1
40
0.016000
41
0.016000
0
VERTEX
8
0
10
-6.070000
20
1.550000
0
VERTEX
8
0
10
-6.020000
20
1.600000
0
SEQEND
8
0
0
POLYLINE
8
0
66
1
40
0.016000
41
0.016000
0
VERTEX
8
0
10
-6.070000
20
1.500000
0
VERTEX
8
0
10
-6.020000
20
1.550000
0
SEQEND
8
0
0
POLYLINE
8
0
66
1
40
0.016000
41
0.016000
0
VERTEX
8
0
10
-6.300000
20
1.600000
0
VERTEX
8
0
10
-6.200000
20
1.600000
0
SEQEND
8
0
0
POLYLINE
8
0
66
1
40
0.016000
41
0.016000
0
VERTEX
8
0
10
-5.900000
20
1.600000
0
VERTEX
8
0
10
-6.000000
20
1.600000
0
SEQEND
8
0
0
TEXT
8
0
10
-6.208000
20
1.723000
40
0.120000
41
0.666667
1
C1
0
TEXT
8
0
10
-6.208000
20
1.402000
40
0.080000
41
1.000000
1
10uF
0
POLYLINE
8
0
66
1
40
0.016000
41
0.016000
0
VERTEX
8
0
10
-5.550000
20
1.650000
0
VERTEX
8
0
10
-5.500000
20
1.750000
0
VERTEX
8
0
10
-5.450000
20
1.700000
0
VERTEX
8
0
10
-5.550000
20
1.650000
0
SEQEND
8
0
0
POLYLINE
8
0
66
1
40
0.016000
41
0.016000
0
VERTEX
8
0
10
-5.600000
20
1.450000
0
VERTEX
8
0
10
-5.550000
20
1.450000
0
VERTEX
8
0
10
-5.550000
20
1.750000
0
VERTEX
8
0
10
-5.600000
20
1.750000
0
VERTEX
8
0
10
-5.600000
20
1.450000
0
SEQEND
8
0
0
POLYLINE
8
0
66
1
40
0.016000
41
0.016000
0
VERTEX
8
0
10
-5.550000
20
1.550000
0
VERTEX
8
0
10
-5.400000
20
1.400000
0
SEQEND
8
0
0
POLYLINE
8
0
66
1
40
0.016000
41
0.016000
0
VERTEX
8
0
10
-5.400000
20
1.800000
0
VERTEX
8
0
10
-5.470000
20
1.730000
0
SEQEND
8
0
0
POLYLINE
8
0
66
1
40
0.016000
41
0.016000
0
VERTEX
8
0
10
-5.600000
20
1.600000
0
VERTEX
8
0
10
-5.700000
20
1.600000
0
SEQEND
8
0
0
POLYLINE
8
0
66
1
40
0.016000
41
0.016000
0
VERTEX
8
0
10
-5.800000
20
1.600000
0
VERTEX
8
0
10
-5.700000
20
1.600000
0
SEQEND
8
0
0
TEXT
8
0
10
-5.880000
20
1.610000
40
0.080000
41
1.000000
1
3
0
POLYLINE
8
0
66
1
40
0.016000
41
0.016000
0
VERTEX
8
0
10
-5.400000
20
1.300000
0
VERTEX
8
0
10
-5.400000
20
1.400000
0
SEQEND
8
0
0
TEXT
8
0
10
-5.410000
20
1.220000
40
0.080000
41
1.000000
50
90.000000
1
2
0
POLYLINE
8
0
66
1
40
0.016000
41
0.016000
0
VERTEX
8
0
10
-5.400000
20
1.900000
0
VERTEX
8
0
10
-5.400000
20
1.800000
0
SEQEND
8
0
0
TEXT
8
0
10
-5.410000
20
1.900000
40
0.080000
41
1.000000
50
90.000000
1
1
0
TEXT
8
0
10
-5.642000
20
1.773000
40
0.120000
41
0.666667
1
Q1
0
TEXT
8
0
10
-5.542000
20
1.568000
40
0.080000
41
1.000000
1
A1015
0
POLYLINE
8
0
66
1
40
0.016000
41
0.016000
0
VERTEX
8
0
10
-4.850000
20
1.650000
0
VERTEX
8
0
10
-4.900000
20
1.750000
0
VERTEX
8
0
10
-4.950000
20
1.700000
0
VERTEX
8
0
10
-4.850000
20
1.650000
0
SEQEND
8
0
0
POLYLINE
8
0
66
1
40
0.016000
41
0.016000
0
VERTEX
8
0
10
-4.850000
20
1.450000
0
VERTEX
8
0
10
-4.800000
20
1.450000
0
VERTEX
8
0
10
-4.800000
20
1.750000
0
VERTEX
8
0
10
-4.850000
20
1.750000
0
VERTEX
8
0
10
-4.850000
20
1.450000
0
SEQEND
8
0
0
POLYLINE
8
0
66
1
40
0.016000
41
0.016000
0
VERTEX
8
0
10
-4.850000
20
1.550000
0
VERTEX
8
0
10
-5.000000
20
1.400000
0
SEQEND
8
0
0
POLYLINE
8
0
66
1
40
0.016000
41
0.016000
0
VERTEX
8
0
10
-5.000000
20
1.800000
0
VERTEX
8
0
10
-4.930000
20
1.730000
0
SEQEND
8
0
0
POLYLINE
8
0
66
1
40
0.016000
41
0.016000
0
VERTEX
8
0
10
-4.800000
20
1.600000
0
VERTEX
8
0
10
-4.700000
20
1.600000
0
SEQEND
8
0
0
POLYLINE
8
0
66
1
40
0.016000
41
0.016000
0
VERTEX
8
0
10
-4.600000
20
1.600000
0
VERTEX
8
0
10
-4.700000
20
1.600000
0
SEQEND
8
0
0
TEXT
8
0
10
-4.600000
20
1.610000
40
0.080000
41
1.000000
1
3
0
POLYLINE
8
0
66
1
40
0.016000
41
0.016000
0
VERTEX
8
0
10
-5.000000
20
1.300000
0
VERTEX
8
0
10
-5.000000
20
1.400000
0
SEQEND
8
0
0
TEXT
8
0
10
-5.010000
20
1.220000
40
0.080000
41
1.000000
50
90.000000
1
2
0
POLYLINE
8
0
66
1
40
0.016000
41
0.016000
0
VERTEX
8
0
10
-5.000000
20
1.900000
0
VERTEX
8
0
10
-5.000000
20
1.800000
0
SEQEND
8
0
0
TEXT
8
0
10
-5.010000
20
1.900000
40
0.080000
41
1.000000
50
90.000000
1
1
0
TEXT
8
0
10
-4.791996
20
1.723000
40
0.120000
41
0.666667
1
Q2
0
TEXT
8
0
10
-4.791996
20
1.402000
40
0.080000
41
1.000000
1
A1015
0
POLYLINE
8
0
66
1
40
0.016000
41
0.016000
0
VERTEX
8
0
10
-5.440000
20
-0.300000
0
VERTEX
8
0
10
-5.360000
20
-0.300000
0
VERTEX
8
0
10
-5.360000
20
0.000000
0
VERTEX
8
0
10
-5.440000
20
0.000000
0
VERTEX
8
0
10
-5.440000
20
-0.300000
0
SEQEND
8
0
0
POLYLINE
8
0
66
1
40
0.016000
41
0.016000
0
VERTEX
8
0
10
-5.400000
20
-0.400000
0
VERTEX
8
0
10
-5.400000
20
-0.300000
0
SEQEND
8
0
0
POLYLINE
8
0
66
1
40
0.016000
41
0.016000
0
VERTEX
8
0
10
-5.400000
20
0.100000
0
VERTEX
8
0
10
-5.400000
20
0.000000
0
SEQEND
8
0
0
TEXT
8
0
10
-5.302000
20
-0.127000
40
0.120000
41
0.666667
1
R3
0
TEXT
8
0
10
-5.302000
20
-0.232000
40
0.080000
41
1.000000
1
680
0
POLYLINE
8
0
66
1
40
0.016000
41
0.016000
0
VERTEX
8
0
10
-5.240000
20
2.200000
0
VERTEX
8
0
10
-5.160000
20
2.200000
0
VERTEX
8
0
10
-5.160000
20
2.500000
0
VERTEX
8
0
10
-5.240000
20
2.500000
0
VERTEX
8
0
10
-5.240000
20
2.200000
0
SEQEND
8
0
0
POLYLINE
8
0
66
1
40
0.016000
41
0.016000
0
VERTEX
8
0
10
-5.200000
20
2.100000
0
VERTEX
8
0
10
-5.200000
20
2.200000
0
SEQEND
8
0
0
POLYLINE
8
0
66
1
40
0.016000
41
0.016000
0
VERTEX
8
0
10
-5.200000
20
2.600000
0
VERTEX
8
0
10
-5.200000
20
2.500000
0
SEQEND
8
0
0
TEXT
8
0
10
-5.102000
20
2.373000
40
0.120000
41
0.666667
1
R2
0
TEXT
8
0
10
-5.102000
20
2.268000
40
0.080000
41
1.000000
1
5.6k
0
CIRCLE
8
0
10
-5.200000
20
1.900000
40
0.020000
0
POLYLINE
8
0
66
1
40
0.016000
41
0.016000
0
VERTEX
8
0
10
-5.800000
20
2.430000
0
VERTEX
8
0
10
-5.600000
20
2.430000
0
VERTEX
8
0
10
-5.600000
20
2.480000
0
VERTEX
8
0
10
-5.800000
20
2.480000
0
VERTEX
8
0
10
-5.800000
20
2.430000
0
SEQEND
8
0
0
POLYLINE
8
0
66
1
40
0.016000
41
0.016000
0
VERTEX
8
0
10
-5.800000
20
2.320000
0
VERTEX
8
0
10
-5.600000
20
2.320000
0
VERTEX
8
0
10
-5.600000
20
2.370000
0
VERTEX
8
0
10
-5.800000
20
2.370000
0
VERTEX
8
0
10
-5.800000
20
2.320000
0
SEQEND
8
0
0
POLYLINE
8
0
66
1
40
0.016000
41
0.016000
0
VERTEX
8
0
10
-5.700000
20
2.320000
0
VERTEX
8
0
10
-5.700000
20
2.300000
0
SEQEND
8
0
0
POLYLINE
8
0
66
1
40
0.016000
41
0.016000
0
VERTEX
8
0
10
-5.700000
20
2.480000
0
VERTEX
8
0
10
-5.700000
20
2.500000
0
SEQEND
8
0
0
POLYLINE
8
0
66
1
40
0.016000
41
0.016000
0
VERTEX
8
0
10
-5.650000
20
2.370000
0
VERTEX
8
0
10
-5.600000
20
2.320000
0
SEQEND
8
0
0
POLYLINE
8
0
66
1
40
0.016000
41
0.016000
0
VERTEX
8
0
10
-5.700000
20
2.370000
0
VERTEX
8
0
10
-5.650000
20
2.320000
0
SEQEND
8
0
0
POLYLINE
8
0
66
1
40
0.016000
41
0.016000
0
VERTEX
8
0
10
-5.750000
20
2.370000
0
VERTEX
8
0
10
-5.700000
20
2.320000
0
SEQEND
8
0
0
POLYLINE
8
0
66
1
40
0.016000
41
0.016000
0
VERTEX
8
0
10
-5.800000
20
2.370000
0
VERTEX
8
0
10
-5.750000
20
2.320000
0
SEQEND
8
0
0
POLYLINE
8
0
66
1
40
0.016000
41
0.016000
0
VERTEX
8
0
10
-5.700000
20
2.600000
0
VERTEX
8
0
10
-5.700000
20
2.500000
0
SEQEND
8
0
0
POLYLINE
8
0
66
1
40
0.016000
41
0.016000
0
VERTEX
8
0
10
-5.700000
20
2.200000
0
VERTEX
8
0
10
-5.700000
20
2.300000
0
SEQEND
8
0
0
TEXT
8
0
10
-5.542000
20
2.373000
40
0.120000
41
0.666667
1
C2
0
TEXT
8
0
10
-5.542000
20
2.268000
40
0.080000
41
1.000000
1
100uF
0
POLYLINE
8
0
66
1
40
0.016000
41
0.016000
0
VERTEX
8
0
10
-4.800000
20
2.400000
0
VERTEX
8
0
10
-4.600000
20
2.400000
0
VERTEX
8
0
10
-4.700000
20
2.500000
0
VERTEX
8
0
10
-4.800000
20
2.400000
0
SEQEND
8
0
0
POLYLINE
8
0
66
1
40
0.016000
41
0.016000
0
VERTEX
8
0
10
-4.800000
20
2.550000
0
VERTEX
8
0
10
-4.800000
20
2.500000
0
VERTEX
8
0
10
-4.600000
20
2.500000
0
VERTEX
8
0
10
-4.600000
20
2.450000
0
SEQEND
8
0
0
POLYLINE
8
0
66
1
40
0.016000
41
0.016000
0
VERTEX
8
0
10
-4.700000
20
2.600000
0
VERTEX
8
0
10
-4.700000
20
2.500000
0
SEQEND
8
0
0
POLYLINE
8
0
66
1
40
0.016000
41
0.016000
0
VERTEX
8
0
10
-4.700000
20
2.300000
0
VERTEX
8
0
10
-4.700000
20
2.400000
0
SEQEND
8
0
0
TEXT
8
0
10
-4.542000
20
2.423000
40
0.120000
41
0.666667
1
DZ
0
TEXT
8
0
10
-4.542000
20
2.318000
40
0.080000
41
1.000000
1
DIODE-SC
0
CIRCLE
8
0
10
-5.200000
20
2.600000
40
0.020000
0
POLYLINE
8
0
66
1
40
0.016000
41
0.016000
0
VERTEX
8
0
10
-5.240000
20
2.800000
0
VERTEX
8
0
10
-5.160000
20
2.800000
0
VERTEX
8
0
10
-5.160000
20
3.100000
0
VERTEX
8
0
10
-5.240000
20
3.100000
0
VERTEX
8
0
10
-5.240000
20
2.800000
0
SEQEND
8
0
0
POLYLINE
8
0
66
1
40
0.016000
41
0.016000
0
VERTEX
8
0
10
-5.200000
20
2.700000
0
VERTEX
8
0
10
-5.200000
20
2.800000
0
SEQEND
8
0
0
POLYLINE
8
0
66
1
40
0.016000
41
0.016000
0
VERTEX
8
0
10
-5.200000
20
3.200000
0
VERTEX
8
0
10
-5.200000
20
3.100000
0
SEQEND
8
0
0
TEXT
8
0
10
-5.102000
20
2.973000
40
0.120000
41
0.666667
1
R9
0
TEXT
8
0
10
-5.102000
20
2.868000
40
0.080000
41
1.000000
1
5.6k
0
POLYLINE
8
0
66
1
40
0.016000
41
0.016000
0
VERTEX
8
0
10
-5.700000
20
2.100000
0
VERTEX
8
0
10
-5.700000
20
2.000000
0
SEQEND
8
0
0
POLYLINE
8
0
66
1
40
0.016000
41
0.016000
0
VERTEX
8
0
10
-5.800000
20
2.000000
0
VERTEX
8
0
10
-5.600000
20
2.000000
0
SEQEND
8
0
0
POLYLINE
8
0
66
1
40
0.016000
41
0.016000
0
VERTEX
8
0
10
-5.750000
20
1.950000
0
VERTEX
8
0
10
-5.650000
20
1.950000
0
SEQEND
8
0
0
POLYLINE
8
0
66
1
40
0.016000
41
0.016000
0
VERTEX
8
0
10
-5.710000
20
1.900000
0
VERTEX
8
0
10
-5.690000
20
1.900000
0
SEQEND
8
0
0
POLYLINE
8
0
66
1
40
0.016000
41
0.016000
0
VERTEX
8
0
10
-4.700000
20
2.200000
0
VERTEX
8
0
10
-4.700000
20
2.100000
0
SEQEND
8
0
0
POLYLINE
8
0
66
1
40
0.016000
41
0.016000
0
VERTEX
8
0
10
-4.800000
20
2.100000
0
VERTEX
8
0
10
-4.600000
20
2.100000
0
SEQEND
8
0
0
POLYLINE
8
0
66
1
40
0.016000
41
0.016000
0
VERTEX
8
0
10
-4.750000
20
2.050000
0
VERTEX
8
0
10
-4.650000
20
2.050000
0
SEQEND
8
0
0
POLYLINE
8
0
66
1
40
0.016000
41
0.016000
0
VERTEX
8
0
10
-4.710000
20
2.000000
0
VERTEX
8
0
10
-4.690000
20
2.000000
0
SEQEND
8
0
0
POLYLINE
8
0
66
1
40
0.016000
41
0.016000
0
VERTEX
8
0
10
-6.500000
20
1.300000
0
VERTEX
8
0
10
-6.500000
20
1.200000
0
SEQEND
8
0
0
POLYLINE
8
0
66
1
40
0.016000
41
0.016000
0
VERTEX
8
0
10
-6.600000
20
1.200000
0
VERTEX
8
0
10
-6.400000
20
1.200000
0
SEQEND
8
0
0
POLYLINE
8
0
66
1
40
0.016000
41
0.016000
0
VERTEX
8
0
10
-6.550000
20
1.150000
0
VERTEX
8
0
10
-6.450000
20
1.150000
0
SEQEND
8
0
0
POLYLINE
8
0
66
1
40
0.016000
41
0.016000
0
VERTEX
8
0
10
-6.510000
20
1.100000
0
VERTEX
8
0
10
-6.490000
20
1.100000
0
SEQEND
8
0
0
POLYLINE
8
0
66
1
40
0.016000
41
0.016000
0
VERTEX
8
0
10
-5.840000
20
1.100000
0
VERTEX
8
0
10
-5.760000
20
1.100000
0
VERTEX
8
0
10
-5.760000
20
1.400000
0
VERTEX
8
0
10
-5.840000
20
1.400000
0
VERTEX
8
0
10
-5.840000
20
1.100000
0
SEQEND
8
0
0
POLYLINE
8
0
66
1
40
0.016000
41
0.016000
0
VERTEX
8
0
10
-5.800000
20
1.500000
0
VERTEX
8
0
10
-5.800000
20
1.400000
0
SEQEND
8
0
0
POLYLINE
8
0
66
1
40
0.016000
41
0.016000
0
VERTEX
8
0
10
-5.800000
20
1.000000
0
VERTEX
8
0
10
-5.800000
20
1.100000
0
SEQEND
8
0
0
TEXT
8
0
10
-5.702000
20
1.273000
40
0.120000
41
0.666667
1
R1
0
TEXT
8
0
10
-5.702000
20
1.168000
40
0.080000
41
1.000000
1
10k
0
POLYLINE
8
0
66
1
40
0.016000
41
0.016000
0
VERTEX
8
0
10
-5.800000
20
0.900000
0
VERTEX
8
0
10
-5.800000
20
0.800000
0
SEQEND
8
0
0
POLYLINE
8
0
66
1
40
0.016000
41
0.016000
0
VERTEX
8
0
10
-5.900000
20
0.800000
0
VERTEX
8
0
10
-5.700000
20
0.800000
0
SEQEND
8
0
0
POLYLINE
8
0
66
1
40
0.016000
41
0.016000
0
VERTEX
8
0
10
-5.850000
20
0.750000
0
VERTEX
8
0
10
-5.750000
20
0.750000
0
SEQEND
8
0
0
POLYLINE
8
0
66
1
40
0.016000
41
0.016000
0
VERTEX
8
0
10
-5.810000
20
0.700000
0
VERTEX
8
0
10
-5.790000
20
0.700000
0
SEQEND
8
0
0
CIRCLE
8
0
10
-5.800000
20
1.600000
40
0.020000
0
POLYLINE
8
0
66
1
40
0.016000
41
0.016000
0
VERTEX
8
0
10
-3.900000
20
1.560000
0
VERTEX
8
0
10
-3.600000
20
1.560000
0
VERTEX
8
0
10
-3.600000
20
1.640000
0
VERTEX
8
0
10
-3.900000
20
1.640000
0
VERTEX
8
0
10
-3.900000
20
1.560000
0
SEQEND
8
0
0
POLYLINE
8
0
66
1
40
0.016000
41
0.016000
0
VERTEX
8
0
10
-3.500000
20
1.600000
0
VERTEX
8
0
10
-3.600000
20
1.600000
0
SEQEND
8
0
0
POLYLINE
8
0
66
1
40
0.016000
41
0.016000
0
VERTEX
8
0
10
-4.000000
20
1.600000
0
VERTEX
8
0
10
-3.900000
20
1.600000
0
SEQEND
8
0
0
TEXT
8
0
10
-3.908000
20
1.663000
40
0.120000
41
0.666667
1
R5
0
TEXT
8
0
10
-3.908000
20
1.462000
40
0.080000
41
1.000000
1
10k
0
POLYLINE
8
0
66
1
40
0.016000
41
0.016000
0
VERTEX
8
0
10
-4.400000
20
1.230000
0
VERTEX
8
0
10
-4.200000
20
1.230000
0
VERTEX
8
0
10
-4.200000
20
1.280000
0
VERTEX
8
0
10
-4.400000
20
1.280000
0
VERTEX
8
0
10
-4.400000
20
1.230000
0
SEQEND
8
0
0
POLYLINE
8
0
66
1
40
0.016000
41
0.016000
0
VERTEX
8
0
10
-4.400000
20
1.120000
0
VERTEX
8
0
10
-4.200000
20
1.120000
0
VERTEX
8
0
10
-4.200000
20
1.170000
0
VERTEX
8
0
10
-4.400000
20
1.170000
0
VERTEX
8
0
10
-4.400000
20
1.120000
0
SEQEND
8
0
0
POLYLINE
8
0
66
1
40
0.016000
41
0.016000
0
VERTEX
8
0
10
-4.300000
20
1.120000
0
VERTEX
8
0
10
-4.300000
20
1.100000
0
SEQEND
8
0
0
POLYLINE
8
0
66
1
40
0.016000
41
0.016000
0
VERTEX
8
0
10
-4.300000
20
1.280000
0
VERTEX
8
0
10
-4.300000
20
1.300000
0
SEQEND
8
0
0
POLYLINE
8
0
66
1
40
0.016000
41
0.016000
0
VERTEX
8
0
10
-4.250000
20
1.170000
0
VERTEX
8
0
10
-4.200000
20
1.120000
0
SEQEND
8
0
0
POLYLINE
8
0
66
1
40
0.016000
41
0.016000
0
VERTEX
8
0
10
-4.300000
20
1.170000
0
VERTEX
8
0
10
-4.250000
20
1.120000
0
SEQEND
8
0
0
POLYLINE
8
0
66
1
40
0.016000
41
0.016000
0
VERTEX
8
0
10
-4.350000
20
1.170000
0
VERTEX
8
0
10
-4.300000
20
1.120000
0
SEQEND
8
0
0
POLYLINE
8
0
66
1
40
0.016000
41
0.016000
0
VERTEX
8
0
10
-4.400000
20
1.170000
0
VERTEX
8
0
10
-4.350000
20
1.120000
0
SEQEND
8
0
0
POLYLINE
8
0
66
1
40
0.016000
41
0.016000
0
VERTEX
8
0
10
-4.300000
20
1.400000
0
VERTEX
8
0
10
-4.300000
20
1.300000
0
SEQEND
8
0
0
POLYLINE
8
0
66
1
40
0.016000
41
0.016000
0
VERTEX
8
0
10
-4.300000
20
1.000000
0
VERTEX
8
0
10
-4.300000
20
1.100000
0
SEQEND
8
0
0
TEXT
8
0
10
-4.142000
20
1.173000
40
0.120000
41
0.666667
1
C3
0
TEXT
8
0
10
-4.142000
20
1.068000
40
0.080000
41
1.000000
1
47uF
0
CIRCLE
8
0
10
-4.300000
20
1.600000
40
0.020000
0
POLYLINE
8
0
66
1
40
0.016000
41
0.016000
0
VERTEX
8
0
10
-4.340000
20
0.500000
0
VERTEX
8
0
10
-4.260000
20
0.500000
0
VERTEX
8
0
10
-4.260000
20
0.800000
0
VERTEX
8
0
10
-4.340000
20
0.800000
0
VERTEX
8
0
10
-4.340000
20
0.500000
0
SEQEND
8
0
0
POLYLINE
8
0
66
1
40
0.016000
41
0.016000
0
VERTEX
8
0
10
-4.300000
20
0.900000
0
VERTEX
8
0
10
-4.300000
20
0.800000
0
SEQEND
8
0
0
POLYLINE
8
0
66
1
40
0.016000
41
0.016000
0
VERTEX
8
0
10
-4.300000
20
0.400000
0
VERTEX
8
0
10
-4.300000
20
0.500000
0
SEQEND
8
0
0
TEXT
8
0
10
-4.202000
20
0.673000
40
0.120000
41
0.666667
1
R6
0
TEXT
8
0
10
-4.202000
20
0.568000
40
0.080000
41
1.000000
1
680
0
POLYLINE
8
0
66
1
40
0.016000
41
0.016000
0
VERTEX
8
0
10
-2.640000
20
3.300000
0
VERTEX
8
0
10
-2.560000
20
3.300000
0
VERTEX
8
0
10
-2.560000
20
3.600000
0
VERTEX
8
0
10
-2.640000
20
3.600000
0
VERTEX
8
0
10
-2.640000
20
3.300000
0
SEQEND
8
0
0
POLYLINE
8
0
66
1
40
0.016000
41
0.016000
0
VERTEX
8
0
10
-2.600000
20
3.700000
0
VERTEX
8
0
10
-2.600000
20
3.600000
0
SEQEND
8
0
0
POLYLINE
8
0
66
1
40
0.016000
41
0.016000
0
VERTEX
8
0
10
-2.600000
20
3.200000
0
VERTEX
8
0
10
-2.600000
20
3.300000
0
SEQEND
8
0
0
TEXT
8
0
10
-2.502000
20
3.473000
40
0.120000
41
0.666667
1
R7
0
TEXT
8
0
10
-2.502000
20
3.368000
40
0.080000
41
1.000000
1
2.2k
0
POLYLINE
8
0
66
1
40
0.016000
41
0.016000
0
VERTEX
8
0
10
-2.640000
20
2.800000
0
VERTEX
8
0
10
-2.560000
20
2.800000
0
VERTEX
8
0
10
-2.560000
20
3.100000
0
VERTEX
8
0
10
-2.640000
20
3.100000
0
VERTEX
8
0
10
-2.640000
20
2.800000
0
SEQEND
8
0
0
POLYLINE
8
0
66
1
40
0.016000
41
0.016000
0
VERTEX
8
0
10
-2.600000
20
3.200000
0
VERTEX
8
0
10
-2.600000
20
3.100000
0
SEQEND
8
0
0
POLYLINE
8
0
66
1
40
0.016000
41
0.016000
0
VERTEX
8
0
10
-2.600000
20
2.700000
0
VERTEX
8
0
10
-2.600000
20
2.800000
0
SEQEND
8
0
0
TEXT
8
0
10
-2.502000
20
2.973000
40
0.120000
41
0.666667
1
R8
0
TEXT
8
0
10
-2.502000
20
2.868000
40
0.080000
41
1.000000
1
2.2k
0
POLYLINE
8
0
66
1
40
0.016000
41
0.016000
0
VERTEX
8
0
10
-2.500000
20
2.500000
0
VERTEX
8
0
10
-2.700000
20
2.500000
0
VERTEX
8
0
10
-2.600000
20
2.400000
0
VERTEX
8
0
10
-2.500000
20
2.500000
0
SEQEND
8
0
0
POLYLINE
8
0
66
1
40
0.016000
41
0.016000
0
VERTEX
8
0
10
-2.500000
20
2.400000
0
VERTEX
8
0
10
-2.700000
20
2.400000
0
SEQEND
8
0
0
POLYLINE
8
0
66
1
40
0.016000
41
0.016000
0
VERTEX
8
0
10
-2.600000
20
2.600000
0
VERTEX
8
0
10
-2.600000
20
2.500000
0
SEQEND
8
0
0
POLYLINE
8
0
66
1
40
0.016000
41
0.016000
0
VERTEX
8
0
10
-2.600000
20
2.300000
0
VERTEX
8
0
10
-2.600000
20
2.400000
0
SEQEND
8
0
0
TEXT
8
0
10
-2.442000
20
2.373000
40
0.120000
41
0.666667
1
D1
0
TEXT
8
0
10
-2.442000
20
2.268000
40
0.080000
41
1.000000
1
DIODE
0
POLYLINE
8
0
66
1
40
0.016000
41
0.016000
0
VERTEX
8
0
10
-2.500000
20
2.100000
0
VERTEX
8
0
10
-2.700000
20
2.100000
0
VERTEX
8
0
10
-2.600000
20
2.000000
0
VERTEX
8
0
10
-2.500000
20
2.100000
0
SEQEND
8
0
0
POLYLINE
8
0
66
1
40
0.016000
41
0.016000
0
VERTEX
8
0
10
-2.500000
20
2.000000
0
VERTEX
8
0
10
-2.700000
20
2.000000
0
SEQEND
8
0
0
POLYLINE
8
0
66
1
40
0.016000
41
0.016000
0
VERTEX
8
0
10
-2.600000
20
2.200000
0
VERTEX
8
0
10
-2.600000
20
2.100000
0
SEQEND
8
0
0
POLYLINE
8
0
66
1
40
0.016000
41
0.016000
0
VERTEX
8
0
10
-2.600000
20
1.900000
0
VERTEX
8
0
10
-2.600000
20
2.000000
0
SEQEND
8
0
0
TEXT
8
0
10
-2.442000
20
1.973000
40
0.120000
41
0.666667
1
D2
0
TEXT
8
0
10
-2.442000
20
1.868000
40
0.080000
41
1.000000
1
DIODE
0
POLYLINE
8
0
66
1
40
0.016000
41
0.016000
0
VERTEX
8
0
10
-3.300000
20
2.830000
0
VERTEX
8
0
10
-3.100000
20
2.830000
0
VERTEX
8
0
10
-3.100000
20
2.880000
0
VERTEX
8
0
10
-3.300000
20
2.880000
0
VERTEX
8
0
10
-3.300000
20
2.830000
0
SEQEND
8
0
0
POLYLINE
8
0
66
1
40
0.016000
41
0.016000
0
VERTEX
8
0
10
-3.300000
20
2.720000
0
VERTEX
8
0
10
-3.100000
20
2.720000
0
VERTEX
8
0
10
-3.100000
20
2.770000
0
VERTEX
8
0
10
-3.300000
20
2.770000
0
VERTEX
8
0
10
-3.300000
20
2.720000
0
SEQEND
8
0
0
POLYLINE
8
0
66
1
40
0.016000
41
0.016000
0
VERTEX
8
0
10
-3.200000
20
2.720000
0
VERTEX
8
0
10
-3.200000
20
2.700000
0
SEQEND
8
0
0
POLYLINE
8
0
66
1
40
0.016000
41
0.016000
0
VERTEX
8
0
10
-3.200000
20
2.880000
0
VERTEX
8
0
10
-3.200000
20
2.900000
0
SEQEND
8
0
0
POLYLINE
8
0
66
1
40
0.016000
41
0.016000
0
VERTEX
8
0
10
-3.150000
20
2.770000
0
VERTEX
8
0
10
-3.100000
20
2.720000
0
SEQEND
8
0
0
POLYLINE
8
0
66
1
40
0.016000
41
0.016000
0
VERTEX
8
0
10
-3.200000
20
2.770000
0
VERTEX
8
0
10
-3.150000
20
2.720000
0
SEQEND
8
0
0
POLYLINE
8
0
66
1
40
0.016000
41
0.016000
0
VERTEX
8
0
10
-3.250000
20
2.770000
0
VERTEX
8
0
10
-3.200000
20
2.720000
0
SEQEND
8
0
0
POLYLINE
8
0
66
1
40
0.016000
41
0.016000
0
VERTEX
8
0
10
-3.300000
20
2.770000
0
VERTEX
8
0
10
-3.250000
20
2.720000
0
SEQEND
8
0
0
POLYLINE
8
0
66
1
40
0.016000
41
0.016000
0
VERTEX
8
0
10
-3.200000
20
3.000000
0
VERTEX
8
0
10
-3.200000
20
2.900000
0
SEQEND
8
0
0
POLYLINE
8
0
66
1
40
0.016000
41
0.016000
0
VERTEX
8
0
10
-3.200000
20
2.600000
0
VERTEX
8
0
10
-3.200000
20
2.700000
0
SEQEND
8
0
0
TEXT
8
0
10
-3.042000
20
2.773000
40
0.120000
41
0.666667
1
C4
0
TEXT
8
0
10
-3.042000
20
2.668000
40
0.080000
41
1.000000
1
100uF
0
CIRCLE
8
0
10
-2.600000
20
3.200000
40
0.020000
0
POLYLINE
8
0
66
1
40
0.016000
41
0.016000
0
VERTEX
8
0
10
-1.940000
20
2.050000
0
VERTEX
8
0
10
-1.860000
20
2.050000
0
VERTEX
8
0
10
-1.860000
20
2.350000
0
VERTEX
8
0
10
-1.940000
20
2.350000
0
VERTEX
8
0
10
-1.940000
20
2.050000
0
SEQEND
8
0
0
POLYLINE
8
0
66
1
40
0.016000
41
0.016000
0
VERTEX
8
0
10
-1.900000
20
2.400000
0
VERTEX
8
0
10
-1.900000
20
2.350000
0
SEQEND
8
0
0
POLYLINE
8
0
66
1
40
0.016000
41
0.016000
0
VERTEX
8
0
10
-1.900000
20
2.050000
0
VERTEX
8
0
10
-1.900000
20
2.000000
0
SEQEND
8
0
0
POLYLINE
8
0
66
1
40
0.016000
41
0.016000
0
VERTEX
8
0
10
-1.850000
20
2.230000
0
VERTEX
8
0
10
-1.820000
20
2.250000
0
SEQEND
8
0
0
POLYLINE
8
0
66
1
40
0.016000
41
0.016000
0
VERTEX
8
0
10
-1.850000
20
2.230000
0
VERTEX
8
0
10
-1.820000
20
2.210000
0
SEQEND
8
0
0
POLYLINE
8
0
66
1
40
0.016000
41
0.016000
0
VERTEX
8
0
10
-1.850000
20
2.230000
0
VERTEX
8
0
10
-1.800000
20
2.230000
0
VERTEX
8
0
10
-1.800000
20
2.200000
0
SEQEND
8
0
0
TEXT
8
1
10
-1.872000
20
2.116000
40
0.056000
41
1.000000
50
90.000000
1
59%
0
POLYLINE
8
0
66
1
40
0.016000
41
0.016000
0
VERTEX
8
0
10
-1.900000
20
1.900000
0
VERTEX
8
0
10
-1.900000
20
2.000000
0
SEQEND
8
0
0
TEXT
8
0
10
-1.910000
20
1.820000
40
0.080000
41
1.000000
50
90.000000
1
1
0
POLYLINE
8
0
66
1
40
0.016000
41
0.016000
0
VERTEX
8
0
10
-1.900000
20
2.500000
0
VERTEX
8
0
10
-1.900000
20
2.400000
0
SEQEND
8
0
0
TEXT
8
0
10
-1.910000
20
2.500000
40
0.080000
41
1.000000
50
90.000000
1
3
0
POLYLINE
8
0
66
1
40
0.016000
41
0.016000
0
VERTEX
8
0
10
-1.700000
20
2.200000
0
VERTEX
8
0
10
-1.800000
20
2.200000
0
SEQEND
8
0
0
TEXT
8
0
10
-1.700000
20
2.110000
40
0.080000
41
1.000000
1
2
0
CIRCLE
8
0
10
-2.020000
20
2.310000
40
0.040000
0
POLYLINE
8
0
66
1
40
0.008000
41
0.008000
0
VERTEX
8
0
10
-2.020000
20
2.330000
0
VERTEX
8
0
10
-2.030000
20
2.320000
0
SEQEND
8
0
0
POLYLINE
8
0
66
1
40
0.008000
41
0.008000
0
VERTEX
8
0
10
-2.020000
20
2.330000
0
VERTEX
8
0
10
-2.010000
20
2.320000
0
SEQEND
8
0
0
POLYLINE
8
0
66
1
40
0.008000
41
0.008000
0
VERTEX
8
0
10
-2.020000
20
2.330000
0
VERTEX
8
0
10
-2.020000
20
2.290000
0
SEQEND
8
0
0
CIRCLE
8
0
10
-2.020000
20
2.090000
40
0.040000
0
POLYLINE
8
0
66
1
40
0.008000
41
0.008000
0
VERTEX
8
0
10
-2.020000
20
2.070000
0
VERTEX
8
0
10
-2.030000
20
2.080000
0
SEQEND
8
0
0
POLYLINE
8
0
66
1
40
0.008000
41
0.008000
0
VERTEX
8
0
10
-2.020000
20
2.070000
0
VERTEX
8
0
10
-2.010000
20
2.080000
0
SEQEND
8
0
0
POLYLINE
8
0
66
1
40
0.008000
41
0.008000
0
VERTEX
8
0
10
-2.020000
20
2.070000
0
VERTEX
8
0
10
-2.020000
20
2.110000
0
SEQEND
8
0
0
TEXT
8
0
10
-1.791996
20
2.523000
40
0.120000
41
0.666667
1
RV1
0
TEXT
8
0
10
-1.891996
20
1.902000
40
0.080000
41
1.000000
1
50K
0
CIRCLE
8
0
10
-1.900000
20
1.800000
40
0.020000
0
CIRCLE
8
0
10
-2.600000
20
2.700000
40
0.020000
0
POLYLINE
8
0
66
1
40
0.016000
41
0.016000
0
VERTEX
8
0
10
-2.500000
20
1.400000
0
VERTEX
8
0
10
-2.700000
20
1.400000
0
VERTEX
8
0
10
-2.600000
20
1.300000
0
VERTEX
8
0
10
-2.500000
20
1.400000
0
SEQEND
8
0
0
POLYLINE
8
0
66
1
40
0.016000
41
0.016000
0
VERTEX
8
0
10
-2.500000
20
1.300000
0
VERTEX
8
0
10
-2.700000
20
1.300000
0
SEQEND
8
0
0
POLYLINE
8
0
66
1
40
0.016000
41
0.016000
0
VERTEX
8
0
10
-2.600000
20
1.500000
0
VERTEX
8
0
10
-2.600000
20
1.400000
0
SEQEND
8
0
0
POLYLINE
8
0
66
1
40
0.016000
41
0.016000
0
VERTEX
8
0
10
-2.600000
20
1.200000
0
VERTEX
8
0
10
-2.600000
20
1.300000
0
SEQEND
8
0
0
TEXT
8
0
10
-2.442000
20
1.273000
40
0.120000
41
0.666667
1
D3
0
TEXT
8
0
10
-2.442000
20
1.168000
40
0.080000
41
1.000000
1
DIODE
0
CIRCLE
8
0
10
-2.600000
20
1.800000
40
0.020000
0
POLYLINE
8
0
66
1
40
0.016000
41
0.016000
0
VERTEX
8
0
10
-2.500000
20
1.000000
0
VERTEX
8
0
10
-2.700000
20
1.000000
0
VERTEX
8
0
10
-2.600000
20
0.900000
0
VERTEX
8
0
10
-2.500000
20
1.000000
0
SEQEND
8
0
0
POLYLINE
8
0
66
1
40
0.016000
41
0.016000
0
VERTEX
8
0
10
-2.500000
20
0.900000
0
VERTEX
8
0
10
-2.700000
20
0.900000
0
SEQEND
8
0
0
POLYLINE
8
0
66
1
40
0.016000
41
0.016000
0
VERTEX
8
0
10
-2.600000
20
1.100000
0
VERTEX
8
0
10
-2.600000
20
1.000000
0
SEQEND
8
0
0
POLYLINE
8
0
66
1
40
0.016000
41
0.016000
0
VERTEX
8
0
10
-2.600000
20
0.800000
0
VERTEX
8
0
10
-2.600000
20
0.900000
0
SEQEND
8
0
0
TEXT
8
0
10
-2.442000
20
0.873000
40
0.120000
41
0.666667
1
D4
0
TEXT
8
0
10
-2.442000
20
0.768000
40
0.080000
41
1.000000
1
DIODE
0
POLYLINE
8
0
66
1
40
0.016000
41
0.016000
0
VERTEX
8
0
10
-2.600000
20
0.100000
0
VERTEX
8
0
10
-2.700000
20
0.150000
0
VERTEX
8
0
10
-2.650000
20
0.200000
0
VERTEX
8
0
10
-2.600000
20
0.100000
0
SEQEND
8
0
0
POLYLINE
8
0
66
1
40
0.016000
41
0.016000
0
VERTEX
8
0
10
-2.800000
20
0.150000
0
VERTEX
8
0
10
-2.750000
20
0.150000
0
VERTEX
8
0
10
-2.750000
20
0.450000
0
VERTEX
8
0
10
-2.800000
20
0.450000
0
VERTEX
8
0
10
-2.800000
20
0.150000
0
SEQEND
8
0
0
POLYLINE
8
0
66
1
40
0.016000
41
0.016000
0
VERTEX
8
0
10
-2.750000
20
0.350000
0
VERTEX
8
0
10
-2.600000
20
0.500000
0
SEQEND
8
0
0
POLYLINE
8
0
66
1
40
0.016000
41
0.016000
0
VERTEX
8
0
10
-2.750000
20
0.250000
0
VERTEX
8
0
10
-2.680000
20
0.180000
0
SEQEND
8
0
0
POLYLINE
8
0
66
1
40
0.016000
41
0.016000
0
VERTEX
8
0
10
-2.900000
20
0.300000
0
VERTEX
8
0
10
-2.800000
20
0.300000
0
SEQEND
8
0
0
TEXT
8
0
10
-2.980000
20
0.310000
40
0.080000
41
1.000000
1
3
0
POLYLINE
8
0
66
1
40
0.016000
41
0.016000
0
VERTEX
8
0
10
-2.600000
20
0.600000
0
VERTEX
8
0
10
-2.600000
20
0.500000
0
SEQEND
8
0
0
TEXT
8
0
10
-2.610000
20
0.600000
40
0.080000
41
1.000000
50
90.000000
1
2
0
POLYLINE
8
0
66
1
40
0.016000
41
0.016000
0
VERTEX
8
0
10
-2.600000
20
0.000000
0
VERTEX
8
0
10
-2.600000
20
0.100000
0
SEQEND
8
0
0
TEXT
8
0
10
-2.610000
20
-0.080000
40
0.080000
41
1.000000
50
90.000000
1
1
0
TEXT
8
0
10
-2.542000
20
0.373000
40
0.120000
41
0.666667
1
Q3
0
TEXT
8
0
10
-2.542000
20
0.268000
40
0.080000
41
1.000000
1
C1815
0
CIRCLE
8
0
10
-5.000000
20
-0.400000
40
0.020000
0
CIRCLE
8
0
10
-5.400000
20
0.300000
40
0.020000
0
POLYLINE
8
0
66
1
40
0.016000
41
0.016000
0
VERTEX
8
0
10
-3.270000
20
0.600000
0
VERTEX
8
0
10
-3.220000
20
0.600000
0
VERTEX
8
0
10
-3.220000
20
0.800000
0
VERTEX
8
0
10
-3.270000
20
0.800000
0
VERTEX
8
0
10
-3.270000
20
0.600000
0
SEQEND
8
0
0
POLYLINE
8
0
66
1
40
0.016000
41
0.016000
0
VERTEX
8
0
10
-3.380000
20
0.600000
0
VERTEX
8
0
10
-3.330000
20
0.600000
0
VERTEX
8
0
10
-3.330000
20
0.800000
0
VERTEX
8
0
10
-3.380000
20
0.800000
0
VERTEX
8
0
10
-3.380000
20
0.600000
0
SEQEND
8
0
0
POLYLINE
8
0
66
1
40
0.016000
41
0.016000
0
VERTEX
8
0
10
-3.380000
20
0.700000
0
VERTEX
8
0
10
-3.400000
20
0.700000
0
SEQEND
8
0
0
POLYLINE
8
0
66
1
40
0.016000
41
0.016000
0
VERTEX
8
0
10
-3.220000
20
0.700000
0
VERTEX
8
0
10
-3.200000
20
0.700000
0
SEQEND
8
0
0
POLYLINE
8
0
66
1
40
0.016000
41
0.016000
0
VERTEX
8
0
10
-3.330000
20
0.650000
0
VERTEX
8
0
10
-3.380000
20
0.600000
0
SEQEND
8
0
0
POLYLINE
8
0
66
1
40
0.016000
41
0.016000
0
VERTEX
8
0
10
-3.330000
20
0.700000
0
VERTEX
8
0
10
-3.380000
20
0.650000
0
SEQEND
8
0
0
POLYLINE
8
0
66
1
40
0.016000
41
0.016000
0
VERTEX
8
0
10
-3.330000
20
0.750000
0
VERTEX
8
0
10
-3.380000
20
0.700000
0
SEQEND
8
0
0
POLYLINE
8
0
66
1
40
0.016000
41
0.016000
0
VERTEX
8
0
10
-3.330000
20
0.800000
0
VERTEX
8
0
10
-3.380000
20
0.750000
0
SEQEND
8
0
0
POLYLINE
8
0
66
1
40
0.016000
41
0.016000
0
VERTEX
8
0
10
-3.100000
20
0.700000
0
VERTEX
8
0
10
-3.200000
20
0.700000
0
SEQEND
8
0
0
POLYLINE
8
0
66
1
40
0.016000
41
0.016000
0
VERTEX
8
0
10
-3.500000
20
0.700000
0
VERTEX
8
0
10
-3.400000
20
0.700000
0
SEQEND
8
0
0
TEXT
8
0
10
-3.408000
20
0.823000
40
0.120000
41
0.666667
1
C5
0
TEXT
8
0
10
-3.408000
20
0.502000
40
0.080000
41
1.000000
1
100uF
0
CIRCLE
8
0
10
-2.600000
20
0.700000
40
0.020000
0
CIRCLE
8
0
10
-3.500000
20
0.300000
40
0.020000
0
POLYLINE
8
0
66
1
40
0.016000
41
0.016000
0
VERTEX
8
0
10
-0.900000
20
2.500000
0
VERTEX
8
0
10
-1.000000
20
2.550000
0
VERTEX
8
0
10
-0.950000
20
2.600000
0
VERTEX
8
0
10
-0.900000
20
2.500000
0
SEQEND
8
0
0
POLYLINE
8
0
66
1
40
0.016000
41
0.016000
0
VERTEX
8
0
10
-1.100000
20
2.550000
0
VERTEX
8
0
10
-1.050000
20
2.550000
0
VERTEX
8
0
10
-1.050000
20
2.850000
0
VERTEX
8
0
10
-1.100000
20
2.850000
0
VERTEX
8
0
10
-1.100000
20
2.550000
0
SEQEND
8
0
0
POLYLINE
8
0
66
1
40
0.016000
41
0.016000
0
VERTEX
8
0
10
-1.050000
20
2.750000
0
VERTEX
8
0
10
-0.900000
20
2.900000
0
SEQEND
8
0
0
POLYLINE
8
0
66
1
40
0.016000
41
0.016000
0
VERTEX
8
0
10
-1.050000
20
2.650000
0
VERTEX
8
0
10
-0.980000
20
2.580000
0
SEQEND
8
0
0
POLYLINE
8
0
66
1
40
0.016000
41
0.016000
0
VERTEX
8
0
10
-1.200000
20
2.700000
0
VERTEX
8
0
10
-1.100000
20
2.700000
0
SEQEND
8
0
0
TEXT
8
0
10
-1.280000
20
2.710000
40
0.080000
41
1.000000
1
3
0
POLYLINE
8
0
66
1
40
0.016000
41
0.016000
0
VERTEX
8
0
10
-0.900000
20
3.000000
0
VERTEX
8
0
10
-0.900000
20
2.900000
0
SEQEND
8
0
0
TEXT
8
0
10
-0.910000
20
3.000000
40
0.080000
41
1.000000
50
90.000000
1
2
0
POLYLINE
8
0
66
1
40
0.016000
41
0.016000
0
VERTEX
8
0
10
-0.900000
20
2.400000
0
VERTEX
8
0
10
-0.900000
20
2.500000
0
SEQEND
8
0
0
TEXT
8
0
10
-0.910000
20
2.320000
40
0.080000
41
1.000000
50
90.000000
1
1
0
TEXT
8
0
10
-0.842000
20
2.773000
40
0.120000
41
0.666667
1
Q4
0
TEXT
8
0
10
-0.842000
20
2.668000
40
0.080000
41
1.000000
1
C2383
0
CIRCLE
8
0
10
-1.900000
20
2.700000
40
0.020000
0
CIRCLE
8
0
10
-2.600000
20
3.700000
40
0.020000
0
POLYLINE
8
0
66
1
40
0.016000
41
0.016000
0
VERTEX
8
0
10
-0.940000
20
1.900000
0
VERTEX
8
0
10
-0.860000
20
1.900000
0
VERTEX
8
0
10
-0.860000
20
2.200000
0
VERTEX
8
0
10
-0.940000
20
2.200000
0
VERTEX
8
0
10
-0.940000
20
1.900000
0
SEQEND
8
0
0
POLYLINE
8
0
66
1
40
0.016000
41
0.016000
0
VERTEX
8
0
10
-0.900000
20
2.300000
0
VERTEX
8
0
10
-0.900000
20
2.200000
0
SEQEND
8
0
0
POLYLINE
8
0
66
1
40
0.016000
41
0.016000
0
VERTEX
8
0
10
-0.900000
20
1.800000
0
VERTEX
8
0
10
-0.900000
20
1.900000
0
SEQEND
8
0
0
TEXT
8
0
10
-0.802000
20
2.073000
40
0.120000
41
0.666667
1
R10
0
TEXT
8
0
10
-0.802000
20
1.968000
40
0.080000
41
1.000000
1
470
0
CIRCLE
8
0
10
-3.200000
20
1.600000
40
0.020000
0
POLYLINE
8
0
66
1
40
0.016000
41
0.016000
0
VERTEX
8
0
10
-1.050000
20
0.350000
0
VERTEX
8
0
10
-1.000000
20
0.450000
0
VERTEX
8
0
10
-0.950000
20
0.400000
0
VERTEX
8
0
10
-1.050000
20
0.350000
0
SEQEND
8
0
0
POLYLINE
8
0
66
1
40
0.016000
41
0.016000
0
VERTEX
8
0
10
-1.100000
20
0.150000
0
VERTEX
8
0
10
-1.050000
20
0.150000
0
VERTEX
8
0
10
-1.050000
20
0.450000
0
VERTEX
8
0
10
-1.100000
20
0.450000
0
VERTEX
8
0
10
-1.100000
20
0.150000
0
SEQEND
8
0
0
POLYLINE
8
0
66
1
40
0.016000
41
0.016000
0
VERTEX
8
0
10
-1.050000
20
0.250000
0
VERTEX
8
0
10
-0.900000
20
0.100000
0
SEQEND
8
0
0
POLYLINE
8
0
66
1
40
0.016000
41
0.016000
0
VERTEX
8
0
10
-0.900000
20
0.500000
0
VERTEX
8
0
10
-0.970000
20
0.430000
0
SEQEND
8
0
0
POLYLINE
8
0
66
1
40
0.016000
41
0.016000
0
VERTEX
8
0
10
-1.100000
20
0.300000
0
VERTEX
8
0
10
-1.200000
20
0.300000
0
SEQEND
8
0
0
POLYLINE
8
0
66
1
40
0.016000
41
0.016000
0
VERTEX
8
0
10
-1.300000
20
0.300000
0
VERTEX
8
0
10
-1.200000
20
0.300000
0
SEQEND
8
0
0
TEXT
8
0
10
-1.380000
20
0.310000
40
0.080000
41
1.000000
1
3
0
POLYLINE
8
0
66
1
40
0.016000
41
0.016000
0
VERTEX
8
0
10
-0.900000
20
0.000000
0
VERTEX
8
0
10
-0.900000
20
0.100000
0
SEQEND
8
0
0
TEXT
8
0
10
-0.910000
20
-0.080000
40
0.080000
41
1.000000
50
90.000000
1
2
0
POLYLINE
8
0
66
1
40
0.016000
41
0.016000
0
VERTEX
8
0
10
-0.900000
20
0.600000
0
VERTEX
8
0
10
-0.900000
20
0.500000
0
SEQEND
8
0
0
TEXT
8
0
10
-0.910000
20
0.600000
40
0.080000
41
1.000000
50
90.000000
1
1
0
TEXT
8
0
10
-0.842000
20
0.373000
40
0.120000
41
0.666667
1
Q5
0
TEXT
8
0
10
-0.842000
20
0.268000
40
0.080000
41
1.000000
1
A1015
0
POLYLINE
8
0
66
1
40
0.016000
41
0.016000
0
VERTEX
8
0
10
-0.940000
20
1.100000
0
VERTEX
8
0
10
-0.860000
20
1.100000
0
VERTEX
8
0
10
-0.860000
20
1.400000
0
VERTEX
8
0
10
-0.940000
20
1.400000
0
VERTEX
8
0
10
-0.940000
20
1.100000
0
SEQEND
8
0
0
POLYLINE
8
0
66
1
40
0.016000
41
0.016000
0
VERTEX
8
0
10
-0.900000
20
1.000000
0
VERTEX
8
0
10
-0.900000
20
1.100000
0
SEQEND
8
0
0
POLYLINE
8
0
66
1
40
0.016000
41
0.016000
0
VERTEX
8
0
10
-0.900000
20
1.500000
0
VERTEX
8
0
10
-0.900000
20
1.400000
0
SEQEND
8
0
0
TEXT
8
0
10
-0.802000
20
1.273000
40
0.120000
41
0.666667
1
R11
0
TEXT
8
0
10
-0.802000
20
1.168000
40
0.080000
41
1.000000
1
470
0
CIRCLE
8
0
10
-0.900000
20
1.600000
40
0.020000
0
CIRCLE
8
0
10
-2.600000
20
-0.400000
40
0.020000
0
POLYLINE
8
0
66
1
40
0.016000
41
0.016000
0
VERTEX
8
0
10
0.300000
20
2.500000
0
VERTEX
8
0
10
0.200000
20
2.550000
0
VERTEX
8
0
10
0.250000
20
2.600000
0
VERTEX
8
0
10
0.300000
20
2.500000
0
SEQEND
8
0
0
POLYLINE
8
0
66
1
40
0.016000
41
0.016000
0
VERTEX
8
0
10
0.100000
20
2.550000
0
VERTEX
8
0
10
0.150000
20
2.550000
0
VERTEX
8
0
10
0.150000
20
2.850000
0
VERTEX
8
0
10
0.100000
20
2.850000
0
VERTEX
8
0
10
0.100000
20
2.550000
0
SEQEND
8
0
0
POLYLINE
8
0
66
1
40
0.016000
41
0.016000
0
VERTEX
8
0
10
0.150000
20
2.750000
0
VERTEX
8
0
10
0.300000
20
2.900000
0
SEQEND
8
0
0
POLYLINE
8
0
66
1
40
0.016000
41
0.016000
0
VERTEX
8
0
10
0.150000
20
2.650000
0
VERTEX
8
0
10
0.220000
20
2.580000
0
SEQEND
8
0
0
POLYLINE
8
0
66
1
40
0.016000
41
0.016000
0
VERTEX
8
0
10
0.000000
20
2.700000
0
VERTEX
8
0
10
0.100000
20
2.700000
0
SEQEND
8
0
0
TEXT
8
0
10
-0.080000
20
2.710000
40
0.080000
41
1.000000
1
1
0
POLYLINE
8
0
66
1
40
0.016000
41
0.016000
0
VERTEX
8
0
10
0.300000
20
3.000000
0
VERTEX
8
0
10
0.300000
20
2.900000
0
SEQEND
8
0
0
TEXT
8
0
10
0.290000
20
3.000000
40
0.080000
41
1.000000
50
90.000000
1
2
0
POLYLINE
8
0
66
1
40
0.016000
41
0.016000
0
VERTEX
8
0
10
0.300000
20
2.400000
0
VERTEX
8
0
10
0.300000
20
2.500000
0
SEQEND
8
0
0
TEXT
8
0
10
0.290000
20
2.320000
40
0.080000
41
1.000000
50
90.000000
1
3
0
TEXT
8
0
10
0.358000
20
2.773000
40
0.120000
41
0.666667
1
Q6
0
TEXT
8
0
10
0.358000
20
2.668000
40
0.080000
41
1.000000
1
D718
0
CIRCLE
8
0
10
-0.900000
20
2.400000
40
0.020000
0
CIRCLE
8
0
10
-0.900000
20
3.700000
40
0.020000
0
POLYLINE
8
0
66
1
40
0.016000
41
0.016000
0
VERTEX
8
0
10
0.260000
20
1.900000
0
VERTEX
8
0
10
0.340000
20
1.900000
0
VERTEX
8
0
10
0.340000
20
2.200000
0
VERTEX
8
0
10
0.260000
20
2.200000
0
VERTEX
8
0
10
0.260000
20
1.900000
0
SEQEND
8
0
0
POLYLINE
8
0
66
1
40
0.016000
41
0.016000
0
VERTEX
8
0
10
0.300000
20
2.300000
0
VERTEX
8
0
10
0.300000
20
2.200000
0
SEQEND
8
0
0
POLYLINE
8
0
66
1
40
0.016000
41
0.016000
0
VERTEX
8
0
10
0.300000
20
1.800000
0
VERTEX
8
0
10
0.300000
20
1.900000
0
SEQEND
8
0
0
TEXT
8
0
10
0.398000
20
2.073000
40
0.120000
41
0.666667
1
R12
0
TEXT
8
0
10
0.398000
20
1.968000
40
0.080000
41
1.000000
1
0.33
0
POLYLINE
8
0
66
1
40
0.016000
41
0.016000
0
VERTEX
8
0
10
0.260000
20
1.100000
0
VERTEX
8
0
10
0.340000
20
1.100000
0
VERTEX
8
0
10
0.340000
20
1.400000
0
VERTEX
8
0
10
0.260000
20
1.400000
0
VERTEX
8
0
10
0.260000
20
1.100000
0
SEQEND
8
0
0
POLYLINE
8
0
66
1
40
0.016000
41
0.016000
0
VERTEX
8
0
10
0.300000
20
1.500000
0
VERTEX
8
0
10
0.300000
20
1.400000
0
SEQEND
8
0
0
POLYLINE
8
0
66
1
40
0.016000
41
0.016000
0
VERTEX
8
0
10
0.300000
20
1.000000
0
VERTEX
8
0
10
0.300000
20
1.100000
0
SEQEND
8
0
0
TEXT
8
0
10
0.398000
20
1.273000
40
0.120000
41
0.666667
1
R13
0
TEXT
8
0
10
0.398000
20
1.168000
40
0.080000
41
1.000000
1
0.33
0
CIRCLE
8
0
10
0.300000
20
1.600000
40
0.020000
0
POLYLINE
8
0
66
1
40
0.016000
41
0.016000
0
VERTEX
8
0
10
0.150000
20
0.550000
0
VERTEX
8
0
10
0.200000
20
0.650000
0
VERTEX
8
0
10
0.250000
20
0.600000
0
VERTEX
8
0
10
0.150000
20
0.550000
0
SEQEND
8
0
0
POLYLINE
8
0
66
1
40
0.016000
41
0.016000
0
VERTEX
8
0
10
0.100000
20
0.350000
0
VERTEX
8
0
10
0.150000
20
0.350000
0
VERTEX
8
0
10
0.150000
20
0.650000
0
VERTEX
8
0
10
0.100000
20
0.650000
0
VERTEX
8
0
10
0.100000
20
0.350000
0
SEQEND
8
0
0
POLYLINE
8
0
66
1
40
0.016000
41
0.016000
0
VERTEX
8
0
10
0.150000
20
0.450000
0
VERTEX
8
0
10
0.300000
20
0.300000
0
SEQEND
8
0
0
POLYLINE
8
0
66
1
40
0.016000
41
0.016000
0
VERTEX
8
0
10
0.300000
20
0.700000
0
VERTEX
8
0
10
0.230000
20
0.630000
0
SEQEND
8
0
0
POLYLINE
8
0
66
1
40
0.016000
41
0.016000
0
VERTEX
8
0
10
0.100000
20
0.500000
0
VERTEX
8
0
10
0.000000
20
0.500000
0
SEQEND
8
0
0
POLYLINE
8
0
66
1
40
0.016000
41
0.016000
0
VERTEX
8
0
10
-0.100000
20
0.500000
0
VERTEX
8
0
10
0.000000
20
0.500000
0
SEQEND
8
0
0
TEXT
8
0
10
-0.180000
20
0.510000
40
0.080000
41
1.000000
1
1
0
POLYLINE
8
0
66
1
40
0.016000
41
0.016000
0
VERTEX
8
0
10
0.300000
20
0.200000
0
VERTEX
8
0
10
0.300000
20
0.300000
0
SEQEND
8
0
0
TEXT
8
0
10
0.290000
20
0.120000
40
0.080000
41
1.000000
50
90.000000
1
2
0
POLYLINE
8
0
66
1
40
0.016000
41
0.016000
0
VERTEX
8
0
10
0.300000
20
0.800000
0
VERTEX
8
0
10
0.300000
20
0.700000
0
SEQEND
8
0
0
TEXT
8
0
10
0.290000
20
0.800000
40
0.080000
41
1.000000
50
90.000000
1
3
0
TEXT
8
0
10
0.358000
20
0.573000
40
0.120000
41
0.666667
1
Q7
0
TEXT
8
0
10
0.358000
20
0.468000
40
0.080000
41
1.000000
1
B688
0
CIRCLE
8
0
10
-0.900000
20
-0.400000
40
0.020000
0
CIRCLE
8
0
10
-0.900000
20
0.800000
40
0.020000
0
POLYLINE
8
0
66
1
40
0.016000
41
0.016000
0
VERTEX
8
0
10
1.100000
20
1.270000
0
VERTEX
8
0
10
0.900000
20
1.270000
0
SEQEND
8
0
0
POLYLINE
8
0
66
1
40
0.016000
41
0.016000
0
VERTEX
8
0
10
1.100000
20
1.330000
0
VERTEX
8
0
10
0.900000
20
1.330000
0
SEQEND
8
0
0
POLYLINE
8
0
66
1
40
0.016000
41
0.016000
0
VERTEX
8
0
10
1.000000
20
1.330000
0
VERTEX
8
0
10
1.000000
20
1.400000
0
SEQEND
8
0
0
POLYLINE
8
0
66
1
40
0.016000
41
0.016000
0
VERTEX
8
0
10
1.000000
20
1.270000
0
VERTEX
8
0
10
1.000000
20
1.200000
0
SEQEND
8
0
0
POLYLINE
8
0
66
1
40
0.016000
41
0.016000
0
VERTEX
8
0
10
1.000000
20
1.100000
0
VERTEX
8
0
10
1.000000
20
1.200000
0
SEQEND
8
0
0
POLYLINE
8
0
66
1
40
0.016000
41
0.016000
0
VERTEX
8
0
10
1.000000
20
1.500000
0
VERTEX
8
0
10
1.000000
20
1.400000
0
SEQEND
8
0
0
TEXT
8
0
10
1.158000
20
1.273000
40
0.120000
41
0.666667
1
C6
0
TEXT
8
0
10
1.158000
20
1.168000
40
0.080000
41
1.000000
1
10p
0
POLYLINE
8
0
66
1
40
0.016000
41
0.016000
0
VERTEX
8
0
10
0.960000
20
0.500000
0
VERTEX
8
0
10
1.040000
20
0.500000
0
VERTEX
8
0
10
1.040000
20
0.800000
0
VERTEX
8
0
10
0.960000
20
0.800000
0
VERTEX
8
0
10
0.960000
20
0.500000
0
SEQEND
8
0
0
POLYLINE
8
0
66
1
40
0.016000
41
0.016000
0
VERTEX
8
0
10
1.000000
20
0.900000
0
VERTEX
8
0
10
1.000000
20
0.800000
0
SEQEND
8
0
0
POLYLINE
8
0
66
1
40
0.016000
41
0.016000
0
VERTEX
8
0
10
1.000000
20
0.400000
0
VERTEX
8
0
10
1.000000
20
0.500000
0
SEQEND
8
0
0
TEXT
8
0
10
1.098000
20
0.673000
40
0.120000
41
0.666667
1
R14
0
TEXT
8
0
10
1.098000
20
0.568000
40
0.080000
41
1.000000
1
680
0
POLYLINE
8
0
66
1
40
0.016000
41
0.016000
0
VERTEX
8
0
10
1.800000
20
1.900000
0
VERTEX
8
0
10
1.801328
20
1.918652
0
VERTEX
8
0
10
1.805000
20
1.936719
0
VERTEX
8
0
10
1.810547
20
1.953613
0
VERTEX
8
0
10
1.817500
20
1.968750
0
VERTEX
8
0
10
1.825391
20
1.981543
0
VERTEX
8
0
10
1.833750
20
1.991406
0
VERTEX
8
0
10
1.842109
20
1.997754
0
VERTEX
8
0
10
1.850000
20
2.000000
0
SEQEND
8
0
0
POLYLINE
8
0
66
1
40
0.016000
41
0.016000
0
VERTEX
8
0
10
1.900000
20
1.900000
0
VERTEX
8
0
10
1.899082
20
1.918652
0
VERTEX
8
0
10
1.896406
20
1.936719
0
VERTEX
8
0
10
1.892090
20
1.953613
0
VERTEX
8
0
10
1.886250
20
1.968750
0
VERTEX
8
0
10
1.879004
20
1.981543
0
VERTEX
8
0
10
1.870469
20
1.991406
0
VERTEX
8
0
10
1.860762
20
1.997754
0
VERTEX
8
0
10
1.850000
20
2.000000
0
SEQEND
8
0
0
POLYLINE
8
0
66
1
40
0.016000
41
0.016000
0
VERTEX
8
0
10
1.900000
20
1.900000
0
VERTEX
8
0
10
1.901328
20
1.918652
0
VERTEX
8
0
10
1.905000
20
1.936719
0
VERTEX
8
0
10
1.910547
20
1.953613
0
VERTEX
8
0
10
1.917500
20
1.968750
0
VERTEX
8
0
10
1.925391
20
1.981543
0
VERTEX
8
0
10
1.933750
20
1.991406
0
VERTEX
8
0
10
1.942109
20
1.997754
0
VERTEX
8
0
10
1.950000
20
2.000000
0
SEQEND
8
0
0
POLYLINE
8
0
66
1
40
0.016000
41
0.016000
0
VERTEX
8
0
10
2.000000
20
1.900000
0
VERTEX
8
0
10
1.999082
20
1.918652
0
VERTEX
8
0
10
1.996406
20
1.936719
0
VERTEX
8
0
10
1.992090
20
1.953613
0
VERTEX
8
0
10
1.986250
20
1.968750
0
VERTEX
8
0
10
1.979004
20
1.981543
0
VERTEX
8
0
10
1.970469
20
1.991406
0
VERTEX
8
0
10
1.960762
20
1.997754
0
VERTEX
8
0
10
1.950000
20
2.000000
0
SEQEND
8
0
0
POLYLINE
8
0
66
1
40
0.016000
41
0.016000
0
VERTEX
8
0
10
2.000000
20
1.900000
0
VERTEX
8
0
10
2.000918
20
1.918652
0
VERTEX
8
0
10
2.003594
20
1.936719
0
VERTEX
8
0
10
2.007910
20
1.953613
0
VERTEX
8
0
10
2.013750
20
1.968750
0
VERTEX
8
0
10
2.020996
20
1.981543
0
VERTEX
8
0
10
2.029531
20
1.991406
0
VERTEX
8
0
10
2.039238
20
1.997754
0
VERTEX
8
0
10
2.050000
20
2.000000
0
SEQEND
8
0
0
POLYLINE
8
0
66
1
40
0.016000
41
0.016000
0
VERTEX
8
0
10
2.100000
20
1.900000
0
VERTEX
8
0
10
2.098672
20
1.918652
0
VERTEX
8
0
10
2.095000
20
1.936719
0
VERTEX
8
0
10
2.089453
20
1.953613
0
VERTEX
8
0
10
2.082500
20
1.968750
0
VERTEX
8
0
10
2.074610
20
1.981543
0
VERTEX
8
0
10
2.066250
20
1.991406
0
VERTEX
8
0
10
2.057891
20
1.997754
0
VERTEX
8
0
10
2.050000
20
2.000000
0
SEQEND
8
0
0
POLYLINE
8
0
66
1
40
0.016000
41
0.016000
0
VERTEX
8
0
10
2.100000
20
1.900000
0
VERTEX
8
0
10
2.100918
20
1.918652
0
VERTEX
8
0
10
2.103594
20
1.936719
0
VERTEX
8
0
10
2.107910
20
1.953613
0
VERTEX
8
0
10
2.113750
20
1.968750
0
VERTEX
8
0
10
2.120996
20
1.981543
0
VERTEX
8
0
10
2.129531
20
1.991406
0
VERTEX
8
0
10
2.139238
20
1.997754
0
VERTEX
8
0
10
2.150000
20
2.000000
0
SEQEND
8
0
0
POLYLINE
8
0
66
1
40
0.016000
41
0.016000
0
VERTEX
8
0
10
2.200000
20
1.900000
0
VERTEX
8
0
10
2.198672
20
1.918652
0
VERTEX
8
0
10
2.195000
20
1.936719
0
VERTEX
8
0
10
2.189453
20
1.953613
0
VERTEX
8
0
10
2.182500
20
1.968750
0
VERTEX
8
0
10
2.174609
20
1.981543
0
VERTEX
8
0
10
2.166250
20
1.991406
0
VERTEX
8
0
10
2.157891
20
1.997754
0
VERTEX
8
0
10
2.150000
20
2.000000
0
SEQEND
8
0
0
POLYLINE
8
0
66
1
40
0.016000
41
0.016000
0
VERTEX
8
0
10
1.700000
20
1.900000
0
VERTEX
8
0
10
1.800000
20
1.900000
0
SEQEND
8
0
0
POLYLINE
8
0
66
1
40
0.016000
41
0.016000
0
VERTEX
8
0
10
2.300000
20
1.900000
0
VERTEX
8
0
10
2.200000
20
1.900000
0
SEQEND
8
0
0
TEXT
8
0
10
1.792000
20
2.023000
40
0.120000
41
0.666667
1
L1
0
TEXT
8
0
10
1.792000
20
1.802000
40
0.080000
41
1.000000
1
100nH
0
CIRCLE
8
0
10
1.000000
20
1.600000
40
0.020000
0
POLYLINE
8
0
66
1
40
0.016000
41
0.016000
0
VERTEX
8
0
10
1.800000
20
1.260000
0
VERTEX
8
0
10
2.100000
20
1.260000
0
VERTEX
8
0
10
2.100000
20
1.340000
0
VERTEX
8
0
10
1.800000
20
1.340000
0
VERTEX
8
0
10
1.800000
20
1.260000
0
SEQEND
8
0
0
POLYLINE
8
0
66
1
40
0.016000
41
0.016000
0
VERTEX
8
0
10
1.700000
20
1.300000
0
VERTEX
8
0
10
1.800000
20
1.300000
0
SEQEND
8
0
0
POLYLINE
8
0
66
1
40
0.016000
41
0.016000
0
VERTEX
8
0
10
2.200000
20
1.300000
0
VERTEX
8
0
10
2.100000
20
1.300000
0
SEQEND
8
0
0
TEXT
8
0
10
1.792000
20
1.363000
40
0.120000
41
0.666667
1
R15
0
TEXT
8
0
10
1.792000
20
1.162000
40
0.080000
41
1.000000
1
10
0
POLYLINE
8
0
66
1
40
0.016000
41
0.016000
0
VERTEX
8
0
10
3.000000
20
1.450000
0
VERTEX
8
0
10
3.050000
20
1.450000
0
VERTEX
8
0
10
3.050000
20
1.750000
0
VERTEX
8
0
10
3.000000
20
1.750000
0
VERTEX
8
0
10
3.000000
20
1.450000
0
SEQEND
8
0
0
POLYLINE
8
0
66
1
40
0.016000
41
0.016000
0
VERTEX
8
0
10
3.050000
20
1.750000
0
VERTEX
8
0
10
3.100000
20
1.800000
0
SEQEND
8
0
0
POLYLINE
8
0
66
1
40
0.016000
41
0.016000
0
VERTEX
8
0
10
3.050000
20
1.450000
0
VERTEX
8
0
10
3.100000
20
1.400000
0
SEQEND
8
0
0
POLYLINE
8
0
66
1
40
0.016000
41
0.016000
0
VERTEX
8
0
10
3.100000
20
1.800000
0
VERTEX
8
0
10
3.100000
20
1.400000
0
SEQEND
8
0
0
POLYLINE
8
0
66
1
40
0.016000
41
0.016000
0
VERTEX
8
0
10
2.900000
20
1.700000
0
VERTEX
8
0
10
3.000000
20
1.700000
0
SEQEND
8
0
0
POLYLINE
8
0
66
1
40
0.016000
41
0.016000
0
VERTEX
8
0
10
2.900000
20
1.500000
0
VERTEX
8
0
10
3.000000
20
1.500000
0
SEQEND
8
0
0
TEXT
8
0
10
2.992000
20
1.823000
40
0.120000
41
0.666667
1
LS1
0
TEXT
8
0
10
2.992000
20
1.302000
40
0.080000
41
1.000000
1
SPEAKER
0
CIRCLE
8
0
10
2.300000
20
1.700000
40
0.020000
0
POLYLINE
8
0
66
1
40
0.016000
41
0.016000
0
VERTEX
8
0
10
1.900000
20
0.300000
0
VERTEX
8
0
10
1.900000
20
0.200000
0
SEQEND
8
0
0
POLYLINE
8
0
66
1
40
0.016000
41
0.016000
0
VERTEX
8
0
10
1.800000
20
0.200000
0
VERTEX
8
0
10
2.000000
20
0.200000
0
SEQEND
8
0
0
POLYLINE
8
0
66
1
40
0.016000
41
0.016000
0
VERTEX
8
0
10
1.850000
20
0.150000
0
VERTEX
8
0
10
1.950000
20
0.150000
0
SEQEND
8
0
0
POLYLINE
8
0
66
1
40
0.016000
41
0.016000
0
VERTEX
8
0
10
1.890000
20
0.100000
0
VERTEX
8
0
10
1.910000
20
0.100000
0
SEQEND
8
0
0
CIRCLE
8
0
10
1.900000
20
0.400000
40
0.020000
0
POLYLINE
8
0
66
1
40
0.016000
41
0.016000
0
VERTEX
8
0
10
0.450000
20
4.000000
0
VERTEX
8
0
10
0.500000
20
4.100000
0
VERTEX
8
0
10
0.550000
20
4.000000
0
VERTEX
8
0
10
0.450000
20
4.000000
0
SEQEND
8
0
0
POLYLINE
8
0
66
1
40
0.016000
41
0.016000
0
VERTEX
8
0
10
0.500000
20
3.900000
0
VERTEX
8
0
10
0.500000
20
4.100000
0
SEQEND
8
0
0
TEXT
8
0
10
0.400000
20
4.160000
40
0.080000
41
1.000000
1
+VCC
0
CIRCLE
8
0
10
0.300000
20
3.700000
40
0.020000
0
POLYLINE
8
0
66
1
40
0.016000
41
0.016000
0
VERTEX
8
0
10
0.700000
20
-0.350000
0
VERTEX
8
0
10
0.800000
20
-0.400000
0
VERTEX
8
0
10
0.700000
20
-0.450000
0
VERTEX
8
0
10
0.700000
20
-0.350000
0
SEQEND
8
0
0
POLYLINE
8
0
66
1
40
0.016000
41
0.016000
0
VERTEX
8
0
10
0.600000
20
-0.400000
0
VERTEX
8
0
10
0.800000
20
-0.400000
0
SEQEND
8
0
0
TEXT
8
0
10
0.940000
20
-0.620000
40
0.080000
41
1.000000
50
90.000000
1
-VCC
0
CIRCLE
8
0
10
0.300000
20
-0.400000
40
0.020000
0
POLYLINE
8
0
66
1
40
0.016000
41
0.016000
0
VERTEX
8
0
10
2.400000
20
3.300000
0
VERTEX
8
0
10
2.600000
20
3.300000
0
VERTEX
8
0
10
2.600000
20
3.700000
0
VERTEX
8
0
10
2.400000
20
3.700000
0
VERTEX
8
0
10
2.400000
20
3.300000
0
SEQEND
8
0
0
POLYLINE
8
0
66
1
40
0.016000
41
0.016000
0
VERTEX
8
0
10
2.470000
20
3.600000
0
VERTEX
8
0
10
2.400000
20
3.600000
0
SEQEND
8
0
0
CIRCLE
8
0
10
2.500000
20
3.600000
40
0.030000
0
POLYLINE
8
0
66
1
40
0.016000
41
0.016000
0
VERTEX
8
0
10
2.470000
20
3.500000
0
VERTEX
8
0
10
2.400000
20
3.500000
0
SEQEND
8
0
0
CIRCLE
8
0
10
2.500000
20
3.500000
40
0.030000
0
POLYLINE
8
0
66
1
40
0.016000
41
0.016000
0
VERTEX
8
0
10
2.470000
20
3.400000
0
VERTEX
8
0
10
2.400000
20
3.400000
0
SEQEND
8
0
0
CIRCLE
8
0
10
2.500000
20
3.400000
40
0.030000
0
POLYLINE
8
0
66
1
40
0.016000
41
0.016000
0
VERTEX
8
0
10
2.200000
20
3.600000
0
VERTEX
8
0
10
2.400000
20
3.600000
0
SEQEND
8
0
0
TEXT
8
0
10
2.220000
20
3.610000
40
0.080000
41
1.000000
1
1
0
POLYLINE
8
0
66
1
40
0.016000
41
0.016000
0
VERTEX
8
0
10
2.200000
20
3.500000
0
VERTEX
8
0
10
2.400000
20
3.500000
0
SEQEND
8
0
0
TEXT
8
0
10
2.220000
20
3.510000
40
0.080000
41
1.000000
1
2
0
POLYLINE
8
0
66
1
40
0.016000
41
0.016000
0
VERTEX
8
0
10
2.200000
20
3.400000
0
VERTEX
8
0
10
2.400000
20
3.400000
0
SEQEND
8
0
0
TEXT
8
0
10
2.220000
20
3.410000
40
0.080000
41
1.000000
1
3
0
TEXT
8
0
10
2.392000
20
3.723000
40
0.120000
41
0.666667
1
J2
0
TEXT
8
0
10
2.392000
20
3.202000
40
0.080000
41
1.000000
1
CONN-SIL3
0
POLYLINE
8
0
66
1
40
0.016000
41
0.016000
0
VERTEX
8
0
10
1.950000
20
3.900000
0
VERTEX
8
0
10
2.000000
20
4.000000
0
VERTEX
8
0
10
2.050000
20
3.900000
0
VERTEX
8
0
10
1.950000
20
3.900000
0
SEQEND
8
0
0
POLYLINE
8
0
66
1
40
0.016000
41
0.016000
0
VERTEX
8
0
10
2.000000
20
3.800000
0
VERTEX
8
0
10
2.000000
20
4.000000
0
SEQEND
8
0
0
TEXT
8
0
10
1.900000
20
4.060000
40
0.080000
41
1.000000
1
+VCC
0
POLYLINE
8
0
66
1
40
0.016000
41
0.016000
0
VERTEX
8
0
10
2.050000
20
3.200000
0
VERTEX
8
0
10
2.000000
20
3.100000
0
VERTEX
8
0
10
1.950000
20
3.200000
0
VERTEX
8
0
10
2.050000
20
3.200000
0
SEQEND
8
0
0
POLYLINE
8
0
66
1
40
0.016000
41
0.016000
0
VERTEX
8
0
10
2.000000
20
3.300000
0
VERTEX
8
0
10
2.000000
20
3.100000
0
SEQEND
8
0
0
TEXT
8
0
10
1.780000
20
2.960000
40
0.080000
41
1.000000
1
-VCC
0
POLYLINE
8
0
66
1
40
0.016000
41
0.016000
0
VERTEX
8
0
10
1.800000
20
3.500000
0
VERTEX
8
0
10
1.700000
20
3.500000
0
SEQEND
8
0
0
POLYLINE
8
0
66
1
40
0.016000
41
0.016000
0
VERTEX
8
0
10
1.700000
20
3.600000
0
VERTEX
8
0
10
1.700000
20
3.400000
0
SEQEND
8
0
0
POLYLINE
8
0
66
1
40
0.016000
41
0.016000
0
VERTEX
8
0
10
1.650000
20
3.550000
0
VERTEX
8
0
10
1.650000
20
3.450000
0
SEQEND
8
0
0
POLYLINE
8
0
66
1
40
0.016000
41
0.016000
0
VERTEX
8
0
10
1.600000
20
3.510000
0
VERTEX
8
0
10
1.600000
20
3.490000
0
SEQEND
8
0
0
POLYLINE
8
0
66
1
40
0.016000
41
0.016000
0
VERTEX
8
0
10
-4.300000
20
0.200000
0
VERTEX
8
0
10
-4.300000
20
0.100000
0
SEQEND
8
0
0
POLYLINE
8
0
66
1
40
0.016000
41
0.016000
0
VERTEX
8
0
10
-4.400000
20
0.100000
0
VERTEX
8
0
10
-4.200000
20
0.100000
0
SEQEND
8
0
0
POLYLINE
8
0
66
1
40
0.016000
41
0.016000
0
VERTEX
8
0
10
-4.350000
20
0.050000
0
VERTEX
8
0
10
-4.250000
20
0.050000
0
SEQEND
8
0
0
POLYLINE
8
0
66
1
40
0.016000
41
0.016000
0
VERTEX
8
0
10
-4.310000
20
0.000000
0
VERTEX
8
0
10
-4.290000
20
0.000000
0
SEQEND
8
0
0
ENDSEC
0
EOF

