%FSTAX24Y24*%
%MOIN*%
G70*
G01*
G75*
G04 Layer_Color=2752767*
%ADD10C,0.0787*%
%ADD11C,0.1575*%
%ADD12C,0.1181*%
%ADD13C,0.0591*%
%ADD14C,0.0000*%
%ADD15C,0.1000*%
%ADD16C,0.0591*%
%ADD17R,0.0630X0.0630*%
%ADD18C,0.0630*%
%ADD19C,0.0787*%
%ADD20C,0.2362*%
G04:AMPARAMS|DCode=21|XSize=70mil|YSize=90mil|CornerRadius=0mil|HoleSize=0mil|Usage=FLASHONLY|Rotation=90.000|XOffset=0mil|YOffset=0mil|HoleType=Round|Shape=Octagon|*
%AMOCTAGOND21*
4,1,8,-0.0450,-0.0175,-0.0450,0.0175,-0.0275,0.0350,0.0275,0.0350,0.0450,0.0175,0.0450,-0.0175,0.0275,-0.0350,-0.0275,-0.0350,-0.0450,-0.0175,0.0*
%
%ADD21OCTAGOND21*%

%ADD22C,0.0984*%
%ADD23O,0.0591X0.0512*%
%ADD24R,0.0591X0.0512*%
%ADD25R,0.0800X0.0800*%
%ADD26C,0.0800*%
%ADD27R,0.1000X0.0650*%
%ADD28O,0.1000X0.0650*%
%ADD29R,0.0630X0.0630*%
%ADD30O,0.0787X0.0591*%
%ADD31O,0.0787X0.0630*%
%ADD32O,0.0900X0.0600*%
%ADD33R,0.0900X0.0600*%
%ADD34C,0.0709*%
%ADD35C,0.1181*%
%ADD36R,0.1181X0.1181*%
%ADD37O,0.0650X0.1000*%
%ADD38R,0.0650X0.1000*%
%ADD39O,0.0709X0.0866*%
%ADD40R,0.0709X0.0866*%
%ADD41O,0.0800X0.1000*%
%ADD42R,0.0800X0.1000*%
%ADD43O,0.0630X0.0787*%
%ADD44R,0.0800X0.0800*%
%ADD45C,0.1200*%
%ADD46C,0.0079*%
%ADD47C,0.0100*%
%ADD48C,0.0120*%
%ADD49C,0.0070*%
%ADD50C,0.0150*%
%ADD51C,0.0250*%
%ADD52C,0.0039*%
%ADD53C,0.0080*%
%ADD54R,0.1260X0.0200*%
%ADD55R,0.0550X0.0150*%
%ADD56R,0.0150X0.0550*%
%ADD57R,0.3990X0.0360*%
%ADD58R,0.0200X0.1260*%
%ADD59C,0.1080*%
%ADD60C,0.0671*%
%ADD61R,0.0710X0.0710*%
%ADD62C,0.0710*%
%ADD63C,0.0867*%
%ADD64C,0.2442*%
G04:AMPARAMS|DCode=65|XSize=78mil|YSize=98mil|CornerRadius=0mil|HoleSize=0mil|Usage=FLASHONLY|Rotation=90.000|XOffset=0mil|YOffset=0mil|HoleType=Round|Shape=Octagon|*
%AMOCTAGOND65*
4,1,8,-0.0490,-0.0195,-0.0490,0.0195,-0.0295,0.0390,0.0295,0.0390,0.0490,0.0195,0.0490,-0.0195,0.0295,-0.0390,-0.0295,-0.0390,-0.0490,-0.0195,0.0*
%
%ADD65OCTAGOND65*%

%ADD66C,0.1064*%
%ADD67O,0.0671X0.0592*%
%ADD68R,0.0671X0.0592*%
%ADD69R,0.0880X0.0880*%
%ADD70C,0.0880*%
%ADD71R,0.1080X0.0730*%
%ADD72O,0.1080X0.0730*%
%ADD73R,0.0710X0.0710*%
%ADD74O,0.0867X0.0671*%
%ADD75O,0.0867X0.0710*%
%ADD76O,0.0980X0.0680*%
%ADD77R,0.0980X0.0680*%
%ADD78C,0.0789*%
%ADD79C,0.1261*%
%ADD80R,0.1261X0.1261*%
%ADD81O,0.0730X0.1080*%
%ADD82R,0.0730X0.1080*%
%ADD83O,0.0789X0.0946*%
%ADD84R,0.0789X0.0946*%
%ADD85O,0.0880X0.1080*%
%ADD86R,0.0880X0.1080*%
%ADD87O,0.0710X0.0867*%
%ADD88R,0.0880X0.0880*%
%ADD89C,0.1280*%
%ADD90C,0.0067*%
%ADD91C,0.0040*%
D14*
X186076Y021666D02*
Y022066D01*
X186476D01*
Y021666D01*
X186076D01*
X170328D02*
Y022066D01*
X170728D01*
Y021666D01*
X170328D01*
X172296D02*
Y022066D01*
X172696D01*
Y021666D01*
X172296D01*
X174265D02*
Y022066D01*
X174665D01*
Y021666D01*
X174265D01*
X176233D02*
Y022066D01*
X176633D01*
Y021666D01*
X176233D01*
X184107D02*
Y022066D01*
X184507D01*
Y021666D01*
X184107D01*
X182139D02*
Y022066D01*
X182539D01*
Y021666D01*
X182139D01*
X18017D02*
Y022066D01*
X18057D01*
Y021666D01*
X18017D01*
X178202D02*
Y022066D01*
X178602D01*
Y021666D01*
X178202D01*
X186076Y032493D02*
Y032893D01*
X186476D01*
Y032493D01*
X186076D01*
X178202D02*
Y032893D01*
X178602D01*
Y032493D01*
X178202D01*
X18017D02*
Y032893D01*
X18057D01*
Y032493D01*
X18017D01*
X182139D02*
Y032893D01*
X182539D01*
Y032493D01*
X182139D01*
X184107D02*
Y032893D01*
X184507D01*
Y032493D01*
X184107D01*
X176233D02*
Y032893D01*
X176633D01*
Y032493D01*
X176233D01*
X174265D02*
Y032893D01*
X174665D01*
Y032493D01*
X174265D01*
X172296D02*
Y032893D01*
X172696D01*
Y032493D01*
X172296D01*
X170328D02*
Y032893D01*
X170728D01*
Y032493D01*
X170328D01*
X178202Y020682D02*
Y021082D01*
X178602D01*
Y020682D01*
X178202D01*
X18017D02*
Y021082D01*
X18057D01*
Y020682D01*
X18017D01*
X182139D02*
Y021082D01*
X182539D01*
Y020682D01*
X182139D01*
X184107D02*
Y021082D01*
X184507D01*
Y020682D01*
X184107D01*
X176233D02*
Y021082D01*
X176633D01*
Y020682D01*
X176233D01*
X174265D02*
Y021082D01*
X174665D01*
Y020682D01*
X174265D01*
X172296D02*
Y021082D01*
X172696D01*
Y020682D01*
X172296D01*
X170328D02*
Y021082D01*
X170728D01*
Y020682D01*
X170328D01*
X186076D02*
Y021082D01*
X186476D01*
Y020682D01*
X186076D01*
X143165Y011863D02*
X142965Y012263D01*
X143365D01*
X143165Y011863D01*
Y012863D02*
X142965Y013263D01*
X143365D01*
X143165Y012863D01*
X15348Y028713D02*
X15358Y028813D01*
X15368D01*
X15358Y028913D01*
X15368Y029013D01*
X15358D01*
X15348Y029113D01*
X15338Y029013D01*
X15328D01*
X15338Y028913D01*
X15328Y028813D01*
X15338D01*
X15348Y028713D01*
Y03206D02*
X15358Y03216D01*
X15368D01*
X15358Y03226D01*
X15368Y03236D01*
X15358D01*
X15348Y03246D01*
X15338Y03236D01*
X15328D01*
X15338Y03226D01*
X15328Y03216D01*
X15338D01*
X15348Y03206D01*
X157005Y013595D02*
X157105Y013795D01*
X157005Y013995D01*
X157205Y013895D01*
X157405Y013995D01*
X157305Y013795D01*
X157405Y013595D01*
X157205Y013695D01*
X157005Y013595D01*
X195824Y034461D02*
X195924Y034661D01*
X195824Y034861D01*
X196024Y034761D01*
X196224Y034861D01*
X196124Y034661D01*
X196224Y034461D01*
X196024Y034561D01*
X195824Y034461D01*
X189052Y026824D02*
X189152Y027024D01*
X189052Y027224D01*
X189252Y027124D01*
X189452Y027224D01*
X189352Y027024D01*
X189452Y026824D01*
X189252Y026924D01*
X189052Y026824D01*
X189091Y028595D02*
X189191Y028795D01*
X189091Y028995D01*
X189291Y028895D01*
X189491Y028995D01*
X189391Y028795D01*
X189491Y028595D01*
X189291Y028695D01*
X189091Y028595D01*
X196139Y026902D02*
X196239Y027102D01*
X196139Y027302D01*
X196339Y027202D01*
X196539Y027302D01*
X196439Y027102D01*
X196539Y026902D01*
X196339Y027002D01*
X196139Y026902D01*
Y028595D02*
X196239Y028795D01*
X196139Y028995D01*
X196339Y028895D01*
X196539Y028995D01*
X196439Y028795D01*
X196539Y028595D01*
X196339Y028695D01*
X196139Y028595D01*
X146782Y031483D02*
Y031383D01*
X146982D01*
Y031483D01*
X147082D01*
Y031683D01*
X146982D01*
Y031783D01*
X146782D01*
Y031683D01*
X146682D01*
Y031483D01*
X146782D01*
Y030483D02*
Y030383D01*
X146982D01*
Y030483D01*
X147082D01*
Y030683D01*
X146982D01*
Y030783D01*
X146782D01*
Y030683D01*
X146682D01*
Y030483D01*
X146782D01*
Y029483D02*
Y029383D01*
X146982D01*
Y029483D01*
X147082D01*
Y029683D01*
X146982D01*
Y029783D01*
X146782D01*
Y029683D01*
X146682D01*
Y029483D01*
X146782D01*
X144682Y030383D02*
X144782D01*
X144882Y030483D01*
X144982Y030383D01*
X145082D01*
Y030483D01*
X144982Y030583D01*
X145082Y030683D01*
Y030783D01*
X144982D01*
X144882Y030683D01*
X144782Y030783D01*
X144682D01*
Y030683D01*
X144782Y030583D01*
X144682Y030483D01*
Y030383D01*
X152669Y025367D02*
X152769Y025467D01*
X152869D01*
X152769Y025567D01*
X152869Y025667D01*
X152769D01*
X152669Y025767D01*
X152569Y025667D01*
X152469D01*
X152569Y025567D01*
X152469Y025467D01*
X152569D01*
X152669Y025367D01*
X150669D02*
X150769Y025467D01*
X150869D01*
X150769Y025567D01*
X150869Y025667D01*
X150769D01*
X150669Y025767D01*
X150569Y025667D01*
X150469D01*
X150569Y025567D01*
X150469Y025467D01*
X150569D01*
X150669Y025367D01*
X178496Y01569D02*
X178596Y01579D01*
X178696D01*
X178596Y01589D01*
X178696Y01599D01*
X178596D01*
X178496Y01609D01*
X178396Y01599D01*
X178296D01*
X178396Y01589D01*
X178296Y01579D01*
X178396D01*
X178496Y01569D01*
Y01769D02*
X178596Y01779D01*
X178696D01*
X178596Y01789D01*
X178696Y01799D01*
X178596D01*
X178496Y01809D01*
X178396Y01799D01*
X178296D01*
X178396Y01789D01*
X178296Y01779D01*
X178396D01*
X178496Y01769D01*
X166918Y027968D02*
X167118Y028168D01*
X167318Y027968D01*
X167118Y027768D01*
X166918Y027968D01*
X155107D02*
X155307Y028168D01*
X155507Y027968D01*
X155307Y027768D01*
X155107Y027968D01*
X137953Y021103D02*
X137753Y021503D01*
X138153D01*
X137953Y021103D01*
Y020103D02*
X137753Y020503D01*
X138153D01*
X137953Y020103D01*
X139131Y016788D02*
Y017188D01*
X139531D01*
Y016788D01*
X139131D01*
X139211Y016868D02*
Y017108D01*
X139451D01*
Y016868D01*
X139211D01*
X139131Y019788D02*
Y020188D01*
X139531D01*
Y019788D01*
X139131D01*
X139211Y019868D02*
Y020108D01*
X139451D01*
Y019868D01*
X139211D01*
X145717Y02206D02*
X145517Y02246D01*
X145917D01*
X145717Y02206D01*
X147717D02*
X147517Y02246D01*
X147917D01*
X147717Y02206D01*
X146717D02*
X146517Y02246D01*
X146917D01*
X146717Y02206D01*
X146315Y015682D02*
X146115Y016082D01*
X146515D01*
X146315Y015682D01*
Y013682D02*
X146115Y014082D01*
X146515D01*
X146315Y013682D01*
Y014682D02*
X146115Y015082D01*
X146515D01*
X146315Y014682D01*
X140579Y020017D02*
X140379Y020417D01*
X140779D01*
X140579Y020017D01*
Y020097D02*
X140459Y020337D01*
X140699D01*
X140579Y020097D01*
Y019017D02*
X140379Y019417D01*
X140779D01*
X140579Y019017D01*
Y019097D02*
X140459Y019337D01*
X140699D01*
X140579Y019097D01*
Y018017D02*
X140379Y018417D01*
X140779D01*
X140579Y018017D01*
Y018097D02*
X140459Y018337D01*
X140699D01*
X140579Y018097D01*
Y017017D02*
X140379Y017417D01*
X140779D01*
X140579Y017017D01*
Y017097D02*
X140459Y017337D01*
X140699D01*
X140579Y017097D01*
X143579Y017017D02*
X143379Y017417D01*
X143779D01*
X143579Y017017D01*
Y017097D02*
X143459Y017337D01*
X143699D01*
X143579Y017097D01*
Y018017D02*
X143379Y018417D01*
X143779D01*
X143579Y018017D01*
Y018097D02*
X143459Y018337D01*
X143699D01*
X143579Y018097D01*
Y019017D02*
X143379Y019417D01*
X143779D01*
X143579Y019017D01*
Y019097D02*
X143459Y019337D01*
X143699D01*
X143579Y019097D01*
Y020017D02*
X143379Y020417D01*
X143779D01*
X143579Y020017D01*
Y020097D02*
X143459Y020337D01*
X143699D01*
X143579Y020097D01*
X151969Y012887D02*
X151769Y013287D01*
X152169D01*
X151969Y012887D01*
X15D02*
X1498Y013287D01*
X1502D01*
X15Y012887D01*
X141535Y030902D02*
X141335Y031302D01*
X141735D01*
X141535Y030902D01*
Y031902D02*
X141335Y032302D01*
X141735D01*
X141535Y031902D01*
Y032902D02*
X141335Y033302D01*
X141735D01*
X141535Y032902D01*
X147907Y024855D02*
X148007Y024955D01*
X148107D01*
X148007Y025055D01*
X148107Y025155D01*
X148007D01*
X147907Y025255D01*
X147807Y025155D01*
X147707D01*
X147807Y025055D01*
X147707Y024955D01*
X147807D01*
X147907Y024855D01*
Y024935D02*
X147967Y024995D01*
X148027D01*
X147967Y025055D01*
X148027Y025115D01*
X147967D01*
X147907Y025175D01*
X147847Y025115D01*
X147787D01*
X147847Y025055D01*
X147787Y024995D01*
X147847D01*
X147907Y024935D01*
Y023855D02*
X148007Y023955D01*
X148107D01*
X148007Y024055D01*
X148107Y024155D01*
X148007D01*
X147907Y024255D01*
X147807Y024155D01*
X147707D01*
X147807Y024055D01*
X147707Y023955D01*
X147807D01*
X147907Y023855D01*
Y023935D02*
X147967Y023995D01*
X148027D01*
X147967Y024055D01*
X148027Y024115D01*
X147967D01*
X147907Y024175D01*
X147847Y024115D01*
X147787D01*
X147847Y024055D01*
X147787Y023995D01*
X147847D01*
X147907Y023935D01*
X144907Y023855D02*
X145007Y023955D01*
X145107D01*
X145007Y024055D01*
X145107Y024155D01*
X145007D01*
X144907Y024255D01*
X144807Y024155D01*
X144707D01*
X144807Y024055D01*
X144707Y023955D01*
X144807D01*
X144907Y023855D01*
Y023935D02*
X144967Y023995D01*
X145027D01*
X144967Y024055D01*
X145027Y024115D01*
X144967D01*
X144907Y024175D01*
X144847Y024115D01*
X144787D01*
X144847Y024055D01*
X144787Y023995D01*
X144847D01*
X144907Y023935D01*
Y024855D02*
X145007Y024955D01*
X145107D01*
X145007Y025055D01*
X145107Y025155D01*
X145007D01*
X144907Y025255D01*
X144807Y025155D01*
X144707D01*
X144807Y025055D01*
X144707Y024955D01*
X144807D01*
X144907Y024855D01*
Y024935D02*
X144967Y024995D01*
X145027D01*
X144967Y025055D01*
X145027Y025115D01*
X144967D01*
X144907Y025175D01*
X144847Y025115D01*
X144787D01*
X144847Y025055D01*
X144787Y024995D01*
X144847D01*
X144907Y024935D01*
X141339Y015957D02*
X141139Y016357D01*
X141539D01*
X141339Y015957D01*
X144339D02*
X144139Y016357D01*
X144539D01*
X144339Y015957D01*
X143701Y024698D02*
X143501Y025098D01*
X143901D01*
X143701Y024698D01*
Y021698D02*
X143501Y022098D01*
X143901D01*
X143701Y021698D01*
X144598Y020249D02*
X144398Y020649D01*
X144798D01*
X144598Y020249D01*
Y017249D02*
X144398Y017649D01*
X144798D01*
X144598Y017249D01*
X149409Y022887D02*
X149209Y023287D01*
X149609D01*
X149409Y022887D01*
Y025887D02*
X149209Y026287D01*
X149609D01*
X149409Y025887D01*
X152233Y01911D02*
X152433Y01931D01*
X152633Y01911D01*
X152433Y01891D01*
X152233Y01911D01*
X155225D02*
X155425Y01931D01*
X155625Y01911D01*
X155425Y01891D01*
X155225Y01911D01*
X162076Y019071D02*
X162276Y019271D01*
X162476Y019071D01*
X162276Y018871D01*
X162076Y019071D01*
X165068D02*
X165268Y019271D01*
X165468Y019071D01*
X165268Y018871D01*
X165068Y019071D01*
X191209Y024068D02*
X191309Y024268D01*
X191209Y024468D01*
X191409Y024368D01*
X191609Y024468D01*
X191509Y024268D01*
X191609Y024068D01*
X191409Y024168D01*
X191209Y024068D01*
X191289Y024148D02*
X191349Y024268D01*
X191289Y024388D01*
X191409Y024328D01*
X191529Y024388D01*
X191469Y024268D01*
X191529Y024148D01*
X191409Y024208D01*
X191289Y024148D01*
X194202Y024068D02*
X194302Y024268D01*
X194202Y024468D01*
X194402Y024368D01*
X194602Y024468D01*
X194502Y024268D01*
X194602Y024068D01*
X194402Y024168D01*
X194202Y024068D01*
X194282Y024148D02*
X194342Y024268D01*
X194282Y024388D01*
X194402Y024328D01*
X194522Y024388D01*
X194462Y024268D01*
X194522Y024148D01*
X194402Y024208D01*
X194282Y024148D01*
X191209Y031312D02*
X191309Y031512D01*
X191209Y031712D01*
X191409Y031612D01*
X191609Y031712D01*
X191509Y031512D01*
X191609Y031312D01*
X191409Y031412D01*
X191209Y031312D01*
X191289Y031392D02*
X191349Y031512D01*
X191289Y031632D01*
X191409Y031572D01*
X191529Y031632D01*
X191469Y031512D01*
X191529Y031392D01*
X191409Y031452D01*
X191289Y031392D01*
X194202Y031312D02*
X194302Y031512D01*
X194202Y031712D01*
X194402Y031612D01*
X194602Y031712D01*
X194502Y031512D01*
X194602Y031312D01*
X194402Y031412D01*
X194202Y031312D01*
X194282Y031392D02*
X194342Y031512D01*
X194282Y031632D01*
X194402Y031572D01*
X194522Y031632D01*
X194462Y031512D01*
X194522Y031392D01*
X194402Y031452D01*
X194282Y031392D01*
X172428Y01791D02*
X172628Y01811D01*
X172828Y01791D01*
X172628Y01771D01*
X172428Y01791D01*
X170428D02*
X170628Y01811D01*
X170828Y01791D01*
X170628Y01771D01*
X170428Y01791D01*
X172428Y015941D02*
X172628Y016141D01*
X172828Y015941D01*
X172628Y015741D01*
X172428Y015941D01*
X170428D02*
X170628Y016141D01*
X170828Y015941D01*
X170628Y015741D01*
X170428Y015941D01*
X176002Y015941D02*
X176202Y016141D01*
X176402Y015941D01*
X176202Y015741D01*
X176002Y015941D01*
X174002D02*
X174202Y016141D01*
X174402Y015941D01*
X174202Y015741D01*
X174002Y015941D01*
X176002Y01791D02*
X176202Y01811D01*
X176402Y01791D01*
X176202Y01771D01*
X176002Y01791D01*
X174002D02*
X174202Y01811D01*
X174402Y01791D01*
X174202Y01771D01*
X174002Y01791D01*
X180701Y016178D02*
X180501Y016578D01*
X180901D01*
X180701Y016178D01*
Y017178D02*
X180501Y017578D01*
X180901D01*
X180701Y017178D01*
Y015178D02*
X180501Y015578D01*
X180901D01*
X180701Y015178D01*
X191465Y01529D02*
Y01519D01*
X191665D01*
Y01529D01*
X191765D01*
Y01549D01*
X191665D01*
Y01559D01*
X191465D01*
Y01549D01*
X191365D01*
Y01529D01*
X191465D01*
X191505Y01533D02*
Y01527D01*
X191625D01*
Y01533D01*
X191685D01*
Y01545D01*
X191625D01*
Y01551D01*
X191505D01*
Y01545D01*
X191445D01*
Y01533D01*
X191505D01*
X192465Y01529D02*
Y01519D01*
X192665D01*
Y01529D01*
X192765D01*
Y01549D01*
X192665D01*
Y01559D01*
X192465D01*
Y01549D01*
X192365D01*
Y01529D01*
X192465D01*
X192505Y01533D02*
Y01527D01*
X192625D01*
Y01533D01*
X192685D01*
Y01545D01*
X192625D01*
Y01551D01*
X192505D01*
Y01545D01*
X192445D01*
Y01533D01*
X192505D01*
X193465Y01529D02*
Y01519D01*
X193665D01*
Y01529D01*
X193765D01*
Y01549D01*
X193665D01*
Y01559D01*
X193465D01*
Y01549D01*
X193365D01*
Y01529D01*
X193465D01*
X193505Y01533D02*
Y01527D01*
X193625D01*
Y01533D01*
X193685D01*
Y01545D01*
X193625D01*
Y01551D01*
X193505D01*
Y01545D01*
X193445D01*
Y01533D01*
X193505D01*
X195465Y01529D02*
Y01519D01*
X195665D01*
Y01529D01*
X195765D01*
Y01549D01*
X195665D01*
Y01559D01*
X195465D01*
Y01549D01*
X195365D01*
Y01529D01*
X195465D01*
X195505Y01533D02*
Y01527D01*
X195625D01*
Y01533D01*
X195685D01*
Y01545D01*
X195625D01*
Y01551D01*
X195505D01*
Y01545D01*
X195445D01*
Y01533D01*
X195505D01*
X196465Y01529D02*
Y01519D01*
X196665D01*
Y01529D01*
X196765D01*
Y01549D01*
X196665D01*
Y01559D01*
X196465D01*
Y01549D01*
X196365D01*
Y01529D01*
X196465D01*
X196505Y01533D02*
Y01527D01*
X196625D01*
Y01533D01*
X196685D01*
Y01545D01*
X196625D01*
Y01551D01*
X196505D01*
Y01545D01*
X196445D01*
Y01533D01*
X196505D01*
X194465Y01529D02*
Y01519D01*
X194665D01*
Y01529D01*
X194765D01*
Y01549D01*
X194665D01*
Y01559D01*
X194465D01*
Y01549D01*
X194365D01*
Y01529D01*
X194465D01*
X194505Y01533D02*
Y01527D01*
X194625D01*
Y01533D01*
X194685D01*
Y01545D01*
X194625D01*
Y01551D01*
X194505D01*
Y01545D01*
X194445D01*
Y01533D01*
X194505D01*
X178839Y043753D02*
X178939D01*
X179039Y043853D01*
X179139Y043753D01*
X179239D01*
Y043853D01*
X179139Y043953D01*
X179239Y044053D01*
Y044153D01*
X179139D01*
X179039Y044053D01*
X178939Y044153D01*
X178839D01*
Y044053D01*
X178939Y043953D01*
X178839Y043853D01*
Y043753D01*
X178919Y043833D02*
X178979D01*
X179039Y043893D01*
X179099Y043833D01*
X179159D01*
Y043893D01*
X179099Y043953D01*
X179159Y044013D01*
Y044073D01*
X179099D01*
X179039Y044013D01*
X178979Y044073D01*
X178919D01*
Y044013D01*
X178979Y043953D01*
X178919Y043893D01*
Y043833D01*
X179839Y043753D02*
X179939D01*
X180039Y043853D01*
X180139Y043753D01*
X180239D01*
Y043853D01*
X180139Y043953D01*
X180239Y044053D01*
Y044153D01*
X180139D01*
X180039Y044053D01*
X179939Y044153D01*
X179839D01*
Y044053D01*
X179939Y043953D01*
X179839Y043853D01*
Y043753D01*
X179919Y043833D02*
X179979D01*
X180039Y043893D01*
X180099Y043833D01*
X180159D01*
Y043893D01*
X180099Y043953D01*
X180159Y044013D01*
Y044073D01*
X180099D01*
X180039Y044013D01*
X179979Y044073D01*
X179919D01*
Y044013D01*
X179979Y043953D01*
X179919Y043893D01*
Y043833D01*
X180839Y043753D02*
X180939D01*
X181039Y043853D01*
X181139Y043753D01*
X181239D01*
Y043853D01*
X181139Y043953D01*
X181239Y044053D01*
Y044153D01*
X181139D01*
X181039Y044053D01*
X180939Y044153D01*
X180839D01*
Y044053D01*
X180939Y043953D01*
X180839Y043853D01*
Y043753D01*
X180919Y043833D02*
X180979D01*
X181039Y043893D01*
X181099Y043833D01*
X181159D01*
Y043893D01*
X181099Y043953D01*
X181159Y044013D01*
Y044073D01*
X181099D01*
X181039Y044013D01*
X180979Y044073D01*
X180919D01*
Y044013D01*
X180979Y043953D01*
X180919Y043893D01*
Y043833D01*
X174202Y043753D02*
X174302D01*
X174402Y043853D01*
X174502Y043753D01*
X174602D01*
Y043853D01*
X174502Y043953D01*
X174602Y044053D01*
Y044153D01*
X174502D01*
X174402Y044053D01*
X174302Y044153D01*
X174202D01*
Y044053D01*
X174302Y043953D01*
X174202Y043853D01*
Y043753D01*
X174282Y043833D02*
X174342D01*
X174402Y043893D01*
X174462Y043833D01*
X174522D01*
Y043893D01*
X174462Y043953D01*
X174522Y044013D01*
Y044073D01*
X174462D01*
X174402Y044013D01*
X174342Y044073D01*
X174282D01*
Y044013D01*
X174342Y043953D01*
X174282Y043893D01*
Y043833D01*
X175202Y043753D02*
X175302D01*
X175402Y043853D01*
X175502Y043753D01*
X175602D01*
Y043853D01*
X175502Y043953D01*
X175602Y044053D01*
Y044153D01*
X175502D01*
X175402Y044053D01*
X175302Y044153D01*
X175202D01*
Y044053D01*
X175302Y043953D01*
X175202Y043853D01*
Y043753D01*
X175282Y043833D02*
X175342D01*
X175402Y043893D01*
X175462Y043833D01*
X175522D01*
Y043893D01*
X175462Y043953D01*
X175522Y044013D01*
Y044073D01*
X175462D01*
X175402Y044013D01*
X175342Y044073D01*
X175282D01*
Y044013D01*
X175342Y043953D01*
X175282Y043893D01*
Y043833D01*
X176202Y043753D02*
X176302D01*
X176402Y043853D01*
X176502Y043753D01*
X176602D01*
Y043853D01*
X176502Y043953D01*
X176602Y044053D01*
Y044153D01*
X176502D01*
X176402Y044053D01*
X176302Y044153D01*
X176202D01*
Y044053D01*
X176302Y043953D01*
X176202Y043853D01*
Y043753D01*
X176282Y043833D02*
X176342D01*
X176402Y043893D01*
X176462Y043833D01*
X176522D01*
Y043893D01*
X176462Y043953D01*
X176522Y044013D01*
Y044073D01*
X176462D01*
X176402Y044013D01*
X176342Y044073D01*
X176282D01*
Y044013D01*
X176342Y043953D01*
X176282Y043893D01*
Y043833D01*
X169202Y043753D02*
X169302D01*
X169402Y043853D01*
X169502Y043753D01*
X169602D01*
Y043853D01*
X169502Y043953D01*
X169602Y044053D01*
Y044153D01*
X169502D01*
X169402Y044053D01*
X169302Y044153D01*
X169202D01*
Y044053D01*
X169302Y043953D01*
X169202Y043853D01*
Y043753D01*
X169282Y043833D02*
X169342D01*
X169402Y043893D01*
X169462Y043833D01*
X169522D01*
Y043893D01*
X169462Y043953D01*
X169522Y044013D01*
Y044073D01*
X169462D01*
X169402Y044013D01*
X169342Y044073D01*
X169282D01*
Y044013D01*
X169342Y043953D01*
X169282Y043893D01*
Y043833D01*
X170202Y043753D02*
X170302D01*
X170402Y043853D01*
X170502Y043753D01*
X170602D01*
Y043853D01*
X170502Y043953D01*
X170602Y044053D01*
Y044153D01*
X170502D01*
X170402Y044053D01*
X170302Y044153D01*
X170202D01*
Y044053D01*
X170302Y043953D01*
X170202Y043853D01*
Y043753D01*
X170282Y043833D02*
X170342D01*
X170402Y043893D01*
X170462Y043833D01*
X170522D01*
Y043893D01*
X170462Y043953D01*
X170522Y044013D01*
Y044073D01*
X170462D01*
X170402Y044013D01*
X170342Y044073D01*
X170282D01*
Y044013D01*
X170342Y043953D01*
X170282Y043893D01*
Y043833D01*
X171202Y043753D02*
X171302D01*
X171402Y043853D01*
X171502Y043753D01*
X171602D01*
Y043853D01*
X171502Y043953D01*
X171602Y044053D01*
Y044153D01*
X171502D01*
X171402Y044053D01*
X171302Y044153D01*
X171202D01*
Y044053D01*
X171302Y043953D01*
X171202Y043853D01*
Y043753D01*
X171282Y043833D02*
X171342D01*
X171402Y043893D01*
X171462Y043833D01*
X171522D01*
Y043893D01*
X171462Y043953D01*
X171522Y044013D01*
Y044073D01*
X171462D01*
X171402Y044013D01*
X171342Y044073D01*
X171282D01*
Y044013D01*
X171342Y043953D01*
X171282Y043893D01*
Y043833D01*
X164202Y043753D02*
X164302D01*
X164402Y043853D01*
X164502Y043753D01*
X164602D01*
Y043853D01*
X164502Y043953D01*
X164602Y044053D01*
Y044153D01*
X164502D01*
X164402Y044053D01*
X164302Y044153D01*
X164202D01*
Y044053D01*
X164302Y043953D01*
X164202Y043853D01*
Y043753D01*
X164282Y043833D02*
X164342D01*
X164402Y043893D01*
X164462Y043833D01*
X164522D01*
Y043893D01*
X164462Y043953D01*
X164522Y044013D01*
Y044073D01*
X164462D01*
X164402Y044013D01*
X164342Y044073D01*
X164282D01*
Y044013D01*
X164342Y043953D01*
X164282Y043893D01*
Y043833D01*
X165202Y043753D02*
X165302D01*
X165402Y043853D01*
X165502Y043753D01*
X165602D01*
Y043853D01*
X165502Y043953D01*
X165602Y044053D01*
Y044153D01*
X165502D01*
X165402Y044053D01*
X165302Y044153D01*
X165202D01*
Y044053D01*
X165302Y043953D01*
X165202Y043853D01*
Y043753D01*
X165282Y043833D02*
X165342D01*
X165402Y043893D01*
X165462Y043833D01*
X165522D01*
Y043893D01*
X165462Y043953D01*
X165522Y044013D01*
Y044073D01*
X165462D01*
X165402Y044013D01*
X165342Y044073D01*
X165282D01*
Y044013D01*
X165342Y043953D01*
X165282Y043893D01*
Y043833D01*
X166202Y043753D02*
X166302D01*
X166402Y043853D01*
X166502Y043753D01*
X166602D01*
Y043853D01*
X166502Y043953D01*
X166602Y044053D01*
Y044153D01*
X166502D01*
X166402Y044053D01*
X166302Y044153D01*
X166202D01*
Y044053D01*
X166302Y043953D01*
X166202Y043853D01*
Y043753D01*
X166282Y043833D02*
X166342D01*
X166402Y043893D01*
X166462Y043833D01*
X166522D01*
Y043893D01*
X166462Y043953D01*
X166522Y044013D01*
Y044073D01*
X166462D01*
X166402Y044013D01*
X166342Y044073D01*
X166282D01*
Y044013D01*
X166342Y043953D01*
X166282Y043893D01*
Y043833D01*
X159548Y043753D02*
X159648D01*
X159748Y043853D01*
X159848Y043753D01*
X159948D01*
Y043853D01*
X159848Y043953D01*
X159948Y044053D01*
Y044153D01*
X159848D01*
X159748Y044053D01*
X159648Y044153D01*
X159548D01*
Y044053D01*
X159648Y043953D01*
X159548Y043853D01*
Y043753D01*
X159628Y043833D02*
X159688D01*
X159748Y043893D01*
X159808Y043833D01*
X159868D01*
Y043893D01*
X159808Y043953D01*
X159868Y044013D01*
Y044073D01*
X159808D01*
X159748Y044013D01*
X159688Y044073D01*
X159628D01*
Y044013D01*
X159688Y043953D01*
X159628Y043893D01*
Y043833D01*
X160548Y043753D02*
X160648D01*
X160748Y043853D01*
X160848Y043753D01*
X160948D01*
Y043853D01*
X160848Y043953D01*
X160948Y044053D01*
Y044153D01*
X160848D01*
X160748Y044053D01*
X160648Y044153D01*
X160548D01*
Y044053D01*
X160648Y043953D01*
X160548Y043853D01*
Y043753D01*
X160628Y043833D02*
X160688D01*
X160748Y043893D01*
X160808Y043833D01*
X160868D01*
Y043893D01*
X160808Y043953D01*
X160868Y044013D01*
Y044073D01*
X160808D01*
X160748Y044013D01*
X160688Y044073D01*
X160628D01*
Y044013D01*
X160688Y043953D01*
X160628Y043893D01*
Y043833D01*
X161548Y043753D02*
X161648D01*
X161748Y043853D01*
X161848Y043753D01*
X161948D01*
Y043853D01*
X161848Y043953D01*
X161948Y044053D01*
Y044153D01*
X161848D01*
X161748Y044053D01*
X161648Y044153D01*
X161548D01*
Y044053D01*
X161648Y043953D01*
X161548Y043853D01*
Y043753D01*
X161628Y043833D02*
X161688D01*
X161748Y043893D01*
X161808Y043833D01*
X161868D01*
Y043893D01*
X161808Y043953D01*
X161868Y044013D01*
Y044073D01*
X161808D01*
X161748Y044013D01*
X161688Y044073D01*
X161628D01*
Y044013D01*
X161688Y043953D01*
X161628Y043893D01*
Y043833D01*
X169764Y012768D02*
X169864Y012868D01*
X169964D01*
X169864Y012968D01*
X169964Y013068D01*
X169864D01*
X169764Y013168D01*
X169664Y013068D01*
X169564D01*
X169664Y012968D01*
X169564Y012868D01*
X169664D01*
X169764Y012768D01*
X171772D02*
X171872Y012868D01*
X171972D01*
X171872Y012968D01*
X171972Y013068D01*
X171872D01*
X171772Y013168D01*
X171672Y013068D01*
X171572D01*
X171672Y012968D01*
X171572Y012868D01*
X171672D01*
X171772Y012768D01*
X180354Y012926D02*
X180154Y013326D01*
X180554D01*
X180354Y012926D01*
X181354D02*
X181154Y013326D01*
X181554D01*
X181354Y012926D01*
X182354D02*
X182154Y013326D01*
X182554D01*
X182354Y012926D01*
X183551Y016119D02*
X183351Y016519D01*
X183751D01*
X183551Y016119D01*
Y017119D02*
X183351Y017519D01*
X183751D01*
X183551Y017119D01*
X186409Y016099D02*
X186209Y016499D01*
X186609D01*
X186409Y016099D01*
Y017099D02*
X186209Y017499D01*
X186609D01*
X186409Y017099D01*
X168417Y046753D02*
X168217Y047153D01*
X168617D01*
X168417Y046753D01*
Y043753D02*
X168217Y044153D01*
X168617D01*
X168417Y043753D01*
X162732D02*
X162532Y044153D01*
X162932D01*
X162732Y043753D01*
Y046753D02*
X162532Y047153D01*
X162932D01*
X162732Y046753D01*
X167402Y043753D02*
X167202Y044153D01*
X167602D01*
X167402Y043753D01*
Y046753D02*
X167202Y047153D01*
X167602D01*
X167402Y046753D01*
X172386Y043753D02*
X172186Y044153D01*
X172586D01*
X172386Y043753D01*
Y046753D02*
X172186Y047153D01*
X172586D01*
X172386Y046753D01*
X177402Y043753D02*
X177202Y044153D01*
X177602D01*
X177402Y043753D01*
Y046753D02*
X177202Y047153D01*
X177602D01*
X177402Y046753D01*
X182047Y043753D02*
X181847Y044153D01*
X182247D01*
X182047Y043753D01*
Y046753D02*
X181847Y047153D01*
X182247D01*
X182047Y046753D01*
X15491Y043753D02*
X15501D01*
X15511Y043853D01*
X15521Y043753D01*
X15531D01*
Y043853D01*
X15521Y043953D01*
X15531Y044053D01*
Y044153D01*
X15521D01*
X15511Y044053D01*
X15501Y044153D01*
X15491D01*
Y044053D01*
X15501Y043953D01*
X15491Y043853D01*
Y043753D01*
X15499Y043833D02*
X15505D01*
X15511Y043893D01*
X15517Y043833D01*
X15523D01*
Y043893D01*
X15517Y043953D01*
X15523Y044013D01*
Y044073D01*
X15517D01*
X15511Y044013D01*
X15505Y044073D01*
X15499D01*
Y044013D01*
X15505Y043953D01*
X15499Y043893D01*
Y043833D01*
X15591Y043753D02*
X15601D01*
X15611Y043853D01*
X15621Y043753D01*
X15631D01*
Y043853D01*
X15621Y043953D01*
X15631Y044053D01*
Y044153D01*
X15621D01*
X15611Y044053D01*
X15601Y044153D01*
X15591D01*
Y044053D01*
X15601Y043953D01*
X15591Y043853D01*
Y043753D01*
X15599Y043833D02*
X15605D01*
X15611Y043893D01*
X15617Y043833D01*
X15623D01*
Y043893D01*
X15617Y043953D01*
X15623Y044013D01*
Y044073D01*
X15617D01*
X15611Y044013D01*
X15605Y044073D01*
X15599D01*
Y044013D01*
X15605Y043953D01*
X15599Y043893D01*
Y043833D01*
X15691Y043753D02*
X15701D01*
X15711Y043853D01*
X15721Y043753D01*
X15731D01*
Y043853D01*
X15721Y043953D01*
X15731Y044053D01*
Y044153D01*
X15721D01*
X15711Y044053D01*
X15701Y044153D01*
X15691D01*
Y044053D01*
X15701Y043953D01*
X15691Y043853D01*
Y043753D01*
X15699Y043833D02*
X15705D01*
X15711Y043893D01*
X15717Y043833D01*
X15723D01*
Y043893D01*
X15717Y043953D01*
X15723Y044013D01*
Y044073D01*
X15717D01*
X15711Y044013D01*
X15705Y044073D01*
X15699D01*
Y044013D01*
X15705Y043953D01*
X15699Y043893D01*
Y043833D01*
X150272Y043753D02*
X150372D01*
X150472Y043853D01*
X150572Y043753D01*
X150672D01*
Y043853D01*
X150572Y043953D01*
X150672Y044053D01*
Y044153D01*
X150572D01*
X150472Y044053D01*
X150372Y044153D01*
X150272D01*
Y044053D01*
X150372Y043953D01*
X150272Y043853D01*
Y043753D01*
X150352Y043833D02*
X150412D01*
X150472Y043893D01*
X150532Y043833D01*
X150592D01*
Y043893D01*
X150532Y043953D01*
X150592Y044013D01*
Y044073D01*
X150532D01*
X150472Y044013D01*
X150412Y044073D01*
X150352D01*
Y044013D01*
X150412Y043953D01*
X150352Y043893D01*
Y043833D01*
X151272Y043753D02*
X151372D01*
X151472Y043853D01*
X151572Y043753D01*
X151672D01*
Y043853D01*
X151572Y043953D01*
X151672Y044053D01*
Y044153D01*
X151572D01*
X151472Y044053D01*
X151372Y044153D01*
X151272D01*
Y044053D01*
X151372Y043953D01*
X151272Y043853D01*
Y043753D01*
X151352Y043833D02*
X151412D01*
X151472Y043893D01*
X151532Y043833D01*
X151592D01*
Y043893D01*
X151532Y043953D01*
X151592Y044013D01*
Y044073D01*
X151532D01*
X151472Y044013D01*
X151412Y044073D01*
X151352D01*
Y044013D01*
X151412Y043953D01*
X151352Y043893D01*
Y043833D01*
X152272Y043753D02*
X152372D01*
X152472Y043853D01*
X152572Y043753D01*
X152672D01*
Y043853D01*
X152572Y043953D01*
X152672Y044053D01*
Y044153D01*
X152572D01*
X152472Y044053D01*
X152372Y044153D01*
X152272D01*
Y044053D01*
X152372Y043953D01*
X152272Y043853D01*
Y043753D01*
X152352Y043833D02*
X152412D01*
X152472Y043893D01*
X152532Y043833D01*
X152592D01*
Y043893D01*
X152532Y043953D01*
X152592Y044013D01*
Y044073D01*
X152532D01*
X152472Y044013D01*
X152412Y044073D01*
X152352D01*
Y044013D01*
X152412Y043953D01*
X152352Y043893D01*
Y043833D01*
X158094Y043753D02*
X157894Y044153D01*
X158294D01*
X158094Y043753D01*
Y046753D02*
X157894Y047153D01*
X158294D01*
X158094Y046753D01*
X153457Y043753D02*
X153257Y044153D01*
X153657D01*
X153457Y043753D01*
Y046753D02*
X153257Y047153D01*
X153657D01*
X153457Y046753D01*
X196441Y043753D02*
X196241Y044153D01*
X196641D01*
X196441Y043753D01*
Y046753D02*
X196241Y047153D01*
X196641D01*
X196441Y046753D01*
X191488Y043753D02*
X191288Y044153D01*
X191688D01*
X191488Y043753D01*
Y046753D02*
X191288Y047153D01*
X191688D01*
X191488Y046753D01*
X200146Y042965D02*
X200246D01*
X200346Y043065D01*
X200446Y042965D01*
X200546D01*
Y043065D01*
X200446Y043165D01*
X200546Y043265D01*
Y043365D01*
X200446D01*
X200346Y043265D01*
X200246Y043365D01*
X200146D01*
Y043265D01*
X200246Y043165D01*
X200146Y043065D01*
Y042965D01*
X200226Y043045D02*
X200286D01*
X200346Y043105D01*
X200406Y043045D01*
X200466D01*
Y043105D01*
X200406Y043165D01*
X200466Y043225D01*
Y043285D01*
X200406D01*
X200346Y043225D01*
X200286Y043285D01*
X200226D01*
Y043225D01*
X200286Y043165D01*
X200226Y043105D01*
Y043045D01*
X200146Y044225D02*
X200246D01*
X200346Y044325D01*
X200446Y044225D01*
X200546D01*
Y044325D01*
X200446Y044425D01*
X200546Y044525D01*
Y044625D01*
X200446D01*
X200346Y044525D01*
X200246Y044625D01*
X200146D01*
Y044525D01*
X200246Y044425D01*
X200146Y044325D01*
Y044225D01*
X200226Y044305D02*
X200286D01*
X200346Y044365D01*
X200406Y044305D01*
X200466D01*
Y044365D01*
X200406Y044425D01*
X200466Y044485D01*
Y044545D01*
X200406D01*
X200346Y044485D01*
X200286Y044545D01*
X200226D01*
Y044485D01*
X200286Y044425D01*
X200226Y044365D01*
Y044305D01*
X200146Y048005D02*
X200246D01*
X200346Y048105D01*
X200446Y048005D01*
X200546D01*
Y048105D01*
X200446Y048205D01*
X200546Y048305D01*
Y048405D01*
X200446D01*
X200346Y048305D01*
X200246Y048405D01*
X200146D01*
Y048305D01*
X200246Y048205D01*
X200146Y048105D01*
Y048005D01*
X200226Y048085D02*
X200286D01*
X200346Y048145D01*
X200406Y048085D01*
X200466D01*
Y048145D01*
X200406Y048205D01*
X200466Y048265D01*
Y048325D01*
X200406D01*
X200346Y048265D01*
X200286Y048325D01*
X200226D01*
Y048265D01*
X200286Y048205D01*
X200226Y048145D01*
Y048085D01*
X200146Y046745D02*
X200246D01*
X200346Y046845D01*
X200446Y046745D01*
X200546D01*
Y046845D01*
X200446Y046945D01*
X200546Y047045D01*
Y047145D01*
X200446D01*
X200346Y047045D01*
X200246Y047145D01*
X200146D01*
Y047045D01*
X200246Y046945D01*
X200146Y046845D01*
Y046745D01*
X200226Y046825D02*
X200286D01*
X200346Y046885D01*
X200406Y046825D01*
X200466D01*
Y046885D01*
X200406Y046945D01*
X200466Y047005D01*
Y047065D01*
X200406D01*
X200346Y047005D01*
X200286Y047065D01*
X200226D01*
Y047005D01*
X200286Y046945D01*
X200226Y046885D01*
Y046825D01*
X204202Y048005D02*
X204302D01*
X204402Y048105D01*
X204502Y048005D01*
X204602D01*
Y048105D01*
X204502Y048205D01*
X204602Y048305D01*
Y048405D01*
X204502D01*
X204402Y048305D01*
X204302Y048405D01*
X204202D01*
Y048305D01*
X204302Y048205D01*
X204202Y048105D01*
Y048005D01*
X204282Y048085D02*
X204342D01*
X204402Y048145D01*
X204462Y048085D01*
X204522D01*
Y048145D01*
X204462Y048205D01*
X204522Y048265D01*
Y048325D01*
X204462D01*
X204402Y048265D01*
X204342Y048325D01*
X204282D01*
Y048265D01*
X204342Y048205D01*
X204282Y048145D01*
Y048085D01*
X204202Y042965D02*
X204302D01*
X204402Y043065D01*
X204502Y042965D01*
X204602D01*
Y043065D01*
X204502Y043165D01*
X204602Y043265D01*
Y043365D01*
X204502D01*
X204402Y043265D01*
X204302Y043365D01*
X204202D01*
Y043265D01*
X204302Y043165D01*
X204202Y043065D01*
Y042965D01*
X204282Y043045D02*
X204342D01*
X204402Y043105D01*
X204462Y043045D01*
X204522D01*
Y043105D01*
X204462Y043165D01*
X204522Y043225D01*
Y043285D01*
X204462D01*
X204402Y043225D01*
X204342Y043285D01*
X204282D01*
Y043225D01*
X204342Y043165D01*
X204282Y043105D01*
Y043045D01*
X192472Y046753D02*
X192272Y047153D01*
X192672D01*
X192472Y046753D01*
Y043753D02*
X192272Y044153D01*
X192672D01*
X192472Y043753D01*
X186811D02*
X186611Y044153D01*
X187011D01*
X186811Y043753D01*
Y046753D02*
X186611Y047153D01*
X187011D01*
X186811Y046753D01*
X193257Y043753D02*
X193357D01*
X193457Y043853D01*
X193557Y043753D01*
X193657D01*
Y043853D01*
X193557Y043953D01*
X193657Y044053D01*
Y044153D01*
X193557D01*
X193457Y044053D01*
X193357Y044153D01*
X193257D01*
Y044053D01*
X193357Y043953D01*
X193257Y043853D01*
Y043753D01*
X193337Y043833D02*
X193397D01*
X193457Y043893D01*
X193517Y043833D01*
X193577D01*
Y043893D01*
X193517Y043953D01*
X193577Y044013D01*
Y044073D01*
X193517D01*
X193457Y044013D01*
X193397Y044073D01*
X193337D01*
Y044013D01*
X193397Y043953D01*
X193337Y043893D01*
Y043833D01*
X194257Y043753D02*
X194357D01*
X194457Y043853D01*
X194557Y043753D01*
X194657D01*
Y043853D01*
X194557Y043953D01*
X194657Y044053D01*
Y044153D01*
X194557D01*
X194457Y044053D01*
X194357Y044153D01*
X194257D01*
Y044053D01*
X194357Y043953D01*
X194257Y043853D01*
Y043753D01*
X194337Y043833D02*
X194397D01*
X194457Y043893D01*
X194517Y043833D01*
X194577D01*
Y043893D01*
X194517Y043953D01*
X194577Y044013D01*
Y044073D01*
X194517D01*
X194457Y044013D01*
X194397Y044073D01*
X194337D01*
Y044013D01*
X194397Y043953D01*
X194337Y043893D01*
Y043833D01*
X195257Y043753D02*
X195357D01*
X195457Y043853D01*
X195557Y043753D01*
X195657D01*
Y043853D01*
X195557Y043953D01*
X195657Y044053D01*
Y044153D01*
X195557D01*
X195457Y044053D01*
X195357Y044153D01*
X195257D01*
Y044053D01*
X195357Y043953D01*
X195257Y043853D01*
Y043753D01*
X195337Y043833D02*
X195397D01*
X195457Y043893D01*
X195517Y043833D01*
X195577D01*
Y043893D01*
X195517Y043953D01*
X195577Y044013D01*
Y044073D01*
X195517D01*
X195457Y044013D01*
X195397Y044073D01*
X195337D01*
Y044013D01*
X195397Y043953D01*
X195337Y043893D01*
Y043833D01*
X188265Y043753D02*
X188365D01*
X188465Y043853D01*
X188565Y043753D01*
X188665D01*
Y043853D01*
X188565Y043953D01*
X188665Y044053D01*
Y044153D01*
X188565D01*
X188465Y044053D01*
X188365Y044153D01*
X188265D01*
Y044053D01*
X188365Y043953D01*
X188265Y043853D01*
Y043753D01*
X188345Y043833D02*
X188405D01*
X188465Y043893D01*
X188525Y043833D01*
X188585D01*
Y043893D01*
X188525Y043953D01*
X188585Y044013D01*
Y044073D01*
X188525D01*
X188465Y044013D01*
X188405Y044073D01*
X188345D01*
Y044013D01*
X188405Y043953D01*
X188345Y043893D01*
Y043833D01*
X189265Y043753D02*
X189365D01*
X189465Y043853D01*
X189565Y043753D01*
X189665D01*
Y043853D01*
X189565Y043953D01*
X189665Y044053D01*
Y044153D01*
X189565D01*
X189465Y044053D01*
X189365Y044153D01*
X189265D01*
Y044053D01*
X189365Y043953D01*
X189265Y043853D01*
Y043753D01*
X189345Y043833D02*
X189405D01*
X189465Y043893D01*
X189525Y043833D01*
X189585D01*
Y043893D01*
X189525Y043953D01*
X189585Y044013D01*
Y044073D01*
X189525D01*
X189465Y044013D01*
X189405Y044073D01*
X189345D01*
Y044013D01*
X189405Y043953D01*
X189345Y043893D01*
Y043833D01*
X190265Y043753D02*
X190365D01*
X190465Y043853D01*
X190565Y043753D01*
X190665D01*
Y043853D01*
X190565Y043953D01*
X190665Y044053D01*
Y044153D01*
X190565D01*
X190465Y044053D01*
X190365Y044153D01*
X190265D01*
Y044053D01*
X190365Y043953D01*
X190265Y043853D01*
Y043753D01*
X190345Y043833D02*
X190405D01*
X190465Y043893D01*
X190525Y043833D01*
X190585D01*
Y043893D01*
X190525Y043953D01*
X190585Y044013D01*
Y044073D01*
X190525D01*
X190465Y044013D01*
X190405Y044073D01*
X190345D01*
Y044013D01*
X190405Y043953D01*
X190345Y043893D01*
Y043833D01*
X183501Y043753D02*
X183601D01*
X183701Y043853D01*
X183801Y043753D01*
X183901D01*
Y043853D01*
X183801Y043953D01*
X183901Y044053D01*
Y044153D01*
X183801D01*
X183701Y044053D01*
X183601Y044153D01*
X183501D01*
Y044053D01*
X183601Y043953D01*
X183501Y043853D01*
Y043753D01*
X183581Y043833D02*
X183641D01*
X183701Y043893D01*
X183761Y043833D01*
X183821D01*
Y043893D01*
X183761Y043953D01*
X183821Y044013D01*
Y044073D01*
X183761D01*
X183701Y044013D01*
X183641Y044073D01*
X183581D01*
Y044013D01*
X183641Y043953D01*
X183581Y043893D01*
Y043833D01*
X184501Y043753D02*
X184601D01*
X184701Y043853D01*
X184801Y043753D01*
X184901D01*
Y043853D01*
X184801Y043953D01*
X184901Y044053D01*
Y044153D01*
X184801D01*
X184701Y044053D01*
X184601Y044153D01*
X184501D01*
Y044053D01*
X184601Y043953D01*
X184501Y043853D01*
Y043753D01*
X184581Y043833D02*
X184641D01*
X184701Y043893D01*
X184761Y043833D01*
X184821D01*
Y043893D01*
X184761Y043953D01*
X184821Y044013D01*
Y044073D01*
X184761D01*
X184701Y044013D01*
X184641Y044073D01*
X184581D01*
Y044013D01*
X184641Y043953D01*
X184581Y043893D01*
Y043833D01*
X185501Y043753D02*
X185601D01*
X185701Y043853D01*
X185801Y043753D01*
X185901D01*
Y043853D01*
X185801Y043953D01*
X185901Y044053D01*
Y044153D01*
X185801D01*
X185701Y044053D01*
X185601Y044153D01*
X185501D01*
Y044053D01*
X185601Y043953D01*
X185501Y043853D01*
Y043753D01*
X185581Y043833D02*
X185641D01*
X185701Y043893D01*
X185761Y043833D01*
X185821D01*
Y043893D01*
X185761Y043953D01*
X185821Y044013D01*
Y044073D01*
X185761D01*
X185701Y044013D01*
X185641Y044073D01*
X185581D01*
Y044013D01*
X185641Y043953D01*
X185581Y043893D01*
Y043833D01*
X146859Y02643D02*
Y02683D01*
X147259D01*
Y02643D01*
X146859D01*
X146939Y02651D02*
Y02675D01*
X147179D01*
Y02651D01*
X146939D01*
X143859Y02643D02*
Y02683D01*
X144259D01*
Y02643D01*
X143859D01*
X143939Y02651D02*
Y02675D01*
X144179D01*
Y02651D01*
X143939D01*
X139631Y031509D02*
Y031909D01*
X140031D01*
Y031509D01*
X139631D01*
X139711Y031589D02*
Y031829D01*
X139951D01*
Y031589D01*
X139711D01*
X136631Y031509D02*
Y031909D01*
X137031D01*
Y031509D01*
X136631D01*
X136711Y031589D02*
Y031829D01*
X136951D01*
Y031589D01*
X136711D01*
X136764Y032926D02*
X136564Y033326D01*
X136964D01*
X136764Y032926D01*
X139764D02*
X139564Y033326D01*
X139964D01*
X139764Y032926D01*
X15201Y031467D02*
Y031367D01*
X15221D01*
Y031467D01*
X15231D01*
Y031667D01*
X15221D01*
Y031767D01*
X15201D01*
Y031667D01*
X15191D01*
Y031467D01*
X15201D01*
Y030467D02*
Y030367D01*
X15221D01*
Y030467D01*
X15231D01*
Y030667D01*
X15221D01*
Y030767D01*
X15201D01*
Y030667D01*
X15191D01*
Y030467D01*
X15201D01*
Y029467D02*
Y029367D01*
X15221D01*
Y029467D01*
X15231D01*
Y029667D01*
X15221D01*
Y029767D01*
X15201D01*
Y029667D01*
X15191D01*
Y029467D01*
X15201D01*
X14991Y030367D02*
X15001D01*
X15011Y030467D01*
X15021Y030367D01*
X15031D01*
Y030467D01*
X15021Y030567D01*
X15031Y030667D01*
Y030767D01*
X15021D01*
X15011Y030667D01*
X15001Y030767D01*
X14991D01*
Y030667D01*
X15001Y030567D01*
X14991Y030467D01*
Y030367D01*
X177808Y012887D02*
X177908Y013087D01*
X177808Y013287D01*
X178008Y013187D01*
X178208Y013287D01*
X178108Y013087D01*
X178208Y012887D01*
X178008Y012987D01*
X177808Y012887D01*
X137441Y028441D02*
Y028774D01*
X137608Y028941D01*
X137774Y028774D01*
Y028441D01*
Y028691D01*
X137441D01*
X142165Y028441D02*
Y028774D01*
X142332Y028941D01*
X142499Y028774D01*
Y028441D01*
Y028691D01*
X142165D01*
X137365Y023638D02*
Y023971D01*
X137532Y024138D01*
X137699Y023971D01*
Y023638D01*
Y023888D01*
X137365D01*
X142165Y023638D02*
Y023971D01*
X142332Y024138D01*
X142499Y023971D01*
Y023638D01*
Y023888D01*
X142165D01*
X139803Y029228D02*
Y029562D01*
X13997Y029728D01*
X140136Y029562D01*
Y029228D01*
Y029478D01*
X139803D01*
X173386Y046753D02*
X173186Y047153D01*
X173586D01*
X173386Y046753D01*
Y043753D02*
X173186Y044153D01*
X173586D01*
X173386Y043753D01*
X147178Y045606D02*
X147378Y045806D01*
X147578Y045606D01*
X147378Y045406D01*
X147178Y045606D01*
Y047575D02*
X147378Y047775D01*
X147578Y047575D01*
X147378Y047375D01*
X147178Y047575D01*
X138123D02*
X138323Y047775D01*
X138523Y047575D01*
X138323Y047375D01*
X138123Y047575D01*
Y035764D02*
X138323Y035964D01*
X138523Y035764D01*
X138323Y035564D01*
X138123Y035764D01*
Y037732D02*
X138323Y037932D01*
X138523Y037732D01*
X138323Y037532D01*
X138123Y037732D01*
Y041669D02*
X138323Y041869D01*
X138523Y041669D01*
X138323Y041469D01*
X138123Y041669D01*
Y039701D02*
X138323Y039901D01*
X138523Y039701D01*
X138323Y039501D01*
X138123Y039701D01*
Y043638D02*
X138323Y043838D01*
X138523Y043638D01*
X138323Y043438D01*
X138123Y043638D01*
Y045606D02*
X138323Y045806D01*
X138523Y045606D01*
X138323Y045406D01*
X138123Y045606D01*
X147178Y043638D02*
X147378Y043838D01*
X147578Y043638D01*
X147378Y043438D01*
X147178Y043638D01*
Y041669D02*
X147378Y041869D01*
X147578Y041669D01*
X147378Y041469D01*
X147178Y041669D01*
Y037732D02*
X147378Y037932D01*
X147578Y037732D01*
X147378Y037532D01*
X147178Y037732D01*
Y039701D02*
X147378Y039901D01*
X147578Y039701D01*
X147378Y039501D01*
X147178Y039701D01*
Y035764D02*
X147378Y035964D01*
X147578Y035764D01*
X147378Y035564D01*
X147178Y035764D01*
D90*
X140058Y016028D02*
X140035Y016121D01*
X139972Y016192D01*
X139882Y016226D01*
X139787Y016215D01*
X139709Y01616D01*
X139664Y016075D01*
Y01598D01*
X139709Y015895D01*
X139787Y015841D01*
X139882Y015829D01*
X139972Y015863D01*
X140035Y015935D01*
X140058Y016028D01*
Y015028D02*
X140035Y015121D01*
X139972Y015192D01*
X139882Y015226D01*
X139787Y015215D01*
X139709Y01516D01*
X139664Y015075D01*
Y01498D01*
X139709Y014895D01*
X139787Y014841D01*
X139882Y014829D01*
X139972Y014863D01*
X140035Y014935D01*
X140058Y015028D01*
X142802Y015016D02*
X142779Y015109D01*
X142716Y01518D01*
X142626Y015214D01*
X142531Y015203D01*
X142453Y015148D01*
X142408Y015064D01*
Y014968D01*
X142453Y014883D01*
X142531Y014829D01*
X142626Y014817D01*
X142716Y014851D01*
X142779Y014923D01*
X142802Y015016D01*
X143802D02*
X143779Y015109D01*
X143716Y01518D01*
X143626Y015214D01*
X143531Y015203D01*
X143453Y015148D01*
X143408Y015064D01*
Y014968D01*
X143453Y014883D01*
X143531Y014829D01*
X143626Y014817D01*
X143716Y014851D01*
X143779Y014923D01*
X143802Y015016D01*
X147121Y018307D02*
X147098Y0184D01*
X147035Y018472D01*
X146945Y018506D01*
X14685Y018494D01*
X146772Y01844D01*
X146727Y018355D01*
Y018259D01*
X146772Y018174D01*
X14685Y01812D01*
X146945Y018109D01*
X147035Y018142D01*
X147098Y018214D01*
X147121Y018307D01*
Y020307D02*
X147098Y0204D01*
X147035Y020472D01*
X146945Y020506D01*
X14685Y020494D01*
X146772Y02044D01*
X146727Y020355D01*
Y020259D01*
X146772Y020174D01*
X14685Y02012D01*
X146945Y020109D01*
X147035Y020142D01*
X147098Y020214D01*
X147121Y020307D01*
X145893Y020302D02*
X14587Y020395D01*
X145806Y020467D01*
X145717Y020501D01*
X145622Y020489D01*
X145543Y020435D01*
X145498Y02035D01*
Y020254D01*
X145543Y020169D01*
X145622Y020115D01*
X145717Y020103D01*
X145806Y020137D01*
X14587Y020209D01*
X145893Y020302D01*
Y018302D02*
X14587Y018395D01*
X145806Y018467D01*
X145717Y018501D01*
X145622Y018489D01*
X145543Y018435D01*
X145498Y01835D01*
Y018254D01*
X145543Y018169D01*
X145622Y018115D01*
X145717Y018103D01*
X145806Y018137D01*
X14587Y018209D01*
X145893Y018302D01*
D91*
X147041Y018307D02*
X147006Y018392D01*
X146921Y018427D01*
X146836Y018392D01*
X146801Y018307D01*
X146836Y018222D01*
X146921Y018187D01*
X147006Y018222D01*
X147041Y018307D01*
Y020307D02*
X147006Y020392D01*
X146921Y020427D01*
X146836Y020392D01*
X146801Y020307D01*
X146836Y020222D01*
X146921Y020187D01*
X147006Y020222D01*
X147041Y020307D01*
X145813Y020302D02*
X145777Y020387D01*
X145693Y020422D01*
X145608Y020387D01*
X145573Y020302D01*
X145608Y020217D01*
X145693Y020182D01*
X145777Y020217D01*
X145813Y020302D01*
Y018302D02*
X145777Y018387D01*
X145693Y018422D01*
X145608Y018387D01*
X145573Y018302D01*
X145608Y018217D01*
X145693Y018182D01*
X145777Y018217D01*
X145813Y018302D01*
M02*
