%FSTAX24Y24*%
%MOIN*%
G70*
G01*
G75*
%ADD10C,0.0787*%
%ADD11C,0.1575*%
%ADD12C,0.1181*%
%ADD13C,0.0591*%
%ADD14C,0.0000*%
%ADD15C,0.1000*%
%ADD16C,0.0591*%
%ADD17R,0.0630X0.0630*%
%ADD18C,0.0630*%
%ADD19C,0.0787*%
%ADD20C,0.2362*%
G04:AMPARAMS|DCode=21|XSize=70mil|YSize=90mil|CornerRadius=0mil|HoleSize=0mil|Usage=FLASHONLY|Rotation=90.000|XOffset=0mil|YOffset=0mil|HoleType=Round|Shape=Octagon|*
%AMOCTAGOND21*
4,1,8,-0.0450,-0.0175,-0.0450,0.0175,-0.0275,0.0350,0.0275,0.0350,0.0450,0.0175,0.0450,-0.0175,0.0275,-0.0350,-0.0275,-0.0350,-0.0450,-0.0175,0.0*
%
%ADD21OCTAGOND21*%

%ADD22C,0.0984*%
%ADD23O,0.0591X0.0512*%
%ADD24R,0.0591X0.0512*%
%ADD25R,0.0800X0.0800*%
%ADD26C,0.0800*%
%ADD27R,0.1000X0.0650*%
%ADD28O,0.1000X0.0650*%
%ADD29R,0.0630X0.0630*%
%ADD30O,0.0787X0.0591*%
%ADD31O,0.0787X0.0630*%
%ADD32O,0.0900X0.0600*%
%ADD33R,0.0900X0.0600*%
%ADD34C,0.0709*%
%ADD35C,0.1181*%
%ADD36R,0.1181X0.1181*%
%ADD37O,0.0650X0.1000*%
%ADD38R,0.0650X0.1000*%
%ADD39O,0.0709X0.0866*%
%ADD40R,0.0709X0.0866*%
%ADD41O,0.0800X0.1000*%
%ADD42R,0.0800X0.1000*%
%ADD43O,0.0630X0.0787*%
%ADD44R,0.0800X0.0800*%
%ADD45C,0.1200*%
%ADD46C,0.0079*%
%ADD47C,0.0100*%
%ADD48C,0.0120*%
%ADD49C,0.0070*%
%ADD50C,0.0150*%
%ADD51C,0.0250*%
%ADD52C,0.0039*%
%ADD53C,0.0080*%
%ADD54R,0.1260X0.0200*%
%ADD55R,0.0550X0.0150*%
%ADD56R,0.0150X0.0550*%
%ADD57R,0.3990X0.0360*%
%ADD58R,0.0200X0.1260*%
D46*
X15348Y02978D02*
X153412Y029699D01*
X153357Y029609D01*
X153316Y029512D01*
X153292Y029409D01*
X153283Y029304D01*
X15348Y02978D02*
X153551Y029858D01*
X153612Y029944D01*
X153663Y030037D01*
X153703Y030134D01*
X153732Y030235D01*
X15375Y03034D01*
X153756Y030445D01*
Y030466D02*
X153748Y030564D01*
X153725Y030659D01*
X153688Y030749D01*
X153637Y030833D01*
X153573Y030907D01*
X153323Y031512D02*
X153328Y031416D01*
X153344Y031321D01*
X153371Y031229D01*
X153408Y031141D01*
X153454Y031057D01*
X153509Y030978D01*
X153573Y030907D01*
X153434Y031781D02*
X153374Y031702D01*
X153336Y03161D01*
X153323Y031512D01*
X153756Y030445D02*
Y030466D01*
X153434Y031781D02*
X15348Y031827D01*
X142239Y015907D02*
Y016407D01*
Y015907D02*
X143489D01*
Y016407D01*
X142239D02*
X143489D01*
X141789Y016157D02*
X142239D01*
X143489D02*
X143889D01*
X143451Y023998D02*
X143951D01*
X143451Y022748D02*
Y023998D01*
Y022748D02*
X143951D01*
Y023998D01*
X143701D02*
Y024448D01*
Y022348D02*
Y022748D01*
X144348Y019549D02*
X144848D01*
X144348Y018299D02*
Y019549D01*
Y018299D02*
X144848D01*
Y019549D01*
X144598D02*
Y019999D01*
Y017899D02*
Y018299D01*
X149159Y023987D02*
X149659D01*
Y025237D01*
X149159D02*
X149659D01*
X149159Y023987D02*
Y025237D01*
X149409Y023537D02*
Y023987D01*
Y025237D02*
Y025637D01*
X168417Y046103D02*
Y046503D01*
Y044403D02*
Y044853D01*
X168167D02*
Y046103D01*
X168667D01*
Y044853D02*
Y046103D01*
X168167Y044853D02*
X168667D01*
X162732Y044403D02*
Y044803D01*
Y046053D02*
Y046503D01*
X162982Y044803D02*
Y046053D01*
X162482Y044803D02*
X162982D01*
X162482D02*
Y046053D01*
X162982D01*
X167402Y044403D02*
Y044803D01*
Y046053D02*
Y046503D01*
X167652Y044803D02*
Y046053D01*
X167152Y044803D02*
X167652D01*
X167152D02*
Y046053D01*
X167652D01*
X172386Y044403D02*
Y044803D01*
Y046053D02*
Y046503D01*
X172636Y044803D02*
Y046053D01*
X172136Y044803D02*
X172636D01*
X172136D02*
Y046053D01*
X172636D01*
X177402Y044403D02*
Y044803D01*
Y046053D02*
Y046503D01*
X177652Y044803D02*
Y046053D01*
X177152Y044803D02*
X177652D01*
X177152D02*
Y046053D01*
X177652D01*
X182047Y044403D02*
Y044803D01*
Y046053D02*
Y046503D01*
X182297Y044803D02*
Y046053D01*
X181797Y044803D02*
X182297D01*
X181797D02*
Y046053D01*
X182297D01*
X158094Y044403D02*
Y044803D01*
Y046053D02*
Y046503D01*
X158344Y044803D02*
Y046053D01*
X157844Y044803D02*
X158344D01*
X157844D02*
Y046053D01*
X158344D01*
X153457Y044403D02*
Y044803D01*
Y046053D02*
Y046503D01*
X153707Y044803D02*
Y046053D01*
X153207Y044803D02*
X153707D01*
X153207D02*
Y046053D01*
X153707D01*
X196441Y044403D02*
Y044803D01*
Y046053D02*
Y046503D01*
X196691Y044803D02*
Y046053D01*
X196191Y044803D02*
X196691D01*
X196191D02*
Y046053D01*
X196691D01*
X191488Y044403D02*
Y044803D01*
Y046053D02*
Y046503D01*
X191738Y044803D02*
Y046053D01*
X191238Y044803D02*
X191738D01*
X191238D02*
Y046053D01*
X191738D01*
X192472Y046103D02*
Y046503D01*
Y044403D02*
Y044853D01*
X192222D02*
Y046103D01*
X192722D01*
Y044853D02*
Y046103D01*
X192222Y044853D02*
X192722D01*
X186811Y044403D02*
Y044803D01*
Y046053D02*
Y046503D01*
X187061Y044803D02*
Y046053D01*
X186561Y044803D02*
X187061D01*
X186561D02*
Y046053D01*
X187061D01*
X137214Y033126D02*
X137614D01*
X138864D02*
X139314D01*
X137614Y032876D02*
X138864D01*
X137614D02*
Y033376D01*
X138864D01*
Y032876D02*
Y033376D01*
X173386Y046103D02*
Y046503D01*
Y044403D02*
Y044853D01*
X173136D02*
Y046103D01*
X173636D01*
Y044853D02*
Y046103D01*
X173136Y044853D02*
X173636D01*
X136157Y049465D02*
X205055D01*
X136157Y010094D02*
Y049465D01*
Y010094D02*
X205055D01*
Y049465D01*
X140987Y011058D02*
X14138D01*
X141184D01*
Y01132D01*
X140987D01*
X14138D01*
X141052Y011452D02*
X140987Y011517D01*
Y011648D01*
X141052Y011714D01*
X141118D01*
X141184Y011648D01*
Y011583D01*
Y011648D01*
X141249Y011714D01*
X141315D01*
X14138Y011648D01*
Y011517D01*
X141315Y011452D01*
X142957Y033276D02*
X143022Y033341D01*
X143154D01*
X143219Y033276D01*
Y03321D01*
X143154Y033144D01*
X143219Y033079D01*
Y033013D01*
X143154Y032948D01*
X143022D01*
X142957Y033013D01*
Y033079D01*
X143022Y033144D01*
X142957Y03321D01*
Y033276D01*
X143022Y033144D02*
X143154D01*
X179202Y015331D02*
X179465D01*
Y015528D01*
X179333Y015462D01*
X179268D01*
X179202Y015528D01*
Y015659D01*
X179268Y015724D01*
X179399D01*
X179465Y015659D01*
X167673Y032013D02*
Y031882D01*
Y031948D01*
X168067D01*
X168001Y032013D01*
X136798Y01954D02*
X136732Y019474D01*
Y019343D01*
X136798Y019278D01*
X13706D01*
X137126Y019343D01*
Y019474D01*
X13706Y01954D01*
X136732Y019934D02*
Y019671D01*
X136929D01*
X136864Y019802D01*
Y019868D01*
X136929Y019934D01*
X13706D01*
X137126Y019868D01*
Y019737D01*
X13706Y019671D01*
X141329Y014943D02*
X141264Y014878D01*
Y014746D01*
X141329Y014681D01*
X141592D01*
X141657Y014746D01*
Y014878D01*
X141592Y014943D01*
X141264Y015337D02*
X141329Y015206D01*
X141461Y015074D01*
X141592D01*
X141657Y01514D01*
Y015271D01*
X141592Y015337D01*
X141526D01*
X141461Y015271D01*
Y015074D01*
X139268Y021551D02*
Y021157D01*
X139465D01*
X13953Y021223D01*
Y021485D01*
X139465Y021551D01*
X139268D01*
X139924D02*
X139792Y021485D01*
X139661Y021354D01*
Y021223D01*
X139727Y021157D01*
X139858D01*
X139924Y021223D01*
Y021289D01*
X139858Y021354D01*
X139661D01*
X147614Y020055D02*
Y019661D01*
X147811D01*
X147877Y019727D01*
Y019989D01*
X147811Y020055D01*
X147614D01*
X148008D02*
X14827D01*
Y019989D01*
X148008Y019727D01*
Y019661D01*
X147614Y019189D02*
Y018795D01*
X147811D01*
X147877Y018861D01*
Y019123D01*
X147811Y019189D01*
X147614D01*
X148008Y019123D02*
X148073Y019189D01*
X148205D01*
X14827Y019123D01*
Y019058D01*
X148205Y018992D01*
X14827Y018926D01*
Y018861D01*
X148205Y018795D01*
X148073D01*
X148008Y018861D01*
Y018926D01*
X148073Y018992D01*
X148008Y019058D01*
Y019123D01*
X148073Y018992D02*
X148205D01*
X14911Y021709D02*
X149504D01*
X149307D01*
Y021971D01*
X14911D01*
X149504D01*
X14911Y022365D02*
X149176Y022233D01*
X149307Y022102D01*
X149438D01*
X149504Y022168D01*
Y022299D01*
X149438Y022365D01*
X149373D01*
X149307Y022299D01*
Y022102D01*
X147079Y017583D02*
Y017189D01*
Y017386D01*
X147341D01*
Y017583D01*
Y017189D01*
X147472Y017583D02*
X147735D01*
Y017517D01*
X147472Y017255D01*
Y017189D01*
X140803Y016276D02*
Y016144D01*
Y01621D01*
X140409D01*
Y016276D01*
Y016144D01*
X140737Y015685D02*
X140803Y015751D01*
Y015882D01*
X140737Y015948D01*
X140475D01*
X140409Y015882D01*
Y015751D01*
X140475Y015685D01*
X140409Y015554D02*
Y015423D01*
Y015488D01*
X140803D01*
X140737Y015554D01*
X149583Y015094D02*
X149976D01*
Y014898D01*
X149911Y014832D01*
X149779D01*
X149714Y014898D01*
Y015094D01*
Y014963D02*
X149583Y014832D01*
X149976Y014701D02*
Y014439D01*
X149911D01*
X149648Y014701D01*
X149583D01*
X14352Y031354D02*
X143257D01*
X143389D01*
Y031748D01*
X142864D02*
X143126D01*
X142864Y031486D01*
Y03142D01*
X142929Y031354D01*
X143061D01*
X143126Y03142D01*
X148258Y026256D02*
X14793D01*
X147864Y02619D01*
Y026059D01*
X14793Y025994D01*
X148258D01*
X147864Y025862D02*
Y025731D01*
Y025797D01*
X148258D01*
X148192Y025862D01*
X147811Y018165D02*
X148205D01*
Y017969D01*
X148139Y017903D01*
X148008D01*
X147942Y017969D01*
Y018165D01*
Y018034D02*
X147811Y017903D01*
Y017772D02*
Y017641D01*
Y017706D01*
X148205D01*
X148139Y017772D01*
X148205Y017181D02*
X148139Y017313D01*
X148008Y017444D01*
X147877D01*
X147811Y017378D01*
Y017247D01*
X147877Y017181D01*
X147942D01*
X148008Y017247D01*
Y017444D01*
X144282Y021354D02*
Y020961D01*
X144085D01*
X144019Y021026D01*
Y021158D01*
X144085Y021223D01*
X144282D01*
X14415D02*
X144019Y021354D01*
X143888D02*
X143757D01*
X143822D01*
Y020961D01*
X143888Y021026D01*
X143298Y020961D02*
X14356D01*
Y021158D01*
X143429Y021092D01*
X143363D01*
X143298Y021158D01*
Y021289D01*
X143363Y021354D01*
X143494D01*
X14356Y021289D01*
X146118Y017654D02*
Y01726D01*
X145921D01*
X145856Y017326D01*
Y017457D01*
X145921Y017522D01*
X146118D01*
X145987D02*
X145856Y017654D01*
X145725D02*
X145593D01*
X145659D01*
Y01726D01*
X145725Y017326D01*
X145397D02*
X145331Y01726D01*
X1452D01*
X145134Y017326D01*
Y017391D01*
X1452Y017457D01*
X145265D01*
X1452D01*
X145134Y017522D01*
Y017588D01*
X1452Y017654D01*
X145331D01*
X145397Y017588D01*
X149114Y026782D02*
Y027175D01*
X149311D01*
X149377Y02711D01*
Y026978D01*
X149311Y026913D01*
X149114D01*
X149246D02*
X149377Y026782D01*
X149508D02*
X149639D01*
X149574D01*
Y027175D01*
X149508Y02711D01*
X150098Y026782D02*
X149836D01*
X150098Y027044D01*
Y02711D01*
X150033Y027175D01*
X149902D01*
X149836Y02711D01*
X157365Y023611D02*
X157299Y023677D01*
X157168D01*
X157102Y023611D01*
Y023349D01*
X157168Y023283D01*
X157299D01*
X157365Y023349D01*
X157693Y023283D02*
Y023677D01*
X157496Y02348D01*
X157758D01*
X166814Y023651D02*
X166748Y023716D01*
X166617D01*
X166551Y023651D01*
Y023388D01*
X166617Y023323D01*
X166748D01*
X166814Y023388D01*
X166945Y023651D02*
X16701Y023716D01*
X167142D01*
X167207Y023651D01*
Y023585D01*
X167142Y02352D01*
X167076D01*
X167142D01*
X167207Y023454D01*
Y023388D01*
X167142Y023323D01*
X16701D01*
X166945Y023388D01*
X197577Y027037D02*
X197512Y027102D01*
X197381D01*
X197315Y027037D01*
Y026774D01*
X197381Y026709D01*
X197512D01*
X197577Y026774D01*
X197971Y026709D02*
X197709D01*
X197971Y026971D01*
Y027037D01*
X197905Y027102D01*
X197774D01*
X197709Y027037D01*
X196938Y034054D02*
X196872Y03412D01*
X196741D01*
X196675Y034054D01*
Y033792D01*
X196741Y033726D01*
X196872D01*
X196938Y033792D01*
X197069Y033726D02*
X1972D01*
X197134D01*
Y03412D01*
X197069Y034054D01*
X17362Y018343D02*
X173226D01*
Y018146D01*
X173292Y018081D01*
X173554D01*
X17362Y018146D01*
Y018343D01*
X173226Y017949D02*
Y017818D01*
Y017884D01*
X17362D01*
X173554Y017949D01*
X173659Y016374D02*
X173265D01*
Y016178D01*
X173331Y016112D01*
X173593D01*
X173659Y016178D01*
Y016374D01*
X173265Y015718D02*
Y015981D01*
X173528Y015718D01*
X173593D01*
X173659Y015784D01*
Y015915D01*
X173593Y015981D01*
X177155Y016414D02*
X176761D01*
Y016217D01*
X176827Y016151D01*
X177089D01*
X177155Y016217D01*
Y016414D01*
X176761Y015823D02*
X177155D01*
X176958Y01602D01*
Y015758D01*
X177155Y018422D02*
X176761D01*
Y018225D01*
X176827Y018159D01*
X177089D01*
X177155Y018225D01*
Y018422D01*
Y017766D02*
Y018028D01*
X176958D01*
X177024Y017897D01*
Y017831D01*
X176958Y017766D01*
X176827D01*
X176761Y017831D01*
Y017962D01*
X176827Y018028D01*
X182086Y013579D02*
Y013973D01*
Y013776D01*
X181823D01*
Y013579D01*
Y013973D01*
X18143Y013579D02*
X181692D01*
Y013776D01*
X181561Y013711D01*
X181495D01*
X18143Y013776D01*
Y013907D01*
X181495Y013973D01*
X181627D01*
X181692Y013907D01*
X189766Y014005D02*
X19016D01*
X189963D01*
Y014268D01*
X189766D01*
X19016D01*
X189832Y014399D02*
X189766Y014464D01*
Y014596D01*
X189832Y014661D01*
X189897D01*
X189963Y014596D01*
X190028Y014661D01*
X190094D01*
X19016Y014596D01*
Y014464D01*
X190094Y014399D01*
X190028D01*
X189963Y014464D01*
X189897Y014399D01*
X189832D01*
X189963Y014464D02*
Y014596D01*
X180129Y045032D02*
Y045295D01*
X180063Y04536D01*
X179932D01*
X179866Y045295D01*
Y045032D01*
X179932Y044967D01*
X180063D01*
X179997Y045098D02*
X180129Y044967D01*
X180063D02*
X180129Y045032D01*
X180522Y044967D02*
X18026D01*
X180522Y045229D01*
Y045295D01*
X180457Y04536D01*
X180325D01*
X18026Y045295D01*
X17551Y045003D02*
Y045265D01*
X175445Y045331D01*
X175314D01*
X175248Y045265D01*
Y045003D01*
X175314Y044937D01*
X175445D01*
X175379Y045068D02*
X17551Y044937D01*
X175445D02*
X17551Y045003D01*
X175642Y045265D02*
X175707Y045331D01*
X175838D01*
X175904Y045265D01*
Y045199D01*
X175838Y045134D01*
X175773D01*
X175838D01*
X175904Y045068D01*
Y045003D01*
X175838Y044937D01*
X175707D01*
X175642Y045003D01*
X170432Y044983D02*
Y045245D01*
X170366Y045311D01*
X170235D01*
X170169Y045245D01*
Y044983D01*
X170235Y044917D01*
X170366D01*
X1703Y045049D02*
X170432Y044917D01*
X170366D02*
X170432Y044983D01*
X17076Y044917D02*
Y045311D01*
X170563Y045114D01*
X170825D01*
X165382Y045062D02*
Y045324D01*
X165317Y04539D01*
X165186D01*
X16512Y045324D01*
Y045062D01*
X165186Y044996D01*
X165317D01*
X165251Y045127D02*
X165382Y044996D01*
X165317D02*
X165382Y045062D01*
X165776Y04539D02*
X165514D01*
Y045193D01*
X165645Y045258D01*
X16571D01*
X165776Y045193D01*
Y045062D01*
X16571Y044996D01*
X165579D01*
X165514Y045062D01*
X16063Y044953D02*
Y045216D01*
X160565Y045281D01*
X160434D01*
X160368Y045216D01*
Y044953D01*
X160434Y044888D01*
X160565D01*
X160499Y045019D02*
X16063Y044888D01*
X160565D02*
X16063Y044953D01*
X161024Y045281D02*
X160893Y045216D01*
X160762Y045085D01*
Y044953D01*
X160827Y044888D01*
X160958D01*
X161024Y044953D01*
Y045019D01*
X160958Y045085D01*
X160762D01*
X166433Y012102D02*
Y012496D01*
X16663D01*
X166695Y01243D01*
Y012299D01*
X16663Y012234D01*
X166433D01*
X166564D02*
X166695Y012102D01*
X166827D02*
X166958D01*
X166892D01*
Y012496D01*
X166827Y01243D01*
X167155D02*
X16722Y012496D01*
X167351D01*
X167417Y01243D01*
Y012168D01*
X167351Y012102D01*
X16722D01*
X167155Y012168D01*
Y01243D01*
X183913Y014081D02*
Y013819D01*
Y01395D01*
X183519D01*
Y013687D02*
Y013556D01*
Y013622D01*
X183913D01*
X183847Y013687D01*
X188545Y017496D02*
X188152D01*
X188348D01*
Y017234D01*
X188545D01*
X188152D01*
Y017102D02*
Y016971D01*
Y017037D01*
X188545D01*
X18848Y017102D01*
X188575Y016423D02*
X188181D01*
X188378D01*
Y016161D01*
X188575D01*
X188181D01*
Y015767D02*
Y01603D01*
X188443Y015767D01*
X188509D01*
X188575Y015833D01*
Y015964D01*
X188509Y01603D01*
X16889Y045124D02*
Y045518D01*
X169087D01*
X169152Y045452D01*
Y045321D01*
X169087Y045255D01*
X16889D01*
X169021D02*
X169152Y045124D01*
X169283D02*
X169415D01*
X169349D01*
Y045518D01*
X169283Y045452D01*
X169808Y045124D02*
Y045518D01*
X169611Y045321D01*
X169874D01*
X163247Y045336D02*
Y045729D01*
X163443D01*
X163509Y045664D01*
Y045532D01*
X163443Y045467D01*
X163247D01*
X163378D02*
X163509Y045336D01*
X163903Y045729D02*
X163771Y045664D01*
X16364Y045532D01*
Y045401D01*
X163706Y045336D01*
X163837D01*
X163903Y045401D01*
Y045467D01*
X163837Y045532D01*
X16364D01*
X166232Y045006D02*
Y045399D01*
X166429D01*
X166495Y045334D01*
Y045203D01*
X166429Y045137D01*
X166232D01*
X166363D02*
X166495Y045006D01*
X166888Y045399D02*
X166626D01*
Y045203D01*
X166757Y045268D01*
X166823D01*
X166888Y045203D01*
Y045072D01*
X166823Y045006D01*
X166691D01*
X166626Y045072D01*
X171272Y045016D02*
Y045409D01*
X171468D01*
X171534Y045344D01*
Y045213D01*
X171468Y045147D01*
X171272D01*
X171403D02*
X171534Y045016D01*
X171862D02*
Y045409D01*
X171665Y045213D01*
X171928D01*
X176262Y045134D02*
Y045527D01*
X176459D01*
X176524Y045462D01*
Y045331D01*
X176459Y045265D01*
X176262D01*
X176393D02*
X176524Y045134D01*
X176655Y045462D02*
X176721Y045527D01*
X176852D01*
X176918Y045462D01*
Y045396D01*
X176852Y045331D01*
X176787D01*
X176852D01*
X176918Y045265D01*
Y045199D01*
X176852Y045134D01*
X176721D01*
X176655Y045199D01*
X18078Y045085D02*
Y045478D01*
X180976D01*
X181042Y045413D01*
Y045281D01*
X180976Y045216D01*
X18078D01*
X180911D02*
X181042Y045085D01*
X181435D02*
X181173D01*
X181435Y045347D01*
Y045413D01*
X18137Y045478D01*
X181239D01*
X181173Y045413D01*
X15601Y045042D02*
Y045304D01*
X155945Y04537D01*
X155814D01*
X155748Y045304D01*
Y045042D01*
X155814Y044976D01*
X155945D01*
X155879Y045108D02*
X15601Y044976D01*
X155945D02*
X15601Y045042D01*
X156142Y04537D02*
X156404D01*
Y045304D01*
X156142Y045042D01*
Y044976D01*
X151483Y045042D02*
Y045304D01*
X151417Y04537D01*
X151286D01*
X15122Y045304D01*
Y045042D01*
X151286Y044976D01*
X151417D01*
X151352Y045108D02*
X151483Y044976D01*
X151417D02*
X151483Y045042D01*
X151614Y045304D02*
X15168Y04537D01*
X151811D01*
X151876Y045304D01*
Y045239D01*
X151811Y045173D01*
X151876Y045108D01*
Y045042D01*
X151811Y044976D01*
X15168D01*
X151614Y045042D01*
Y045108D01*
X15168Y045173D01*
X151614Y045239D01*
Y045304D01*
X15168Y045173D02*
X151811D01*
X158661Y045213D02*
Y045606D01*
X158858D01*
X158924Y045541D01*
Y045409D01*
X158858Y045344D01*
X158661D01*
X158793D02*
X158924Y045213D01*
X159055D02*
X159186D01*
X159121D01*
Y045606D01*
X159055Y045541D01*
X159383Y045278D02*
X159449Y045213D01*
X15958D01*
X159645Y045278D01*
Y045541D01*
X15958Y045606D01*
X159449D01*
X159383Y045541D01*
Y045475D01*
X159449Y045409D01*
X159645D01*
X153937Y045606D02*
Y046D01*
X154134D01*
X154199Y045934D01*
Y045803D01*
X154134Y045737D01*
X153937D01*
X154068D02*
X154199Y045606D01*
X154593D02*
X154331D01*
X154593Y045869D01*
Y045934D01*
X154527Y046D01*
X154396D01*
X154331Y045934D01*
X154724D02*
X15479Y046D01*
X154921D01*
X154987Y045934D01*
Y045672D01*
X154921Y045606D01*
X15479D01*
X154724Y045672D01*
Y045934D01*
X195039Y045488D02*
Y045882D01*
X195236D01*
X195302Y045816D01*
Y045685D01*
X195236Y045619D01*
X195039D01*
X195171D02*
X195302Y045488D01*
X195695D02*
X195433D01*
X195695Y045751D01*
Y045816D01*
X19563Y045882D01*
X195499D01*
X195433Y045816D01*
X195827Y045488D02*
X195958D01*
X195892D01*
Y045882D01*
X195827Y045816D01*
X189961Y045449D02*
Y045842D01*
X190157D01*
X190223Y045777D01*
Y045646D01*
X190157Y04558D01*
X189961D01*
X190092D02*
X190223Y045449D01*
X190617D02*
X190354D01*
X190617Y045711D01*
Y045777D01*
X190551Y045842D01*
X19042D01*
X190354Y045777D01*
X19101Y045449D02*
X190748D01*
X19101Y045711D01*
Y045777D01*
X190945Y045842D01*
X190813D01*
X190748Y045777D01*
X198402Y04911D02*
X198664D01*
Y049045D01*
X198402Y048782D01*
Y048717D01*
X192925Y04538D02*
Y045773D01*
X193122D01*
X193188Y045708D01*
Y045577D01*
X193122Y045511D01*
X192925D01*
X193056D02*
X193188Y04538D01*
X193319D02*
X19345D01*
X193384D01*
Y045773D01*
X193319Y045708D01*
X193647Y04538D02*
X193778D01*
X193712D01*
Y045773D01*
X193647Y045708D01*
X185837Y045134D02*
Y045527D01*
X186033D01*
X186099Y045462D01*
Y045331D01*
X186033Y045265D01*
X185837D01*
X185968D02*
X186099Y045134D01*
X18623D02*
X186361D01*
X186296D01*
Y045527D01*
X18623Y045462D01*
X194436Y045003D02*
Y045265D01*
X19437Y045331D01*
X194239D01*
X194173Y045265D01*
Y045003D01*
X194239Y044937D01*
X19437D01*
X194304Y045068D02*
X194436Y044937D01*
X19437D02*
X194436Y045003D01*
X194567D02*
X194632Y044937D01*
X194764D01*
X194829Y045003D01*
Y045265D01*
X194764Y045331D01*
X194632D01*
X194567Y045265D01*
Y045199D01*
X194632Y045134D01*
X194829D01*
X189239Y045003D02*
Y045265D01*
X189173Y045331D01*
X189042D01*
X188976Y045265D01*
Y045003D01*
X189042Y044937D01*
X189173D01*
X189108Y045068D02*
X189239Y044937D01*
X189173D02*
X189239Y045003D01*
X18937Y044937D02*
X189501D01*
X189436D01*
Y045331D01*
X18937Y045265D01*
X189698D02*
X189764Y045331D01*
X189895D01*
X18996Y045265D01*
Y045003D01*
X189895Y044937D01*
X189764D01*
X189698Y045003D01*
Y045265D01*
X184701Y044963D02*
Y045226D01*
X184636Y045291D01*
X184505D01*
X184439Y045226D01*
Y044963D01*
X184505Y044898D01*
X184636D01*
X18457Y045029D02*
X184701Y044898D01*
X184636D02*
X184701Y044963D01*
X184833Y044898D02*
X184964D01*
X184898D01*
Y045291D01*
X184833Y045226D01*
X148198Y027215D02*
X147804D01*
Y027018D01*
X14787Y026953D01*
X148132D01*
X148198Y027018D01*
Y027215D01*
X148132Y026821D02*
X148198Y026756D01*
Y026625D01*
X148132Y026559D01*
X148066D01*
X148001Y026625D01*
Y02669D01*
Y026625D01*
X147935Y026559D01*
X14787D01*
X147804Y026625D01*
Y026756D01*
X14787Y026821D01*
X139016Y032575D02*
Y032968D01*
X138819D01*
X138753Y032903D01*
Y032641D01*
X138819Y032575D01*
X139016D01*
X138622Y032903D02*
X138557Y032968D01*
X138425D01*
X13836Y032903D01*
Y032641D01*
X138425Y032575D01*
X138557D01*
X138622Y032641D01*
Y032706D01*
X138557Y032772D01*
X13836D01*
X137732Y03352D02*
Y033913D01*
X137929D01*
X137995Y033848D01*
Y033716D01*
X137929Y033651D01*
X137732D01*
X137863D02*
X137995Y03352D01*
X138126Y033848D02*
X138191Y033913D01*
X138323D01*
X138388Y033848D01*
Y033782D01*
X138323Y033716D01*
X138388Y033651D01*
Y033585D01*
X138323Y03352D01*
X138191D01*
X138126Y033585D01*
Y033651D01*
X138191Y033716D01*
X138126Y033782D01*
Y033848D01*
X138191Y033716D02*
X138323D01*
X148382Y032932D02*
Y033326D01*
X148185Y033129D01*
X148448D01*
X141998Y021738D02*
Y021345D01*
X141801D01*
X141736Y02141D01*
Y021541D01*
X141801Y021607D01*
X141998D01*
X141867D02*
X141736Y021738D01*
X141604Y021345D02*
Y021738D01*
X141342D01*
X141211D02*
X14108D01*
X141145D01*
Y021345D01*
X141211Y02141D01*
X174032Y045567D02*
Y04596D01*
X174228D01*
X174294Y045895D01*
Y045764D01*
X174228Y045698D01*
X174032D01*
X174163D02*
X174294Y045567D01*
X174425D02*
X174556D01*
X174491D01*
Y04596D01*
X174425Y045895D01*
X174753Y04596D02*
X175015D01*
Y045895D01*
X174753Y045633D01*
Y045567D01*
D47*
X183243Y025773D02*
X183232Y025869D01*
X183197Y025959D01*
X183143Y026038D01*
X183071Y026102D01*
X182985Y026147D01*
X182892Y02617D01*
X182795D01*
X182701Y026147D01*
X182616Y026102D01*
X182544Y026038D01*
X182489Y025959D01*
X182455Y025869D01*
X182443Y025773D01*
X182432Y025869D01*
X182397Y025959D01*
X182343Y026038D01*
X182271Y026102D01*
X182185Y026147D01*
X182092Y02617D01*
X181995D01*
X181901Y026147D01*
X181816Y026102D01*
X181744Y026038D01*
X181689Y025959D01*
X181655Y025869D01*
X181643Y025773D01*
X181632Y025869D01*
X181597Y025959D01*
X181543Y026038D01*
X181471Y026102D01*
X181385Y026147D01*
X181292Y02617D01*
X181195D01*
X181101Y026147D01*
X181016Y026102D01*
X180944Y026038D01*
X180889Y025959D01*
X180855Y025869D01*
X180843Y025773D01*
X179243D02*
X179232Y025869D01*
X179197Y025959D01*
X179143Y026038D01*
X179071Y026102D01*
X178985Y026147D01*
X178892Y02617D01*
X178795D01*
X178701Y026147D01*
X178616Y026102D01*
X178544Y026038D01*
X178489Y025959D01*
X178455Y025869D01*
X178443Y025773D01*
X180043D02*
X180032Y025869D01*
X179997Y025959D01*
X179943Y026038D01*
X179871Y026102D01*
X179785Y026147D01*
X179692Y02617D01*
X179595D01*
X179501Y026147D01*
X179416Y026102D01*
X179344Y026038D01*
X179289Y025959D01*
X179255Y025869D01*
X179243Y025773D01*
X180843D02*
X180832Y025869D01*
X180797Y025959D01*
X180743Y026038D01*
X180671Y026102D01*
X180585Y026147D01*
X180492Y02617D01*
X180395D01*
X180301Y026147D01*
X180216Y026102D01*
X180144Y026038D01*
X180089Y025959D01*
X180055Y025869D01*
X180043Y025773D01*
X176043D02*
X176032Y025869D01*
X175997Y025959D01*
X175943Y026038D01*
X175871Y026102D01*
X175785Y026147D01*
X175692Y02617D01*
X175595D01*
X175501Y026147D01*
X175416Y026102D01*
X175344Y026038D01*
X175289Y025959D01*
X175255Y025869D01*
X175243Y025773D01*
X175232Y025869D01*
X175197Y025959D01*
X175143Y026038D01*
X175071Y026102D01*
X174985Y026147D01*
X174892Y02617D01*
X174795D01*
X174701Y026147D01*
X174616Y026102D01*
X174544Y026038D01*
X174489Y025959D01*
X174455Y025869D01*
X174443Y025773D01*
X174432Y025869D01*
X174397Y025959D01*
X174343Y026038D01*
X174271Y026102D01*
X174185Y026147D01*
X174092Y02617D01*
X173995D01*
X173901Y026147D01*
X173816Y026102D01*
X173744Y026038D01*
X173689Y025959D01*
X173655Y025869D01*
X173643Y025773D01*
X176843D02*
X176832Y025869D01*
X176797Y025959D01*
X176743Y026038D01*
X176671Y026102D01*
X176585Y026147D01*
X176492Y02617D01*
X176395D01*
X176301Y026147D01*
X176216Y026102D01*
X176144Y026038D01*
X176089Y025959D01*
X176055Y025869D01*
X176043Y025773D01*
X177643D02*
X177632Y025869D01*
X177597Y025959D01*
X177543Y026038D01*
X177471Y026102D01*
X177385Y026147D01*
X177292Y02617D01*
X177195D01*
X177101Y026147D01*
X177016Y026102D01*
X176944Y026038D01*
X176889Y025959D01*
X176855Y025869D01*
X176843Y025773D01*
X178443D02*
X178432Y025869D01*
X178397Y025959D01*
X178343Y026038D01*
X178271Y026102D01*
X178185Y026147D01*
X178092Y02617D01*
X177995D01*
X177901Y026147D01*
X177816Y026102D01*
X177744Y026038D01*
X177689Y025959D01*
X177655Y025869D01*
X177643Y025773D01*
X178543Y028623D02*
X178555Y028528D01*
X178589Y028437D01*
X178644Y028358D01*
X178716Y028294D01*
X178801Y028249D01*
X178895Y028226D01*
X178992D01*
X179085Y028249D01*
X179171Y028294D01*
X179243Y028358D01*
X179297Y028437D01*
X179332Y028528D01*
X179343Y028623D01*
X179355Y028528D01*
X179389Y028437D01*
X179444Y028358D01*
X179516Y028294D01*
X179601Y028249D01*
X179695Y028226D01*
X179792D01*
X179885Y028249D01*
X179971Y028294D01*
X180043Y028358D01*
X180097Y028437D01*
X180132Y028528D01*
X180143Y028623D01*
X180155Y028528D01*
X180189Y028437D01*
X180244Y028358D01*
X180316Y028294D01*
X180401Y028249D01*
X180495Y028226D01*
X180592D01*
X180685Y028249D01*
X180771Y028294D01*
X180843Y028358D01*
X180897Y028437D01*
X180932Y028528D01*
X180943Y028623D01*
X182543D02*
X182555Y028528D01*
X182589Y028437D01*
X182644Y028358D01*
X182716Y028294D01*
X182801Y028249D01*
X182895Y028226D01*
X182992D01*
X183085Y028249D01*
X183171Y028294D01*
X183243Y028358D01*
X183297Y028437D01*
X183332Y028528D01*
X183343Y028623D01*
X181743D02*
X181755Y028528D01*
X181789Y028437D01*
X181844Y028358D01*
X181916Y028294D01*
X182001Y028249D01*
X182095Y028226D01*
X182192D01*
X182285Y028249D01*
X182371Y028294D01*
X182443Y028358D01*
X182497Y028437D01*
X182532Y028528D01*
X182543Y028623D01*
X180943D02*
X180955Y028528D01*
X180989Y028437D01*
X181044Y028358D01*
X181116Y028294D01*
X181201Y028249D01*
X181295Y028226D01*
X181392D01*
X181485Y028249D01*
X181571Y028294D01*
X181643Y028358D01*
X181697Y028437D01*
X181732Y028528D01*
X181743Y028623D01*
X176143D02*
X176155Y028528D01*
X176189Y028437D01*
X176244Y028358D01*
X176316Y028294D01*
X176401Y028249D01*
X176495Y028226D01*
X176592D01*
X176685Y028249D01*
X176771Y028294D01*
X176843Y028358D01*
X176897Y028437D01*
X176932Y028528D01*
X176943Y028623D01*
X176955Y028528D01*
X176989Y028437D01*
X177044Y028358D01*
X177116Y028294D01*
X177201Y028249D01*
X177295Y028226D01*
X177392D01*
X177485Y028249D01*
X177571Y028294D01*
X177643Y028358D01*
X177697Y028437D01*
X177732Y028528D01*
X177743Y028623D01*
X177755Y028528D01*
X177789Y028437D01*
X177844Y028358D01*
X177916Y028294D01*
X178001Y028249D01*
X178095Y028226D01*
X178192D01*
X178285Y028249D01*
X178371Y028294D01*
X178443Y028358D01*
X178497Y028437D01*
X178532Y028528D01*
X178543Y028623D01*
X175343D02*
X175355Y028528D01*
X175389Y028437D01*
X175444Y028358D01*
X175516Y028294D01*
X175601Y028249D01*
X175695Y028226D01*
X175792D01*
X175885Y028249D01*
X175971Y028294D01*
X176043Y028358D01*
X176097Y028437D01*
X176132Y028528D01*
X176143Y028623D01*
X174543D02*
X174555Y028528D01*
X174589Y028437D01*
X174644Y028358D01*
X174716Y028294D01*
X174801Y028249D01*
X174895Y028226D01*
X174992D01*
X175085Y028249D01*
X175171Y028294D01*
X175243Y028358D01*
X175297Y028437D01*
X175332Y028528D01*
X175343Y028623D01*
X173743D02*
X173755Y028528D01*
X173789Y028437D01*
X173844Y028358D01*
X173916Y028294D01*
X174001Y028249D01*
X174095Y028226D01*
X174192D01*
X174285Y028249D01*
X174371Y028294D01*
X174443Y028358D01*
X174497Y028437D01*
X174532Y028528D01*
X174543Y028623D01*
X140234Y016023D02*
X140222Y016122D01*
X140185Y016214D01*
X140125Y016293D01*
X140046Y016353D01*
X139954Y016391D01*
X139855Y016403D01*
X139757Y01639D01*
X139666Y01635D01*
X139588Y016289D01*
X139529Y016209D01*
X139493Y016116D01*
X139483Y016018D01*
X139482Y015022D02*
X139494Y014923D01*
X139532Y014831D01*
X139592Y014752D01*
X139671Y014692D01*
X139763Y014654D01*
X139861Y014642D01*
X139959Y014656D01*
X140051Y014695D01*
X140129Y014756D01*
X140187Y014836D01*
X140223Y014929D01*
X140234Y015027D01*
X158654Y01911D02*
X158652Y01921D01*
X158649Y01931D01*
X158644Y01941D01*
X158637Y01951D01*
X158627Y019609D01*
X158616Y019708D01*
X158602Y019807D01*
X158586Y019906D01*
X158568Y020004D01*
X158548Y020102D01*
X158526Y0202D01*
X158502Y020297D01*
X158476Y020393D01*
X158448Y020489D01*
X158418Y020584D01*
X158385Y020679D01*
X158351Y020773D01*
X158315Y020866D01*
X158277Y020959D01*
X158237Y02105D01*
X158195Y021141D01*
X158151Y021231D01*
X158105Y021319D01*
X158058Y021407D01*
X158008Y021494D01*
X157957Y02158D01*
X157904Y021664D01*
X157849Y021748D01*
X157792Y02183D01*
X157734Y021911D01*
X157673Y021991D01*
X157612Y02207D01*
X157548Y022147D01*
X157483Y022223D01*
X157417Y022297D01*
X157348Y02237D01*
X157279Y022442D01*
X157207Y022512D01*
X157135Y022581D01*
X157061Y022648D01*
X156985Y022713D01*
X156908Y022777D01*
X15683Y022839D01*
X15675Y0229D01*
X15667Y022959D01*
X156588Y023016D01*
X156504Y023071D01*
X15642Y023125D01*
X156334Y023176D01*
X156248Y023226D01*
X15616Y023275D01*
X156072Y023321D01*
X155982Y023365D01*
X155892Y023408D01*
X1558Y023448D01*
X155708Y023487D01*
X155615Y023524D01*
X155521Y023558D01*
X155427Y023591D01*
X155332Y023622D01*
X155236Y02365D01*
X15514Y023677D01*
X155043Y023701D01*
X154946Y023724D01*
X154848Y023744D01*
X15475Y023763D01*
X154651Y023779D01*
X154552Y023793D01*
X154453Y023806D01*
X154353Y023816D01*
X154254Y023823D01*
X154154Y023829D01*
X154054Y023833D01*
X153954Y023835D01*
X153854Y023834D01*
X153754Y023831D01*
X153654Y023827D01*
X153555Y02382D01*
X153455Y023811D01*
X153356Y0238D01*
X153257Y023787D01*
X153158Y023771D01*
X15306Y023754D01*
X152962Y023735D01*
X152864Y023713D01*
X152767Y023689D01*
X15267Y023664D01*
X152574Y023636D01*
X152479Y023607D01*
X152384Y023575D01*
X15229Y023541D01*
X152196Y023505D01*
X152104Y023468D01*
X152012Y023428D01*
X151921Y023387D01*
X151831Y023343D01*
X151742Y023298D01*
X151654Y023251D01*
X151567Y023202D01*
X151481Y023151D01*
X151396Y023098D01*
X151312Y023044D01*
X15123Y022987D01*
X151148Y022929D01*
X151068Y02287D01*
X150989Y022808D01*
X150912Y022745D01*
X150835Y022681D01*
X15076Y022614D01*
X150687Y022547D01*
X150615Y022477D01*
X150545Y022406D01*
X150476Y022334D01*
X150408Y02226D01*
X150342Y022185D01*
X150278Y022109D01*
X150216Y022031D01*
X150155Y021951D01*
X150095Y021871D01*
X150038Y021789D01*
X149982Y021706D01*
X149928Y021622D01*
X149876Y021537D01*
X149825Y021451D01*
X149777Y021363D01*
X14973Y021275D01*
X149685Y021186D01*
X149642Y021096D01*
X149601Y021004D01*
X149562Y020912D01*
X149525Y02082D01*
X14949Y020726D01*
X149456Y020632D01*
X149425Y020537D01*
X149396Y020441D01*
X149369Y020345D01*
X149344Y020248D01*
X149321Y020151D01*
X1493Y020053D01*
X149281Y019955D01*
X149264Y019857D01*
X149249Y019758D01*
X149237Y019659D01*
X149226Y019559D01*
X149218Y01946D01*
X149211Y01936D01*
X149207Y01926D01*
X149205Y01916D01*
Y01906D01*
X149207Y01896D01*
X149211Y01886D01*
X149218Y018761D01*
X149226Y018661D01*
X149237Y018562D01*
X149249Y018463D01*
X149264Y018364D01*
X149281Y018265D01*
X1493Y018167D01*
X149321Y018069D01*
X149344Y017972D01*
X149369Y017875D01*
X149396Y017779D01*
X149425Y017684D01*
X149456Y017589D01*
X14949Y017494D01*
X149525Y017401D01*
X149562Y017308D01*
X149601Y017216D01*
X149642Y017125D01*
X149685Y017035D01*
X14973Y016945D01*
X149777Y016857D01*
X149825Y01677D01*
X149876Y016683D01*
X149928Y016598D01*
X149982Y016514D01*
X150038Y016431D01*
X150095Y016349D01*
X150155Y016269D01*
X150216Y01619D01*
X150278Y016112D01*
X150342Y016035D01*
X150408Y01596D01*
X150476Y015886D01*
X150545Y015814D01*
X150615Y015743D01*
X150687Y015674D01*
X150761Y015606D01*
X150835Y01554D01*
X150912Y015475D01*
X150989Y015412D01*
X151068Y015351D01*
X151148Y015291D01*
X15123Y015233D01*
X151312Y015177D01*
X151396Y015122D01*
X151481Y01507D01*
X151567Y015019D01*
X151654Y01497D01*
X151742Y014923D01*
X151831Y014877D01*
X151921Y014834D01*
X152012Y014792D01*
X152104Y014753D01*
X152197Y014715D01*
X15229Y014679D01*
X152384Y014646D01*
X152479Y014614D01*
X152574Y014584D01*
X15267Y014557D01*
X152767Y014531D01*
X152864Y014507D01*
X152962Y014486D01*
X15306Y014467D01*
X153158Y014449D01*
X153257Y014434D01*
X153356Y014421D01*
X153455Y01441D01*
X153555Y014401D01*
X153655Y014394D01*
X153754Y014389D01*
X153854Y014386D01*
X153954Y014386D01*
X154054Y014387D01*
X154154Y014391D01*
X154254Y014397D01*
X154353Y014405D01*
X154453Y014415D01*
X154552Y014427D01*
X154651Y014441D01*
X15475Y014458D01*
X154848Y014476D01*
X154946Y014496D01*
X155043Y014519D01*
X15514Y014544D01*
X155236Y01457D01*
X155332Y014599D01*
X155427Y01463D01*
X155522Y014662D01*
X155615Y014697D01*
X155708Y014734D01*
X1558Y014772D01*
X155892Y014813D01*
X155982Y014855D01*
X156072Y0149D01*
X15616Y014946D01*
X156248Y014994D01*
X156335Y015044D01*
X15642Y015096D01*
X156504Y015149D01*
X156588Y015205D01*
X15667Y015262D01*
X15675Y015321D01*
X15683Y015381D01*
X156908Y015443D01*
X156985Y015507D01*
X157061Y015573D01*
X157135Y01564D01*
X157207Y015708D01*
X157279Y015778D01*
X157348Y01585D01*
X157417Y015923D01*
X157483Y015998D01*
X157548Y016074D01*
X157612Y016151D01*
X157674Y016229D01*
X157734Y016309D01*
X157792Y01639D01*
X157849Y016473D01*
X157904Y016556D01*
X157957Y016641D01*
X158008Y016726D01*
X158058Y016813D01*
X158105Y016901D01*
X158151Y01699D01*
X158195Y01708D01*
X158237Y01717D01*
X158277Y017262D01*
X158315Y017354D01*
X158351Y017448D01*
X158386Y017542D01*
X158418Y017636D01*
X158448Y017731D01*
X158476Y017827D01*
X158502Y017924D01*
X158526Y018021D01*
X158548Y018118D01*
X158568Y018216D01*
X158586Y018315D01*
X158602Y018413D01*
X158616Y018512D01*
X158627Y018612D01*
X158637Y018711D01*
X158644Y018811D01*
X158649Y01891D01*
X158653Y01901D01*
X158654Y01911D01*
X168496D02*
X168495Y01921D01*
X168492Y01931D01*
X168487Y01941D01*
X168479Y01951D01*
X16847Y019609D01*
X168458Y019708D01*
X168444Y019807D01*
X168429Y019906D01*
X168411Y020004D01*
X168391Y020102D01*
X168369Y0202D01*
X168345Y020297D01*
X168319Y020393D01*
X16829Y020489D01*
X16826Y020584D01*
X168228Y020679D01*
X168194Y020773D01*
X168158Y020866D01*
X16812Y020959D01*
X168079Y02105D01*
X168037Y021141D01*
X167994Y021231D01*
X167948Y021319D01*
X1679Y021407D01*
X167851Y021494D01*
X167799Y02158D01*
X167746Y021664D01*
X167691Y021748D01*
X167635Y02183D01*
X167576Y021911D01*
X167516Y021991D01*
X167454Y02207D01*
X167391Y022147D01*
X167326Y022223D01*
X167259Y022297D01*
X167191Y02237D01*
X167121Y022442D01*
X16705Y022512D01*
X166977Y022581D01*
X166903Y022648D01*
X166828Y022713D01*
X166751Y022777D01*
X166672Y022839D01*
X166593Y0229D01*
X166512Y022959D01*
X16643Y023016D01*
X166347Y023071D01*
X166262Y023125D01*
X166177Y023176D01*
X16609Y023226D01*
X166003Y023275D01*
X165914Y023321D01*
X165825Y023365D01*
X165734Y023408D01*
X165643Y023448D01*
X165551Y023487D01*
X165458Y023524D01*
X165364Y023558D01*
X16527Y023591D01*
X165174Y023622D01*
X165079Y02365D01*
X164982Y023677D01*
X164886Y023701D01*
X164788Y023724D01*
X16469Y023744D01*
X164592Y023763D01*
X164493Y023779D01*
X164395Y023793D01*
X164295Y023806D01*
X164196Y023816D01*
X164096Y023823D01*
X163996Y023829D01*
X163897Y023833D01*
X163797Y023835D01*
X163697Y023834D01*
X163597Y023831D01*
X163497Y023827D01*
X163397Y02382D01*
X163298Y023811D01*
X163198Y0238D01*
X163099Y023787D01*
X163001Y023771D01*
X162902Y023754D01*
X162804Y023735D01*
X162706Y023713D01*
X162609Y023689D01*
X162513Y023664D01*
X162417Y023636D01*
X162321Y023607D01*
X162226Y023575D01*
X162132Y023541D01*
X162039Y023505D01*
X161946Y023468D01*
X161855Y023428D01*
X161764Y023387D01*
X161674Y023343D01*
X161585Y023298D01*
X161497Y023251D01*
X161409Y023202D01*
X161323Y023151D01*
X161239Y023098D01*
X161155Y023044D01*
X161072Y022987D01*
X160991Y022929D01*
X160911Y02287D01*
X160832Y022808D01*
X160754Y022745D01*
X160678Y022681D01*
X160603Y022614D01*
X16053Y022547D01*
X160458Y022477D01*
X160387Y022406D01*
X160318Y022334D01*
X160251Y02226D01*
X160185Y022185D01*
X160121Y022109D01*
X160058Y022031D01*
X159997Y021951D01*
X159938Y021871D01*
X15988Y021789D01*
X159824Y021706D01*
X15977Y021622D01*
X159718Y021537D01*
X159668Y021451D01*
X159619Y021363D01*
X159572Y021275D01*
X159528Y021186D01*
X159485Y021096D01*
X159444Y021004D01*
X159404Y020912D01*
X159367Y02082D01*
X159332Y020726D01*
X159299Y020632D01*
X159268Y020537D01*
X159239Y020441D01*
X159211Y020345D01*
X159186Y020248D01*
X159163Y020151D01*
X159142Y020053D01*
X159123Y019955D01*
X159107Y019857D01*
X159092Y019758D01*
X159079Y019659D01*
X159069Y019559D01*
X15906Y01946D01*
X159054Y01936D01*
X15905Y01926D01*
X159048Y01916D01*
Y01906D01*
X15905Y01896D01*
X159054Y01886D01*
X15906Y018761D01*
X159069Y018661D01*
X159079Y018562D01*
X159092Y018463D01*
X159107Y018364D01*
X159123Y018265D01*
X159142Y018167D01*
X159163Y018069D01*
X159186Y017972D01*
X159212Y017875D01*
X159239Y017779D01*
X159268Y017684D01*
X159299Y017589D01*
X159332Y017494D01*
X159367Y017401D01*
X159405Y017308D01*
X159444Y017216D01*
X159485Y017125D01*
X159528Y017035D01*
X159572Y016945D01*
X159619Y016857D01*
X159668Y01677D01*
X159718Y016683D01*
X15977Y016598D01*
X159824Y016514D01*
X15988Y016431D01*
X159938Y016349D01*
X159997Y016269D01*
X160058Y01619D01*
X160121Y016112D01*
X160185Y016035D01*
X160251Y01596D01*
X160318Y015886D01*
X160387Y015814D01*
X160458Y015743D01*
X16053Y015674D01*
X160603Y015606D01*
X160678Y01554D01*
X160754Y015475D01*
X160832Y015412D01*
X160911Y015351D01*
X160991Y015291D01*
X161072Y015233D01*
X161155Y015177D01*
X161239Y015122D01*
X161323Y01507D01*
X16141Y015019D01*
X161497Y01497D01*
X161585Y014923D01*
X161674Y014877D01*
X161764Y014834D01*
X161855Y014792D01*
X161946Y014753D01*
X162039Y014715D01*
X162132Y014679D01*
X162227Y014646D01*
X162321Y014614D01*
X162417Y014584D01*
X162513Y014557D01*
X162609Y014531D01*
X162707Y014507D01*
X162804Y014486D01*
X162902Y014467D01*
X163001Y014449D01*
X163099Y014434D01*
X163198Y014421D01*
X163298Y01441D01*
X163397Y014401D01*
X163497Y014394D01*
X163597Y014389D01*
X163697Y014386D01*
X163797Y014386D01*
X163897Y014387D01*
X163997Y014391D01*
X164096Y014397D01*
X164196Y014405D01*
X164295Y014415D01*
X164395Y014427D01*
X164494Y014441D01*
X164592Y014458D01*
X16469Y014476D01*
X164788Y014496D01*
X164886Y014519D01*
X164982Y014544D01*
X165079Y01457D01*
X165175Y014599D01*
X16527Y01463D01*
X165364Y014662D01*
X165458Y014697D01*
X165551Y014734D01*
X165643Y014772D01*
X165734Y014813D01*
X165825Y014855D01*
X165914Y0149D01*
X166003Y014946D01*
X166091Y014994D01*
X166177Y015044D01*
X166263Y015096D01*
X166347Y015149D01*
X16643Y015205D01*
X166512Y015262D01*
X166593Y015321D01*
X166672Y015381D01*
X166751Y015443D01*
X166828Y015507D01*
X166903Y015573D01*
X166977Y01564D01*
X16705Y015708D01*
X167121Y015778D01*
X167191Y01585D01*
X167259Y015923D01*
X167326Y015998D01*
X167391Y016074D01*
X167454Y016151D01*
X167516Y016229D01*
X167576Y016309D01*
X167635Y01639D01*
X167691Y016473D01*
X167746Y016556D01*
X167799Y016641D01*
X167851Y016726D01*
X1679Y016813D01*
X167948Y016901D01*
X167994Y01699D01*
X168037Y01708D01*
X168079Y01717D01*
X16812Y017262D01*
X168158Y017354D01*
X168194Y017448D01*
X168228Y017542D01*
X16826Y017636D01*
X16829Y017731D01*
X168319Y017827D01*
X168345Y017924D01*
X168369Y018021D01*
X168391Y018118D01*
X168411Y018216D01*
X168429Y018315D01*
X168444Y018413D01*
X168458Y018512D01*
X16847Y018612D01*
X168479Y018711D01*
X168487Y018811D01*
X168492Y01891D01*
X168495Y01901D01*
X168496Y01911D01*
X138943Y020803D02*
X138938Y020903D01*
X138922Y021002D01*
X138897Y0211D01*
X138863Y021194D01*
X138818Y021284D01*
X138765Y021369D01*
X138704Y021448D01*
X138635Y021521D01*
X138559Y021586D01*
X138476Y021643D01*
X138389Y021692D01*
X138297Y021732D01*
X138201Y021762D01*
X138103Y021782D01*
X138003Y021792D01*
X137903D01*
X137803Y021782D01*
X137705Y021762D01*
X137609Y021732D01*
X137517Y021692D01*
X137429Y021643D01*
X137347Y021586D01*
X137271Y021521D01*
X137202Y021448D01*
X13714Y021369D01*
X137087Y021284D01*
X137043Y021194D01*
X137008Y0211D01*
X136983Y021002D01*
X136968Y020903D01*
X136963Y020803D01*
X136968Y020703D01*
X136983Y020604D01*
X137008Y020507D01*
X137043Y020413D01*
X137087Y020323D01*
X13714Y020238D01*
X137202Y020158D01*
X137271Y020086D01*
X137347Y02002D01*
X137429Y019963D01*
X137517Y019914D01*
X137609Y019875D01*
X137705Y019845D01*
X137803Y019825D01*
X137903Y019814D01*
X138003D01*
X138103Y019825D01*
X138201Y019845D01*
X138297Y019875D01*
X138389Y019914D01*
X138476Y019963D01*
X138559Y02002D01*
X138635Y020086D01*
X138704Y020158D01*
X138765Y020238D01*
X138818Y020323D01*
X138863Y020413D01*
X138897Y020507D01*
X138922Y020604D01*
X138938Y020703D01*
X138943Y020803D01*
X142607Y015392D02*
X142508Y01538D01*
X142416Y015342D01*
X142337Y015282D01*
X142277Y015203D01*
X142239Y015111D01*
X142226Y015013D01*
X14224Y014915D01*
X142279Y014823D01*
X142341Y014746D01*
X142421Y014687D01*
X142514Y014651D01*
X142612Y01464D01*
X143608Y01464D02*
X143707Y014652D01*
X143799Y014689D01*
X143878Y01475D01*
X143938Y014828D01*
X143976Y01492D01*
X143988Y015019D01*
X143974Y015117D01*
X143935Y015208D01*
X143874Y015286D01*
X143794Y015345D01*
X143701Y015381D01*
X143602Y015391D01*
X142298Y033412D02*
X142273Y033511D01*
X142206Y033587D01*
X142111Y033623D01*
X14201Y033611D01*
X141927Y033553D01*
X141879Y033463D01*
Y033362D01*
X141927Y033272D01*
X14201Y033214D01*
X142111Y033202D01*
X142206Y033238D01*
X142273Y033314D01*
X142298Y033412D01*
X157472Y01911D02*
X157471Y01921D01*
X157467Y01931D01*
X15746Y019409D01*
X15745Y019509D01*
X157437Y019608D01*
X157422Y019706D01*
X157404Y019805D01*
X157383Y019902D01*
X157359Y019999D01*
X157333Y020095D01*
X157304Y020191D01*
X157272Y020286D01*
X157237Y020379D01*
X1572Y020472D01*
X157161Y020564D01*
X157118Y020654D01*
X157074Y020743D01*
X157026Y020831D01*
X156977Y020918D01*
X156925Y021003D01*
X15687Y021087D01*
X156813Y021169D01*
X156754Y021249D01*
X156693Y021328D01*
X156629Y021405D01*
X156563Y02148D01*
X156496Y021553D01*
X156426Y021625D01*
X156354Y021694D01*
X15628Y021761D01*
X156205Y021826D01*
X156127Y021889D01*
X156048Y02195D01*
X155967Y022009D01*
X155885Y022065D01*
X155801Y022119D01*
X155715Y02217D01*
X155628Y02222D01*
X15554Y022266D01*
X15545Y02231D01*
X15536Y022352D01*
X155268Y022391D01*
X155175Y022427D01*
X155081Y022461D01*
X154986Y022492D01*
X15489Y022521D01*
X154794Y022546D01*
X154697Y022569D01*
X154599Y02259D01*
X154501Y022607D01*
X154402Y022622D01*
X154303Y022634D01*
X154203Y022643D01*
X154104Y022649D01*
X154004Y022653D01*
X153904Y022653D01*
X153804Y022651D01*
X153705Y022646D01*
X153605Y022639D01*
X153506Y022628D01*
X153407Y022615D01*
X153308Y022599D01*
X15321Y02258D01*
X153113Y022558D01*
X153016Y022534D01*
X15292Y022507D01*
X152825Y022477D01*
X15273Y022445D01*
X152637Y022409D01*
X152544Y022372D01*
X152453Y022331D01*
X152363Y022289D01*
X152274Y022243D01*
X152186Y022195D01*
X1521Y022145D01*
X152015Y022092D01*
X151932Y022037D01*
X15185Y02198D01*
X15177Y02192D01*
X151692Y021858D01*
X151616Y021794D01*
X151541Y021728D01*
X151468Y021659D01*
X151397Y021589D01*
X151328Y021517D01*
X151262Y021443D01*
X151197Y021367D01*
X151135Y021289D01*
X151074Y021209D01*
X151016Y021128D01*
X150961Y021045D01*
X150907Y020961D01*
X150856Y020875D01*
X150808Y020787D01*
X150762Y020699D01*
X150718Y020609D01*
X150677Y020518D01*
X150639Y020426D01*
X150603Y020333D01*
X15057Y020238D01*
X15054Y020143D01*
X150512Y020047D01*
X150487Y019951D01*
X150465Y019853D01*
X150445Y019756D01*
X150428Y019657D01*
X150414Y019558D01*
X150403Y019459D01*
X150395Y01936D01*
X150389Y01926D01*
X150386Y01916D01*
Y01906D01*
X150389Y018961D01*
X150395Y018861D01*
X150403Y018761D01*
X150414Y018662D01*
X150428Y018563D01*
X150445Y018465D01*
X150465Y018367D01*
X150487Y01827D01*
X150512Y018173D01*
X15054Y018077D01*
X15057Y017982D01*
X150603Y017888D01*
X150639Y017795D01*
X150677Y017703D01*
X150718Y017612D01*
X150762Y017522D01*
X150808Y017433D01*
X150856Y017346D01*
X150907Y01726D01*
X150961Y017176D01*
X151016Y017093D01*
X151074Y017011D01*
X151135Y016932D01*
X151197Y016854D01*
X151262Y016778D01*
X151328Y016704D01*
X151397Y016631D01*
X151468Y016561D01*
X151541Y016493D01*
X151616Y016426D01*
X151692Y016362D01*
X15177Y0163D01*
X15185Y016241D01*
X151932Y016183D01*
X152015Y016128D01*
X1521Y016075D01*
X152186Y016025D01*
X152274Y015977D01*
X152363Y015932D01*
X152453Y015889D01*
X152544Y015849D01*
X152637Y015811D01*
X15273Y015776D01*
X152825Y015743D01*
X15292Y015714D01*
X153016Y015687D01*
X153113Y015662D01*
X15321Y015641D01*
X153308Y015622D01*
X153407Y015606D01*
X153506Y015592D01*
X153605Y015582D01*
X153705Y015574D01*
X153804Y015569D01*
X153904Y015567D01*
X154004Y015568D01*
X154104Y015571D01*
X154203Y015578D01*
X154303Y015587D01*
X154402Y015599D01*
X154501Y015613D01*
X154599Y015631D01*
X154697Y015651D01*
X154794Y015674D01*
X15489Y0157D01*
X154986Y015728D01*
X155081Y015759D01*
X155175Y015793D01*
X155268Y01583D01*
X15536Y015869D01*
X15545Y01591D01*
X15554Y015954D01*
X155628Y016001D01*
X155715Y01605D01*
X155801Y016102D01*
X155885Y016155D01*
X155967Y016212D01*
X156048Y01627D01*
X156127Y016331D01*
X156205Y016394D01*
X15628Y016459D01*
X156354Y016527D01*
X156426Y016596D01*
X156496Y016667D01*
X156563Y016741D01*
X156629Y016816D01*
X156693Y016893D01*
X156754Y016971D01*
X156813Y017052D01*
X15687Y017134D01*
X156925Y017218D01*
X156977Y017303D01*
X157026Y017389D01*
X157074Y017477D01*
X157118Y017566D01*
X157161Y017657D01*
X1572Y017749D01*
X157237Y017841D01*
X157272Y017935D01*
X157304Y01803D01*
X157333Y018125D01*
X157359Y018221D01*
X157383Y018318D01*
X157404Y018416D01*
X157422Y018514D01*
X157437Y018613D01*
X15745Y018712D01*
X15746Y018811D01*
X157467Y018911D01*
X157471Y01901D01*
X157472Y01911D01*
X167315Y019071D02*
X167314Y019171D01*
X167309Y01927D01*
X167302Y01937D01*
X167292Y019469D01*
X16728Y019568D01*
X167264Y019667D01*
X167246Y019765D01*
X167225Y019863D01*
X167202Y01996D01*
X167175Y020056D01*
X167146Y020152D01*
X167114Y020246D01*
X16708Y02034D01*
X167043Y020433D01*
X167003Y020524D01*
X166961Y020615D01*
X166916Y020704D01*
X166869Y020792D01*
X166819Y020878D01*
X166767Y020964D01*
X166713Y021047D01*
X166656Y021129D01*
X166597Y02121D01*
X166535Y021288D01*
X166472Y021365D01*
X166406Y021441D01*
X166338Y021514D01*
X166268Y021585D01*
X166196Y021655D01*
X166123Y021722D01*
X166047Y021787D01*
X16597Y02185D01*
X165891Y021911D01*
X16581Y021969D01*
X165727Y022026D01*
X165643Y02208D01*
X165558Y022131D01*
X165471Y02218D01*
X165383Y022227D01*
X165293Y022271D01*
X165202Y022313D01*
X16511Y022352D01*
X165017Y022388D01*
X164923Y022422D01*
X164829Y022453D01*
X164733Y022481D01*
X164636Y022507D01*
X164539Y02253D01*
X164442Y02255D01*
X164343Y022568D01*
X164244Y022582D01*
X164145Y022594D01*
X164046Y022604D01*
X163946Y02261D01*
X163847Y022613D01*
X163747Y022614D01*
X163647Y022612D01*
X163547Y022607D01*
X163448Y022599D01*
X163348Y022589D01*
X163249Y022575D01*
X163151Y022559D01*
X163053Y022541D01*
X162955Y022519D01*
X162859Y022495D01*
X162763Y022467D01*
X162667Y022438D01*
X162573Y022405D01*
X162479Y02237D01*
X162387Y022332D01*
X162296Y022292D01*
X162205Y022249D01*
X162117Y022204D01*
X162029Y022156D01*
X161943Y022106D01*
X161858Y022053D01*
X161775Y021998D01*
X161693Y02194D01*
X161613Y021881D01*
X161535Y021819D01*
X161458Y021755D01*
X161383Y021688D01*
X161311Y02162D01*
X16124Y02155D01*
X161171Y021477D01*
X161104Y021403D01*
X16104Y021327D01*
X160977Y021249D01*
X160917Y02117D01*
X160859Y021088D01*
X160803Y021006D01*
X16075Y020921D01*
X160699Y020835D01*
X16065Y020748D01*
X160604Y020659D01*
X160561Y02057D01*
X16052Y020479D01*
X160482Y020386D01*
X160446Y020293D01*
X160413Y020199D01*
X160382Y020104D01*
X160355Y020008D01*
X160329Y019911D01*
X160307Y019814D01*
X160288Y019716D01*
X160271Y019618D01*
X160257Y019519D01*
X160246Y01942D01*
X160237Y01932D01*
X160232Y019221D01*
X160229Y019121D01*
Y019021D01*
X160232Y018921D01*
X160237Y018821D01*
X160246Y018722D01*
X160257Y018623D01*
X160271Y018524D01*
X160288Y018426D01*
X160307Y018328D01*
X160329Y01823D01*
X160355Y018134D01*
X160382Y018038D01*
X160413Y017943D01*
X160446Y017849D01*
X160482Y017755D01*
X16052Y017663D01*
X160561Y017572D01*
X160604Y017482D01*
X16065Y017394D01*
X160699Y017306D01*
X16075Y017221D01*
X160803Y017136D01*
X160859Y017053D01*
X160917Y016972D01*
X160977Y016892D01*
X16104Y016815D01*
X161104Y016739D01*
X161171Y016664D01*
X16124Y016592D01*
X161311Y016522D01*
X161383Y016453D01*
X161458Y016387D01*
X161535Y016323D01*
X161613Y016261D01*
X161693Y016201D01*
X161775Y016144D01*
X161858Y016089D01*
X161943Y016036D01*
X162029Y015986D01*
X162117Y015938D01*
X162205Y015893D01*
X162296Y01585D01*
X162387Y015809D01*
X162479Y015772D01*
X162573Y015737D01*
X162667Y015704D01*
X162763Y015674D01*
X162859Y015647D01*
X162955Y015623D01*
X163053Y015601D01*
X163151Y015582D01*
X163249Y015566D01*
X163348Y015553D01*
X163448Y015542D01*
X163547Y015535D01*
X163647Y01553D01*
X163747Y015528D01*
X163847Y015528D01*
X163946Y015532D01*
X164046Y015538D01*
X164145Y015547D01*
X164244Y015559D01*
X164343Y015574D01*
X164442Y015591D01*
X164539Y015612D01*
X164636Y015635D01*
X164733Y01566D01*
X164829Y015689D01*
X164923Y01572D01*
X165017Y015754D01*
X16511Y01579D01*
X165202Y015829D01*
X165293Y015871D01*
X165383Y015915D01*
X165471Y015962D01*
X165558Y016011D01*
X165643Y016062D01*
X165727Y016116D01*
X16581Y016172D01*
X165891Y016231D01*
X16597Y016292D01*
X166047Y016355D01*
X166123Y01642D01*
X166196Y016487D01*
X166268Y016557D01*
X166338Y016628D01*
X166406Y016701D01*
X166472Y016776D01*
X166535Y016853D01*
X166597Y016932D01*
X166656Y017012D01*
X166713Y017095D01*
X166767Y017178D01*
X166819Y017263D01*
X166869Y01735D01*
X166916Y017438D01*
X166961Y017527D01*
X167003Y017618D01*
X167043Y017709D01*
X16708Y017802D01*
X167114Y017896D01*
X167146Y01799D01*
X167175Y018086D01*
X167202Y018182D01*
X167225Y018279D01*
X167246Y018377D01*
X167264Y018475D01*
X16728Y018573D01*
X167292Y018672D01*
X167302Y018772D01*
X167309Y018871D01*
X167314Y018971D01*
X167315Y019071D01*
X196449Y024268D02*
X196447Y024368D01*
X196443Y024467D01*
X196436Y024567D01*
X196426Y024666D01*
X196414Y024765D01*
X196398Y024864D01*
X19638Y024962D01*
X196359Y02506D01*
X196335Y025157D01*
X196309Y025253D01*
X19628Y025348D01*
X196248Y025443D01*
X196214Y025537D01*
X196177Y025629D01*
X196137Y025721D01*
X196095Y025812D01*
X19605Y025901D01*
X196003Y025989D01*
X195953Y026075D01*
X195901Y02616D01*
X195846Y026244D01*
X19579Y026326D01*
X19573Y026407D01*
X195669Y026485D01*
X195606Y026562D01*
X19554Y026637D01*
X195472Y026711D01*
X195402Y026782D01*
X19533Y026851D01*
X195257Y026919D01*
X195181Y026984D01*
X195104Y027047D01*
X195024Y027108D01*
X194944Y027166D01*
X194861Y027223D01*
X194777Y027276D01*
X194692Y027328D01*
X194605Y027377D01*
X194516Y027424D01*
X194427Y027468D01*
X194336Y027509D01*
X194244Y027548D01*
X194151Y027585D01*
X194057Y027619D01*
X193962Y02765D01*
X193867Y027678D01*
X19377Y027704D01*
X193673Y027727D01*
X193575Y027747D01*
X193477Y027765D01*
X193378Y027779D01*
X193279Y027791D01*
X19318Y0278D01*
X19308Y027807D01*
X19298Y02781D01*
X192881Y027811D01*
X192781Y027809D01*
X192681Y027804D01*
X192581Y027796D01*
X192482Y027786D01*
X192383Y027772D01*
X192285Y027756D01*
X192187Y027737D01*
X192089Y027716D01*
X191992Y027691D01*
X191896Y027664D01*
X191801Y027634D01*
X191707Y027602D01*
X191613Y027567D01*
X191521Y027529D01*
X191429Y027489D01*
X191339Y027446D01*
X19125Y027401D01*
X191163Y027353D01*
X191077Y027302D01*
X190992Y02725D01*
X190909Y027195D01*
X190827Y027137D01*
X190747Y027078D01*
X190669Y027016D01*
X190592Y026951D01*
X190517Y026885D01*
X190445Y026817D01*
X190374Y026747D01*
X190305Y026674D01*
X190238Y0266D01*
X190173Y026524D01*
X190111Y026446D01*
X190051Y026367D01*
X189993Y026285D01*
X189937Y026202D01*
X189884Y026118D01*
X189833Y026032D01*
X189784Y025945D01*
X189738Y025856D01*
X189695Y025766D01*
X189654Y025675D01*
X189615Y025583D01*
X18958Y02549D01*
X189547Y025396D01*
X189516Y025301D01*
X189488Y025205D01*
X189463Y025108D01*
X189441Y025011D01*
X189421Y024913D01*
X189405Y024815D01*
X189391Y024716D01*
X189379Y024617D01*
X189371Y024517D01*
X189365Y024417D01*
X189363Y024318D01*
Y024218D01*
X189365Y024118D01*
X189371Y024018D01*
X189379Y023919D01*
X189391Y02382D01*
X189405Y023721D01*
X189421Y023622D01*
X189441Y023525D01*
X189463Y023427D01*
X189488Y023331D01*
X189516Y023235D01*
X189547Y02314D01*
X18958Y023045D01*
X189615Y022952D01*
X189654Y02286D01*
X189695Y022769D01*
X189738Y022679D01*
X189784Y022591D01*
X189833Y022503D01*
X189884Y022417D01*
X189937Y022333D01*
X189993Y02225D01*
X190051Y022169D01*
X190111Y022089D01*
X190173Y022011D01*
X190238Y021935D01*
X190305Y021861D01*
X190374Y021789D01*
X190445Y021718D01*
X190517Y02165D01*
X190592Y021584D01*
X190669Y02152D01*
X190747Y021458D01*
X190827Y021398D01*
X190909Y021341D01*
X190992Y021286D01*
X191077Y021233D01*
X191163Y021183D01*
X19125Y021135D01*
X191339Y021089D01*
X191429Y021047D01*
X191521Y021006D01*
X191613Y020968D01*
X191707Y020933D01*
X191801Y020901D01*
X191896Y020871D01*
X191992Y020844D01*
X192089Y02082D01*
X192187Y020798D01*
X192285Y020779D01*
X192383Y020763D01*
X192482Y02075D01*
X192581Y020739D01*
X192681Y020732D01*
X192781Y020727D01*
X192881Y020724D01*
X19298Y020725D01*
X19308Y020729D01*
X19318Y020735D01*
X193279Y020744D01*
X193378Y020756D01*
X193477Y020771D01*
X193575Y020788D01*
X193673Y020809D01*
X19377Y020832D01*
X193867Y020857D01*
X193962Y020886D01*
X194057Y020917D01*
X194151Y020951D01*
X194244Y020987D01*
X194336Y021026D01*
X194427Y021068D01*
X194516Y021112D01*
X194605Y021158D01*
X194692Y021207D01*
X194777Y021259D01*
X194861Y021313D01*
X194944Y021369D01*
X195024Y021428D01*
X195104Y021489D01*
X195181Y021552D01*
X195257Y021617D01*
X19533Y021684D01*
X195402Y021753D01*
X195472Y021825D01*
X19554Y021898D01*
X195606Y021973D01*
X195669Y02205D01*
X19573Y022129D01*
X19579Y022209D01*
X195846Y022291D01*
X195901Y022375D01*
X195953Y02246D01*
X196003Y022547D01*
X19605Y022635D01*
X196095Y022724D01*
X196137Y022814D01*
X196177Y022906D01*
X196214Y022999D01*
X196248Y023092D01*
X19628Y023187D01*
X196309Y023283D01*
X196335Y023379D01*
X196359Y023476D01*
X19638Y023573D01*
X196398Y023672D01*
X196414Y02377D01*
X196426Y023869D01*
X196436Y023969D01*
X196443Y024068D01*
X196447Y024168D01*
X196449Y024268D01*
Y031512D02*
X196447Y031612D01*
X196443Y031711D01*
X196436Y031811D01*
X196426Y03191D01*
X196414Y032009D01*
X196398Y032108D01*
X19638Y032206D01*
X196359Y032304D01*
X196335Y032401D01*
X196309Y032497D01*
X19628Y032592D01*
X196248Y032687D01*
X196214Y032781D01*
X196177Y032874D01*
X196137Y032965D01*
X196095Y033056D01*
X19605Y033145D01*
X196003Y033233D01*
X195953Y033319D01*
X195901Y033405D01*
X195846Y033488D01*
X19579Y03357D01*
X19573Y033651D01*
X195669Y033729D01*
X195606Y033806D01*
X19554Y033882D01*
X195472Y033955D01*
X195402Y034026D01*
X19533Y034095D01*
X195257Y034163D01*
X195181Y034228D01*
X195104Y034291D01*
X195024Y034352D01*
X194944Y03441D01*
X194861Y034467D01*
X194777Y034521D01*
X194692Y034572D01*
X194605Y034621D01*
X194516Y034668D01*
X194427Y034712D01*
X194336Y034753D01*
X194244Y034793D01*
X194151Y034829D01*
X194057Y034863D01*
X193962Y034894D01*
X193867Y034922D01*
X19377Y034948D01*
X193673Y034971D01*
X193575Y034991D01*
X193477Y035009D01*
X193378Y035023D01*
X193279Y035035D01*
X19318Y035044D01*
X19308Y035051D01*
X19298Y035054D01*
X192881Y035055D01*
X192781Y035053D01*
X192681Y035048D01*
X192581Y03504D01*
X192482Y03503D01*
X192383Y035016D01*
X192285Y035D01*
X192187Y034981D01*
X192089Y03496D01*
X191992Y034935D01*
X191896Y034908D01*
X191801Y034879D01*
X191707Y034846D01*
X191613Y034811D01*
X191521Y034773D01*
X191429Y034733D01*
X191339Y03469D01*
X19125Y034645D01*
X191163Y034597D01*
X191077Y034547D01*
X190992Y034494D01*
X190909Y034439D01*
X190827Y034381D01*
X190747Y034322D01*
X190669Y03426D01*
X190592Y034196D01*
X190517Y034129D01*
X190445Y034061D01*
X190374Y033991D01*
X190305Y033918D01*
X190238Y033844D01*
X190173Y033768D01*
X190111Y03369D01*
X190051Y033611D01*
X189993Y033529D01*
X189937Y033447D01*
X189884Y033362D01*
X189833Y033276D01*
X189784Y033189D01*
X189738Y0331D01*
X189695Y033011D01*
X189654Y032919D01*
X189615Y032827D01*
X18958Y032734D01*
X189547Y03264D01*
X189516Y032545D01*
X189488Y032449D01*
X189463Y032352D01*
X189441Y032255D01*
X189421Y032157D01*
X189405Y032059D01*
X189391Y03196D01*
X189379Y031861D01*
X189371Y031761D01*
X189365Y031662D01*
X189363Y031562D01*
Y031462D01*
X189365Y031362D01*
X189371Y031262D01*
X189379Y031163D01*
X189391Y031064D01*
X189405Y030965D01*
X189421Y030866D01*
X189441Y030769D01*
X189463Y030671D01*
X189488Y030575D01*
X189516Y030479D01*
X189547Y030384D01*
X18958Y03029D01*
X189615Y030196D01*
X189654Y030104D01*
X189695Y030013D01*
X189738Y029923D01*
X189784Y029835D01*
X189833Y029747D01*
X189884Y029662D01*
X189937Y029577D01*
X189993Y029494D01*
X190051Y029413D01*
X190111Y029333D01*
X190173Y029256D01*
X190238Y029179D01*
X190305Y029105D01*
X190374Y029033D01*
X190445Y028963D01*
X190517Y028894D01*
X190592Y028828D01*
X190669Y028764D01*
X190747Y028702D01*
X190827Y028642D01*
X190909Y028585D01*
X190992Y02853D01*
X191077Y028477D01*
X191163Y028427D01*
X19125Y028379D01*
X191339Y028333D01*
X191429Y028291D01*
X191521Y02825D01*
X191613Y028213D01*
X191707Y028177D01*
X191801Y028145D01*
X191896Y028115D01*
X191992Y028088D01*
X192089Y028064D01*
X192187Y028042D01*
X192285Y028023D01*
X192383Y028007D01*
X192482Y027994D01*
X192581Y027983D01*
X192681Y027976D01*
X192781Y027971D01*
X192881Y027969D01*
X19298Y027969D01*
X19308Y027973D01*
X19318Y027979D01*
X193279Y027988D01*
X193378Y028D01*
X193477Y028015D01*
X193575Y028032D01*
X193673Y028053D01*
X19377Y028076D01*
X193867Y028101D01*
X193962Y02813D01*
X194057Y028161D01*
X194151Y028195D01*
X194244Y028231D01*
X194336Y02827D01*
X194427Y028312D01*
X194516Y028356D01*
X194605Y028402D01*
X194692Y028452D01*
X194777Y028503D01*
X194861Y028557D01*
X194944Y028613D01*
X195024Y028672D01*
X195104Y028733D01*
X195181Y028796D01*
X195257Y028861D01*
X19533Y028928D01*
X195402Y028997D01*
X195472Y029069D01*
X19554Y029142D01*
X195606Y029217D01*
X195669Y029294D01*
X19573Y029373D01*
X19579Y029453D01*
X195846Y029535D01*
X195901Y029619D01*
X195953Y029704D01*
X196003Y029791D01*
X19605Y029879D01*
X196095Y029968D01*
X196137Y030058D01*
X196177Y03015D01*
X196214Y030243D01*
X196248Y030336D01*
X19628Y030431D01*
X196309Y030527D01*
X196335Y030623D01*
X196359Y03072D01*
X19638Y030817D01*
X196398Y030916D01*
X196414Y031014D01*
X196426Y031113D01*
X196436Y031213D01*
X196443Y031312D01*
X196447Y031412D01*
X196449Y031512D01*
X181889Y044433D02*
X181851Y044524D01*
X18176Y044562D01*
X181668Y044524D01*
X18163Y044433D01*
X181668Y044341D01*
X18176Y044303D01*
X181851Y044341D01*
X181889Y044433D01*
X177252D02*
X177214Y044524D01*
X177122Y044562D01*
X17703Y044524D01*
X176992Y044433D01*
X17703Y044341D01*
X177122Y044303D01*
X177214Y044341D01*
X177252Y044433D01*
X172252D02*
X172214Y044524D01*
X172122Y044562D01*
X17203Y044524D01*
X171992Y044433D01*
X17203Y044341D01*
X172122Y044303D01*
X172214Y044341D01*
X172252Y044433D01*
X167252D02*
X167214Y044524D01*
X167122Y044562D01*
X16703Y044524D01*
X166992Y044433D01*
X16703Y044341D01*
X167122Y044303D01*
X167214Y044341D01*
X167252Y044433D01*
X162598D02*
X16256Y044524D01*
X162468Y044562D01*
X162377Y044524D01*
X162339Y044433D01*
X162377Y044341D01*
X162468Y044303D01*
X16256Y044341D01*
X162598Y044433D01*
X180256Y013676D02*
X180232Y013775D01*
X180165Y013851D01*
X18007Y013887D01*
X179969Y013874D01*
X179886Y013817D01*
X179838Y013727D01*
Y013625D01*
X179886Y013535D01*
X179969Y013478D01*
X18007Y013465D01*
X180165Y013501D01*
X180232Y013577D01*
X180256Y013676D01*
X15796Y044433D02*
X157922Y044524D01*
X157831Y044562D01*
X157739Y044524D01*
X157701Y044433D01*
X157739Y044341D01*
X157831Y044303D01*
X157922Y044341D01*
X15796Y044433D01*
X153322D02*
X153284Y044524D01*
X153193Y044562D01*
X153101Y044524D01*
X153063Y044433D01*
X153101Y044341D01*
X153193Y044303D01*
X153284Y044341D01*
X153322Y044433D01*
X201465Y046709D02*
X20156Y04672D01*
X20165Y046754D01*
X20173Y046809D01*
X201794Y046881D01*
X201839Y046967D01*
X201862Y04706D01*
Y047157D01*
X201839Y04725D01*
X201794Y047336D01*
X20173Y047408D01*
X20165Y047463D01*
X20156Y047497D01*
X201465Y047509D01*
X20156Y04752D01*
X20165Y047554D01*
X20173Y047609D01*
X201794Y047681D01*
X201839Y047767D01*
X201862Y04786D01*
Y047957D01*
X201839Y04805D01*
X201794Y048136D01*
X20173Y048208D01*
X20165Y048263D01*
X20156Y048297D01*
X201465Y048309D01*
X203115Y045683D02*
X20302Y045672D01*
X202929Y045638D01*
X20285Y045583D01*
X202786Y045511D01*
X202741Y045425D01*
X202718Y045332D01*
Y045235D01*
X202741Y045142D01*
X202786Y045056D01*
X20285Y044984D01*
X202929Y044929D01*
X20302Y044895D01*
X203115Y044883D01*
X20302Y044872D01*
X202929Y044838D01*
X20285Y044783D01*
X202786Y044711D01*
X202741Y044625D01*
X202718Y044532D01*
Y044435D01*
X202741Y044342D01*
X202786Y044256D01*
X20285Y044184D01*
X202929Y044129D01*
X20302Y044095D01*
X203115Y044083D01*
X20302Y044072D01*
X202929Y044038D01*
X20285Y043983D01*
X202786Y043911D01*
X202741Y043825D01*
X202718Y043732D01*
Y043635D01*
X202741Y043542D01*
X202786Y043456D01*
X20285Y043384D01*
X202929Y043329D01*
X20302Y043295D01*
X203115Y043283D01*
Y046483D02*
X20302Y046472D01*
X202929Y046438D01*
X20285Y046383D01*
X202786Y046311D01*
X202741Y046225D01*
X202718Y046132D01*
Y046035D01*
X202741Y045942D01*
X202786Y045856D01*
X20285Y045784D01*
X202929Y045729D01*
X20302Y045695D01*
X203115Y045683D01*
Y047283D02*
X20302Y047272D01*
X202929Y047238D01*
X20285Y047183D01*
X202786Y047111D01*
X202741Y047025D01*
X202718Y046932D01*
Y046835D01*
X202741Y046742D01*
X202786Y046656D01*
X20285Y046584D01*
X202929Y046529D01*
X20302Y046495D01*
X203115Y046483D01*
Y048083D02*
X20302Y048072D01*
X202929Y048038D01*
X20285Y047983D01*
X202786Y047911D01*
X202741Y047825D01*
X202718Y047732D01*
Y047635D01*
X202741Y047542D01*
X202786Y047456D01*
X20285Y047384D01*
X202929Y047329D01*
X20302Y047295D01*
X203115Y047283D01*
X201465Y043769D02*
X20156Y04378D01*
X20165Y043814D01*
X20173Y043869D01*
X201794Y043941D01*
X201839Y044027D01*
X201862Y04412D01*
Y044217D01*
X201839Y04431D01*
X201794Y044396D01*
X20173Y044468D01*
X20165Y044523D01*
X20156Y044557D01*
X201465Y044569D01*
Y042969D02*
X20156Y04298D01*
X20165Y043014D01*
X20173Y043069D01*
X201794Y043141D01*
X201839Y043227D01*
X201862Y04332D01*
Y043417D01*
X201839Y04351D01*
X201794Y043596D01*
X20173Y043668D01*
X20165Y043723D01*
X20156Y043757D01*
X201465Y043769D01*
X196307Y044433D02*
X196269Y044524D01*
X196177Y044562D01*
X196085Y044524D01*
X196047Y044433D01*
X196085Y044341D01*
X196177Y044303D01*
X196269Y044341D01*
X196307Y044433D01*
X191315D02*
X191277Y044524D01*
X191185Y044562D01*
X191093Y044524D01*
X191055Y044433D01*
X191093Y044341D01*
X191185Y044303D01*
X191277Y044341D01*
X191315Y044433D01*
X186551Y044433D02*
X186513Y044524D01*
X186421Y044562D01*
X186329Y044524D01*
X186291Y044433D01*
X186329Y044341D01*
X186421Y044303D01*
X186513Y044341D01*
X186551Y044433D01*
X14131Y037136D02*
X141406Y037148D01*
X141496Y037182D01*
X141575Y037237D01*
X141639Y037309D01*
X141684Y037394D01*
X141707Y037488D01*
Y037584D01*
X141684Y037678D01*
X141639Y037763D01*
X141575Y037836D01*
X141496Y03789D01*
X141406Y037925D01*
X14131Y037936D01*
X141406Y037948D01*
X141496Y037982D01*
X141575Y038037D01*
X141639Y038109D01*
X141684Y038194D01*
X141707Y038288D01*
Y038384D01*
X141684Y038478D01*
X141639Y038563D01*
X141575Y038636D01*
X141496Y03869D01*
X141406Y038725D01*
X14131Y038736D01*
X141406Y038748D01*
X141496Y038782D01*
X141575Y038837D01*
X141639Y038909D01*
X141684Y038994D01*
X141707Y039088D01*
Y039184D01*
X141684Y039278D01*
X141639Y039363D01*
X141575Y039436D01*
X141496Y03949D01*
X141406Y039525D01*
X14131Y039536D01*
Y041136D02*
X141406Y041148D01*
X141496Y041182D01*
X141575Y041237D01*
X141639Y041309D01*
X141684Y041394D01*
X141707Y041488D01*
Y041584D01*
X141684Y041678D01*
X141639Y041763D01*
X141575Y041836D01*
X141496Y04189D01*
X141406Y041925D01*
X14131Y041936D01*
Y040336D02*
X141406Y040348D01*
X141496Y040382D01*
X141575Y040437D01*
X141639Y040509D01*
X141684Y040594D01*
X141707Y040688D01*
Y040784D01*
X141684Y040878D01*
X141639Y040963D01*
X141575Y041036D01*
X141496Y04109D01*
X141406Y041125D01*
X14131Y041136D01*
Y039536D02*
X141406Y039548D01*
X141496Y039582D01*
X141575Y039637D01*
X141639Y039709D01*
X141684Y039794D01*
X141707Y039888D01*
Y039984D01*
X141684Y040078D01*
X141639Y040163D01*
X141575Y040236D01*
X141496Y04029D01*
X141406Y040325D01*
X14131Y040336D01*
Y044336D02*
X141406Y044348D01*
X141496Y044382D01*
X141575Y044437D01*
X141639Y044509D01*
X141684Y044594D01*
X141707Y044688D01*
Y044784D01*
X141684Y044878D01*
X141639Y044963D01*
X141575Y045036D01*
X141496Y04509D01*
X141406Y045125D01*
X14131Y045136D01*
X141406Y045148D01*
X141496Y045182D01*
X141575Y045237D01*
X141639Y045309D01*
X141684Y045394D01*
X141707Y045488D01*
Y045584D01*
X141684Y045678D01*
X141639Y045763D01*
X141575Y045836D01*
X141496Y04589D01*
X141406Y045925D01*
X14131Y045936D01*
X141406Y045948D01*
X141496Y045982D01*
X141575Y046037D01*
X141639Y046109D01*
X141684Y046194D01*
X141707Y046288D01*
Y046384D01*
X141684Y046478D01*
X141639Y046563D01*
X141575Y046636D01*
X141496Y04669D01*
X141406Y046725D01*
X14131Y046736D01*
Y043536D02*
X141406Y043548D01*
X141496Y043582D01*
X141575Y043637D01*
X141639Y043709D01*
X141684Y043794D01*
X141707Y043888D01*
Y043984D01*
X141684Y044078D01*
X141639Y044163D01*
X141575Y044236D01*
X141496Y04429D01*
X141406Y044325D01*
X14131Y044336D01*
Y042736D02*
X141406Y042748D01*
X141496Y042782D01*
X141575Y042837D01*
X141639Y042909D01*
X141684Y042994D01*
X141707Y043088D01*
Y043184D01*
X141684Y043278D01*
X141639Y043363D01*
X141575Y043436D01*
X141496Y04349D01*
X141406Y043525D01*
X14131Y043536D01*
Y041936D02*
X141406Y041948D01*
X141496Y041982D01*
X141575Y042037D01*
X141639Y042109D01*
X141684Y042194D01*
X141707Y042288D01*
Y042384D01*
X141684Y042478D01*
X141639Y042563D01*
X141575Y042636D01*
X141496Y04269D01*
X141406Y042725D01*
X14131Y042736D01*
X14416Y041836D02*
X144065Y041825D01*
X143974Y04179D01*
X143895Y041736D01*
X143831Y041663D01*
X143786Y041578D01*
X143763Y041484D01*
Y041388D01*
X143786Y041294D01*
X143831Y041209D01*
X143895Y041137D01*
X143974Y041082D01*
X144065Y041048D01*
X14416Y041036D01*
X144065Y041025D01*
X143974Y04099D01*
X143895Y040936D01*
X143831Y040863D01*
X143786Y040778D01*
X143763Y040684D01*
Y040588D01*
X143786Y040494D01*
X143831Y040409D01*
X143895Y040337D01*
X143974Y040282D01*
X144065Y040248D01*
X14416Y040236D01*
X144065Y040225D01*
X143974Y04019D01*
X143895Y040136D01*
X143831Y040063D01*
X143786Y039978D01*
X143763Y039884D01*
Y039788D01*
X143786Y039694D01*
X143831Y039609D01*
X143895Y039537D01*
X143974Y039482D01*
X144065Y039448D01*
X14416Y039436D01*
Y037836D02*
X144065Y037825D01*
X143974Y03779D01*
X143895Y037736D01*
X143831Y037663D01*
X143786Y037578D01*
X143763Y037484D01*
Y037388D01*
X143786Y037294D01*
X143831Y037209D01*
X143895Y037137D01*
X143974Y037082D01*
X144065Y037048D01*
X14416Y037036D01*
Y038636D02*
X144065Y038625D01*
X143974Y03859D01*
X143895Y038536D01*
X143831Y038463D01*
X143786Y038378D01*
X143763Y038284D01*
Y038188D01*
X143786Y038094D01*
X143831Y038009D01*
X143895Y037937D01*
X143974Y037882D01*
X144065Y037848D01*
X14416Y037836D01*
Y039436D02*
X144065Y039425D01*
X143974Y03939D01*
X143895Y039336D01*
X143831Y039263D01*
X143786Y039178D01*
X143763Y039084D01*
Y038988D01*
X143786Y038894D01*
X143831Y038809D01*
X143895Y038737D01*
X143974Y038682D01*
X144065Y038648D01*
X14416Y038636D01*
Y044236D02*
X144065Y044225D01*
X143974Y04419D01*
X143895Y044136D01*
X143831Y044063D01*
X143786Y043978D01*
X143763Y043884D01*
Y043788D01*
X143786Y043694D01*
X143831Y043609D01*
X143895Y043537D01*
X143974Y043482D01*
X144065Y043448D01*
X14416Y043436D01*
X144065Y043425D01*
X143974Y04339D01*
X143895Y043336D01*
X143831Y043263D01*
X143786Y043178D01*
X143763Y043084D01*
Y042988D01*
X143786Y042894D01*
X143831Y042809D01*
X143895Y042737D01*
X143974Y042682D01*
X144065Y042648D01*
X14416Y042636D01*
X144065Y042625D01*
X143974Y04259D01*
X143895Y042536D01*
X143831Y042463D01*
X143786Y042378D01*
X143763Y042284D01*
Y042188D01*
X143786Y042094D01*
X143831Y042009D01*
X143895Y041937D01*
X143974Y041882D01*
X144065Y041848D01*
X14416Y041836D01*
Y045036D02*
X144065Y045025D01*
X143974Y04499D01*
X143895Y044936D01*
X143831Y044863D01*
X143786Y044778D01*
X143763Y044684D01*
Y044588D01*
X143786Y044494D01*
X143831Y044409D01*
X143895Y044337D01*
X143974Y044282D01*
X144065Y044248D01*
X14416Y044236D01*
Y045836D02*
X144065Y045825D01*
X143974Y04579D01*
X143895Y045736D01*
X143831Y045663D01*
X143786Y045578D01*
X143763Y045484D01*
Y045388D01*
X143786Y045294D01*
X143831Y045209D01*
X143895Y045137D01*
X143974Y045082D01*
X144065Y045048D01*
X14416Y045036D01*
Y046636D02*
X144065Y046625D01*
X143974Y04659D01*
X143895Y046536D01*
X143831Y046463D01*
X143786Y046378D01*
X143763Y046284D01*
Y046188D01*
X143786Y046094D01*
X143831Y046009D01*
X143895Y045937D01*
X143974Y045882D01*
X144065Y045848D01*
X14416Y045836D01*
X169028Y019643D02*
X187925D01*
X169028D02*
Y034997D01*
X187925D01*
Y019643D02*
Y034997D01*
X173788Y027477D02*
X183119D01*
X173749Y026847D02*
X18308D01*
X183243Y024723D02*
Y025773D01*
X173643Y024723D02*
Y025773D01*
X183343Y028623D02*
Y029673D01*
X173743Y028623D02*
Y029673D01*
X140238Y015038D02*
Y015998D01*
X139478Y015028D02*
Y016028D01*
X150307Y035488D02*
Y042181D01*
X195583D01*
X150307Y035488D02*
X195583D01*
Y035488D02*
Y042181D01*
X151819Y025567D02*
X152169D01*
X151819Y025317D02*
Y025817D01*
X151619Y025317D02*
Y025817D01*
X151219Y025567D02*
X151569D01*
X150169Y026067D02*
X153169D01*
Y025067D02*
Y026067D01*
X150169Y025067D02*
X153169D01*
X150169D02*
Y026067D01*
X178496Y01639D02*
Y01674D01*
X178246D02*
X178746D01*
X178246Y01694D02*
X178746D01*
X178496Y01699D02*
Y01734D01*
X178996Y01539D02*
Y01839D01*
X177996Y01539D02*
X178996D01*
X177996D02*
Y01839D01*
X178996D01*
X161868Y027968D02*
X166418D01*
X161868Y026718D02*
Y028969D01*
X160618Y026718D02*
Y028969D01*
X156068Y027968D02*
X160618D01*
X168318Y024469D02*
Y031469D01*
X154118Y024469D02*
X168318D01*
X154118D02*
Y031418D01*
Y031469D02*
X168318D01*
X154118Y031418D02*
Y031469D01*
X138233Y021743D02*
X138913Y021063D01*
Y020983D02*
Y021063D01*
X137893Y021793D02*
X138883Y020803D01*
X137623Y021733D02*
X138553Y020803D01*
X138563D01*
X137413Y021593D02*
X138203Y020803D01*
X138243D01*
X137223Y021453D02*
X137873Y020803D01*
X137103Y021263D02*
X137563Y020803D01*
X137573D01*
X137023Y021043D02*
X137263Y020803D01*
X137433D01*
X137273D02*
X137433D01*
X136963D02*
X138933D01*
X142632Y015396D02*
X143592D01*
X142602Y014636D02*
X143602D01*
X148034Y011937D02*
Y014237D01*
Y011937D02*
X153884D01*
Y014237D01*
X148034D02*
X153884D01*
X140535Y033862D02*
X142535D01*
Y030292D02*
Y033862D01*
X140535Y030292D02*
X142535D01*
X140535D02*
Y033862D01*
X150929Y01726D02*
X152029Y01616D01*
Y01611D02*
Y01616D01*
X150479Y01836D02*
X153179Y01566D01*
X153229D01*
X150429Y01911D02*
X153879Y01566D01*
Y01561D02*
Y01566D01*
X150479Y01971D02*
X153929Y01626D01*
Y01616D02*
Y01626D01*
X150579Y02026D02*
X153929Y01691D01*
Y01681D02*
Y01691D01*
X150779Y02071D02*
X153929Y01756D01*
Y01741D02*
Y01756D01*
X151029Y02106D02*
X153929Y01816D01*
Y01781D02*
Y01816D01*
X151279Y02141D02*
X153929Y01876D01*
Y01851D02*
Y01876D01*
X151579Y02171D02*
X153929Y01936D01*
Y01911D02*
Y01936D01*
X151879Y02196D02*
X153929Y01991D01*
Y01961D02*
Y01991D01*
X152179Y02216D02*
X153929Y02041D01*
Y02006D02*
Y02041D01*
X152529Y02231D02*
X153929Y02091D01*
Y02076D02*
Y02091D01*
X152879Y02246D02*
X153929Y02141D01*
Y02121D02*
Y02141D01*
X153279Y02256D02*
X153929Y02191D01*
Y02161D02*
Y02191D01*
Y015567D02*
Y022654D01*
X160772Y017221D02*
X161872Y016121D01*
Y016071D02*
Y016121D01*
X160322Y018321D02*
X163022Y015621D01*
X163072D01*
X160272Y019071D02*
X163722Y015621D01*
Y015571D02*
Y015621D01*
X160322Y019671D02*
X163772Y016221D01*
Y016121D02*
Y016221D01*
X160422Y020221D02*
X163772Y016871D01*
Y016771D02*
Y016871D01*
X160622Y020671D02*
X163772Y017521D01*
Y017371D02*
Y017521D01*
X160872Y021021D02*
X163772Y018121D01*
Y017771D02*
Y018121D01*
X161122Y021371D02*
X163772Y018721D01*
Y018471D02*
Y018721D01*
X161422Y021671D02*
X163772Y019321D01*
Y019071D02*
Y019321D01*
X161722Y021921D02*
X163772Y019871D01*
Y019571D02*
Y019871D01*
X162022Y022121D02*
X163772Y020371D01*
Y020021D02*
Y020371D01*
X162372Y022271D02*
X163772Y020871D01*
Y020721D02*
Y020871D01*
X162722Y022421D02*
X163772Y021371D01*
Y021171D02*
Y021371D01*
X163122Y022521D02*
X163772Y021871D01*
Y021571D02*
Y021871D01*
Y015528D02*
Y022614D01*
X189905Y022418D02*
X191005Y021318D01*
Y021268D02*
Y021318D01*
X189456Y023518D02*
X192155Y020818D01*
X192206D01*
X189405Y024268D02*
X192855Y020818D01*
Y020768D02*
Y020818D01*
X189456Y024868D02*
X192906Y021418D01*
Y021318D02*
Y021418D01*
X189555Y025418D02*
X192906Y022068D01*
Y021968D02*
Y022068D01*
X189755Y025868D02*
X192906Y022718D01*
Y022568D02*
Y022718D01*
X190005Y026218D02*
X192906Y023318D01*
Y022968D02*
Y023318D01*
X190256Y026568D02*
X192906Y023918D01*
Y023668D02*
Y023918D01*
X190555Y026868D02*
X192906Y024518D01*
Y024268D02*
Y024518D01*
X190856Y027118D02*
X192906Y025068D01*
Y024768D02*
Y025068D01*
X191155Y027318D02*
X192906Y025568D01*
Y025218D02*
Y025568D01*
X191506Y027468D02*
X192906Y026068D01*
Y025918D02*
Y026068D01*
X191856Y027618D02*
X192906Y026568D01*
Y026368D02*
Y026568D01*
X192255Y027718D02*
X192906Y027068D01*
Y026768D02*
Y027068D01*
Y020724D02*
Y027811D01*
X189905Y029662D02*
X191005Y028562D01*
Y028512D02*
Y028562D01*
X189456Y030762D02*
X192155Y028062D01*
X192206D01*
X189405Y031512D02*
X192855Y028062D01*
Y028012D02*
Y028062D01*
X189456Y032112D02*
X192906Y028662D01*
Y028562D02*
Y028662D01*
X189555Y032662D02*
X192906Y029312D01*
Y029212D02*
Y029312D01*
X189755Y033112D02*
X192906Y029962D01*
Y029812D02*
Y029962D01*
X190005Y033462D02*
X192906Y030562D01*
Y030212D02*
Y030562D01*
X190256Y033812D02*
X192906Y031162D01*
Y030912D02*
Y031162D01*
X190555Y034112D02*
X192906Y031762D01*
Y031512D02*
Y031762D01*
X190856Y034362D02*
X192906Y032312D01*
Y032012D02*
Y032312D01*
X191155Y034562D02*
X192906Y032812D01*
Y032462D02*
Y032812D01*
X191506Y034712D02*
X192906Y033312D01*
Y033162D02*
Y033312D01*
X191856Y034862D02*
X192906Y033812D01*
Y033612D02*
Y033812D01*
X192255Y034962D02*
X192906Y034312D01*
Y034012D02*
Y034312D01*
Y027968D02*
Y035055D01*
X179594Y012126D02*
X183164D01*
Y014126D01*
X179594D02*
X183164D01*
X179594Y012126D02*
Y014126D01*
X199402Y042102D02*
Y049189D01*
X205307D01*
X199402Y042102D02*
X205307D01*
Y049189D01*
X200937Y046709D02*
X201465D01*
X200937Y04832D02*
X201465D01*
X203115Y043283D02*
X203693D01*
X203115Y048083D02*
X203693D01*
X200937Y04458D02*
X201465D01*
X200937Y042969D02*
X201465D01*
X142128Y023692D02*
X142171Y023649D01*
X14026Y037136D02*
X14131D01*
X14026Y046736D02*
X14131D01*
X14416Y037036D02*
X14521D01*
X14416Y046636D02*
X14521D01*
X143087Y037142D02*
Y046472D01*
X142457Y037181D02*
Y046512D01*
X136827Y03411D02*
X148638D01*
X136827D02*
Y049071D01*
X148638D01*
Y03411D02*
Y049071D01*
X200755Y034825D02*
Y034425D01*
X201054D01*
Y034625D01*
Y034425D01*
X201354D01*
X200954Y035125D02*
Y035325D01*
X201054Y035425D01*
X201354D01*
Y035125D01*
X201254Y035025D01*
X201154Y035125D01*
Y035425D01*
X201354Y035625D02*
X200954D01*
Y035925D01*
X201054Y036025D01*
X201354D01*
X138471Y016146D02*
X138371Y016245D01*
X138171D01*
X138071Y016146D01*
Y015746D01*
X138171Y015646D01*
X138371D01*
X138471Y015746D01*
X138671Y016245D02*
X139071D01*
Y016146D01*
X138671Y015746D01*
Y015646D01*
X150179Y048402D02*
X14978D01*
X150179Y048801D01*
Y048901D01*
X150079Y049001D01*
X14988D01*
X14978Y048901D01*
X198772Y044924D02*
Y044661D01*
X199165D01*
Y044924D01*
X198969Y044661D02*
Y044793D01*
X198772Y045317D02*
Y045055D01*
X199165D01*
Y045317D01*
X198969Y045055D02*
Y045186D01*
X199165Y045449D02*
Y04558D01*
Y045514D01*
X198772D01*
X198837Y045449D01*
X198772Y046039D02*
X198837Y045908D01*
X198969Y045777D01*
X1991D01*
X199165Y045842D01*
Y045973D01*
X1991Y046039D01*
X199034D01*
X198969Y045973D01*
Y045777D01*
D48*
X144447Y030246D02*
X144515Y030172D01*
X144597Y030112D01*
X144687Y030068D01*
X144785Y030041D01*
X144885Y030033D01*
X144986Y030043D01*
X145083Y030071D01*
X145173Y030116D01*
X145253Y030177D01*
X145321Y030252D01*
X145374Y030338D01*
X145411Y030432D01*
X145429Y030531D01*
X14543Y030632D01*
X145411Y030732D01*
X145375Y030826D01*
X145322Y030912D01*
X145255Y030987D01*
X145175Y031048D01*
X145084Y031094D01*
X144988Y031122D01*
X144887Y031133D01*
X144787Y031124D01*
X144689Y031098D01*
X144598Y031054D01*
X144517Y030994D01*
X144448Y03092D01*
X149675Y030231D02*
X149744Y030157D01*
X149825Y030097D01*
X149916Y030052D01*
X150013Y030026D01*
X150114Y030017D01*
X150214Y030027D01*
X150311Y030055D01*
X150401Y0301D01*
X150482Y030161D01*
X15055Y030236D01*
X150603Y030322D01*
X150639Y030416D01*
X150658Y030516D01*
X150658Y030617D01*
X15064Y030716D01*
X150604Y03081D01*
X150551Y030896D01*
X150483Y030971D01*
X150403Y031033D01*
X150313Y031078D01*
X150216Y031107D01*
X150115Y031117D01*
X150015Y031109D01*
X149917Y031082D01*
X149826Y031038D01*
X149745Y030978D01*
X149676Y030905D01*
X144882Y031883D02*
Y032283D01*
X143882D02*
X144882D01*
X143882D02*
Y032883D01*
X144882D01*
Y033333D01*
X143882D02*
X144882D01*
X143882D02*
Y033583D01*
X148132D01*
Y033333D02*
Y033583D01*
X144882Y028883D02*
Y029283D01*
X143882Y028883D02*
X144882D01*
X143882Y028283D02*
Y028883D01*
Y028283D02*
X144882D01*
Y027833D02*
Y028283D01*
X143882Y027833D02*
X144882D01*
X143882Y027583D02*
Y027833D01*
Y027583D02*
X148132D01*
Y027833D01*
X145782D02*
X148132D01*
X145782D02*
Y033333D01*
X148132D01*
X145932Y028633D02*
X147582D01*
Y032533D01*
X145932D02*
X147582D01*
X145932Y028633D02*
Y032533D01*
X143882Y029283D02*
X144882D01*
X143882D02*
Y030083D01*
Y031883D02*
X144882D01*
X143882Y031083D02*
Y031883D01*
X144282Y030083D02*
X144442Y030243D01*
X143882Y030083D02*
X144282D01*
X143882Y031083D02*
X144282D01*
X144446Y030919D01*
X15011Y031867D02*
Y032267D01*
X14911D02*
X15011D01*
X14911D02*
Y032867D01*
X15011D01*
Y033317D01*
X14911D02*
X15011D01*
X14911D02*
Y033567D01*
X15336D01*
Y033317D02*
Y033567D01*
X15011Y028867D02*
Y029267D01*
X14911Y028867D02*
X15011D01*
X14911Y028267D02*
Y028867D01*
Y028267D02*
X15011D01*
Y027817D02*
Y028267D01*
X14911Y027817D02*
X15011D01*
X14911Y027567D02*
Y027817D01*
Y027567D02*
X15336D01*
Y027817D01*
X15101D02*
X15336D01*
X15101D02*
Y033317D01*
X15336D01*
X15116Y028617D02*
X15281D01*
Y032517D01*
X15116D02*
X15281D01*
X15116Y028617D02*
Y032517D01*
X14911Y029267D02*
X15011D01*
X14911D02*
Y030067D01*
Y031867D02*
X15011D01*
X14911Y031067D02*
Y031867D01*
X14951Y030067D02*
X14967Y030227D01*
X14911Y030067D02*
X14951D01*
X14911Y031067D02*
X14951D01*
X149674Y030903D01*
D49*
X145908Y025559D02*
X145914Y025459D01*
X14594Y025363D01*
X145985Y025274D01*
X146047Y025195D01*
X146123Y02513D01*
X146211Y025082D01*
X146306Y025052D01*
X146405Y025042D01*
X146505Y025052D01*
X1466Y025081D01*
X146688Y025128D01*
X146765Y025192D01*
X146827Y02527D01*
X146873Y025359D01*
X1469Y025455D01*
X146907Y025555D01*
X140609Y02431D02*
X140581Y024407D01*
X140505Y024472D01*
X140406Y024487D01*
X140315Y024445D01*
X140261Y024361D01*
Y02426D01*
X140315Y024176D01*
X140406Y024134D01*
X140505Y024148D01*
X140581Y024214D01*
X140609Y02431D01*
X139099Y02432D02*
X139071Y024417D01*
X138995Y024482D01*
X138896Y024497D01*
X138805Y024455D01*
X138751Y024371D01*
Y02427D01*
X138805Y024186D01*
X138896Y024144D01*
X138995Y024158D01*
X139071Y024224D01*
X139099Y02432D01*
X139992Y026634D02*
X139964Y02673D01*
X139888Y026796D01*
X139789Y02681D01*
X139698Y026769D01*
X139644Y026684D01*
Y026584D01*
X139698Y0265D01*
X139789Y026458D01*
X139888Y026472D01*
X139964Y026538D01*
X139992Y026634D01*
X139224Y028586D02*
X139298Y02852D01*
X139379Y028463D01*
X139466Y028416D01*
X139559Y02838D01*
X139655Y028356D01*
X139753Y028343D01*
X139852Y028342D01*
X13995Y028353D01*
X140047Y028376D01*
X14014Y02841D01*
X140228Y028456D01*
X14031Y028511D01*
X140384Y028576D01*
X139331Y017738D02*
X139491D01*
X139121D02*
X139331D01*
X138861Y018148D02*
X139831D01*
X139331Y017438D02*
Y017738D01*
Y019238D02*
Y019538D01*
Y017738D02*
X139941D01*
Y019238D01*
X138681D02*
X139941D01*
X138681Y017738D02*
Y019238D01*
Y017738D02*
X139331D01*
X146641Y019007D02*
X147211D01*
Y018777D02*
Y019847D01*
X146641D02*
X147211D01*
X146641Y018777D02*
Y019847D01*
X146921Y018507D02*
Y018777D01*
Y019847D02*
Y020107D01*
X146641Y018777D02*
X147211D01*
X145403Y019602D02*
X145973D01*
X145403Y018762D02*
Y019832D01*
Y018762D02*
X145973D01*
Y019832D01*
X145693D02*
Y020102D01*
Y018502D02*
Y018762D01*
X145403Y019832D02*
X145973D01*
X144407Y025555D02*
X145907D01*
X146917D02*
X148407D01*
X144407Y023555D02*
Y025555D01*
Y023555D02*
X148407D01*
Y025555D01*
X171098Y01762D02*
Y01819D01*
X172168Y01791D02*
X172428D01*
X170828D02*
X171098D01*
Y01819D02*
X172168D01*
Y01762D02*
Y01819D01*
X171098Y01762D02*
X172168D01*
X171328D02*
Y01819D01*
X171098Y015651D02*
Y016221D01*
X172168Y015941D02*
X172428D01*
X170828D02*
X171098D01*
Y016221D02*
X172168D01*
Y015651D02*
Y016221D01*
X171098Y015651D02*
X172168D01*
X171328D02*
Y016221D01*
X174672Y015651D02*
Y016221D01*
X175742Y015941D02*
X176002D01*
X174402D02*
X174672D01*
Y016221D02*
X175742D01*
Y015651D02*
Y016221D01*
X174672Y015651D02*
X175742D01*
X174902D02*
Y016221D01*
X174672Y01762D02*
Y01819D01*
X175742Y01791D02*
X176002D01*
X174402D02*
X174672D01*
Y01819D02*
X175742D01*
Y01762D02*
Y01819D01*
X174672Y01762D02*
X175742D01*
X174902D02*
Y01819D01*
X178049Y043023D02*
X178059Y042883D01*
X181799Y044713D02*
X182029D01*
X182039Y044703D01*
Y042653D02*
Y044703D01*
X178049Y042653D02*
X182039D01*
X178049D02*
Y044703D01*
X178039Y044713D02*
X178049Y044703D01*
X178039Y044713D02*
X181799D01*
X173412Y043023D02*
X173422Y042883D01*
X177162Y044713D02*
X177392D01*
X177402Y044703D01*
Y042653D02*
Y044703D01*
X173412Y042653D02*
X177402D01*
X173412D02*
Y044703D01*
X173402Y044713D02*
X173412Y044703D01*
X173402Y044713D02*
X177162D01*
X168412Y043023D02*
X168422Y042883D01*
X172162Y044713D02*
X172392D01*
X172402Y044703D01*
Y042653D02*
Y044703D01*
X168412Y042653D02*
X172402D01*
X168412D02*
Y044703D01*
X168402Y044713D02*
X168412Y044703D01*
X168402Y044713D02*
X172162D01*
X163412Y043023D02*
X163422Y042883D01*
X167162Y044713D02*
X167392D01*
X167402Y044703D01*
Y042653D02*
Y044703D01*
X163412Y042653D02*
X167402D01*
X163412D02*
Y044703D01*
X163402Y044713D02*
X163412Y044703D01*
X163402Y044713D02*
X167162D01*
X158758Y043023D02*
X158768Y042883D01*
X162508Y044713D02*
X162738D01*
X162748Y044703D01*
Y042653D02*
Y044703D01*
X158758Y042653D02*
X162748D01*
X158758D02*
Y044703D01*
X158748Y044713D02*
X158758Y044703D01*
X158748Y044713D02*
X162508D01*
X15412Y043023D02*
X15413Y042883D01*
X15787Y044713D02*
X1581D01*
X15811Y044703D01*
Y042653D02*
Y044703D01*
X15412Y042653D02*
X15811D01*
X15412D02*
Y044703D01*
X15411Y044713D02*
X15412Y044703D01*
X15411Y044713D02*
X15787D01*
X149482Y043023D02*
X149492Y042883D01*
X153232Y044713D02*
X153462D01*
X153472Y044703D01*
Y042653D02*
Y044703D01*
X149482Y042653D02*
X153472D01*
X149482D02*
Y044703D01*
X149472Y044713D02*
X149482Y044703D01*
X149472Y044713D02*
X153232D01*
X192467Y043023D02*
X192477Y042883D01*
X196217Y044713D02*
X196447D01*
X196457Y044703D01*
Y042653D02*
Y044703D01*
X192467Y042653D02*
X196457D01*
X192467D02*
Y044703D01*
X192457Y044713D02*
X192467Y044703D01*
X192457Y044713D02*
X196217D01*
X187475Y043023D02*
X187485Y042883D01*
X191225Y044713D02*
X191455D01*
X191465Y044703D01*
Y042653D02*
Y044703D01*
X187475Y042653D02*
X191465D01*
X187475D02*
Y044703D01*
X187465Y044713D02*
X187475Y044703D01*
X187465Y044713D02*
X191225D01*
X182711Y043023D02*
X182721Y042883D01*
X186461Y044713D02*
X186691D01*
X186701Y044703D01*
Y042653D02*
Y044703D01*
X182711Y042653D02*
X186701D01*
X182711D02*
Y044703D01*
X182701Y044713D02*
X182711Y044703D01*
X182701Y044713D02*
X186461D01*
X144809Y02663D02*
Y02728D01*
X146309D01*
Y02602D02*
Y02728D01*
X144809Y02602D02*
X146309D01*
X144809D02*
Y02663D01*
X146309D02*
X146609D01*
X144509D02*
X144809D01*
X145219Y02613D02*
Y0271D01*
X144809Y02663D02*
Y02684D01*
Y02647D02*
Y02663D01*
X137581Y031709D02*
Y032359D01*
X139081D01*
Y031099D02*
Y032359D01*
X137581Y031099D02*
X139081D01*
X137581D02*
Y031709D01*
X139081D02*
X139381D01*
X137281D02*
X137581D01*
X137991Y031209D02*
Y032179D01*
X137581Y031709D02*
Y031919D01*
Y031549D02*
Y031709D01*
X139813Y024792D02*
X140203Y024402D01*
X138651Y023872D02*
X138921Y024142D01*
X137991Y023872D02*
X138651D01*
X140491Y024132D02*
X140751Y023872D01*
X141511D01*
X139804Y026836D02*
Y028879D01*
X139814Y024792D02*
Y026436D01*
X138084Y028596D02*
X139214D01*
X140394Y028586D02*
X141534D01*
X142903Y022228D02*
Y029862D01*
X136697Y022228D02*
Y029862D01*
X142903D01*
X136697Y022228D02*
X142903D01*
D50*
X145757Y025045D02*
X145702Y025121D01*
X145612Y025092D01*
Y024998D01*
X145702Y024969D01*
X145757Y025045D01*
D51*
X141803Y011087D02*
X144055D01*
X141803D02*
Y014039D01*
X144055D01*
Y011087D02*
Y014039D01*
X148693Y020898D02*
Y02315D01*
X14474Y020898D02*
X148693D01*
X14474D02*
Y02315D01*
X148693D01*
X144953Y012906D02*
X147205D01*
X144953D02*
Y016858D01*
X147205D01*
Y012906D02*
Y016858D01*
X179811Y014402D02*
Y018354D01*
Y014402D02*
X182063D01*
Y018354D01*
X179811D02*
X182063D01*
X190588Y01628D02*
X197541D01*
X190588Y014028D02*
Y01628D01*
Y014028D02*
X197541D01*
Y01628D01*
X182661Y015343D02*
Y018296D01*
Y015343D02*
X184913D01*
Y018296D01*
X182661D02*
X184913D01*
X18552Y015323D02*
Y018276D01*
Y015323D02*
X187772D01*
Y018276D01*
X18552D02*
X187772D01*
D52*
X169281Y015154D02*
X177549D01*
Y018697D01*
X169281D02*
X177549D01*
X169281Y015154D02*
Y018697D01*
X168307Y01474D02*
X173268D01*
X168307Y011197D02*
Y01474D01*
Y011197D02*
X173268D01*
Y01474D01*
D53*
X144079Y016717D02*
Y020717D01*
X142579D02*
X144079D01*
X141579D02*
X142579D01*
X141079D02*
X141579D01*
X140079D02*
X141079D01*
X140079Y016717D02*
Y020717D01*
Y016717D02*
X143079D01*
X144079D01*
X141079Y020717D02*
X143079D01*
X141079Y016717D02*
Y020717D01*
Y016717D02*
X143079D01*
Y020717D01*
X141579Y020467D02*
Y020717D01*
Y020467D02*
X142579D01*
Y020717D01*
X141079D02*
X143079D01*
X141079Y016717D02*
Y020717D01*
Y016717D02*
X143079D01*
Y020717D01*
X141579Y020467D02*
Y020717D01*
Y020467D02*
X142579D01*
Y020717D01*
D54*
X139311Y017841D02*
D03*
D55*
X146946Y018832D02*
D03*
X145668Y019777D02*
D03*
D56*
X171153Y017885D02*
D03*
X171153Y015916D02*
D03*
X174727D02*
D03*
Y017885D02*
D03*
D57*
X180034Y042833D02*
D03*
X175397D02*
D03*
X170393D02*
D03*
X165397Y042833D02*
D03*
X16074Y042833D02*
D03*
X156105Y042833D02*
D03*
X151467Y042833D02*
D03*
X194452D02*
D03*
X18946D02*
D03*
X184696Y042833D02*
D03*
D58*
X144912Y02665D02*
D03*
X137681Y031729D02*
D03*
M02*
