%FSTAX24Y24*%
%MOIN*%
G70*
G01*
G75*
%ADD10C,0.0787*%
%ADD11C,0.1575*%
%ADD12C,0.1181*%
%ADD13C,0.0591*%
%ADD14C,0.0000*%
%ADD15C,0.1000*%
%ADD16C,0.0591*%
%ADD17R,0.0630X0.0630*%
%ADD18C,0.0630*%
%ADD19C,0.0787*%
%ADD20C,0.2362*%
G04:AMPARAMS|DCode=21|XSize=70mil|YSize=90mil|CornerRadius=0mil|HoleSize=0mil|Usage=FLASHONLY|Rotation=90.000|XOffset=0mil|YOffset=0mil|HoleType=Round|Shape=Octagon|*
%AMOCTAGOND21*
4,1,8,-0.0450,-0.0175,-0.0450,0.0175,-0.0275,0.0350,0.0275,0.0350,0.0450,0.0175,0.0450,-0.0175,0.0275,-0.0350,-0.0275,-0.0350,-0.0450,-0.0175,0.0*
%
%ADD21OCTAGOND21*%

%ADD22C,0.0984*%
%ADD23O,0.0591X0.0512*%
%ADD24R,0.0591X0.0512*%
%ADD25R,0.0800X0.0800*%
%ADD26C,0.0800*%
%ADD27R,0.1000X0.0650*%
%ADD28O,0.1000X0.0650*%
%ADD29R,0.0630X0.0630*%
%ADD30O,0.0787X0.0591*%
%ADD31O,0.0787X0.0630*%
%ADD32O,0.0900X0.0600*%
%ADD33R,0.0900X0.0600*%
%ADD34C,0.0709*%
%ADD35C,0.1181*%
%ADD36R,0.1181X0.1181*%
%ADD37O,0.0650X0.1000*%
%ADD38R,0.0650X0.1000*%
%ADD39O,0.0709X0.0866*%
%ADD40R,0.0709X0.0866*%
%ADD41O,0.0800X0.1000*%
%ADD42R,0.0800X0.1000*%
%ADD43O,0.0630X0.0787*%
%ADD44R,0.0800X0.0800*%
%ADD45C,0.1200*%
%ADD46C,0.0079*%
%ADD47C,0.0100*%
%ADD48C,0.0120*%
%ADD49C,0.0070*%
%ADD50C,0.0150*%
%ADD51C,0.0250*%
%ADD52C,0.0039*%
%ADD53C,0.0080*%
%ADD54R,0.1260X0.0200*%
%ADD55R,0.0550X0.0150*%
%ADD56R,0.0150X0.0550*%
%ADD57R,0.3990X0.0360*%
%ADD58R,0.0200X0.1260*%
%ADD59C,0.1080*%
%ADD60C,0.0671*%
%ADD61R,0.0710X0.0710*%
%ADD62C,0.0710*%
%ADD63C,0.0867*%
%ADD64C,0.2442*%
G04:AMPARAMS|DCode=65|XSize=78mil|YSize=98mil|CornerRadius=0mil|HoleSize=0mil|Usage=FLASHONLY|Rotation=90.000|XOffset=0mil|YOffset=0mil|HoleType=Round|Shape=Octagon|*
%AMOCTAGOND65*
4,1,8,-0.0490,-0.0195,-0.0490,0.0195,-0.0295,0.0390,0.0295,0.0390,0.0490,0.0195,0.0490,-0.0195,0.0295,-0.0390,-0.0295,-0.0390,-0.0490,-0.0195,0.0*
%
%ADD65OCTAGOND65*%

%ADD66C,0.1064*%
%ADD67O,0.0671X0.0592*%
%ADD68R,0.0671X0.0592*%
%ADD69R,0.0880X0.0880*%
%ADD70C,0.0880*%
%ADD71R,0.1080X0.0730*%
%ADD72O,0.1080X0.0730*%
%ADD73R,0.0710X0.0710*%
%ADD74O,0.0867X0.0671*%
%ADD75O,0.0867X0.0710*%
%ADD76O,0.0980X0.0680*%
%ADD77R,0.0980X0.0680*%
%ADD78C,0.0789*%
%ADD79C,0.1261*%
%ADD80R,0.1261X0.1261*%
%ADD81O,0.0730X0.1080*%
%ADD82R,0.0730X0.1080*%
%ADD83O,0.0789X0.0946*%
%ADD84R,0.0789X0.0946*%
%ADD85O,0.0880X0.1080*%
%ADD86R,0.0880X0.1080*%
%ADD87O,0.0710X0.0867*%
%ADD88R,0.0880X0.0880*%
%ADD89C,0.1280*%
%ADD90C,0.0067*%
%ADD91C,0.0040*%
D14*
X186039Y021866D02*
X186512D01*
X186276Y02163D02*
Y022102D01*
X170291Y021866D02*
X170764D01*
X170528Y02163D02*
Y022102D01*
X17226Y021866D02*
X172732D01*
X172496Y02163D02*
Y022102D01*
X174228Y021866D02*
X174701D01*
X174465Y02163D02*
Y022102D01*
X176197Y021866D02*
X176669D01*
X176433Y02163D02*
Y022102D01*
X184071Y021866D02*
X184543D01*
X184307Y02163D02*
Y022102D01*
X182102Y021866D02*
X182575D01*
X182339Y02163D02*
Y022102D01*
X180134Y021866D02*
X180606D01*
X18037Y02163D02*
Y022102D01*
X178165Y021866D02*
X178638D01*
X178402Y02163D02*
Y022102D01*
X186039Y032693D02*
X186512D01*
X186276Y032457D02*
Y032929D01*
X178165Y032693D02*
X178638D01*
X178402Y032457D02*
Y032929D01*
X180134Y032693D02*
X180606D01*
X18037Y032457D02*
Y032929D01*
X182102Y032693D02*
X182575D01*
X182339Y032457D02*
Y032929D01*
X184071Y032693D02*
X184543D01*
X184307Y032457D02*
Y032929D01*
X176197Y032693D02*
X176669D01*
X176433Y032457D02*
Y032929D01*
X174228Y032693D02*
X174701D01*
X174465Y032457D02*
Y032929D01*
X17226Y032693D02*
X172732D01*
X172496Y032457D02*
Y032929D01*
X170291Y032693D02*
X170764D01*
X170528Y032457D02*
Y032929D01*
X178165Y020882D02*
X178638D01*
X178402Y020646D02*
Y021118D01*
X180134Y020882D02*
X180606D01*
X18037Y020646D02*
Y021118D01*
X182102Y020882D02*
X182575D01*
X182339Y020646D02*
Y021118D01*
X184071Y020882D02*
X184543D01*
X184307Y020646D02*
Y021118D01*
X176197Y020882D02*
X176669D01*
X176433Y020646D02*
Y021118D01*
X174228Y020882D02*
X174701D01*
X174465Y020646D02*
Y021118D01*
X17226Y020882D02*
X172732D01*
X172496Y020646D02*
Y021118D01*
X170291Y020882D02*
X170764D01*
X170528Y020646D02*
Y021118D01*
X186039Y020882D02*
X186512D01*
X186276Y020646D02*
Y021118D01*
X13972Y016028D02*
X139996D01*
X139858Y01589D02*
Y016165D01*
X13972Y015028D02*
X139996D01*
X139858Y01489D02*
Y015165D01*
X143008Y012063D02*
X143323D01*
X143165Y011906D02*
Y01222D01*
X143008Y013063D02*
X143323D01*
X143165Y012906D02*
Y01322D01*
X153283Y028913D02*
X153677D01*
X15348Y028717D02*
Y02911D01*
X153283Y03226D02*
X153677D01*
X15348Y032063D02*
Y032457D01*
X156614Y013795D02*
X157795D01*
X157205Y013205D02*
Y014386D01*
X195433Y034661D02*
X196614D01*
X196024Y034071D02*
Y035252D01*
X188661Y027024D02*
X189843D01*
X189252Y026433D02*
Y027614D01*
X188701Y028795D02*
X189882D01*
X189291Y028205D02*
Y029386D01*
X195748Y027102D02*
X196929D01*
X196339Y026512D02*
Y027693D01*
X195748Y028795D02*
X196929D01*
X196339Y028205D02*
Y029386D01*
X146682Y031583D02*
X147082D01*
X146882Y031383D02*
Y031783D01*
X146682Y030583D02*
X147082D01*
X146882Y030383D02*
Y030783D01*
X146682Y029583D02*
X147082D01*
X146882Y029383D02*
Y029783D01*
X144507Y030583D02*
X145257D01*
X144882Y030208D02*
Y030958D01*
X152472Y025567D02*
X152866D01*
X152669Y02537D02*
Y025764D01*
X150472Y025567D02*
X150866D01*
X150669Y02537D02*
Y025764D01*
X178299Y01589D02*
X178693D01*
X178496Y015693D02*
Y016087D01*
X178299Y01789D02*
X178693D01*
X178496Y017693D02*
Y018087D01*
X166882Y027968D02*
X167354D01*
X167118Y027732D02*
Y028205D01*
X155071Y027968D02*
X155543D01*
X155307Y027732D02*
Y028205D01*
X137795Y021303D02*
X13811D01*
X137953Y021146D02*
Y021461D01*
X137795Y020303D02*
X13811D01*
X137953Y020146D02*
Y020461D01*
X142465Y015016D02*
X14274D01*
X142602Y014878D02*
Y015154D01*
X143465Y015016D02*
X14374D01*
X143602Y014878D02*
Y015154D01*
X139156Y016988D02*
X139506D01*
X139331Y016813D02*
Y017163D01*
X139156Y019988D02*
X139506D01*
X139331Y019813D02*
Y020163D01*
X146761Y018307D02*
X147081D01*
X146921Y018147D02*
Y018467D01*
X146761Y020307D02*
X147081D01*
X146921Y020147D02*
Y020467D01*
X145533Y020302D02*
X145853D01*
X145693Y020142D02*
Y020462D01*
X145533Y018302D02*
X145853D01*
X145693Y018142D02*
Y018462D01*
X145559Y02226D02*
X145874D01*
X145717Y022102D02*
Y022417D01*
X147559Y02226D02*
X147874D01*
X147717Y022102D02*
Y022417D01*
X146559Y02226D02*
X146874D01*
X146717Y022102D02*
Y022417D01*
X146157Y015882D02*
X146472D01*
X146315Y015724D02*
Y016039D01*
X146157Y013882D02*
X146472D01*
X146315Y013724D02*
Y014039D01*
X146157Y014882D02*
X146472D01*
X146315Y014724D02*
Y015039D01*
X140409Y020217D02*
X140749D01*
X140579Y020047D02*
Y020387D01*
X140409Y019217D02*
X140749D01*
X140579Y019047D02*
Y019387D01*
X140409Y018217D02*
X140749D01*
X140579Y018047D02*
Y018387D01*
X140409Y017217D02*
X140749D01*
X140579Y017047D02*
Y017387D01*
X143409Y017217D02*
X143749D01*
X143579Y017047D02*
Y017387D01*
X143409Y018217D02*
X143749D01*
X143579Y018047D02*
Y018387D01*
X143409Y019217D02*
X143749D01*
X143579Y019047D02*
Y019387D01*
X143409Y020217D02*
X143749D01*
X143579Y020047D02*
Y020387D01*
X151811Y013087D02*
X152126D01*
X151969Y012929D02*
Y013244D01*
X149843Y013087D02*
X150157D01*
X15Y012929D02*
Y013244D01*
X141378Y031102D02*
X141693D01*
X141535Y030945D02*
Y03126D01*
X141378Y032102D02*
X141693D01*
X141535Y031945D02*
Y03226D01*
X141378Y033102D02*
X141693D01*
X141535Y032945D02*
Y03326D01*
X147752Y025055D02*
X148062D01*
X147907Y0249D02*
Y02521D01*
X147752Y024055D02*
X148062D01*
X147907Y0239D02*
Y02421D01*
X144752Y024055D02*
X145062D01*
X144907Y0239D02*
Y02421D01*
X144752Y025055D02*
X145062D01*
X144907Y0249D02*
Y02521D01*
X141181Y016157D02*
X141496D01*
X141339Y016D02*
Y016315D01*
X144181Y016157D02*
X144496D01*
X144339Y016D02*
Y016315D01*
X143543Y024898D02*
X143858D01*
X143701Y02474D02*
Y025055D01*
X143543Y021898D02*
X143858D01*
X143701Y02174D02*
Y022055D01*
X144441Y020449D02*
X144756D01*
X144598Y020291D02*
Y020606D01*
X144441Y017449D02*
X144756D01*
X144598Y017291D02*
Y017606D01*
X149252Y023087D02*
X149567D01*
X149409Y022929D02*
Y023244D01*
X149252Y026087D02*
X149567D01*
X149409Y025929D02*
Y026244D01*
X152197Y01911D02*
X152669D01*
X152433Y018874D02*
Y019346D01*
X155189Y01911D02*
X155661D01*
X155425Y018874D02*
Y019346D01*
X162039Y019071D02*
X162512D01*
X162276Y018835D02*
Y019307D01*
X165032Y019071D02*
X165504D01*
X165268Y018835D02*
Y019307D01*
X191193Y024268D02*
X191626D01*
X191409Y024051D02*
Y024484D01*
X194185Y024268D02*
X194618D01*
X194402Y024051D02*
Y024484D01*
X191193Y031512D02*
X191626D01*
X191409Y031295D02*
Y031728D01*
X194185Y031512D02*
X194618D01*
X194402Y031295D02*
Y031728D01*
X172391Y01791D02*
X172864D01*
X172628Y017674D02*
Y018146D01*
X170391Y01791D02*
X170864D01*
X170628Y017674D02*
Y018146D01*
X172391Y015941D02*
X172864D01*
X172628Y015705D02*
Y016178D01*
X170391Y015941D02*
X170864D01*
X170628Y015705D02*
Y016178D01*
X175966Y015941D02*
X176439D01*
X176202Y015705D02*
Y016178D01*
X173966Y015941D02*
X174439D01*
X174202Y015705D02*
Y016178D01*
X175966Y01791D02*
X176439D01*
X176202Y017674D02*
Y018146D01*
X173966Y01791D02*
X174439D01*
X174202Y017674D02*
Y018146D01*
X180543Y016378D02*
X180858D01*
X180701Y01622D02*
Y016535D01*
X180543Y017378D02*
X180858D01*
X180701Y01722D02*
Y017535D01*
X180543Y015378D02*
X180858D01*
X180701Y01522D02*
Y015535D01*
X191368Y01539D02*
X191761D01*
X191565Y015193D02*
Y015587D01*
X192368Y01539D02*
X192761D01*
X192565Y015193D02*
Y015587D01*
X193368Y01539D02*
X193761D01*
X193565Y015193D02*
Y015587D01*
X195368Y01539D02*
X195761D01*
X195565Y015193D02*
Y015587D01*
X196368Y01539D02*
X196761D01*
X196565Y015193D02*
Y015587D01*
X194368Y01539D02*
X194761D01*
X194565Y015193D02*
Y015587D01*
X178844Y043953D02*
X179234D01*
X179039Y043758D02*
Y044148D01*
X179844Y043953D02*
X180234D01*
X180039Y043758D02*
Y044148D01*
X180844Y043953D02*
X181234D01*
X181039Y043758D02*
Y044148D01*
X174207Y043953D02*
X174597D01*
X174402Y043758D02*
Y044148D01*
X175207Y043953D02*
X175597D01*
X175402Y043758D02*
Y044148D01*
X176207Y043953D02*
X176597D01*
X176402Y043758D02*
Y044148D01*
X169207Y043953D02*
X169597D01*
X169402Y043758D02*
Y044148D01*
X170207Y043953D02*
X170597D01*
X170402Y043758D02*
Y044148D01*
X171207Y043953D02*
X171597D01*
X171402Y043758D02*
Y044148D01*
X164207Y043953D02*
X164597D01*
X164402Y043758D02*
Y044148D01*
X165207Y043953D02*
X165597D01*
X165402Y043758D02*
Y044148D01*
X166207Y043953D02*
X166597D01*
X166402Y043758D02*
Y044148D01*
X159553Y043953D02*
X159943D01*
X159748Y043758D02*
Y044148D01*
X160553Y043953D02*
X160943D01*
X160748Y043758D02*
Y044148D01*
X161553Y043953D02*
X161943D01*
X161748Y043758D02*
Y044148D01*
X169567Y012968D02*
X169961D01*
X169764Y012772D02*
Y013165D01*
X171575Y012968D02*
X171968D01*
X171772Y012772D02*
Y013165D01*
X180197Y013126D02*
X180512D01*
X180354Y012968D02*
Y013283D01*
X181197Y013126D02*
X181512D01*
X181354Y012968D02*
Y013283D01*
X182197Y013126D02*
X182512D01*
X182354Y012968D02*
Y013283D01*
X183394Y016319D02*
X183709D01*
X183551Y016162D02*
Y016477D01*
X183394Y017319D02*
X183709D01*
X183551Y017162D02*
Y017477D01*
X186252Y016299D02*
X186567D01*
X186409Y016142D02*
Y016457D01*
X186252Y017299D02*
X186567D01*
X186409Y017142D02*
Y017457D01*
X16826Y046953D02*
X168575D01*
X168417Y046795D02*
Y04711D01*
X16826Y043953D02*
X168575D01*
X168417Y043795D02*
Y04411D01*
X162575Y043953D02*
X16289D01*
X162732Y043795D02*
Y04411D01*
X162575Y046953D02*
X16289D01*
X162732Y046795D02*
Y04711D01*
X167244Y043953D02*
X167559D01*
X167402Y043795D02*
Y04411D01*
X167244Y046953D02*
X167559D01*
X167402Y046795D02*
Y04711D01*
X172228Y043953D02*
X172543D01*
X172386Y043795D02*
Y04411D01*
X172228Y046953D02*
X172543D01*
X172386Y046795D02*
Y04711D01*
X177244Y043953D02*
X177559D01*
X177402Y043795D02*
Y04411D01*
X177244Y046953D02*
X177559D01*
X177402Y046795D02*
Y04711D01*
X18189Y043953D02*
X182205D01*
X182047Y043795D02*
Y04411D01*
X18189Y046953D02*
X182205D01*
X182047Y046795D02*
Y04711D01*
X154915Y043953D02*
X155305D01*
X15511Y043758D02*
Y044148D01*
X155915Y043953D02*
X156305D01*
X15611Y043758D02*
Y044148D01*
X156915Y043953D02*
X157305D01*
X15711Y043758D02*
Y044148D01*
X150277Y043953D02*
X150667D01*
X150472Y043758D02*
Y044148D01*
X151277Y043953D02*
X151667D01*
X151472Y043758D02*
Y044148D01*
X152277Y043953D02*
X152667D01*
X152472Y043758D02*
Y044148D01*
X157937Y043953D02*
X158252D01*
X158094Y043795D02*
Y04411D01*
X157937Y046953D02*
X158252D01*
X158094Y046795D02*
Y04711D01*
X153299Y043953D02*
X153614D01*
X153457Y043795D02*
Y04411D01*
X153299Y046953D02*
X153614D01*
X153457Y046795D02*
Y04711D01*
X196283Y043953D02*
X196598D01*
X196441Y043795D02*
Y04411D01*
X196283Y046953D02*
X196598D01*
X196441Y046795D02*
Y04711D01*
X191331Y043953D02*
X191646D01*
X191488Y043795D02*
Y04411D01*
X191331Y046953D02*
X191646D01*
X191488Y046795D02*
Y04711D01*
X200151Y043165D02*
X200541D01*
X200346Y04297D02*
Y04336D01*
X200151Y044425D02*
X200541D01*
X200346Y04423D02*
Y04462D01*
X200151Y048205D02*
X200541D01*
X200346Y04801D02*
Y0484D01*
X200151Y046945D02*
X200541D01*
X200346Y04675D02*
Y04714D01*
X204207Y048205D02*
X204597D01*
X204402Y04801D02*
Y0484D01*
X204207Y043165D02*
X204597D01*
X204402Y04297D02*
Y04336D01*
X192315Y046953D02*
X19263D01*
X192472Y046795D02*
Y04711D01*
X192315Y043953D02*
X19263D01*
X192472Y043795D02*
Y04411D01*
X186654Y043953D02*
X186968D01*
X186811Y043795D02*
Y04411D01*
X186654Y046953D02*
X186968D01*
X186811Y046795D02*
Y04711D01*
X193262Y043953D02*
X193652D01*
X193457Y043758D02*
Y044148D01*
X194262Y043953D02*
X194652D01*
X194457Y043758D02*
Y044148D01*
X195262Y043953D02*
X195652D01*
X195457Y043758D02*
Y044148D01*
X18827Y043953D02*
X18866D01*
X188465Y043758D02*
Y044148D01*
X18927Y043953D02*
X18966D01*
X189465Y043758D02*
Y044148D01*
X19027Y043953D02*
X19066D01*
X190465Y043758D02*
Y044148D01*
X183506Y043953D02*
X183896D01*
X183701Y043758D02*
Y044148D01*
X184506Y043953D02*
X184896D01*
X184701Y043758D02*
Y044148D01*
X185506Y043953D02*
X185896D01*
X185701Y043758D02*
Y044148D01*
X146884Y02663D02*
X147234D01*
X147059Y026455D02*
Y026805D01*
X143884Y02663D02*
X144234D01*
X144059Y026455D02*
Y026805D01*
X139656Y031709D02*
X140006D01*
X139831Y031534D02*
Y031884D01*
X136656Y031709D02*
X137006D01*
X136831Y031534D02*
Y031884D01*
X136606Y033126D02*
X136921D01*
X136764Y032968D02*
Y033283D01*
X139606Y033126D02*
X139921D01*
X139764Y032968D02*
Y033283D01*
X15191Y031567D02*
X15231D01*
X15211Y031367D02*
Y031767D01*
X15191Y030567D02*
X15231D01*
X15211Y030367D02*
Y030767D01*
X15191Y029567D02*
X15231D01*
X15211Y029367D02*
Y029767D01*
X149735Y030567D02*
X150485D01*
X15011Y030192D02*
Y030942D01*
X177417Y013087D02*
X178598D01*
X178008Y012496D02*
Y013677D01*
X137216Y028441D02*
X137666D01*
X137441Y028216D02*
Y028666D01*
X14194Y028441D02*
X14239D01*
X142165Y028216D02*
Y028666D01*
X13714Y023638D02*
X13759D01*
X137365Y023413D02*
Y023863D01*
X14194Y023638D02*
X14239D01*
X142165Y023413D02*
Y023863D01*
X139578Y029228D02*
X140028D01*
X139803Y029003D02*
Y029453D01*
X173228Y046953D02*
X173543D01*
X173386Y046795D02*
Y04711D01*
X173228Y043953D02*
X173543D01*
X173386Y043795D02*
Y04411D01*
X147142Y045606D02*
X147614D01*
X147378Y04537D02*
Y045843D01*
X147142Y047575D02*
X147614D01*
X147378Y047339D02*
Y047811D01*
X138087Y047575D02*
X138559D01*
X138323Y047339D02*
Y047811D01*
X138087Y035764D02*
X138559D01*
X138323Y035528D02*
Y036D01*
X138087Y037732D02*
X138559D01*
X138323Y037496D02*
Y037968D01*
X138087Y041669D02*
X138559D01*
X138323Y041433D02*
Y041906D01*
X138087Y039701D02*
X138559D01*
X138323Y039465D02*
Y039937D01*
X138087Y043638D02*
X138559D01*
X138323Y043402D02*
Y043874D01*
X138087Y045606D02*
X138559D01*
X138323Y04537D02*
Y045843D01*
X147142Y043638D02*
X147614D01*
X147378Y043402D02*
Y043874D01*
X147142Y041669D02*
X147614D01*
X147378Y041433D02*
Y041906D01*
X147142Y037732D02*
X147614D01*
X147378Y037496D02*
Y037968D01*
X147142Y039701D02*
X147614D01*
X147378Y039465D02*
Y039937D01*
X147142Y035764D02*
X147614D01*
X147378Y035528D02*
Y036D01*
M02*
