%FSTAX24Y24*%
%MOIN*%
G70*
G01*
G75*
G04 Layer_Color=128*
%ADD10C,0.0787*%
%ADD11C,0.1575*%
%ADD12C,0.1181*%
%ADD13C,0.0591*%
%ADD14C,0.0000*%
%ADD15C,0.1000*%
%ADD16C,0.0591*%
%ADD17R,0.0630X0.0630*%
%ADD18C,0.0630*%
%ADD19C,0.0787*%
%ADD20C,0.2362*%
G04:AMPARAMS|DCode=21|XSize=70mil|YSize=90mil|CornerRadius=0mil|HoleSize=0mil|Usage=FLASHONLY|Rotation=90.000|XOffset=0mil|YOffset=0mil|HoleType=Round|Shape=Octagon|*
%AMOCTAGOND21*
4,1,8,-0.0450,-0.0175,-0.0450,0.0175,-0.0275,0.0350,0.0275,0.0350,0.0450,0.0175,0.0450,-0.0175,0.0275,-0.0350,-0.0275,-0.0350,-0.0450,-0.0175,0.0*
%
%ADD21OCTAGOND21*%

%ADD22C,0.0984*%
%ADD23O,0.0591X0.0512*%
%ADD24R,0.0591X0.0512*%
%ADD25R,0.0800X0.0800*%
%ADD26C,0.0800*%
%ADD27R,0.1000X0.0650*%
%ADD28O,0.1000X0.0650*%
%ADD29R,0.0630X0.0630*%
%ADD30O,0.0787X0.0591*%
%ADD31O,0.0787X0.0630*%
%ADD32O,0.0900X0.0600*%
%ADD33R,0.0900X0.0600*%
%ADD34C,0.0709*%
%ADD35C,0.1181*%
%ADD36R,0.1181X0.1181*%
%ADD37O,0.0650X0.1000*%
%ADD38R,0.0650X0.1000*%
%ADD39O,0.0709X0.0866*%
%ADD40R,0.0709X0.0866*%
%ADD41O,0.0800X0.1000*%
%ADD42R,0.0800X0.1000*%
%ADD43O,0.0630X0.0787*%
%ADD44R,0.0800X0.0800*%
%ADD45C,0.1200*%
%ADD46C,0.0079*%
%ADD47C,0.0100*%
%ADD48C,0.0120*%
%ADD49C,0.0070*%
%ADD50C,0.0150*%
%ADD51C,0.0250*%
%ADD52C,0.0039*%
%ADD53C,0.0080*%
%ADD54R,0.1260X0.0200*%
%ADD55R,0.0550X0.0150*%
%ADD56R,0.0150X0.0550*%
%ADD57R,0.3990X0.0360*%
%ADD58R,0.0200X0.1260*%
%ADD59C,0.1080*%
%ADD60C,0.0671*%
%ADD61R,0.0710X0.0710*%
%ADD62C,0.0710*%
%ADD63C,0.0867*%
%ADD64C,0.2442*%
G04:AMPARAMS|DCode=65|XSize=78mil|YSize=98mil|CornerRadius=0mil|HoleSize=0mil|Usage=FLASHONLY|Rotation=90.000|XOffset=0mil|YOffset=0mil|HoleType=Round|Shape=Octagon|*
%AMOCTAGOND65*
4,1,8,-0.0490,-0.0195,-0.0490,0.0195,-0.0295,0.0390,0.0295,0.0390,0.0490,0.0195,0.0490,-0.0195,0.0295,-0.0390,-0.0295,-0.0390,-0.0490,-0.0195,0.0*
%
%ADD65OCTAGOND65*%

%ADD66C,0.1064*%
%ADD67O,0.0671X0.0592*%
%ADD68R,0.0671X0.0592*%
%ADD69R,0.0880X0.0880*%
%ADD70C,0.0880*%
%ADD71R,0.1080X0.0730*%
%ADD72O,0.1080X0.0730*%
%ADD73R,0.0710X0.0710*%
%ADD74O,0.0867X0.0671*%
%ADD75O,0.0867X0.0710*%
%ADD76O,0.0980X0.0680*%
%ADD77R,0.0980X0.0680*%
%ADD78C,0.0789*%
%ADD79C,0.1261*%
%ADD80R,0.1261X0.1261*%
%ADD81O,0.0730X0.1080*%
%ADD82R,0.0730X0.1080*%
%ADD83O,0.0789X0.0946*%
%ADD84R,0.0789X0.0946*%
%ADD85O,0.0880X0.1080*%
%ADD86R,0.0880X0.1080*%
%ADD87O,0.0710X0.0867*%
%ADD88R,0.0880X0.0880*%
%ADD89C,0.1280*%
D10*
X151717Y045567D02*
X196528D01*
X196827D01*
X197575Y044819D01*
Y026591D02*
Y044819D01*
X173756Y042575D02*
X194032D01*
X184307Y032693D02*
Y042575D01*
Y041433D02*
X184346D01*
X18537Y042457D01*
X183165Y042535D02*
X184307Y041394D01*
X150173Y042575D02*
X170055D01*
X17037Y032693D02*
X170528D01*
X160685Y042378D02*
X17037Y032693D01*
X162299D02*
X17037D01*
X152614Y042378D02*
X162299Y032693D01*
X16974Y042575D02*
X170488D01*
X161353Y04171D02*
X161395D01*
X16226Y042575D01*
X169425D02*
X169543D01*
X153382Y04161D02*
Y041886D01*
X153835Y042339D01*
X170528Y032693D02*
X174465D01*
X182339D02*
Y038126D01*
X186276Y032693D02*
Y038126D01*
X17789Y042575D02*
X182339Y038126D01*
X186276Y038126D02*
X186315D01*
X190764Y042575D01*
X182339Y032693D02*
X186276D01*
X176433D02*
X18037D01*
X174465D02*
Y038598D01*
X170488Y042575D02*
X174465Y038598D01*
X178402Y031945D02*
Y032693D01*
Y031945D02*
X182339Y028008D01*
X18915D01*
X151717Y045567D02*
X196528D01*
D13*
X147394Y036787D02*
X152984D01*
X161882Y02789D01*
X144882Y030567D02*
X155819D01*
X165268Y021118D01*
Y019071D02*
Y021118D01*
X140071Y03663D02*
X146134Y030567D01*
X138378Y03663D02*
X140071D01*
X167551Y016945D02*
X170543D01*
X165425Y019071D02*
X167551Y016945D01*
X155465Y019071D02*
X162276D01*
X152748Y027968D02*
X155307D01*
X151843Y028874D02*
X153063Y027654D01*
X146882Y028874D02*
X151843D01*
X153063Y023598D02*
Y027654D01*
X15Y020535D02*
X153063Y023598D01*
X15Y013087D02*
Y020535D01*
X152433Y01911D02*
X15448Y017063D01*
X164244D01*
X166803Y014504D01*
X176055D01*
X172118Y012496D02*
X177866D01*
X152717Y013835D02*
X156449D01*
X151969Y013087D02*
X152717Y013835D01*
X161929Y02789D02*
X167039D01*
M02*
