%FSTAX24Y24*%
%MOIN*%
G70*
G01*
G75*
G04 Layer_Physical_Order=1*
G04 Layer_Color=255*
%ADD10C,0.0787*%
%ADD11C,0.1575*%
%ADD12C,0.1181*%
%ADD13C,0.0591*%
%ADD14C,0.0000*%
%ADD15C,0.1000*%
%ADD16C,0.0591*%
%ADD17R,0.0630X0.0630*%
%ADD18C,0.0630*%
%ADD19C,0.0787*%
%ADD20C,0.2362*%
G04:AMPARAMS|DCode=21|XSize=70mil|YSize=90mil|CornerRadius=0mil|HoleSize=0mil|Usage=FLASHONLY|Rotation=90.000|XOffset=0mil|YOffset=0mil|HoleType=Round|Shape=Octagon|*
%AMOCTAGOND21*
4,1,8,-0.0450,-0.0175,-0.0450,0.0175,-0.0275,0.0350,0.0275,0.0350,0.0450,0.0175,0.0450,-0.0175,0.0275,-0.0350,-0.0275,-0.0350,-0.0450,-0.0175,0.0*
%
%ADD21OCTAGOND21*%

%ADD22C,0.0984*%
%ADD23O,0.0591X0.0512*%
%ADD24R,0.0591X0.0512*%
%ADD25R,0.0800X0.0800*%
%ADD26C,0.0800*%
%ADD27R,0.1000X0.0650*%
%ADD28O,0.1000X0.0650*%
%ADD29R,0.0630X0.0630*%
%ADD30O,0.0787X0.0591*%
%ADD31O,0.0787X0.0630*%
%ADD32O,0.0900X0.0600*%
%ADD33R,0.0900X0.0600*%
%ADD34C,0.0709*%
%ADD35C,0.1181*%
%ADD36R,0.1181X0.1181*%
%ADD37O,0.0650X0.1000*%
%ADD38R,0.0650X0.1000*%
%ADD39O,0.0709X0.0866*%
%ADD40R,0.0709X0.0866*%
%ADD41O,0.0800X0.1000*%
%ADD42R,0.0800X0.1000*%
%ADD43O,0.0630X0.0787*%
%ADD44R,0.0800X0.0800*%
%ADD45C,0.1200*%
G36*
X189824Y044481D02*
X189837Y0437D01*
X189798Y043621D01*
X18968Y043503D01*
X189561Y043463D01*
X189365D01*
X189246Y043503D01*
X189168Y043581D01*
X189076Y043773D01*
Y044481D01*
X18842Y04492D01*
X190388D01*
X189824Y044481D01*
D02*
G37*
G36*
X194817D02*
X194829Y0437D01*
X19479Y043621D01*
X194672Y043503D01*
X194554Y043463D01*
X194357D01*
X194239Y043503D01*
X19416Y043581D01*
X194069Y043773D01*
Y044481D01*
X193412Y04492D01*
X19538D01*
X194817Y044481D01*
D02*
G37*
G36*
X152396Y04492D02*
X151832Y044481D01*
X151845Y0437D01*
X151806Y043621D01*
X151687Y043503D01*
X151569Y043463D01*
X151372D01*
X151254Y043503D01*
X151176Y043582D01*
X151084Y043773D01*
Y045151D01*
X152396Y04492D01*
D02*
G37*
G36*
X183919Y044403D02*
X183998Y044324D01*
X184076Y043576D01*
X184542Y043165D01*
X187709D01*
X188092Y043576D01*
Y044206D01*
X188131Y044285D01*
X18825Y044403D01*
X188368Y044442D01*
X188565D01*
X188683Y044403D01*
X188761Y044324D01*
X18884Y043576D01*
X189306Y043165D01*
X192701D01*
X193084Y043576D01*
Y044206D01*
X193124Y044285D01*
X193242Y044403D01*
X19336Y044442D01*
X193557D01*
X193675Y044403D01*
X193754Y044324D01*
X193832Y043576D01*
X194298Y043165D01*
X194622D01*
Y042378D01*
X187693Y035449D01*
X187677Y031906D01*
X181575D01*
Y033323D01*
X180906Y03411D01*
X173362Y041591D01*
Y043165D01*
X173646D01*
X174029Y043576D01*
Y044206D01*
X174069Y044285D01*
X174187Y044403D01*
X174305Y044442D01*
X174502D01*
X17462Y044403D01*
X174698Y044324D01*
X174777Y043576D01*
X175243Y043165D01*
X178284D01*
X178667Y043576D01*
Y044206D01*
X178706Y044285D01*
X178824Y044403D01*
X178943Y044442D01*
X179139D01*
X179257Y044403D01*
X179336Y044324D01*
X179415Y043576D01*
X17988Y043165D01*
X182945D01*
X183328Y043576D01*
Y044206D01*
X183368Y044285D01*
X183486Y044403D01*
X183604Y044442D01*
X183801D01*
X183919Y044403D01*
D02*
G37*
G36*
X180984Y031984D02*
X181575Y031354D01*
X188898D01*
Y033165D01*
X192205D01*
Y023087D01*
X181236D01*
X175843Y026512D01*
X175866Y030252D01*
Y033323D01*
X180984D01*
Y031984D01*
D02*
G37*
G36*
X19911Y045882D02*
X199094Y024858D01*
X197323Y023087D01*
X192992D01*
Y040094D01*
X195866Y042969D01*
X196614D01*
X197157Y043559D01*
Y044346D01*
X196764Y04478D01*
X196252D01*
X19637Y046354D01*
X198559D01*
X19911Y045882D01*
D02*
G37*
G36*
X16962Y044403D02*
X169698Y044324D01*
X169777Y043576D01*
X170243Y043165D01*
X171984D01*
Y041787D01*
X175331Y038283D01*
X175315Y031748D01*
X160709D01*
X149543Y041394D01*
Y043165D01*
X149717D01*
X1501Y043576D01*
Y044206D01*
X150139Y044285D01*
X150257Y044403D01*
X150376Y044442D01*
X150572D01*
X150691Y044403D01*
X150769Y044324D01*
X150848Y043576D01*
X151313Y043165D01*
X154355D01*
X154738Y043576D01*
Y044206D01*
X154777Y044285D01*
X154895Y044403D01*
X155013Y044442D01*
X15521D01*
X155328Y044403D01*
X155407Y044324D01*
X155486Y043576D01*
X155951Y043165D01*
X158992D01*
X159376Y043576D01*
Y044206D01*
X159415Y044285D01*
X159533Y044403D01*
X159651Y044442D01*
X159848D01*
X159966Y044403D01*
X160045Y044324D01*
X160124Y043576D01*
X160589Y043165D01*
X163646D01*
X164029Y043576D01*
Y044206D01*
X164069Y044285D01*
X164187Y044403D01*
X164305Y044442D01*
X164502D01*
X16462Y044403D01*
X164698Y044324D01*
X164777Y043576D01*
X165243Y043165D01*
X168646D01*
X169029Y043576D01*
Y044206D01*
X169069Y044285D01*
X169187Y044403D01*
X169305Y044442D01*
X169502D01*
X16962Y044403D01*
D02*
G37*
G36*
X175761Y044481D02*
X175774Y0437D01*
X175735Y043621D01*
X175617Y043503D01*
X175498Y043463D01*
X175302D01*
X175183Y043503D01*
X175105Y043582D01*
X175013Y043773D01*
Y044481D01*
X174357Y04492D01*
X176325D01*
X175761Y044481D01*
D02*
G37*
G36*
X180399D02*
X180412Y0437D01*
X180372Y043621D01*
X180254Y043503D01*
X180136Y043463D01*
X179939D01*
X179821Y043503D01*
X179743Y043582D01*
X179651Y043773D01*
Y044481D01*
X178994Y04492D01*
X180963D01*
X180399Y044481D01*
D02*
G37*
G36*
X185061D02*
X185073Y0437D01*
X185034Y043621D01*
X184916Y043503D01*
X184798Y043463D01*
X184601D01*
X184483Y043503D01*
X184404Y043582D01*
X184313Y043773D01*
Y044481D01*
X183656Y04492D01*
X185624D01*
X185061Y044481D01*
D02*
G37*
G36*
X170761D02*
X170774Y0437D01*
X170735Y043621D01*
X170617Y043503D01*
X170498Y043463D01*
X170302D01*
X170183Y043503D01*
X170105Y043582D01*
X170013Y043773D01*
Y044481D01*
X169357Y04492D01*
X171325D01*
X170761Y044481D01*
D02*
G37*
G36*
X15647D02*
X156483Y0437D01*
X156443Y043621D01*
X156325Y043503D01*
X156207Y043463D01*
X15601D01*
X155892Y043503D01*
X155813Y043582D01*
X155722Y043773D01*
Y044481D01*
X155065Y04492D01*
X157034D01*
X15647Y044481D01*
D02*
G37*
G36*
X161108D02*
X16112Y0437D01*
X161081Y043621D01*
X160963Y043503D01*
X160845Y043463D01*
X160648D01*
X16053Y043503D01*
X160451Y043582D01*
X16036Y043773D01*
Y044481D01*
X159703Y04492D01*
X161672D01*
X161108Y044481D01*
D02*
G37*
G36*
X165761D02*
X165774Y0437D01*
X165735Y043621D01*
X165617Y043503D01*
X165498Y043463D01*
X165302D01*
X165183Y043503D01*
X165105Y043582D01*
X165013Y043773D01*
Y044481D01*
X164357Y04492D01*
X166325D01*
X165761Y044481D01*
D02*
G37*
D10*
X195457Y043953D02*
X196441D01*
X190465D02*
X191449D01*
X185701Y043953D02*
X186685D01*
X181039D02*
X182024D01*
X176402D02*
X177386D01*
X171402D02*
X172386D01*
X166402D02*
X167386D01*
X161748D02*
X162732D01*
X15711D02*
X158094D01*
X152472D02*
X153457D01*
X170628Y015941D02*
Y01791D01*
X171606Y016963D02*
Y020882D01*
X180693Y016386D02*
X180701Y016378D01*
X178992Y016386D02*
X180693D01*
X178496Y01589D02*
X178992Y016386D01*
X15348Y028465D02*
Y028913D01*
X182756Y019504D02*
X184913D01*
X181685Y018433D02*
X182756Y019504D01*
X181685Y015724D02*
Y018433D01*
X184913Y019504D02*
X186291Y020882D01*
X180701Y015378D02*
X181339D01*
X181685Y015724D01*
X180701Y019228D02*
X182354Y020882D01*
X180701Y017378D02*
Y019228D01*
X176202Y015941D02*
Y01791D01*
X173889Y018224D02*
X174736Y019071D01*
X172628Y01791D02*
X174202D01*
X177591Y019071D02*
X178575Y018087D01*
X174736Y019071D02*
X177591D01*
X171606Y016963D02*
X172628Y015941D01*
X172628Y015941D02*
X174202D01*
X146882Y030567D02*
X15011D01*
X15211D02*
X153386D01*
X15011D02*
X15211D01*
X159646Y042417D02*
Y04252D01*
X154984Y042441D02*
Y042567D01*
X164409Y042457D02*
Y042465D01*
X169402Y042449D02*
Y043953D01*
X164402Y042465D02*
Y043953D01*
X159748Y04252D02*
Y043953D01*
X15511Y042567D02*
Y043953D01*
X150472Y042535D02*
Y043953D01*
X168417D02*
X169402D01*
X173386D02*
X174402D01*
Y042724D02*
Y043953D01*
X179039Y042441D02*
Y043953D01*
X183701Y042417D02*
Y043953D01*
X188465Y042457D02*
Y043953D01*
X193457Y042449D02*
Y043953D01*
X192472D02*
X193457D01*
X15611Y043953D02*
Y045117D01*
X160748Y043953D02*
Y045117D01*
X165402Y043953D02*
Y045117D01*
X170402Y043953D02*
Y045117D01*
X175402Y043953D02*
Y045117D01*
X180039Y043953D02*
Y045117D01*
X184701Y043953D02*
Y045117D01*
X189465Y043953D02*
Y045117D01*
X194457Y043953D02*
Y045117D01*
X151472Y043953D02*
Y045314D01*
D11*
X151717Y045567D02*
X196528D01*
X153063Y02352D02*
Y027898D01*
X152988Y027972D02*
X153063Y027898D01*
X152988Y027972D02*
X155303D01*
X152165Y028795D02*
X152988Y027972D01*
X151969Y013087D02*
X152677Y013795D01*
X157205D01*
X147354Y035764D02*
Y036787D01*
Y037732D01*
Y036787D02*
X153031D01*
X152992D02*
X161811Y027968D01*
X155709Y030567D02*
X165268Y021008D01*
X153386Y030567D02*
X155709D01*
X165268Y019071D02*
Y021008D01*
Y019071D02*
X167354Y016984D01*
X170118D01*
X155425Y01911D02*
X162236D01*
X15Y020457D02*
X153063Y02352D01*
X15Y013362D02*
Y020457D01*
X146969Y028795D02*
X152165D01*
X152433Y01911D02*
X154638Y016906D01*
X164559D01*
X167157Y014307D01*
X17578D02*
X176173Y014701D01*
X176213D02*
Y015912D01*
X176173D02*
X176202Y015941D01*
X169764Y012968D02*
Y01422D01*
X167157Y014307D02*
X17578D01*
X16185Y027968D02*
X167118D01*
D12*
X171606Y020882D02*
X172496D01*
Y021866D01*
X186291Y020882D02*
Y021866D01*
X182354Y020882D02*
Y021866D01*
X170543Y020882D02*
Y021866D01*
X170543Y020882D02*
X171606D01*
X174465Y020882D02*
Y021866D01*
Y020882D02*
X174465Y020882D01*
X172496D02*
X174465D01*
D13*
X200346Y044425D02*
Y045591D01*
X19789Y048047D02*
X200346Y045591D01*
X174638Y048047D02*
X19789D01*
X173543Y046953D02*
X174638Y048047D01*
X143126Y010961D02*
X143165Y011D01*
X143126Y010961D02*
X190945D01*
X141197D02*
X143126D01*
X143165Y011D02*
Y012063D01*
X138071Y014087D02*
X141197Y010961D01*
X138071Y014087D02*
Y018205D01*
X190945Y010961D02*
X194565Y01458D01*
X143165Y011606D02*
Y012063D01*
X139764Y033126D02*
X140984Y034346D01*
Y034346D01*
X144118D01*
X146882Y031583D01*
X194565Y01458D02*
Y01539D01*
X137441Y028441D02*
X139331Y026551D01*
Y019988D02*
Y026551D01*
Y019465D02*
Y019988D01*
X138071Y018205D02*
X139331Y019465D01*
X136839Y029043D02*
Y031787D01*
Y029043D02*
X137441Y028441D01*
X140579Y019217D02*
X141232D01*
X142232Y018217D01*
X143579D01*
X140512Y02348D02*
X141339Y022654D01*
X145472D01*
X145717Y022409D01*
Y02226D02*
Y022409D01*
X140512Y02348D02*
Y028323D01*
X141535Y029346D01*
Y031102D01*
Y032102D01*
X173386Y046953D02*
X173543D01*
D14*
X162386D02*
X162732D01*
D15*
X186276Y021866D02*
D03*
X170528D02*
D03*
X172496D02*
D03*
X174465D02*
D03*
X176433D02*
D03*
X184307D02*
D03*
X182339D02*
D03*
X18037D02*
D03*
X178402D02*
D03*
X186276Y032693D02*
D03*
X178402D02*
D03*
X18037D02*
D03*
X182339D02*
D03*
X184307D02*
D03*
X176433D02*
D03*
X174465D02*
D03*
X172496D02*
D03*
X170528D02*
D03*
X178402Y020882D02*
D03*
X18037D02*
D03*
X182339D02*
D03*
X184307D02*
D03*
X176433D02*
D03*
X174465D02*
D03*
X172496D02*
D03*
X170528D02*
D03*
X186276D02*
D03*
X144882Y030583D02*
D03*
X15011Y030567D02*
D03*
D16*
X139858Y016028D02*
D03*
Y015028D02*
D03*
X142602Y015016D02*
D03*
X143602D02*
D03*
D17*
X143165Y012063D02*
D03*
X146315Y013882D02*
D03*
X180701Y017378D02*
D03*
X183551Y017319D02*
D03*
X186409Y017299D02*
D03*
D18*
X143165Y013063D02*
D03*
X145717Y02226D02*
D03*
X146717D02*
D03*
X146315Y015882D02*
D03*
Y014882D02*
D03*
X180701Y016378D02*
D03*
Y015378D02*
D03*
X183551Y016319D02*
D03*
X186409Y016299D02*
D03*
D19*
X15348Y028913D02*
D03*
Y03226D02*
D03*
X152669Y025567D02*
D03*
X150669D02*
D03*
X178496Y01589D02*
D03*
Y01789D02*
D03*
X151969Y013087D02*
D03*
X15D02*
D03*
X169764Y012968D02*
D03*
X171772D02*
D03*
D20*
X157205Y013795D02*
D03*
X196024Y034661D02*
D03*
X189252Y027024D02*
D03*
X189291Y028795D02*
D03*
X196339Y027102D02*
D03*
Y028795D02*
D03*
X178008Y013087D02*
D03*
D21*
X146882Y031583D02*
D03*
Y030583D02*
D03*
Y029583D02*
D03*
X15211Y031567D02*
D03*
Y030567D02*
D03*
Y029567D02*
D03*
D22*
X167118Y027968D02*
D03*
X155307D02*
D03*
X147378Y045606D02*
D03*
Y047575D02*
D03*
X138323D02*
D03*
Y035764D02*
D03*
Y037732D02*
D03*
Y041669D02*
D03*
Y039701D02*
D03*
Y043638D02*
D03*
Y045606D02*
D03*
X147378Y043638D02*
D03*
Y041669D02*
D03*
Y037732D02*
D03*
Y039701D02*
D03*
Y035764D02*
D03*
D23*
X137953Y021303D02*
D03*
D24*
Y020303D02*
D03*
D25*
X139331Y016988D02*
D03*
D26*
Y019988D02*
D03*
X200346Y043165D02*
D03*
Y044425D02*
D03*
Y048205D02*
D03*
Y046945D02*
D03*
X204402Y048205D02*
D03*
Y043165D02*
D03*
X147059Y02663D02*
D03*
X139831Y031709D02*
D03*
D27*
X146921Y018307D02*
D03*
X145693Y020302D02*
D03*
D28*
X146921Y020307D02*
D03*
X145693Y018302D02*
D03*
D29*
X147717Y02226D02*
D03*
D30*
X140579Y020217D02*
D03*
Y019217D02*
D03*
Y018217D02*
D03*
Y017217D02*
D03*
X143579D02*
D03*
Y018217D02*
D03*
Y019217D02*
D03*
Y020217D02*
D03*
D31*
X141535Y031102D02*
D03*
Y032102D02*
D03*
Y033102D02*
D03*
D32*
X147907Y025055D02*
D03*
Y024055D02*
D03*
X144907D02*
D03*
D33*
Y025055D02*
D03*
D34*
X141339Y016157D02*
D03*
X144339D02*
D03*
X143701Y024898D02*
D03*
Y021898D02*
D03*
X144598Y020449D02*
D03*
Y017449D02*
D03*
X149409Y023087D02*
D03*
Y026087D02*
D03*
X168417Y046953D02*
D03*
Y043953D02*
D03*
X162732D02*
D03*
Y046953D02*
D03*
X167402Y043953D02*
D03*
Y046953D02*
D03*
X172386Y043953D02*
D03*
Y046953D02*
D03*
X177402Y043953D02*
D03*
Y046953D02*
D03*
X182047Y043953D02*
D03*
Y046953D02*
D03*
X158094Y043953D02*
D03*
Y046953D02*
D03*
X153457Y043953D02*
D03*
Y046953D02*
D03*
X196441Y043953D02*
D03*
Y046953D02*
D03*
X191488Y043953D02*
D03*
Y046953D02*
D03*
X192472D02*
D03*
Y043953D02*
D03*
X186811D02*
D03*
Y046953D02*
D03*
X136764Y033126D02*
D03*
X139764D02*
D03*
X173386Y046953D02*
D03*
Y043953D02*
D03*
D35*
X152433Y01911D02*
D03*
X162276Y019071D02*
D03*
X191409Y024268D02*
D03*
Y031512D02*
D03*
D36*
X155425Y01911D02*
D03*
X165268Y019071D02*
D03*
X194402Y024268D02*
D03*
Y031512D02*
D03*
D37*
X172628Y01791D02*
D03*
Y015941D02*
D03*
X176202Y015941D02*
D03*
Y01791D02*
D03*
D38*
X170628D02*
D03*
Y015941D02*
D03*
X174202Y015941D02*
D03*
Y01791D02*
D03*
D39*
X191565Y01539D02*
D03*
X192565D02*
D03*
X193565D02*
D03*
X195565D02*
D03*
X194565D02*
D03*
D40*
X196565D02*
D03*
D41*
X179039Y043953D02*
D03*
X180039D02*
D03*
X174402D02*
D03*
X175402D02*
D03*
X169402D02*
D03*
X170402D02*
D03*
X164402D02*
D03*
X165402D02*
D03*
X159748D02*
D03*
X160748D02*
D03*
X15511D02*
D03*
X15611D02*
D03*
X150472D02*
D03*
X151472D02*
D03*
X193457Y043953D02*
D03*
X194457D02*
D03*
X188465D02*
D03*
X189465D02*
D03*
X183701Y043953D02*
D03*
X184701D02*
D03*
D42*
X181039D02*
D03*
X176402D02*
D03*
X171402D02*
D03*
X166402D02*
D03*
X161748D02*
D03*
X15711D02*
D03*
X152472D02*
D03*
X195457Y043953D02*
D03*
X190465D02*
D03*
X185701Y043953D02*
D03*
D43*
X180354Y013126D02*
D03*
X181354D02*
D03*
X182354D02*
D03*
D44*
X144059Y02663D02*
D03*
X136831Y031709D02*
D03*
D45*
X137441Y028441D02*
D03*
X142165D02*
D03*
X137365Y023638D02*
D03*
X142165D02*
D03*
X139803Y029228D02*
D03*
M02*
