%FSTAX24Y24*%
%MOIN*%
G70*
G01*
G75*
G04 Layer_Color=8388736*
%ADD10C,0.0787*%
%ADD11C,0.1575*%
%ADD12C,0.1181*%
%ADD13C,0.0591*%
%ADD14C,0.0000*%
%ADD15C,0.1000*%
%ADD16C,0.0591*%
%ADD17R,0.0630X0.0630*%
%ADD18C,0.0630*%
%ADD19C,0.0787*%
%ADD20C,0.2362*%
G04:AMPARAMS|DCode=21|XSize=70mil|YSize=90mil|CornerRadius=0mil|HoleSize=0mil|Usage=FLASHONLY|Rotation=90.000|XOffset=0mil|YOffset=0mil|HoleType=Round|Shape=Octagon|*
%AMOCTAGOND21*
4,1,8,-0.0450,-0.0175,-0.0450,0.0175,-0.0275,0.0350,0.0275,0.0350,0.0450,0.0175,0.0450,-0.0175,0.0275,-0.0350,-0.0275,-0.0350,-0.0450,-0.0175,0.0*
%
%ADD21OCTAGOND21*%

%ADD22C,0.0984*%
%ADD23O,0.0591X0.0512*%
%ADD24R,0.0591X0.0512*%
%ADD25R,0.0800X0.0800*%
%ADD26C,0.0800*%
%ADD27R,0.1000X0.0650*%
%ADD28O,0.1000X0.0650*%
%ADD29R,0.0630X0.0630*%
%ADD30O,0.0787X0.0591*%
%ADD31O,0.0787X0.0630*%
%ADD32O,0.0900X0.0600*%
%ADD33R,0.0900X0.0600*%
%ADD34C,0.0709*%
%ADD35C,0.1181*%
%ADD36R,0.1181X0.1181*%
%ADD37O,0.0650X0.1000*%
%ADD38R,0.0650X0.1000*%
%ADD39O,0.0709X0.0866*%
%ADD40R,0.0709X0.0866*%
%ADD41O,0.0800X0.1000*%
%ADD42R,0.0800X0.1000*%
%ADD43O,0.0630X0.0787*%
%ADD44R,0.0800X0.0800*%
%ADD45C,0.1200*%
%ADD46C,0.0079*%
%ADD47C,0.0100*%
%ADD48C,0.0120*%
%ADD49C,0.0070*%
%ADD50C,0.0150*%
%ADD51C,0.0250*%
%ADD52C,0.0039*%
%ADD53C,0.0080*%
%ADD54R,0.1260X0.0200*%
%ADD55R,0.0550X0.0150*%
%ADD56R,0.0150X0.0550*%
%ADD57R,0.3990X0.0360*%
%ADD58R,0.0200X0.1260*%
%ADD59C,0.1080*%
%ADD60C,0.0671*%
%ADD61R,0.0710X0.0710*%
%ADD62C,0.0710*%
%ADD63C,0.0867*%
%ADD64C,0.2442*%
G04:AMPARAMS|DCode=65|XSize=78mil|YSize=98mil|CornerRadius=0mil|HoleSize=0mil|Usage=FLASHONLY|Rotation=90.000|XOffset=0mil|YOffset=0mil|HoleType=Round|Shape=Octagon|*
%AMOCTAGOND65*
4,1,8,-0.0490,-0.0195,-0.0490,0.0195,-0.0295,0.0390,0.0295,0.0390,0.0490,0.0195,0.0490,-0.0195,0.0295,-0.0390,-0.0295,-0.0390,-0.0490,-0.0195,0.0*
%
%ADD65OCTAGOND65*%

%ADD66C,0.1064*%
%ADD67O,0.0671X0.0592*%
%ADD68R,0.0671X0.0592*%
%ADD69R,0.0880X0.0880*%
%ADD70C,0.0880*%
%ADD71R,0.1080X0.0730*%
%ADD72O,0.1080X0.0730*%
%ADD73R,0.0710X0.0710*%
%ADD74O,0.0867X0.0671*%
%ADD75O,0.0867X0.0710*%
%ADD76O,0.0980X0.0680*%
%ADD77R,0.0980X0.0680*%
%ADD78C,0.0789*%
%ADD79C,0.1261*%
%ADD80R,0.1261X0.1261*%
%ADD81O,0.0730X0.1080*%
%ADD82R,0.0730X0.1080*%
%ADD83O,0.0789X0.0946*%
%ADD84R,0.0789X0.0946*%
%ADD85O,0.0880X0.1080*%
%ADD86R,0.0880X0.1080*%
%ADD87O,0.0710X0.0867*%
%ADD88R,0.0880X0.0880*%
%ADD89C,0.1280*%
D59*
X186276Y021866D02*
D03*
X170528D02*
D03*
X172496D02*
D03*
X174465D02*
D03*
X176433D02*
D03*
X184307D02*
D03*
X182339D02*
D03*
X18037D02*
D03*
X178402D02*
D03*
X186276Y032693D02*
D03*
X178402D02*
D03*
X18037D02*
D03*
X182339D02*
D03*
X184307D02*
D03*
X176433D02*
D03*
X174465D02*
D03*
X172496D02*
D03*
X170528D02*
D03*
X178402Y020882D02*
D03*
X18037D02*
D03*
X182339D02*
D03*
X184307D02*
D03*
X176433D02*
D03*
X174465D02*
D03*
X172496D02*
D03*
X170528D02*
D03*
X186276D02*
D03*
X144882Y030583D02*
D03*
X15011Y030567D02*
D03*
D60*
X139858Y016028D02*
D03*
Y015028D02*
D03*
X142602Y015016D02*
D03*
X143602D02*
D03*
D61*
X143165Y012063D02*
D03*
X146315Y013882D02*
D03*
X180701Y017378D02*
D03*
X183551Y017319D02*
D03*
X186409Y017299D02*
D03*
D62*
X143165Y013063D02*
D03*
X145717Y02226D02*
D03*
X146717D02*
D03*
X146315Y015882D02*
D03*
Y014882D02*
D03*
X180701Y016378D02*
D03*
Y015378D02*
D03*
X183551Y016319D02*
D03*
X186409Y016299D02*
D03*
D63*
X15348Y028913D02*
D03*
Y03226D02*
D03*
X152669Y025567D02*
D03*
X150669D02*
D03*
X178496Y01589D02*
D03*
Y01789D02*
D03*
X151969Y013087D02*
D03*
X15D02*
D03*
X169764Y012968D02*
D03*
X171772D02*
D03*
D64*
X157205Y013795D02*
D03*
X196024Y034661D02*
D03*
X189252Y027024D02*
D03*
X189291Y028795D02*
D03*
X196339Y027102D02*
D03*
Y028795D02*
D03*
X178008Y013087D02*
D03*
D65*
X146882Y031583D02*
D03*
Y030583D02*
D03*
Y029583D02*
D03*
X15211Y031567D02*
D03*
Y030567D02*
D03*
Y029567D02*
D03*
D66*
X167118Y027968D02*
D03*
X155307D02*
D03*
X147378Y045606D02*
D03*
Y047575D02*
D03*
X138323D02*
D03*
Y035764D02*
D03*
Y037732D02*
D03*
Y041669D02*
D03*
Y039701D02*
D03*
Y043638D02*
D03*
Y045606D02*
D03*
X147378Y043638D02*
D03*
Y041669D02*
D03*
Y037732D02*
D03*
Y039701D02*
D03*
Y035764D02*
D03*
D67*
X137953Y021303D02*
D03*
D68*
Y020303D02*
D03*
D69*
X139331Y016988D02*
D03*
D70*
Y019988D02*
D03*
X200346Y043165D02*
D03*
Y044425D02*
D03*
Y048205D02*
D03*
Y046945D02*
D03*
X204402Y048205D02*
D03*
Y043165D02*
D03*
X147059Y02663D02*
D03*
X139831Y031709D02*
D03*
D71*
X146921Y018307D02*
D03*
X145693Y020302D02*
D03*
D72*
X146921Y020307D02*
D03*
X145693Y018302D02*
D03*
D73*
X147717Y02226D02*
D03*
D74*
X140579Y020217D02*
D03*
Y019217D02*
D03*
Y018217D02*
D03*
Y017217D02*
D03*
X143579D02*
D03*
Y018217D02*
D03*
Y019217D02*
D03*
Y020217D02*
D03*
D75*
X141535Y031102D02*
D03*
Y032102D02*
D03*
Y033102D02*
D03*
D76*
X147907Y025055D02*
D03*
Y024055D02*
D03*
X144907D02*
D03*
D77*
Y025055D02*
D03*
D78*
X141339Y016157D02*
D03*
X144339D02*
D03*
X143701Y024898D02*
D03*
Y021898D02*
D03*
X144598Y020449D02*
D03*
Y017449D02*
D03*
X149409Y023087D02*
D03*
Y026087D02*
D03*
X168417Y046953D02*
D03*
Y043953D02*
D03*
X162732D02*
D03*
Y046953D02*
D03*
X167402Y043953D02*
D03*
Y046953D02*
D03*
X172386Y043953D02*
D03*
Y046953D02*
D03*
X177402Y043953D02*
D03*
Y046953D02*
D03*
X182047Y043953D02*
D03*
Y046953D02*
D03*
X158094Y043953D02*
D03*
Y046953D02*
D03*
X153457Y043953D02*
D03*
Y046953D02*
D03*
X196441Y043953D02*
D03*
Y046953D02*
D03*
X191488Y043953D02*
D03*
Y046953D02*
D03*
X192472D02*
D03*
Y043953D02*
D03*
X186811D02*
D03*
Y046953D02*
D03*
X136764Y033126D02*
D03*
X139764D02*
D03*
X173386Y046953D02*
D03*
Y043953D02*
D03*
D79*
X152433Y01911D02*
D03*
X162276Y019071D02*
D03*
X191409Y024268D02*
D03*
Y031512D02*
D03*
D80*
X155425Y01911D02*
D03*
X165268Y019071D02*
D03*
X194402Y024268D02*
D03*
Y031512D02*
D03*
D81*
X172628Y01791D02*
D03*
Y015941D02*
D03*
X176202Y015941D02*
D03*
Y01791D02*
D03*
D82*
X170628D02*
D03*
Y015941D02*
D03*
X174202Y015941D02*
D03*
Y01791D02*
D03*
D83*
X191565Y01539D02*
D03*
X192565D02*
D03*
X193565D02*
D03*
X195565D02*
D03*
X194565D02*
D03*
D84*
X196565D02*
D03*
D85*
X179039Y043953D02*
D03*
X180039D02*
D03*
X174402D02*
D03*
X175402D02*
D03*
X169402D02*
D03*
X170402D02*
D03*
X164402D02*
D03*
X165402D02*
D03*
X159748D02*
D03*
X160748D02*
D03*
X15511D02*
D03*
X15611D02*
D03*
X150472D02*
D03*
X151472D02*
D03*
X193457Y043953D02*
D03*
X194457D02*
D03*
X188465D02*
D03*
X189465D02*
D03*
X183701Y043953D02*
D03*
X184701D02*
D03*
D86*
X181039D02*
D03*
X176402D02*
D03*
X171402D02*
D03*
X166402D02*
D03*
X161748D02*
D03*
X15711D02*
D03*
X152472D02*
D03*
X195457Y043953D02*
D03*
X190465D02*
D03*
X185701Y043953D02*
D03*
D87*
X180354Y013126D02*
D03*
X181354D02*
D03*
X182354D02*
D03*
D88*
X144059Y02663D02*
D03*
X136831Y031709D02*
D03*
D89*
X137441Y028441D02*
D03*
X142165D02*
D03*
X137365Y023638D02*
D03*
X142165D02*
D03*
X139803Y029228D02*
D03*
M02*
