M48
;Layer_Color=9474304
;FILE_FORMAT=2:4
INCH,LZ
;TYPE=PLATED
T1F00S00C0.0276
T2F00S00C0.0310
T3F00S00C0.0315
T4F00S00C0.0320
T5F00S00C0.0340
T6F00S00C0.0350
T7F00S00C0.0390
T8F00S00C0.0394
T9F00S00C0.0400
T10F00S00C0.0433
T11F00S00C0.0450
T12F00S00C0.0472
T13F00S00C0.0750
T14F00S00C0.1181
;TYPE=NON_PLATED
T15F00S00C0.0394
%
T01
X003701Y004933
X006445Y004921
X007445
X003701Y005933
T02
X00875Y013961
Y014961
X01175
Y013961
T03
X007008Y001969
Y002968
X010157Y003787
Y004787
X013843Y002992
X015811
X044197Y003031
X045197
X046197
X044543Y005283
Y006283
Y007283
X047394Y007225
Y006225
X050252Y006205
Y007205
X010157Y005787
X008181Y006063
X008441Y007354
Y010354
X007543Y011803
X009559Y012165
X010559
X011559
X013252Y012992
Y015992
X007543Y014803
X005378Y021008
X005181Y006063
X001795Y010209
Y011209
X000606Y023031
X003606
X005378Y023008
Y022008
X017299Y033858
X021937
X026575
X031244
X03226
X036228
X037228
X041244
X04589
X050654Y033858
X055331
X056315
X060283
Y036858
X056315
X055331
X050654
X04589Y036858
X041244
X037228
X036228
X03226
X031244
X026575
X021937
X017299
T04
X009535Y008207
X010764Y008213
Y010213
X009535Y010207
T05
X007421Y007122
Y008122
Y009122
Y010122
X004421
Y009122
Y008122
Y007122
T06
X007902Y016535
X010902
X003173Y009894
Y006894
X003673Y021614
X000673
T07
X014315Y033858
X015315
X016315
X018953
X019953
X020953
X023591
X024591
X025591
X028244
X029244
X030244
X033244
X034244
X035244
X038244
X039244
X040244
X042882
X043882
X044882
X047543
X048543
X049543
X052307Y033858
X053307
X054307
X057299
X058299
X059299
X064189Y034331
Y033071
X068244
Y03811
X064189
Y03685
T08
X033606Y002874
X035614
X042339Y005795
Y007795
X016512Y015472
X014512
X017323Y018819
Y022165
T09
X010724Y019488
Y020488
X015953Y020472
Y019472
Y021472
X010724Y021488
T10
X055252Y014173
X058244
Y021417
X055252
T11
X006008Y013543
Y018346
X003646Y019134
X001283Y018346
X001208Y013543
T12
X03647Y005847
X038045Y005847
Y007815
X03647
X036339Y010787
X036339Y011772
X038307
X038307Y010787
X040276
X040276Y011772
X042244
X042244Y010787
X044213
X044213Y011772
X046181
X046181Y010787
X04815
X04815Y011772
X050118
X050118Y010787
X040045Y007815
Y005847
X03447Y005847
Y007815
X03437Y010787
X03437Y011772
X02911Y008976
X026118
X030961Y017874
X01915
X019268Y009016
X016276
X002165Y025669
Y027638
Y029606
Y031575
Y033543
Y035512
X01122
Y033543
Y031575
Y029606
Y027638
Y025669
X03437Y022598
X036339
X038307
X040276
X042244
X044213
X046181
X04815
X050118
X01122Y03748
X002165
T13
X008724Y020488
X013953Y020472
T14
X021047Y003701
X04185Y002992
X053094Y016929
X053134Y018701
X060181
Y017008
X059866Y024567
T15
X055407Y005296
X056407
X057407
X058407
X059407
X060407
M30
